<svg width="87" height="68" viewBox="0 0 87 68" fill="none" xmlns="http://www.w3.org/2000/svg">
<path d="M19.3657 67.26C15.4886 67.26 12.1171 66.2486 9.25143 64.2257C6.38572 62.0343 4.19429 59.0843 2.67714 55.3757C1.16 51.6671 0.40143 47.4528 0.40143 42.7329C0.40143 37.0014 1.32857 31.5229 3.18286 26.2971C5.20572 20.9028 8.24 15.93 12.2857 11.3786C16.3314 6.82713 21.5571 3.03427 27.9629 -1.51089e-05L38.5829 9.86142C34.0314 11.3786 29.9857 13.4857 26.4457 16.1828C23.0743 18.88 20.2929 21.9143 18.1014 25.2857C16.0786 28.6571 14.6457 32.1128 13.8029 35.6529L14.8143 36.1586C15.4886 35.6529 16.3314 35.2314 17.3429 34.8943C18.3543 34.5571 19.8714 34.3886 21.8943 34.3886C23.9171 34.3886 26.0243 34.9786 28.2157 36.1586C30.4071 37.3386 32.1771 39.1086 33.5257 41.4686C35.0429 43.66 35.8014 46.61 35.8014 50.3186C35.8014 53.3528 35.0429 56.1343 33.5257 58.6628C32.1771 61.1914 30.2386 63.2986 27.71 64.9843C25.1814 66.5014 22.4 67.26 19.3657 67.26ZM66.9029 67.26C63.0257 67.26 59.6543 66.2486 56.7886 64.2257C53.9229 62.0343 51.7314 59.0843 50.2143 55.3757C48.6971 51.6671 47.9386 47.4528 47.9386 42.7329C47.9386 37.0014 48.8657 31.5229 50.72 26.2971C52.7429 20.9028 55.7771 15.93 59.8229 11.3786C63.8686 6.82713 69.0943 3.03427 75.5 -1.51089e-05L86.12 9.86142C81.5686 11.3786 77.5229 13.4857 73.9829 16.1828C70.6114 18.88 67.83 21.9143 65.6386 25.2857C63.6157 28.6571 62.1829 32.1128 61.34 35.6529L62.3514 36.1586C63.0257 35.6529 63.8686 35.2314 64.88 34.8943C65.8914 34.5571 67.4086 34.3886 69.4314 34.3886C71.4543 34.3886 73.5614 34.9786 75.7529 36.1586C77.9443 37.3386 79.7143 39.1086 81.0629 41.4686C82.58 43.66 83.3386 46.61 83.3386 50.3186C83.3386 53.3528 82.58 56.1343 81.0629 58.6628C79.7143 61.1914 77.7757 63.2986 75.2471 64.9843C72.7186 66.5014 69.9371 67.26 66.9029 67.26Z" fill="#12B7B6"/>
</svg>
