<svg width="724" height="412" viewBox="0 0 724 412" fill="none" xmlns="http://www.w3.org/2000/svg">
<path d="M699.829 32.2666H612.566V409.629H699.829V32.2666Z" fill="url(#paint0_linear_2_413)"/>
<path d="M514.383 409.629H612.578V161.516L514.383 161.516V409.629Z" fill="url(#paint1_linear_2_413)"/>
<path d="M514.371 125.037H443.769V409.628H514.371V125.037Z" fill="url(#paint2_linear_2_413)"/>
<path fill-rule="evenodd" clip-rule="evenodd" d="M532.686 307.826C538.18 307.823 543.553 309.948 548.122 313.933C552.692 317.918 556.255 323.583 558.359 330.212C560.463 336.841 561.015 344.137 559.945 351.176C558.874 358.214 556.229 364.681 552.345 369.756C548.46 374.832 543.51 378.289 538.121 379.69C532.732 381.091 527.146 380.373 522.069 377.628C516.992 374.882 512.653 370.232 509.6 364.265C506.547 358.298 504.917 351.283 504.917 344.107C504.917 334.487 507.843 325.261 513.05 318.458C518.257 311.654 525.32 307.83 532.686 307.826Z" fill="url(#paint3_linear_2_413)"/>
<path fill-rule="evenodd" clip-rule="evenodd" d="M529.717 311.582C533.924 311.582 538.036 313.211 541.534 316.263C545.033 319.316 547.759 323.655 549.369 328.731C550.979 333.808 551.4 339.393 550.579 344.782C549.759 350.171 547.733 355.121 544.758 359.007C541.783 362.892 537.993 365.538 533.867 366.61C529.74 367.682 525.463 367.131 521.576 365.029C517.69 362.926 514.368 359.365 512.03 354.797C509.693 350.228 508.445 344.857 508.445 339.362C508.445 331.995 510.686 324.928 514.676 319.718C518.665 314.508 524.075 311.582 529.717 311.582Z" fill="#ECFCFC"/>
<path d="M532.686 306.107C540.405 305.878 547.879 309.662 553.462 316.629C559.045 323.595 562.28 333.173 562.456 343.255C562.632 353.337 559.735 363.098 554.4 370.389C549.066 377.681 541.733 381.906 534.013 382.136V409.704C533.982 410.134 533.83 410.533 533.585 410.824C533.341 411.115 533.022 411.276 532.692 411.276C532.361 411.276 532.042 411.115 531.798 410.824C531.554 410.533 531.401 410.134 531.37 409.704V382.06C523.651 381.832 516.316 377.609 510.981 370.319C505.646 363.028 502.747 353.269 502.921 343.187C503.095 333.105 506.329 323.526 511.911 316.558C517.493 309.59 524.966 305.804 532.686 306.031V306.107ZM537.646 348.897C537.768 348.737 537.913 348.61 538.073 348.523C538.233 348.436 538.404 348.392 538.577 348.392C538.75 348.392 538.921 348.436 539.081 348.523C539.241 348.61 539.386 348.737 539.509 348.897C539.632 349.055 539.731 349.244 539.798 349.453C539.865 349.662 539.9 349.886 539.9 350.113C539.9 350.34 539.865 350.564 539.798 350.773C539.731 350.982 539.632 351.171 539.509 351.329L534.013 358.522V378.609C540.903 378.158 547.385 374.21 552.076 367.605C556.767 361 559.297 352.262 559.124 343.256C558.952 334.25 556.091 325.688 551.153 319.398C546.215 313.108 539.59 309.587 532.692 309.587C525.794 309.587 519.169 313.108 514.23 319.398C509.292 325.688 506.432 334.25 506.259 343.256C506.087 352.262 508.616 361 513.307 367.605C517.999 374.21 524.481 378.158 531.37 378.609V369.941L521.322 356.819C521.075 356.496 520.937 356.059 520.937 355.602C520.937 355.146 521.075 354.708 521.322 354.386C521.569 354.063 521.905 353.882 522.254 353.882C522.603 353.882 522.938 354.063 523.185 354.386L531.335 365.03V344.107C531.318 343.866 531.339 343.624 531.398 343.395C531.456 343.166 531.551 342.956 531.675 342.778C531.8 342.599 531.951 342.457 532.12 342.359C532.289 342.261 532.472 342.211 532.657 342.211C532.841 342.211 533.024 342.261 533.193 342.359C533.362 342.457 533.514 342.599 533.638 342.778C533.763 342.956 533.857 343.166 533.916 343.395C533.974 343.624 533.995 343.866 533.978 344.107V353.656L537.611 348.897H537.646Z" fill="#434343"/>
<path d="M29.1688 409.629H105.953L105.953 57.8428H29.1688L29.1688 409.629Z" fill="url(#paint4_linear_2_413)"/>
<path d="M29.1684 156.209H7.82715V409.629H29.1684V156.209Z" fill="url(#paint5_linear_2_413)"/>
<path d="M248.554 199.348H105.953V409.628H248.554V199.348Z" fill="url(#paint6_linear_2_413)"/>
<path d="M520.868 409.629C520.868 410.084 520.73 410.521 520.483 410.843C520.236 411.166 519.902 411.347 519.553 411.347C519.204 411.347 518.869 411.166 518.622 410.843C518.376 410.521 518.237 410.084 518.237 409.629V400.247H493.228V409.629C493.197 410.058 493.045 410.458 492.8 410.748C492.556 411.039 492.237 411.2 491.907 411.2C491.576 411.2 491.258 411.039 491.013 410.748C490.769 410.458 490.616 410.058 490.585 409.629V400.247H486.976V396.734H490.585V393.921H486.976V390.469H490.585V387.656H486.976V384.265H524.489V387.717H520.868V390.53H524.489V393.982H520.868V396.734H524.489V400.186H520.868V409.568V409.629ZM493.228 387.717V390.53H518.237V387.717H493.228ZM493.228 393.982V396.734H518.237V393.921L493.228 393.982Z" fill="#434343"/>
<path fill-rule="evenodd" clip-rule="evenodd" d="M235.351 307.826C240.846 307.823 246.218 309.948 250.788 313.933C255.358 317.918 258.92 323.583 261.025 330.212C263.129 336.841 263.681 344.137 262.61 351.176C261.54 358.214 258.895 364.681 255.01 369.756C251.126 374.832 246.176 378.289 240.787 379.69C235.398 381.091 229.811 380.373 224.735 377.628C219.658 374.882 215.319 370.232 212.266 364.265C209.213 358.298 207.583 351.283 207.583 344.107C207.583 334.487 210.508 325.261 215.715 318.458C220.923 311.654 227.986 307.83 235.351 307.826Z" fill="url(#paint7_linear_2_413)"/>
<path fill-rule="evenodd" clip-rule="evenodd" d="M232.382 311.582C236.589 311.582 240.702 313.211 244.2 316.263C247.698 319.316 250.425 323.655 252.034 328.731C253.644 333.808 254.066 339.393 253.245 344.782C252.424 350.171 250.398 355.121 247.423 359.007C244.449 362.892 240.658 365.538 236.532 366.61C232.406 367.682 228.129 367.131 224.242 365.029C220.355 362.926 217.033 359.365 214.696 354.797C212.358 350.228 211.111 344.857 211.111 339.362C211.111 331.995 213.352 324.928 217.341 319.718C221.33 314.508 226.741 311.582 232.382 311.582Z" fill="#ECFCFC"/>
<path d="M240.311 348.897C240.433 348.737 240.578 348.61 240.738 348.523C240.898 348.436 241.069 348.392 241.242 348.392C241.416 348.392 241.587 348.436 241.747 348.523C241.907 348.61 242.052 348.737 242.174 348.897C242.298 349.055 242.396 349.244 242.463 349.453C242.531 349.662 242.565 349.886 242.565 350.113C242.565 350.34 242.531 350.564 242.463 350.773C242.396 350.982 242.298 351.171 242.174 351.33L236.679 358.522V378.609C243.568 378.158 250.05 374.21 254.741 367.605C259.433 361 261.962 352.263 261.79 343.256C261.617 334.25 258.757 325.688 253.818 319.398C248.88 313.108 242.255 309.587 235.357 309.587C228.459 309.587 221.834 313.108 216.896 319.398C211.957 325.688 209.097 334.25 208.924 343.256C208.752 352.263 211.281 361 215.973 367.605C220.664 374.21 227.146 378.158 234.036 378.609V369.941L223.988 356.819C223.864 356.66 223.765 356.471 223.698 356.262C223.631 356.053 223.596 355.829 223.596 355.602C223.596 355.376 223.631 355.151 223.698 354.943C223.765 354.734 223.864 354.544 223.988 354.386C224.11 354.226 224.255 354.099 224.415 354.012C224.575 353.926 224.746 353.881 224.919 353.881C225.092 353.881 225.264 353.926 225.423 354.012C225.583 354.099 225.728 354.226 225.851 354.386L234.001 365.03V344.107C233.983 343.867 234.005 343.624 234.063 343.395C234.122 343.166 234.216 342.956 234.341 342.778C234.465 342.599 234.617 342.457 234.786 342.359C234.955 342.262 235.137 342.211 235.322 342.211C235.507 342.211 235.69 342.262 235.859 342.359C236.028 342.457 236.179 342.599 236.304 342.778C236.428 342.956 236.522 343.166 236.581 343.395C236.64 343.624 236.661 343.867 236.644 344.107V353.656L240.276 348.897H240.311ZM236.679 382.06V409.628C236.648 410.058 236.495 410.457 236.251 410.748C236.006 411.039 235.688 411.2 235.357 411.2C235.027 411.2 234.708 411.039 234.464 410.748C234.219 410.457 234.066 410.058 234.036 409.628V382.06C226.438 381.609 219.278 377.293 214.086 370.034C208.895 362.776 206.085 353.152 206.258 343.222C206.43 333.292 209.572 323.845 215.01 316.901C220.449 309.958 227.752 306.071 235.357 306.071C242.962 306.071 250.265 309.958 255.704 316.901C261.142 323.845 264.284 333.292 264.457 343.222C264.629 353.152 261.819 362.776 256.628 370.034C251.436 377.293 244.276 381.609 236.679 382.06Z" fill="#434343"/>
<path fill-rule="evenodd" clip-rule="evenodd" d="M653.875 137.232V126.755H663.643V182.424V192.916H665.972V201.72H663.643V326.635H665.972V335.44H663.643V409.629H549.427V335.44H547.099V326.635H549.427V201.72H547.099V192.916H549.427V182.439V126.755H559.196V137.232H653.875Z" fill="white"/>
<path fill-rule="evenodd" clip-rule="evenodd" d="M569.837 355.724H613.894V403.288H569.837V355.724Z" fill="url(#paint8_linear_2_413)"/>
<path fill-rule="evenodd" clip-rule="evenodd" d="M568.719 403.288H582.574L613.893 379.658V369.212L568.719 403.288Z" fill="url(#paint9_linear_2_413)"/>
<path d="M643.362 192.976C643.331 193.406 643.179 193.805 642.934 194.096C642.69 194.387 642.371 194.548 642.041 194.548C641.71 194.548 641.392 194.387 641.147 194.096C640.903 193.805 640.75 193.406 640.719 192.976V137.232C640.75 136.802 640.903 136.403 641.147 136.112C641.392 135.822 641.71 135.661 642.041 135.661C642.371 135.661 642.69 135.822 642.934 136.112C643.179 136.403 643.331 136.802 643.362 137.232V192.976ZM572.341 192.976C572.31 193.406 572.158 193.805 571.913 194.096C571.669 194.387 571.35 194.548 571.02 194.548C570.689 194.548 570.371 194.387 570.126 194.096C569.882 193.805 569.729 193.406 569.698 192.976V137.232C569.729 136.802 569.882 136.403 570.126 136.112C570.371 135.822 570.689 135.661 571.02 135.661C571.35 135.661 571.669 135.822 571.913 136.112C572.158 136.403 572.31 136.802 572.341 137.232V192.976ZM584.17 181.207C584.17 181.663 584.032 182.1 583.785 182.422C583.538 182.744 583.204 182.925 582.855 182.925C582.506 182.925 582.171 182.744 581.924 182.422C581.678 182.1 581.539 181.663 581.539 181.207V137.232C581.539 136.776 581.678 136.339 581.924 136.017C582.171 135.695 582.506 135.514 582.855 135.514C583.204 135.514 583.538 135.695 583.785 136.017C584.032 136.339 584.17 136.776 584.17 137.232V181.146V181.207ZM596.011 174.228C595.98 174.658 595.828 175.057 595.583 175.347C595.339 175.638 595.02 175.799 594.69 175.799C594.359 175.799 594.04 175.638 593.796 175.347C593.552 175.057 593.399 174.658 593.368 174.228V137.232C593.399 136.802 593.552 136.403 593.796 136.112C594.04 135.822 594.359 135.661 594.69 135.661C595.02 135.661 595.339 135.822 595.583 136.112C595.828 136.403 595.98 136.802 596.011 137.232V174.167V174.228ZM607.817 167.127C607.817 167.582 607.678 168.019 607.431 168.342C607.185 168.664 606.85 168.845 606.501 168.845C606.152 168.845 605.818 168.664 605.571 168.342C605.324 168.019 605.186 167.582 605.186 167.127V137.171C605.186 136.716 605.324 136.279 605.571 135.956C605.818 135.634 606.152 135.453 606.501 135.453C606.85 135.453 607.185 135.634 607.431 135.956C607.678 136.279 607.817 136.716 607.817 137.171V167.127ZM619.658 174.106C619.627 174.536 619.474 174.935 619.23 175.226C618.985 175.516 618.667 175.677 618.336 175.677C618.006 175.677 617.687 175.516 617.443 175.226C617.198 174.935 617.046 174.536 617.015 174.106V137.232C617.046 136.802 617.198 136.403 617.443 136.112C617.687 135.822 618.006 135.661 618.336 135.661C618.667 135.661 618.985 135.822 619.23 136.112C619.474 136.403 619.627 136.802 619.658 137.232V174.167V174.106ZM631.487 181.086C631.487 181.541 631.348 181.978 631.101 182.301C630.855 182.623 630.52 182.804 630.171 182.804C629.822 182.804 629.487 182.623 629.241 182.301C628.994 181.978 628.855 181.541 628.855 181.086V137.232C628.855 136.776 628.994 136.339 629.241 136.017C629.487 135.695 629.822 135.514 630.171 135.514C630.52 135.514 630.855 135.695 631.101 136.017C631.348 136.339 631.487 136.776 631.487 137.232V181.146V181.086Z" fill="url(#paint10_linear_2_413)"/>
<path fill-rule="evenodd" clip-rule="evenodd" d="M549.428 207.544H663.644V213.003H549.428V207.544Z" fill="url(#paint11_linear_2_413)"/>
<path fill-rule="evenodd" clip-rule="evenodd" d="M549.428 335.439H663.644V340.883H549.428V335.439Z" fill="url(#paint12_linear_2_413)"/>
<path fill-rule="evenodd" clip-rule="evenodd" d="M603.054 222.658H613.894V252.887H603.054V222.658Z" fill="url(#paint13_linear_2_413)"/>
<path fill-rule="evenodd" clip-rule="evenodd" d="M569.837 222.658H580.677V252.887H569.837V222.658Z" fill="url(#paint14_linear_2_413)"/>
<path fill-rule="evenodd" clip-rule="evenodd" d="M636.271 289.183H647.111V319.412H636.271V289.183Z" fill="url(#paint15_linear_2_413)"/>
<path fill-rule="evenodd" clip-rule="evenodd" d="M603.054 289.183H613.894V319.412H603.054V289.183Z" fill="url(#paint16_linear_2_413)"/>
<path fill-rule="evenodd" clip-rule="evenodd" d="M569.837 289.183H580.677V319.412H569.837V289.183Z" fill="url(#paint17_linear_2_413)"/>
<path fill-rule="evenodd" clip-rule="evenodd" d="M636.271 355.724H647.111V403.288H636.271V355.724Z" fill="url(#paint18_linear_2_413)"/>
<path fill-rule="evenodd" clip-rule="evenodd" d="M636.271 222.658H647.111V252.887H636.271V222.658Z" fill="url(#paint19_linear_2_413)"/>
<path fill-rule="evenodd" clip-rule="evenodd" d="M571.956 358.978C571.981 359.513 571.923 360.049 571.784 360.553C571.645 361.057 571.428 361.518 571.147 361.908C570.866 362.299 570.527 362.61 570.15 362.823C569.774 363.035 569.368 363.145 568.958 363.145C568.548 363.145 568.142 363.035 567.765 362.823C567.389 362.61 567.05 362.299 566.769 361.908C566.488 361.518 566.271 361.057 566.132 360.553C565.993 360.049 565.934 359.513 565.96 358.978V348.836H571.956V358.978Z" fill="white"/>
<path fill-rule="evenodd" clip-rule="evenodd" d="M577.941 358.978C577.941 359.491 577.863 359.999 577.713 360.473C577.563 360.948 577.342 361.378 577.065 361.741C576.787 362.104 576.457 362.392 576.094 362.588C575.731 362.785 575.342 362.886 574.949 362.886C574.556 362.886 574.167 362.785 573.804 362.588C573.441 362.392 573.111 362.104 572.833 361.741C572.555 361.378 572.335 360.948 572.184 360.473C572.034 359.999 571.957 359.491 571.957 358.978V348.836H577.941V358.978Z" fill="url(#paint20_linear_2_413)"/>
<path fill-rule="evenodd" clip-rule="evenodd" d="M583.937 358.978C583.962 359.513 583.904 360.049 583.765 360.553C583.626 361.057 583.409 361.518 583.128 361.908C582.847 362.299 582.508 362.61 582.131 362.823C581.755 363.035 581.349 363.145 580.939 363.145C580.529 363.145 580.123 363.035 579.746 362.823C579.37 362.61 579.031 362.299 578.75 361.908C578.469 361.518 578.252 361.057 578.113 360.553C577.974 360.049 577.915 359.513 577.941 358.978V348.836H583.937V358.978Z" fill="white"/>
<path fill-rule="evenodd" clip-rule="evenodd" d="M589.933 358.978C589.959 359.513 589.9 360.049 589.761 360.553C589.622 361.057 589.405 361.518 589.124 361.908C588.843 362.299 588.504 362.61 588.128 362.823C587.751 363.035 587.345 363.145 586.935 363.145C586.525 363.145 586.119 363.035 585.742 362.823C585.366 362.61 585.027 362.299 584.746 361.908C584.465 361.518 584.248 361.057 584.109 360.553C583.97 360.049 583.911 359.513 583.937 358.978V348.836H589.933V358.978Z" fill="url(#paint21_linear_2_413)"/>
<path fill-rule="evenodd" clip-rule="evenodd" d="M595.918 358.978C595.918 359.491 595.841 359.999 595.69 360.473C595.54 360.948 595.319 361.378 595.042 361.741C594.764 362.104 594.434 362.392 594.071 362.588C593.708 362.785 593.319 362.886 592.926 362.886C592.533 362.886 592.144 362.785 591.781 362.588C591.418 362.392 591.088 362.104 590.81 361.741C590.532 361.378 590.312 360.948 590.161 360.473C590.011 359.999 589.934 359.491 589.934 358.978V348.836H595.918V358.978Z" fill="white"/>
<path fill-rule="evenodd" clip-rule="evenodd" d="M601.913 358.978C601.939 359.513 601.88 360.049 601.741 360.553C601.602 361.057 601.385 361.518 601.105 361.908C600.824 362.299 600.485 362.61 600.108 362.823C599.732 363.035 599.326 363.145 598.915 363.145C598.505 363.145 598.099 363.035 597.723 362.823C597.346 362.61 597.007 362.299 596.726 361.908C596.445 361.518 596.229 361.057 596.09 360.553C595.951 360.049 595.892 359.513 595.917 358.978V348.836H601.913V358.978Z" fill="url(#paint22_linear_2_413)"/>
<path fill-rule="evenodd" clip-rule="evenodd" d="M607.897 358.978C607.897 359.491 607.82 359.999 607.67 360.473C607.519 360.948 607.299 361.378 607.021 361.741C606.743 362.104 606.413 362.392 606.05 362.588C605.687 362.785 605.298 362.886 604.905 362.886C604.512 362.886 604.123 362.785 603.76 362.588C603.397 362.392 603.067 362.104 602.789 361.741C602.512 361.378 602.291 360.948 602.141 360.473C601.99 359.999 601.913 359.491 601.913 358.978V348.836H607.897V358.978Z" fill="white"/>
<path fill-rule="evenodd" clip-rule="evenodd" d="M613.895 358.978C613.92 359.513 613.862 360.049 613.723 360.553C613.584 361.057 613.367 361.518 613.086 361.908C612.805 362.299 612.466 362.61 612.089 362.823C611.713 363.035 611.307 363.145 610.897 363.145C610.487 363.145 610.081 363.035 609.704 362.823C609.328 362.61 608.989 362.299 608.708 361.908C608.427 361.518 608.21 361.057 608.071 360.553C607.932 360.049 607.873 359.513 607.899 358.978V348.836H613.895V358.978Z" fill="url(#paint23_linear_2_413)"/>
<path d="M576.625 348.836C576.656 348.406 576.809 348.007 577.053 347.716C577.298 347.426 577.616 347.265 577.947 347.265C578.277 347.265 578.596 347.426 578.84 347.716C579.085 348.007 579.237 348.406 579.268 348.836V358.978C579.277 359.55 579.458 360.093 579.772 360.492C580.086 360.89 580.507 361.111 580.945 361.107C581.382 361.09 581.799 360.856 582.109 360.453C582.264 360.255 582.387 360.018 582.471 359.757C582.555 359.496 582.598 359.216 582.598 358.933V348.836C582.598 348.38 582.737 347.943 582.983 347.621C583.23 347.299 583.565 347.118 583.914 347.118C584.263 347.118 584.597 347.299 584.844 347.621C585.091 347.943 585.229 348.38 585.229 348.836V358.978C585.228 359.266 585.27 359.552 585.354 359.818C585.437 360.085 585.561 360.327 585.717 360.531C585.873 360.735 586.058 360.896 586.262 361.005C586.467 361.115 586.685 361.17 586.906 361.168C587.343 361.148 587.758 360.915 588.07 360.514C588.375 360.108 588.547 359.562 588.547 358.993V348.836C588.578 348.406 588.731 348.007 588.975 347.716C589.22 347.426 589.538 347.265 589.869 347.265C590.199 347.265 590.518 347.426 590.763 347.716C591.007 348.007 591.159 348.406 591.19 348.836V358.963C591.195 359.534 591.371 360.079 591.679 360.484C591.993 360.877 592.409 361.1 592.844 361.107C593.281 361.09 593.698 360.856 594.008 360.453C594.163 360.255 594.286 360.018 594.37 359.757C594.454 359.496 594.497 359.216 594.497 358.933V348.836C594.497 348.38 594.636 347.943 594.882 347.621C595.129 347.299 595.464 347.118 595.813 347.118C596.162 347.118 596.496 347.299 596.743 347.621C596.99 347.943 597.128 348.38 597.128 348.836V358.963C597.125 359.524 597.283 360.066 597.571 360.484H597.629C597.938 360.888 598.356 361.117 598.793 361.122C599.231 361.105 599.647 360.872 599.957 360.468C600.263 360.063 600.434 359.517 600.435 358.948V348.836C600.466 348.406 600.618 348.007 600.863 347.716C601.107 347.426 601.426 347.265 601.756 347.265C602.087 347.265 602.405 347.426 602.65 347.716C602.894 348.007 603.047 348.406 603.078 348.836V358.963C603.069 359.526 603.228 360.071 603.52 360.484C603.83 360.886 604.247 361.116 604.684 361.122C605.122 361.105 605.538 360.872 605.849 360.468C606.159 360.066 606.335 359.519 606.338 358.948V358.872V348.836C606.369 348.406 606.521 348.007 606.766 347.716C607.01 347.426 607.329 347.265 607.659 347.265C607.99 347.265 608.308 347.426 608.553 347.716C608.797 348.007 608.95 348.406 608.981 348.836V358.978C608.973 359.538 609.127 360.08 609.411 360.499C609.721 360.902 610.139 361.131 610.576 361.137C611.013 361.121 611.43 360.887 611.74 360.484C612.045 360.078 612.217 359.532 612.217 358.963C612.217 358.507 612.356 358.07 612.603 357.748C612.849 357.426 613.184 357.245 613.533 357.245C613.882 357.245 614.217 357.426 614.463 357.748C614.71 358.07 614.849 358.507 614.849 358.963C614.847 359.696 614.734 360.422 614.516 361.098C614.298 361.774 613.98 362.387 613.58 362.901C612.784 363.939 611.711 364.533 610.587 364.559C609.473 364.577 608.397 364.032 607.583 363.038C606.784 364.004 605.738 364.546 604.65 364.559C603.856 363.546 602.79 362.98 601.681 362.98C600.571 362.98 599.506 363.546 598.712 364.559C597.601 364.576 596.529 364.031 595.719 363.038C594.917 364.007 593.867 364.55 592.774 364.559C591.98 363.546 590.914 362.98 589.805 362.98C588.695 362.98 587.63 363.546 586.836 364.559H586.778C585.667 364.576 584.595 364.031 583.786 363.038C582.982 364.005 581.932 364.547 580.84 364.559C579.726 364.577 578.65 364.032 577.836 363.038C577.037 364.004 575.991 364.546 574.902 364.559H574.844C574.05 363.546 572.985 362.98 571.875 362.98C570.765 362.98 569.7 363.546 568.906 364.559C568.341 364.56 567.781 364.413 567.259 364.129C566.737 363.844 566.264 363.427 565.867 362.901C565.059 361.838 564.607 360.4 564.61 358.902C564.641 358.472 564.793 358.073 565.038 357.783C565.282 357.492 565.601 357.331 565.931 357.331C566.262 357.331 566.58 357.492 566.825 357.783C567.069 358.073 567.222 358.472 567.253 358.902C567.258 359.473 567.433 360.018 567.742 360.423C568.053 360.821 568.47 361.045 568.906 361.046C569.344 361.029 569.76 360.796 570.07 360.392C570.225 360.194 570.347 359.958 570.429 359.696C570.511 359.435 570.551 359.154 570.548 358.872V358.796V348.836C570.579 348.406 570.731 348.007 570.976 347.716C571.22 347.426 571.539 347.265 571.869 347.265C572.2 347.265 572.518 347.426 572.763 347.716C573.007 348.007 573.16 348.406 573.191 348.836V358.978C573.182 359.541 573.341 360.086 573.633 360.499C573.943 360.902 574.36 361.131 574.797 361.137C575.235 361.124 575.653 360.889 575.962 360.484C576.118 360.286 576.241 360.05 576.325 359.789C576.409 359.527 576.452 359.246 576.451 358.963V358.887V348.836H576.625Z" fill="#434343"/>
<path d="M615.209 409.629C615.179 410.058 615.026 410.458 614.782 410.748C614.537 411.039 614.219 411.2 613.888 411.2C613.558 411.2 613.239 411.039 612.994 410.748C612.75 410.458 612.598 410.058 612.567 409.629V405.067H567.288V409.629C567.257 410.058 567.104 410.458 566.86 410.748C566.615 411.039 566.297 411.2 565.966 411.2C565.636 411.2 565.317 411.039 565.073 410.748C564.828 410.458 564.676 410.058 564.645 409.629V403.288V389.222V348.836C564.645 348.38 564.783 347.943 565.03 347.621C565.277 347.299 565.611 347.118 565.96 347.118H613.894C614.243 347.118 614.577 347.299 614.824 347.621C615.071 347.943 615.209 348.38 615.209 348.836V409.659V409.629ZM645.795 405.067H633.722V409.629C633.691 410.058 633.538 410.458 633.294 410.748C633.049 411.039 632.731 411.2 632.4 411.2C632.07 411.2 631.751 411.039 631.507 410.748C631.262 410.458 631.11 410.058 631.079 409.629V348.805C631.079 348.35 631.217 347.913 631.464 347.59C631.711 347.268 632.045 347.087 632.394 347.087H647.111C647.284 347.085 647.456 347.128 647.616 347.214C647.777 347.299 647.922 347.426 648.045 347.586C648.167 347.746 648.264 347.936 648.329 348.145C648.395 348.355 648.428 348.579 648.426 348.805V409.629C648.426 410.084 648.288 410.521 648.041 410.844C647.794 411.166 647.46 411.347 647.111 411.347C646.762 411.347 646.427 411.166 646.181 410.844C645.934 410.521 645.795 410.084 645.795 409.629V405.067ZM636.271 401.615H645.795V390.971H636.271V401.615ZM636.271 387.535H645.795V355.678H636.271V387.443V387.535ZM557.88 184.157H550.766V191.182H557.892V184.157H557.88ZM550.766 180.706H557.892V128.489H550.766V180.706ZM548.124 191.182V126.755C548.124 126.3 548.262 125.863 548.509 125.54C548.756 125.218 549.09 125.037 549.439 125.037H559.208C559.381 125.035 559.553 125.078 559.713 125.164C559.873 125.249 560.019 125.376 560.141 125.536C560.264 125.696 560.361 125.886 560.426 126.095C560.492 126.305 560.525 126.529 560.523 126.755V135.514H652.571V126.755C652.57 126.529 652.603 126.305 652.668 126.095C652.734 125.886 652.831 125.696 652.953 125.536C653.076 125.376 653.221 125.249 653.382 125.164C653.542 125.078 653.714 125.035 653.887 125.037H663.702C664.051 125.037 664.385 125.218 664.632 125.54C664.879 125.863 665.018 126.3 665.018 126.755V191.182H666.03C666.204 191.182 666.376 191.227 666.537 191.315C666.697 191.402 666.843 191.53 666.965 191.691C667.087 191.852 667.184 192.043 667.249 192.254C667.315 192.464 667.348 192.689 667.346 192.916V201.72C667.346 202.176 667.207 202.613 666.961 202.935C666.714 203.257 666.379 203.438 666.03 203.438H665.018V207.529V324.902H666.03C666.379 324.902 666.714 325.083 666.961 325.405C667.207 325.727 667.346 326.165 667.346 326.62V335.424C667.348 335.651 667.315 335.875 667.249 336.084C667.184 336.294 667.087 336.484 666.964 336.644C666.842 336.804 666.696 336.93 666.536 337.016C666.375 337.102 666.204 337.145 666.03 337.143H665.018V409.613C664.987 410.043 664.834 410.442 664.59 410.733C664.345 411.024 664.027 411.185 663.696 411.185C663.366 411.185 663.047 411.024 662.803 410.733C662.558 410.442 662.406 410.043 662.375 409.613V337.158H550.766V409.629C550.736 410.058 550.583 410.458 550.339 410.748C550.094 411.039 549.776 411.2 549.445 411.2C549.114 411.2 548.796 411.039 548.551 410.748C548.307 410.458 548.154 410.058 548.124 409.629V337.158H547.111C546.937 337.16 546.766 337.117 546.605 337.031C546.445 336.945 546.299 336.819 546.177 336.659C546.054 336.499 545.958 336.309 545.892 336.099C545.826 335.89 545.793 335.666 545.795 335.44V326.635C545.795 326.18 545.934 325.743 546.18 325.42C546.427 325.098 546.762 324.917 547.111 324.917H548.124V203.438H547.111C546.762 203.438 546.427 203.257 546.18 202.935C545.934 202.613 545.795 202.176 545.795 201.72V192.977C545.793 192.75 545.826 192.525 545.892 192.314C545.957 192.104 546.054 191.913 546.176 191.752C546.299 191.591 546.444 191.463 546.604 191.375C546.765 191.288 546.937 191.243 547.111 191.243L548.124 191.182ZM560.523 138.966V191.182H579.361V182.439C579.362 182.09 579.444 181.749 579.595 181.461C579.747 181.174 579.962 180.953 580.211 180.827L606 165.621C606.172 165.52 606.359 165.467 606.547 165.467C606.736 165.467 606.923 165.52 607.094 165.621L632.942 180.827C633.167 180.96 633.36 181.173 633.498 181.442C633.636 181.711 633.713 182.024 633.722 182.348V191.091H652.56V138.966H560.523ZM655.203 180.706H662.328V128.489H655.203V180.706ZM662.328 184.157H655.203V191.182H662.328V184.157ZM631.102 191.182V183.579L606.559 169.104L582.016 183.579V191.182H631.102ZM636.295 237.393H645.819V222.658H636.295V237.393ZM645.819 240.844H636.295V251.169H645.819V240.844ZM647.134 254.621H632.394C632.048 254.609 631.72 254.421 631.478 254.097C631.237 253.773 631.102 253.339 631.102 252.887V215.785C631.102 215.328 631.24 214.89 631.487 214.565C631.733 214.24 632.068 214.056 632.418 214.052H647.134C647.308 214.052 647.48 214.097 647.64 214.184C647.801 214.271 647.946 214.399 648.069 214.56C648.191 214.722 648.288 214.913 648.353 215.123C648.418 215.333 648.451 215.558 648.45 215.785V252.887C648.451 253.114 648.418 253.339 648.353 253.55C648.288 253.76 648.191 253.951 648.069 254.112C647.946 254.273 647.801 254.401 647.64 254.489C647.48 254.576 647.308 254.621 647.134 254.621ZM603.078 237.393H612.59V222.658H603.078V237.393ZM612.59 240.844H603.078V251.169H612.59V240.844ZM613.917 254.621H599.177C598.827 254.617 598.493 254.432 598.246 254.108C598 253.783 597.862 253.344 597.862 252.887V215.785C597.862 215.328 598 214.89 598.246 214.565C598.493 214.24 598.827 214.056 599.177 214.052H613.894C614.244 214.056 614.578 214.24 614.825 214.565C615.071 214.89 615.21 215.328 615.209 215.785V252.887C615.21 253.344 615.071 253.783 614.825 254.108C614.578 254.432 614.244 254.617 613.894 254.621H613.917ZM569.861 237.393H579.373V222.658H569.861V237.393ZM579.373 240.844H569.861V251.169H579.373V240.844ZM580.7 254.621H565.96C565.61 254.617 565.276 254.432 565.029 254.108C564.783 253.783 564.645 253.344 564.645 252.887V215.785C564.645 215.328 564.783 214.89 565.029 214.565C565.276 214.24 565.61 214.056 565.96 214.052H580.677C581.027 214.056 581.361 214.24 581.608 214.565C581.854 214.89 581.993 215.328 581.993 215.785V252.887C581.993 253.344 581.854 253.783 581.608 254.108C581.361 254.432 581.027 254.617 580.677 254.621H580.7ZM637.086 275.909H631.335L631.859 280.547H647.693L648.217 275.909H642.465C642.117 275.905 641.785 275.723 641.538 275.401C641.292 275.08 641.153 274.645 641.15 274.191V273.172H638.402V274.191C638.402 274.646 638.263 275.083 638.017 275.406C637.77 275.728 637.435 275.909 637.086 275.909ZM631.102 284.029H630.718C630.396 284.028 630.085 283.873 629.844 283.592C629.604 283.312 629.451 282.926 629.414 282.508L628.517 274.51C628.512 274.399 628.512 274.287 628.517 274.175C628.517 273.718 628.655 273.28 628.902 272.955C629.148 272.63 629.483 272.446 629.833 272.442H635.759V271.423C635.759 270.967 635.898 270.53 636.144 270.208C636.391 269.886 636.726 269.705 637.075 269.705H642.454C642.804 269.705 643.14 269.885 643.388 270.207C643.637 270.529 643.778 270.966 643.781 271.423V272.442H649.73C650.083 272.442 650.42 272.625 650.669 272.95C650.918 273.275 651.058 273.716 651.058 274.175C651.069 274.286 651.069 274.399 651.058 274.51L650.161 282.508C650.124 282.926 649.971 283.312 649.731 283.592C649.49 283.873 649.179 284.028 648.857 284.029H648.473V319.428C648.473 319.884 648.334 320.321 648.088 320.643C647.841 320.965 647.506 321.146 647.157 321.146H632.394C632.046 321.142 631.713 320.96 631.467 320.638C631.221 320.317 631.082 319.882 631.079 319.428V284.029H631.102ZM636.271 303.979H645.795V289.244H636.271V303.979ZM645.795 307.43H636.271V317.664H645.795V307.339V307.43ZM603.054 303.979H612.567V289.244H603.054V303.979ZM612.567 307.43H603.054V317.664H612.567V307.339V307.43ZM613.894 321.207H599.177C598.829 321.203 598.497 321.021 598.25 320.699C598.004 320.378 597.865 319.943 597.862 319.489V284.029H597.477C597.155 284.028 596.844 283.873 596.604 283.592C596.364 283.312 596.211 282.926 596.174 282.508L595.277 274.51C595.265 274.399 595.265 274.286 595.277 274.175C595.275 273.949 595.308 273.723 595.374 273.513C595.439 273.303 595.536 273.112 595.658 272.951C595.781 272.789 595.926 272.662 596.086 272.574C596.247 272.487 596.419 272.442 596.593 272.442H602.554V271.423C602.554 270.967 602.692 270.53 602.939 270.208C603.186 269.886 603.52 269.705 603.869 269.705H609.574C609.923 269.705 610.258 269.886 610.505 270.208C610.751 270.53 610.89 270.967 610.89 271.423V272.442H616.525C616.699 272.442 616.871 272.487 617.031 272.574C617.192 272.662 617.337 272.789 617.46 272.951C617.582 273.112 617.679 273.303 617.744 273.513C617.809 273.723 617.842 273.949 617.841 274.175C617.852 274.286 617.852 274.399 617.841 274.51L616.944 282.508C616.907 282.926 616.754 283.312 616.514 283.592C616.273 283.873 615.962 284.028 615.64 284.029H615.256V319.428C615.253 319.882 615.113 320.317 614.867 320.638C614.621 320.96 614.288 321.142 613.94 321.146L613.894 321.207ZM599.177 280.638H614.453L614.977 276H609.551C609.202 276 608.868 275.819 608.621 275.497C608.374 275.175 608.235 274.738 608.235 274.282V273.263H605.162V274.282C605.162 274.738 605.023 275.175 604.776 275.497C604.53 275.819 604.195 276 603.846 276H598.095L598.618 280.638H599.177ZM569.837 317.664H579.35V307.339H569.837V317.664ZM579.35 303.888V289.153H569.837V303.979L579.35 303.888ZM571.945 274.191C571.942 274.645 571.802 275.08 571.556 275.401C571.31 275.723 570.977 275.905 570.629 275.909H564.878L565.402 280.547H581.236L581.76 275.909H576.008C575.659 275.909 575.325 275.728 575.078 275.406C574.831 275.083 574.692 274.646 574.692 274.191V273.172H571.945V274.191ZM564.645 283.998H564.261C563.938 283.997 563.628 283.842 563.387 283.562C563.147 283.282 562.994 282.896 562.956 282.478L562.06 274.48C562.049 274.369 562.049 274.256 562.06 274.145C562.058 273.918 562.091 273.693 562.157 273.483C562.222 273.273 562.319 273.081 562.441 272.92C562.564 272.759 562.709 272.631 562.87 272.544C563.03 272.457 563.202 272.412 563.376 272.412H569.325V271.393C569.328 270.936 569.469 270.499 569.718 270.177C569.967 269.855 570.302 269.675 570.652 269.675H576.031C576.38 269.675 576.715 269.856 576.962 270.178C577.208 270.5 577.347 270.937 577.347 271.393V272.412H583.308C583.658 272.416 583.993 272.6 584.239 272.925C584.486 273.249 584.624 273.688 584.624 274.145C584.63 274.256 584.63 274.368 584.624 274.48L583.727 282.478C583.69 282.896 583.537 283.282 583.297 283.562C583.056 283.842 582.746 283.997 582.423 283.998H582.039V319.397C582.036 319.852 581.896 320.287 581.65 320.608C581.404 320.929 581.071 321.112 580.723 321.116H565.96C565.612 321.112 565.279 320.929 565.033 320.608C564.787 320.287 564.648 319.852 564.645 319.397V284.029V283.998ZM662.316 209.247H550.766V324.811H662.328V209.247H662.316ZM550.766 205.825H662.328V203.438H550.766V205.825ZM548.438 199.986H664.68V194.634H548.438V199.986ZM548.438 333.721H664.68V328.308H548.438V333.66V333.721ZM602.228 401.569V390.925H577.65V401.569H602.228ZM602.228 387.489V362.46C602.228 362.005 602.366 361.567 602.613 361.245C602.86 360.923 603.194 360.742 603.543 360.742C603.892 360.742 604.227 360.923 604.474 361.245C604.72 361.567 604.859 362.005 604.859 362.46V387.489H612.59V350.554H567.288V363.038H569.837V387.489H575.019V362.445C575.019 361.989 575.157 361.552 575.404 361.23C575.651 360.908 575.985 360.727 576.334 360.727C576.683 360.727 577.018 360.908 577.264 361.23C577.511 361.552 577.65 361.989 577.65 362.445V387.489H602.228ZM604.859 390.941V401.585H612.59V390.941H604.859ZM575.042 401.585V390.941H569.861V401.585H575.042Z" fill="#434343"/>
<path fill-rule="evenodd" clip-rule="evenodd" d="M128.715 172.312H200.597V407.91H64.8888V349.398H54.0377V407.636H49.5087V349.398H44.8516V316.098H64.8888V157.927H128.715V172.312Z" fill="white"/>
<path d="M106.011 299.995C106.195 299.972 106.38 300 106.556 300.077C106.731 300.153 106.892 300.277 107.029 300.439C107.165 300.601 107.274 300.799 107.349 301.02C107.424 301.241 107.462 301.479 107.462 301.721C107.462 301.962 107.424 302.201 107.349 302.421C107.274 302.642 107.165 302.84 107.029 303.003C106.892 303.165 106.731 303.288 106.556 303.365C106.38 303.441 106.195 303.469 106.011 303.447H87.9645C87.7806 303.469 87.595 303.441 87.4198 303.365C87.2445 303.288 87.0834 303.165 86.9468 303.003C86.8102 302.84 86.701 302.642 86.6263 302.421C86.5516 302.201 86.5131 301.962 86.5131 301.721C86.5131 301.479 86.5516 301.241 86.6263 301.02C86.701 300.799 86.8102 300.601 86.9468 300.439C87.0834 300.277 87.2445 300.153 87.4198 300.077C87.595 300 87.7806 299.972 87.9645 299.995H106.011ZM71.3851 199.348C71.7341 199.348 72.0687 199.529 72.3155 199.851C72.5622 200.173 72.7008 200.61 72.7008 201.066C72.7008 201.522 72.5622 201.959 72.3155 202.281C72.0687 202.603 71.7341 202.784 71.3851 202.784H64.9467C64.5977 202.784 64.2631 202.603 64.0164 202.281C63.7697 201.959 63.631 201.522 63.631 201.066C63.631 200.61 63.7697 200.173 64.0164 199.851C64.2631 199.529 64.5977 199.348 64.9467 199.348H71.3851ZM71.3851 213.717C71.5691 213.695 71.7547 213.723 71.9299 213.799C72.1052 213.876 72.2663 213.999 72.4029 214.161C72.5395 214.324 72.6486 214.522 72.7233 214.743C72.798 214.963 72.8366 215.202 72.8366 215.443C72.8366 215.684 72.798 215.923 72.7233 216.144C72.6486 216.365 72.5395 216.563 72.4029 216.725C72.2663 216.887 72.1052 217.011 71.9299 217.087C71.7547 217.164 71.5691 217.192 71.3851 217.169H64.9467C64.7627 217.192 64.5772 217.164 64.4019 217.087C64.2267 217.011 64.0656 216.887 63.929 216.725C63.7923 216.563 63.6832 216.365 63.6085 216.144C63.5338 215.923 63.4952 215.684 63.4952 215.443C63.4952 215.202 63.5338 214.963 63.6085 214.743C63.6832 214.522 63.7923 214.324 63.929 214.161C64.0656 213.999 64.2267 213.876 64.4019 213.799C64.5772 213.723 64.7627 213.695 64.9467 213.717H71.3851ZM71.3851 228.102C71.5691 228.079 71.7547 228.107 71.9299 228.184C72.1052 228.26 72.2663 228.384 72.4029 228.546C72.5395 228.709 72.6486 228.906 72.7233 229.127C72.798 229.348 72.8366 229.587 72.8366 229.828C72.8366 230.069 72.798 230.308 72.7233 230.529C72.6486 230.749 72.5395 230.947 72.4029 231.11C72.2663 231.272 72.1052 231.396 71.9299 231.472C71.7547 231.548 71.5691 231.576 71.3851 231.554H64.9467C64.7627 231.576 64.5772 231.548 64.4019 231.472C64.2267 231.396 64.0656 231.272 63.929 231.11C63.7923 230.947 63.6832 230.749 63.6085 230.529C63.5338 230.308 63.4952 230.069 63.4952 229.828C63.4952 229.587 63.5338 229.348 63.6085 229.127C63.6832 228.906 63.7923 228.709 63.929 228.546C64.0656 228.384 64.2267 228.26 64.4019 228.184C64.5772 228.107 64.7627 228.079 64.9467 228.102H71.3851ZM71.3851 242.471C71.5691 242.449 71.7547 242.477 71.9299 242.553C72.1052 242.63 72.2663 242.753 72.4029 242.916C72.5395 243.078 72.6486 243.276 72.7233 243.497C72.798 243.717 72.8366 243.956 72.8366 244.197C72.8366 244.439 72.798 244.677 72.7233 244.898C72.6486 245.119 72.5395 245.317 72.4029 245.479C72.2663 245.642 72.1052 245.765 71.9299 245.841C71.7547 245.918 71.5691 245.946 71.3851 245.923H64.9467C64.7627 245.946 64.5772 245.918 64.4019 245.841C64.2267 245.765 64.0656 245.642 63.929 245.479C63.7923 245.317 63.6832 245.119 63.6085 244.898C63.5338 244.677 63.4952 244.439 63.4952 244.197C63.4952 243.956 63.5338 243.717 63.6085 243.497C63.6832 243.276 63.7923 243.078 63.929 242.916C64.0656 242.753 64.2267 242.63 64.4019 242.553C64.5772 242.477 64.7627 242.449 64.9467 242.471H71.3851ZM71.3851 256.856C71.5691 256.834 71.7547 256.861 71.9299 256.938C72.1052 257.014 72.2663 257.138 72.4029 257.3C72.5395 257.463 72.6486 257.661 72.7233 257.881C72.798 258.102 72.8366 258.341 72.8366 258.582C72.8366 258.823 72.798 259.062 72.7233 259.283C72.6486 259.503 72.5395 259.701 72.4029 259.864C72.2663 260.026 72.1052 260.15 71.9299 260.226C71.7547 260.303 71.5691 260.33 71.3851 260.308H64.9467C64.7627 260.33 64.5772 260.303 64.4019 260.226C64.2267 260.15 64.0656 260.026 63.929 259.864C63.7923 259.701 63.6832 259.503 63.6085 259.283C63.5338 259.062 63.4952 258.823 63.4952 258.582C63.4952 258.341 63.5338 258.102 63.6085 257.881C63.6832 257.661 63.7923 257.463 63.929 257.3C64.0656 257.138 64.2267 257.014 64.4019 256.938C64.5772 256.861 64.7627 256.834 64.9467 256.856H71.3851ZM71.3851 271.241C71.5579 271.241 71.729 271.285 71.8886 271.372C72.0482 271.458 72.1933 271.584 72.3155 271.744C72.4376 271.904 72.5345 272.093 72.6006 272.302C72.6668 272.51 72.7008 272.733 72.7008 272.959C72.7008 273.185 72.6668 273.408 72.6006 273.617C72.5345 273.825 72.4376 274.014 72.3155 274.174C72.1933 274.334 72.0482 274.46 71.8886 274.547C71.729 274.633 71.5579 274.677 71.3851 274.677H64.9467C64.7739 274.677 64.6028 274.633 64.4432 274.547C64.2836 274.46 64.1385 274.334 64.0164 274.174C63.8942 274.014 63.7973 273.825 63.7312 273.617C63.6651 273.408 63.631 273.185 63.631 272.959C63.631 272.733 63.6651 272.51 63.7312 272.302C63.7973 272.093 63.8942 271.904 64.0164 271.744C64.1385 271.584 64.2836 271.458 64.4432 271.372C64.6028 271.285 64.7739 271.241 64.9467 271.241H71.3851ZM71.3851 285.61C71.5691 285.588 71.7547 285.616 71.9299 285.692C72.1052 285.768 72.2663 285.892 72.4029 286.054C72.5395 286.217 72.6486 286.415 72.7233 286.635C72.798 286.856 72.8366 287.095 72.8366 287.336C72.8366 287.577 72.798 287.816 72.7233 288.037C72.6486 288.258 72.5395 288.455 72.4029 288.618C72.2663 288.78 72.1052 288.904 71.9299 288.98C71.7547 289.057 71.5691 289.085 71.3851 289.062H64.9467C64.7627 289.085 64.5772 289.057 64.4019 288.98C64.2267 288.904 64.0656 288.78 63.929 288.618C63.7923 288.455 63.6832 288.258 63.6085 288.037C63.5338 287.816 63.4952 287.577 63.4952 287.336C63.4952 287.095 63.5338 286.856 63.6085 286.635C63.6832 286.415 63.7923 286.217 63.929 286.054C64.0656 285.892 64.2267 285.768 64.4019 285.692C64.5772 285.616 64.7627 285.588 64.9467 285.61H71.3851ZM71.3851 299.995C71.5691 299.972 71.7547 300 71.9299 300.077C72.1052 300.153 72.2663 300.277 72.4029 300.439C72.5395 300.601 72.6486 300.799 72.7233 301.02C72.798 301.241 72.8366 301.479 72.8366 301.721C72.8366 301.962 72.798 302.201 72.7233 302.421C72.6486 302.642 72.5395 302.84 72.4029 303.003C72.2663 303.165 72.1052 303.288 71.9299 303.365C71.7547 303.441 71.5691 303.469 71.3851 303.447H64.9467C64.7627 303.469 64.5772 303.441 64.4019 303.365C64.2267 303.288 64.0656 303.165 63.929 303.003C63.7923 302.84 63.6832 302.642 63.6085 302.421C63.5338 302.201 63.4952 301.962 63.4952 301.721C63.4952 301.479 63.5338 301.241 63.6085 301.02C63.6832 300.799 63.7923 300.601 63.929 300.439C64.0656 300.277 64.2267 300.153 64.4019 300.077C64.5772 300 64.7627 299.972 64.9467 299.995H71.3851ZM106.011 170.594C106.36 170.594 106.694 170.775 106.941 171.097C107.188 171.419 107.327 171.856 107.327 172.312C107.327 172.768 107.188 173.205 106.941 173.527C106.694 173.849 106.36 174.03 106.011 174.03H64.8885C64.5395 174.03 64.2049 173.849 63.9582 173.527C63.7114 173.205 63.5728 172.768 63.5728 172.312C63.5728 171.856 63.7114 171.419 63.9582 171.097C64.2049 170.775 64.5395 170.594 64.8885 170.594H106.011ZM106.011 184.963C106.195 184.941 106.38 184.968 106.556 185.045C106.731 185.121 106.892 185.245 107.029 185.407C107.165 185.57 107.274 185.768 107.349 185.988C107.424 186.209 107.462 186.448 107.462 186.689C107.462 186.93 107.424 187.169 107.349 187.39C107.274 187.61 107.165 187.808 107.029 187.971C106.892 188.133 106.731 188.257 106.556 188.333C106.38 188.41 106.195 188.438 106.011 188.415H64.8885C64.7045 188.438 64.519 188.41 64.3437 188.333C64.1685 188.257 64.0074 188.133 63.8707 187.971C63.7341 187.808 63.625 187.61 63.5503 187.39C63.4756 187.169 63.437 186.93 63.437 186.689C63.437 186.448 63.4756 186.209 63.5503 185.988C63.625 185.768 63.7341 185.57 63.8707 185.407C64.0074 185.245 64.1685 185.121 64.3437 185.045C64.519 184.968 64.7045 184.941 64.8885 184.963H106.011ZM106.011 199.348C106.36 199.348 106.694 199.529 106.941 199.851C107.188 200.173 107.327 200.61 107.327 201.066C107.327 201.522 107.188 201.959 106.941 202.281C106.694 202.603 106.36 202.784 106.011 202.784H87.9645C87.6156 202.784 87.281 202.603 87.0342 202.281C86.7875 201.959 86.6489 201.522 86.6489 201.066C86.6489 200.61 86.7875 200.173 87.0342 199.851C87.281 199.529 87.6156 199.348 87.9645 199.348H106.011ZM106.011 213.717C106.195 213.695 106.38 213.723 106.556 213.799C106.731 213.876 106.892 213.999 107.029 214.161C107.165 214.324 107.274 214.522 107.349 214.743C107.424 214.963 107.462 215.202 107.462 215.443C107.462 215.684 107.424 215.923 107.349 216.144C107.274 216.365 107.165 216.563 107.029 216.725C106.892 216.887 106.731 217.011 106.556 217.087C106.38 217.164 106.195 217.192 106.011 217.169H87.9645C87.7806 217.192 87.595 217.164 87.4198 217.087C87.2445 217.011 87.0834 216.887 86.9468 216.725C86.8102 216.563 86.701 216.365 86.6263 216.144C86.5516 215.923 86.5131 215.684 86.5131 215.443C86.5131 215.202 86.5516 214.963 86.6263 214.743C86.701 214.522 86.8102 214.324 86.9468 214.161C87.0834 213.999 87.2445 213.876 87.4198 213.799C87.595 213.723 87.7806 213.695 87.9645 213.717H106.011ZM106.011 228.102C106.195 228.079 106.38 228.107 106.556 228.184C106.731 228.26 106.892 228.384 107.029 228.546C107.165 228.709 107.274 228.906 107.349 229.127C107.424 229.348 107.462 229.587 107.462 229.828C107.462 230.069 107.424 230.308 107.349 230.529C107.274 230.749 107.165 230.947 107.029 231.11C106.892 231.272 106.731 231.396 106.556 231.472C106.38 231.548 106.195 231.576 106.011 231.554H87.9645C87.7806 231.576 87.595 231.548 87.4198 231.472C87.2445 231.396 87.0834 231.272 86.9468 231.11C86.8102 230.947 86.701 230.749 86.6263 230.529C86.5516 230.308 86.5131 230.069 86.5131 229.828C86.5131 229.587 86.5516 229.348 86.6263 229.127C86.701 228.906 86.8102 228.709 86.9468 228.546C87.0834 228.384 87.2445 228.26 87.4198 228.184C87.595 228.107 87.7806 228.079 87.9645 228.102H106.011ZM106.011 242.471C106.195 242.449 106.38 242.477 106.556 242.553C106.731 242.63 106.892 242.753 107.029 242.916C107.165 243.078 107.274 243.276 107.349 243.497C107.424 243.717 107.462 243.956 107.462 244.197C107.462 244.439 107.424 244.677 107.349 244.898C107.274 245.119 107.165 245.317 107.029 245.479C106.892 245.642 106.731 245.765 106.556 245.841C106.38 245.918 106.195 245.946 106.011 245.923H87.9645C87.7806 245.946 87.595 245.918 87.4198 245.841C87.2445 245.765 87.0834 245.642 86.9468 245.479C86.8102 245.317 86.701 245.119 86.6263 244.898C86.5516 244.677 86.5131 244.439 86.5131 244.197C86.5131 243.956 86.5516 243.717 86.6263 243.497C86.701 243.276 86.8102 243.078 86.9468 242.916C87.0834 242.753 87.2445 242.63 87.4198 242.553C87.595 242.477 87.7806 242.449 87.9645 242.471H106.011ZM106.011 256.856C106.195 256.834 106.38 256.861 106.556 256.938C106.731 257.014 106.892 257.138 107.029 257.3C107.165 257.463 107.274 257.661 107.349 257.881C107.424 258.102 107.462 258.341 107.462 258.582C107.462 258.823 107.424 259.062 107.349 259.283C107.274 259.503 107.165 259.701 107.029 259.864C106.892 260.026 106.731 260.15 106.556 260.226C106.38 260.303 106.195 260.33 106.011 260.308H87.9645C87.7806 260.33 87.595 260.303 87.4198 260.226C87.2445 260.15 87.0834 260.026 86.9468 259.864C86.8102 259.701 86.701 259.503 86.6263 259.283C86.5516 259.062 86.5131 258.823 86.5131 258.582C86.5131 258.341 86.5516 258.102 86.6263 257.881C86.701 257.661 86.8102 257.463 86.9468 257.3C87.0834 257.138 87.2445 257.014 87.4198 256.938C87.595 256.861 87.7806 256.834 87.9645 256.856H106.011ZM106.011 271.241C106.184 271.241 106.355 271.285 106.514 271.372C106.674 271.458 106.819 271.584 106.941 271.744C107.063 271.904 107.16 272.093 107.226 272.302C107.293 272.51 107.327 272.733 107.327 272.959C107.327 273.185 107.293 273.408 107.226 273.617C107.16 273.825 107.063 274.014 106.941 274.174C106.819 274.334 106.674 274.46 106.514 274.547C106.355 274.633 106.184 274.677 106.011 274.677H87.9645C87.7917 274.677 87.6207 274.633 87.461 274.547C87.3014 274.46 87.1564 274.334 87.0342 274.174C86.9121 274.014 86.8151 273.825 86.749 273.617C86.6829 273.408 86.6489 273.185 86.6489 272.959C86.6489 272.733 86.6829 272.51 86.749 272.302C86.8151 272.093 86.9121 271.904 87.0342 271.744C87.1564 271.584 87.3014 271.458 87.461 271.372C87.6207 271.285 87.7917 271.241 87.9645 271.241H106.011ZM106.011 285.61C106.195 285.588 106.38 285.616 106.556 285.692C106.731 285.768 106.892 285.892 107.029 286.054C107.165 286.217 107.274 286.415 107.349 286.635C107.424 286.856 107.462 287.095 107.462 287.336C107.462 287.577 107.424 287.816 107.349 288.037C107.274 288.258 107.165 288.455 107.029 288.618C106.892 288.78 106.731 288.904 106.556 288.98C106.38 289.057 106.195 289.085 106.011 289.062H87.9645C87.7806 289.085 87.595 289.057 87.4198 288.98C87.2445 288.904 87.0834 288.78 86.9468 288.618C86.8102 288.455 86.701 288.258 86.6263 288.037C86.5516 287.816 86.5131 287.577 86.5131 287.336C86.5131 287.095 86.5516 286.856 86.6263 286.635C86.701 286.415 86.8102 286.217 86.9468 286.054C87.0834 285.892 87.2445 285.768 87.4198 285.692C87.595 285.616 87.7806 285.588 87.9645 285.61H106.011Z" fill="url(#paint24_linear_2_413)"/>
<path fill-rule="evenodd" clip-rule="evenodd" d="M183.074 349.398V359.571H87.9642V407.91H75.0291V359.571H64.8882V349.398H183.074Z" fill="url(#paint25_linear_2_413)"/>
<path fill-rule="evenodd" clip-rule="evenodd" d="M75.0293 207.635H87.9645V316.098H75.0293V207.635Z" fill="url(#paint26_linear_2_413)"/>
<path fill-rule="evenodd" clip-rule="evenodd" d="M132.405 207.635H183.075V343.058H132.405V207.635Z" fill="url(#paint27_linear_2_413)"/>
<path fill-rule="evenodd" clip-rule="evenodd" d="M132.417 315.535L183.075 277.308V295.54L132.405 333.752L132.417 315.535Z" fill="url(#paint28_linear_2_413)"/>
<path fill-rule="evenodd" clip-rule="evenodd" d="M132.405 338.937L183.075 300.725V311.186L140.811 343.058H132.405V338.937Z" fill="url(#paint29_linear_2_413)"/>
<path d="M107.431 365.745C107.102 365.704 106.796 365.505 106.574 365.186C106.351 364.867 106.228 364.45 106.228 364.019C106.228 363.587 106.351 363.171 106.574 362.852C106.796 362.533 107.102 362.333 107.431 362.293H111.017C111.191 362.293 111.363 362.338 111.523 362.425C111.684 362.512 111.829 362.64 111.952 362.801C112.074 362.963 112.171 363.154 112.236 363.364C112.301 363.574 112.334 363.799 112.333 364.026C112.336 364.202 112.317 364.377 112.275 364.543L109.725 377.848C109.635 378.29 109.415 378.667 109.113 378.897C108.81 379.126 108.45 379.189 108.112 379.072C107.774 378.955 107.485 378.668 107.31 378.273C107.134 377.878 107.085 377.408 107.175 376.966L109.341 365.699L107.431 365.745ZM93.8789 365.745C93.5498 365.704 93.2441 365.505 93.0216 365.186C92.7991 364.867 92.6758 364.45 92.6758 364.019C92.6758 363.587 92.7991 363.171 93.0216 362.852C93.2441 362.533 93.5498 362.333 93.8789 362.293H96.3821C96.7321 362.297 97.0667 362.481 97.3131 362.806C97.5595 363.131 97.6978 363.569 97.6977 364.026V377.423C97.715 377.663 97.6937 377.905 97.6352 378.134C97.5766 378.363 97.4821 378.573 97.3577 378.752C97.2333 378.93 97.0818 379.073 96.9128 379.17C96.7438 379.268 96.5611 379.318 96.3763 379.318C96.1915 379.318 96.0088 379.268 95.8398 379.17C95.6708 379.073 95.5192 378.93 95.3948 378.752C95.2704 378.573 95.176 378.363 95.1174 378.134C95.0589 377.905 95.0375 377.663 95.0548 377.423V365.745H93.8789ZM101.458 362.293H103.345C103.629 362.292 103.91 362.366 104.172 362.51C104.434 362.653 104.671 362.864 104.87 363.129C105.072 363.392 105.231 363.705 105.339 364.05C105.447 364.395 105.501 364.764 105.498 365.136V376.313C105.5 376.685 105.445 377.055 105.337 377.4C105.229 377.744 105.07 378.058 104.868 378.322C104.667 378.587 104.428 378.796 104.164 378.939C103.901 379.082 103.618 379.156 103.333 379.156H101.447C100.87 379.154 100.317 378.853 99.9099 378.32C99.8726 378.276 99.8411 378.225 99.8167 378.168C99.4679 377.658 99.277 376.996 99.2812 376.313V365.136C99.2813 364.39 99.5073 363.674 99.9099 363.144C100.317 362.611 100.87 362.31 101.447 362.308L101.458 362.293ZM102.879 365.745H101.924V375.704H102.879V365.745Z" fill="#434343"/>
<path fill-rule="evenodd" clip-rule="evenodd" d="M87.9642 349.398V407.91H75.0291V359.571H71.3267V349.398H87.9642Z" fill="url(#paint30_linear_2_413)"/>
<path d="M72.6547 407.91C72.6238 408.34 72.4712 408.739 72.2268 409.03C71.9824 409.32 71.6638 409.482 71.3332 409.482C71.0027 409.482 70.6841 409.32 70.4397 409.03C70.1953 408.739 70.0427 408.34 70.0118 407.91V351.117H66.2046V407.91C66.1737 408.34 66.0211 408.739 65.7767 409.03C65.5323 409.32 65.2137 409.482 64.8831 409.482C64.5526 409.482 64.234 409.32 63.9896 409.03C63.7452 408.739 63.5926 408.34 63.5617 407.91V351.117H55.4117V407.91C55.3808 408.34 55.2282 408.739 54.9838 409.03C54.7394 409.32 54.4208 409.482 54.0902 409.482C53.7597 409.482 53.4411 409.32 53.1967 409.03C52.9523 408.739 52.7997 408.34 52.7688 407.91V351.117H50.8943V407.91C50.8634 408.34 50.7108 408.739 50.4664 409.03C50.222 409.32 49.9033 409.482 49.5728 409.482C49.2423 409.482 48.9237 409.32 48.6793 409.03C48.4349 408.739 48.2823 408.34 48.2514 407.91V351.117H44.9099C44.561 351.117 44.2263 350.936 43.9796 350.613C43.7328 350.291 43.5942 349.854 43.5942 349.398V316.143C43.5942 315.688 43.7328 315.251 43.9796 314.928C44.2263 314.606 44.561 314.425 44.9099 314.425H63.6199V158.003C63.6229 157.546 63.7641 157.109 64.0127 156.787C64.2613 156.466 64.5972 156.285 64.9472 156.285H128.715C129.063 156.289 129.396 156.471 129.642 156.793C129.888 157.114 130.027 157.549 130.031 158.003V170.67H200.598C200.771 170.668 200.943 170.711 201.103 170.796C201.263 170.882 201.409 171.008 201.531 171.168C201.654 171.328 201.751 171.519 201.816 171.728C201.882 171.937 201.915 172.162 201.913 172.388V407.91C201.913 408.366 201.775 408.803 201.528 409.125C201.281 409.447 200.947 409.629 200.598 409.629C200.249 409.629 199.914 409.447 199.667 409.125C199.421 408.803 199.282 408.366 199.282 407.91V174.03H112.333V316.143C112.335 316.37 112.302 316.594 112.236 316.803C112.171 317.013 112.074 317.203 111.952 317.363C111.829 317.523 111.683 317.649 111.523 317.735C111.363 317.821 111.191 317.864 111.018 317.862H46.1789V347.726H183.075C183.424 347.726 183.759 347.907 184.005 348.229C184.252 348.551 184.391 348.988 184.391 349.444V364.072V393.313V407.925C184.36 408.355 184.207 408.755 183.963 409.045C183.719 409.336 183.4 409.497 183.069 409.497C182.739 409.497 182.42 409.336 182.176 409.045C181.931 408.755 181.779 408.355 181.748 407.925V395.016H130.031V407.925C130 408.355 129.847 408.755 129.603 409.045C129.358 409.336 129.04 409.497 128.709 409.497C128.379 409.497 128.06 409.336 127.816 409.045C127.571 408.755 127.419 408.355 127.388 407.925V351.117H89.2807V407.91C89.2497 408.34 89.0971 408.739 88.8527 409.03C88.6083 409.32 88.2897 409.482 87.9592 409.482C87.6287 409.482 87.3101 409.32 87.0656 409.03C86.8212 408.739 86.6687 408.34 86.6377 407.91V403.349H74.9949V409.689H72.6664V407.971L72.6547 407.91ZM183.075 344.776H128.715C128.541 344.778 128.369 344.735 128.208 344.649C128.047 344.564 127.9 344.438 127.777 344.278C127.654 344.118 127.556 343.928 127.489 343.719C127.422 343.509 127.388 343.285 127.388 343.058V201.066C127.391 200.609 127.532 200.172 127.78 199.85C128.029 199.528 128.365 199.348 128.715 199.348H183.075C183.423 199.352 183.756 199.534 184.002 199.855C184.248 200.177 184.388 200.612 184.391 201.066V343.058C184.391 343.513 184.252 343.95 184.005 344.273C183.759 344.595 183.424 344.776 183.075 344.776ZM132.406 341.339H138.355V274.677H132.406V341.339ZM140.998 341.339H170.78V274.677H140.998V341.339ZM173.423 341.339H181.748V317.816H173.423V341.339ZM181.748 314.38V274.677H173.423V314.38H181.748ZM181.748 271.241V207.635H173.423V271.241H181.748ZM170.78 207.635H140.998V256.841H170.78V207.635ZM138.355 207.635H132.406V256.841H138.355V207.635ZM132.406 260.308V271.241H138.355V260.308H132.406ZM170.827 260.308H140.998V271.241H170.78V260.308H170.827ZM70.0584 314.38V201.066C70.0614 200.612 70.201 200.177 70.4471 199.855C70.6931 199.534 71.026 199.352 71.374 199.348H87.965C88.313 199.352 88.6459 199.534 88.8919 199.855C89.138 200.177 89.2776 200.612 89.2807 201.066V314.38H109.702V172.312C109.701 172.086 109.734 171.861 109.799 171.652C109.865 171.443 109.962 171.252 110.084 171.092C110.207 170.932 110.352 170.806 110.512 170.72C110.673 170.635 110.845 170.592 111.018 170.594H127.388V159.661H66.2046V314.38H70.0584ZM86.6843 314.38V260.308H75.0415V314.38H86.6843ZM86.6843 256.856V207.635H75.0415V256.841L86.6843 256.856ZM181.794 391.549V380.373H130.031V391.549H181.794ZM181.794 376.921V365.745H130.031V376.967L181.794 376.921ZM181.794 362.293V351.117H130.031V362.293H181.794ZM75.0764 359.571V362.293H86.7192V359.571H75.0764ZM86.7192 399.836V365.745H75.0764V399.775L86.7192 399.836Z" fill="#434343"/>
<path fill-rule="evenodd" clip-rule="evenodd" d="M479.92 268.139V335.637H470.233V383.657H472.224V409.628H278.779V383.657H280.77V309.149L269.441 320.295C269.213 320.515 268.928 320.61 268.647 320.558C268.367 320.507 268.112 320.314 267.939 320.021L265.366 315.565C265.198 315.268 265.125 314.896 265.164 314.529C265.203 314.162 265.351 313.83 265.576 313.604L336.748 243.551L361.664 268.078H380.129V260.034H381.829V244.235H380.129V237.803H381.829V231.371H392.727V237.803H394.415V244.235H392.727V260.034H394.415V268.139H479.92Z" fill="white"/>
<path d="M381.597 286.446C381.614 286.687 381.592 286.929 381.534 287.158C381.475 287.387 381.381 287.597 381.257 287.776C381.132 287.954 380.981 288.097 380.812 288.194C380.643 288.292 380.46 288.342 380.275 288.342C380.09 288.342 379.908 288.292 379.739 288.194C379.57 288.097 379.418 287.954 379.294 287.776C379.169 287.597 379.075 287.387 379.016 287.158C378.958 286.929 378.936 286.687 378.954 286.446V277.779C378.936 277.539 378.958 277.296 379.016 277.068C379.075 276.839 379.169 276.628 379.294 276.45C379.418 276.271 379.57 276.129 379.739 276.031C379.908 275.934 380.09 275.883 380.275 275.883C380.46 275.883 380.643 275.934 380.812 276.031C380.981 276.129 381.132 276.271 381.257 276.45C381.381 276.628 381.475 276.839 381.534 277.068C381.592 277.296 381.614 277.539 381.597 277.779V286.446Z" fill="url(#paint31_linear_2_413)"/>
<path d="M369.138 274.191C369.156 274.431 369.134 274.673 369.076 274.902C369.017 275.131 368.923 275.341 368.798 275.52C368.674 275.698 368.523 275.841 368.354 275.938C368.185 276.036 368.002 276.086 367.817 276.086C367.632 276.086 367.45 276.036 367.281 275.938C367.112 275.841 366.96 275.698 366.836 275.52C366.711 275.341 366.617 275.131 366.558 274.902C366.5 274.673 366.478 274.431 366.496 274.191V268.108C366.526 267.679 366.679 267.279 366.923 266.989C367.168 266.698 367.486 266.537 367.817 266.537C368.148 266.537 368.466 266.698 368.711 266.989C368.955 267.279 369.108 267.679 369.138 268.108V274.191Z" fill="url(#paint32_linear_2_413)"/>
<path d="M468.79 320.583C468.808 320.824 468.786 321.066 468.728 321.295C468.669 321.524 468.575 321.734 468.45 321.913C468.326 322.091 468.174 322.234 468.005 322.331C467.836 322.429 467.654 322.479 467.469 322.479C467.284 322.479 467.101 322.429 466.932 322.331C466.763 322.234 466.612 322.091 466.487 321.913C466.363 321.734 466.269 321.524 466.21 321.295C466.151 321.066 466.13 320.824 466.147 320.583V268.139C466.178 267.709 466.331 267.31 466.575 267.019C466.82 266.728 467.138 266.567 467.469 266.567C467.799 266.567 468.118 266.728 468.362 267.019C468.607 267.31 468.759 267.709 468.79 268.139V320.583Z" fill="url(#paint33_linear_2_413)"/>
<path d="M456.332 320.583C456.35 320.824 456.328 321.066 456.27 321.295C456.211 321.524 456.117 321.734 455.992 321.913C455.868 322.091 455.716 322.234 455.547 322.331C455.378 322.429 455.196 322.479 455.011 322.479C454.826 322.479 454.643 322.429 454.474 322.331C454.305 322.234 454.154 322.091 454.029 321.913C453.905 321.734 453.811 321.524 453.752 321.295C453.693 321.066 453.672 320.824 453.689 320.583V268.139C453.72 267.709 453.873 267.31 454.117 267.019C454.362 266.728 454.68 266.567 455.011 266.567C455.341 266.567 455.66 266.728 455.904 267.019C456.149 267.31 456.301 267.709 456.332 268.139V320.583Z" fill="url(#paint34_linear_2_413)"/>
<path d="M443.873 320.583C443.891 320.824 443.869 321.066 443.811 321.295C443.752 321.524 443.658 321.734 443.533 321.913C443.409 322.091 443.257 322.234 443.088 322.331C442.919 322.429 442.737 322.479 442.552 322.479C442.367 322.479 442.184 322.429 442.015 322.331C441.846 322.234 441.695 322.091 441.57 321.913C441.446 321.734 441.352 321.524 441.293 321.295C441.234 321.066 441.213 320.824 441.23 320.583V268.139C441.261 267.709 441.414 267.31 441.658 267.019C441.903 266.728 442.221 266.567 442.552 266.567C442.882 266.567 443.201 266.728 443.445 267.019C443.69 267.31 443.842 267.709 443.873 268.139V320.583Z" fill="url(#paint35_linear_2_413)"/>
<path d="M431.416 320.583C431.433 320.824 431.412 321.066 431.353 321.295C431.295 321.524 431.2 321.734 431.076 321.913C430.951 322.091 430.8 322.234 430.631 322.331C430.462 322.429 430.279 322.479 430.094 322.479C429.91 322.479 429.727 322.429 429.558 322.331C429.389 322.234 429.237 322.091 429.113 321.913C428.989 321.734 428.894 321.524 428.835 321.295C428.777 321.066 428.756 320.824 428.773 320.583V268.139C428.804 267.709 428.956 267.31 429.201 267.019C429.445 266.728 429.764 266.567 430.094 266.567C430.425 266.567 430.744 266.728 430.988 267.019C431.232 267.31 431.385 267.709 431.416 268.139V320.583Z" fill="url(#paint36_linear_2_413)"/>
<path d="M418.958 320.584C418.958 321.039 418.82 321.476 418.573 321.798C418.326 322.121 417.992 322.302 417.643 322.302C417.294 322.302 416.959 322.121 416.712 321.798C416.466 321.476 416.327 321.039 416.327 320.584V268.139C416.327 267.683 416.466 267.246 416.712 266.924C416.959 266.602 417.294 266.421 417.643 266.421C417.992 266.421 418.326 266.602 418.573 266.924C418.82 267.246 418.958 267.683 418.958 268.139V320.584Z" fill="url(#paint37_linear_2_413)"/>
<path d="M406.5 310.973C406.5 311.429 406.362 311.866 406.115 312.188C405.868 312.511 405.534 312.692 405.185 312.692C404.836 312.692 404.501 312.511 404.255 312.188C404.008 311.866 403.869 311.429 403.869 310.973V268.139C403.869 267.683 404.008 267.246 404.255 266.924C404.501 266.602 404.836 266.421 405.185 266.421C405.534 266.421 405.868 266.602 406.115 266.924C406.362 267.246 406.5 267.683 406.5 268.139V310.973Z" fill="url(#paint38_linear_2_413)"/>
<path d="M394.042 298.717C394.042 299.173 393.904 299.61 393.657 299.932C393.41 300.255 393.076 300.436 392.727 300.436C392.378 300.436 392.043 300.255 391.796 299.932C391.55 299.61 391.411 299.173 391.411 298.717V277.779C391.411 277.323 391.55 276.886 391.796 276.564C392.043 276.242 392.378 276.061 392.727 276.061C393.076 276.061 393.41 276.242 393.657 276.564C393.904 276.886 394.042 277.323 394.042 277.779V298.717Z" fill="url(#paint39_linear_2_413)"/>
<path fill-rule="evenodd" clip-rule="evenodd" d="M338.634 277.217C340.529 277.217 342.382 277.951 343.958 279.326C345.534 280.701 346.762 282.655 347.487 284.942C348.212 287.229 348.402 289.745 348.032 292.172C347.663 294.6 346.75 296.83 345.41 298.58C344.07 300.33 342.362 301.522 340.504 302.005C338.645 302.488 336.718 302.24 334.967 301.293C333.217 300.345 331.72 298.741 330.667 296.683C329.614 294.626 329.052 292.206 329.052 289.731C329.052 286.412 330.062 283.229 331.859 280.882C333.656 278.535 336.093 277.217 338.634 277.217ZM470.198 335.637V344.259H418.038L422.544 357.944L418.679 364.635H412.857V409.659H394.753V383.657H392.762V316.143L374.273 297.896L348.962 322.803V363.859L333.151 314.79L336.783 321.085L348.962 309.103L370.862 287.541L392.762 309.012L404.09 320.249L407.956 313.558L412.438 327.152H479.966V335.531L470.198 335.637ZM323.312 403.288H310.074V396.734H323.312V403.303V403.288ZM362.747 409.629H354.177V383.657L362.747 409.629ZM356.168 383.657H363.317V349.946C365.554 347.808 368.038 346.15 370.675 345.034V374.062H374.704V343.909C378.356 343.4 382.049 343.971 385.508 345.582V321.252C374.366 312.646 364.714 313.269 356.18 321.252V383.657H356.168ZM331.043 374.062H302.355V328.916H331.043V374.062ZM280.77 309.21L336.748 254.104L365.855 282.721L362.258 286.264L340.136 264.489L333.872 270.663C331.388 271.605 329.255 273.704 327.876 276.563L280.77 322.88V309.194V309.21Z" fill="url(#paint40_linear_2_413)"/>
<path d="M321.997 396.734V401.585H310.075V396.734H321.997ZM363.038 381.954V328.977H378.628V381.939L363.038 381.954ZM374.681 375.872C374.854 375.874 375.026 375.831 375.186 375.745C375.347 375.659 375.492 375.533 375.615 375.373C375.737 375.213 375.834 375.023 375.9 374.813C375.965 374.604 375.998 374.38 375.997 374.153V335.637C375.998 335.41 375.965 335.185 375.9 334.975C375.834 334.765 375.738 334.574 375.615 334.412C375.493 334.251 375.347 334.123 375.187 334.036C375.027 333.949 374.855 333.904 374.681 333.904H366.962C366.61 333.904 366.272 334.086 366.023 334.411C365.774 334.737 365.634 335.177 365.634 335.637V374.062C365.634 374.289 365.669 374.514 365.736 374.723C365.803 374.933 365.9 375.123 366.024 375.283C366.147 375.442 366.294 375.569 366.455 375.654C366.616 375.74 366.788 375.782 366.962 375.78L374.681 375.872ZM370.664 372.405H368.336V346.205C369.095 345.759 369.872 345.368 370.664 345.034V372.405ZM381.271 382V327.259C381.271 326.799 381.131 326.358 380.882 326.033C380.633 325.708 380.295 325.525 379.943 325.525H361.711C361.361 325.529 361.026 325.714 360.78 326.038C360.533 326.363 360.395 326.802 360.395 327.259V382H357.496V323.123C361.217 318.971 365.95 316.69 370.845 316.69C375.739 316.69 380.472 318.971 384.193 323.123V381.939L381.271 382ZM306.384 388.492C306.034 388.492 305.698 388.673 305.45 388.995C305.201 389.317 305.06 389.754 305.057 390.211V403.349C305.057 403.575 305.091 403.8 305.158 404.01C305.225 404.219 305.323 404.409 305.446 404.569C305.57 404.729 305.716 404.855 305.877 404.94C306.038 405.026 306.21 405.069 306.384 405.067H323.313C323.487 405.069 323.659 405.026 323.82 404.94C323.981 404.855 324.127 404.729 324.251 404.569C324.374 404.409 324.472 404.219 324.539 404.01C324.606 403.8 324.64 403.575 324.64 403.349V390.211C324.637 389.754 324.496 389.317 324.247 388.995C323.999 388.673 323.663 388.492 323.313 388.492H306.384ZM386.161 388.492H355.494V385.451H386.161V388.492ZM386.161 394.985H355.494V391.944H386.161V394.985ZM386.161 401.63H355.494V398.422H386.161V401.63ZM305.103 372.405H302.402V328.916H305.103V372.405ZM324.687 328.977H329.763V372.405H324.687V328.916V328.977ZM321.997 372.405H307.7V328.916H321.997V372.405ZM298.653 320.705C298.303 320.709 297.969 320.894 297.722 321.218C297.476 321.543 297.338 321.981 297.338 322.439V374.138C297.338 374.594 297.476 375.031 297.723 375.353C297.97 375.675 298.304 375.856 298.653 375.856H331.044C331.393 375.856 331.727 375.675 331.974 375.353C332.221 375.031 332.359 374.594 332.359 374.138V322.439C332.359 321.981 332.221 321.543 331.975 321.218C331.728 320.894 331.394 320.709 331.044 320.705H298.653ZM336.69 269.69C334.166 269.689 331.72 270.832 329.768 272.924C327.817 275.015 326.481 277.925 325.989 281.159C325.497 284.392 325.878 287.749 327.069 290.656C328.259 293.563 330.184 295.841 332.517 297.102C334.849 298.363 337.444 298.528 339.86 297.57C342.275 296.612 344.361 294.59 345.763 291.848C347.164 289.106 347.794 285.814 347.545 282.533C347.296 279.252 346.184 276.186 344.398 273.856C342.353 271.189 339.581 269.69 336.69 269.69ZM347.611 312.752V382.03H282.086V310.061L336.749 256.263L363.317 282.402L332.953 312.296C332.702 312.54 332.491 312.848 332.333 313.2C332.175 313.553 332.073 313.944 332.033 314.349C331.945 315.168 332.108 315.998 332.487 316.66L335.06 321.116C335.447 321.775 336.015 322.211 336.644 322.332C337.272 322.439 337.907 322.221 338.413 321.724L347.623 312.6L347.611 312.752ZM393.181 307.583L371.619 286.37C371.389 286.139 371.106 286.013 370.815 286.013C370.525 286.013 370.242 286.139 370.012 286.37L348.182 307.765L348.065 307.887L336.993 318.789L334.723 314.836L366.263 283.801L370.781 279.345L406.873 314.866L404.545 318.82L393.694 308.176C393.537 307.899 393.323 307.688 393.077 307.567L393.181 307.583ZM386.324 321.085C383.141 317.36 379.233 314.854 375.03 313.845C370.826 312.837 366.491 313.363 362.502 315.368C359.869 316.697 357.44 318.634 355.331 321.085C355.179 321.251 355.056 321.458 354.972 321.691C354.887 321.925 354.843 322.18 354.842 322.439V382.03H350.254V310.061L370.827 289.807L391.412 310.061V381.939H386.813V322.347C386.815 322.088 386.772 321.832 386.687 321.598C386.602 321.363 386.478 321.157 386.324 320.994V321.085ZM456.728 367.6H406.233V350.873H456.728V367.6ZM456.728 387.793H406.233V371.067H456.728V387.793ZM478.581 328.977V333.904H394.043V328.977H478.581ZM468.918 337.431V382.015H459.371V349.034C459.368 348.579 459.228 348.144 458.982 347.823C458.736 347.502 458.403 347.319 458.055 347.315H404.917C404.567 347.315 404.231 347.496 403.983 347.818C403.734 348.139 403.593 348.576 403.59 349.034V381.939H394.043V337.431H468.918ZM381.457 242.578V239.537H393.1V242.578H381.457ZM391.412 236.146H383.11V233.105H391.377V236.146H391.412ZM393.1 261.844V276.122H381.457V261.844H393.1ZM391.412 258.361H383.11V245.999H391.377V258.361H391.412ZM360.989 269.568L368.696 277.171L365.553 280.212L337.61 252.69C337.38 252.458 337.097 252.332 336.807 252.332C336.516 252.332 336.234 252.458 336.003 252.69L280.118 307.719L280.013 307.826L268.941 318.728L266.612 314.775L336.795 245.71L360.861 269.401L360.977 269.507L360.989 269.568ZM365.646 269.872H378.849V277.779C378.852 278.234 378.992 278.668 379.238 278.99C379.484 279.311 379.817 279.493 380.165 279.497H394.45C394.8 279.497 395.136 279.317 395.385 278.995C395.633 278.673 395.775 278.236 395.778 277.779V269.872H478.581V325.525H394.043V312.661L403.264 321.785C403.511 322.041 403.795 322.229 404.1 322.338C404.404 322.447 404.722 322.473 405.035 322.416C405.347 322.359 405.647 322.22 405.918 322.007C406.188 321.794 406.422 321.511 406.605 321.176L409.179 316.721C409.373 316.399 409.516 316.029 409.598 315.633C409.68 315.237 409.7 314.823 409.656 314.417C409.613 314.011 409.507 313.62 409.344 313.269C409.182 312.917 408.968 312.612 408.713 312.372L371.642 275.878L365.646 269.872ZM329.169 288.119C329.379 285.963 330.016 283.916 331.016 282.179C332.016 280.442 333.345 279.075 334.872 278.213C336.4 277.35 338.073 277.022 339.727 277.261C341.38 277.499 342.958 278.297 344.305 279.573C344.835 281.215 345.046 283.002 344.919 284.775C344.792 286.549 344.331 288.253 343.577 289.738C342.823 291.222 341.8 292.44 340.598 293.282C339.397 294.125 338.054 294.566 336.69 294.566C335.088 294.562 333.522 293.95 332.18 292.806C330.839 291.662 329.781 290.034 329.134 288.119H329.169ZM280.13 409.568V385.391H345.62V409.629C345.651 410.058 345.804 410.458 346.048 410.748C346.293 411.039 346.611 411.2 346.942 411.2C347.272 411.2 347.591 411.039 347.835 410.748C348.08 410.458 348.232 410.058 348.263 409.629V385.391H352.839V409.629C352.87 410.058 353.022 410.458 353.267 410.748C353.511 411.039 353.83 411.2 354.16 411.2C354.491 411.2 354.81 411.039 355.054 410.748C355.298 410.458 355.451 410.058 355.482 409.629V405.067H386.149V409.629C386.18 410.058 386.333 410.458 386.577 410.748C386.821 411.039 387.14 411.2 387.471 411.2C387.801 411.2 388.12 411.039 388.364 410.748C388.608 410.458 388.761 410.058 388.792 409.629V385.391H393.379V409.629C393.41 410.058 393.563 410.458 393.807 410.748C394.052 411.039 394.37 411.2 394.701 411.2C395.031 411.2 395.35 411.039 395.594 410.748C395.839 410.458 395.991 410.058 396.022 409.629V385.391H403.578V409.629C403.609 410.058 403.762 410.458 404.006 410.748C404.251 411.039 404.569 411.2 404.9 411.2C405.23 411.2 405.549 411.039 405.793 410.748C406.038 410.458 406.19 410.058 406.221 409.629V391.153H456.716V409.629C456.747 410.058 456.9 410.458 457.144 410.748C457.388 411.039 457.707 411.2 458.038 411.2C458.368 411.2 458.687 411.039 458.931 410.748C459.176 410.458 459.328 410.058 459.359 409.629V385.391H470.897V409.629C470.897 410.084 471.036 410.521 471.282 410.844C471.529 411.166 471.864 411.347 472.213 411.347C472.562 411.347 472.896 411.166 473.143 410.844C473.39 410.521 473.528 410.084 473.528 409.629V383.657C473.528 383.201 473.39 382.764 473.143 382.442C472.896 382.12 472.562 381.939 472.213 381.939H471.596V337.431H479.955C480.305 337.431 480.641 337.251 480.89 336.929C481.138 336.607 481.279 336.17 481.283 335.713V268.139C481.279 267.682 481.138 267.245 480.89 266.923C480.641 266.601 480.305 266.42 479.955 266.42H395.778V260.034C395.775 259.577 395.633 259.14 395.385 258.818C395.136 258.496 394.8 258.316 394.45 258.316H394.078V245.953H394.45C394.8 245.954 395.136 245.773 395.385 245.451C395.633 245.129 395.775 244.692 395.778 244.235V237.803C395.778 237.343 395.638 236.903 395.389 236.577C395.14 236.252 394.802 236.07 394.45 236.07H394.078V231.371C394.079 231.144 394.046 230.919 393.981 230.709C393.916 230.499 393.819 230.308 393.697 230.146C393.574 229.985 393.429 229.857 393.268 229.77C393.108 229.683 392.936 229.638 392.762 229.638H381.83C381.478 229.638 381.14 229.82 380.891 230.145C380.642 230.47 380.502 230.911 380.502 231.371V236.07H380.13C379.78 236.074 379.445 236.258 379.199 236.583C378.952 236.907 378.814 237.346 378.814 237.803V244.235C378.817 244.69 378.957 245.124 379.203 245.446C379.449 245.767 379.782 245.95 380.13 245.953H380.502V258.361H380.13C379.782 258.365 379.449 258.548 379.203 258.869C378.957 259.19 378.817 259.625 378.814 260.08V266.466H362.153L337.61 242.304C337.38 242.072 337.097 241.947 336.807 241.947C336.516 241.947 336.234 242.072 336.003 242.304L264.831 312.342C264.326 312.847 263.992 313.589 263.899 314.41C263.815 315.23 263.982 316.061 264.365 316.721L266.938 321.176C267.122 321.511 267.356 321.794 267.626 322.007C267.896 322.22 268.197 322.359 268.509 322.416C268.822 322.473 269.14 322.447 269.444 322.338C269.748 322.229 270.033 322.041 270.28 321.785L279.489 312.661V381.939H278.826C278.477 381.939 278.142 382.12 277.895 382.442C277.649 382.764 277.51 383.201 277.51 383.657V409.629C277.51 410.084 277.649 410.521 277.895 410.844C278.142 411.166 278.477 411.347 278.826 411.347C279.174 411.347 279.509 411.166 279.756 410.844C280.003 410.521 280.141 410.084 280.141 409.629L280.13 409.568ZM371.922 276.061C371.853 275.939 371.77 275.832 371.677 275.742L371.922 276.061ZM337.831 242.517C337.763 242.4 337.685 242.293 337.599 242.198L337.831 242.517Z" fill="#434343"/>
<path d="M368.288 346.205C369.047 345.759 369.824 345.368 370.617 345.034V372.405H368.288V346.205Z" fill="url(#paint41_linear_2_413)"/>
<path d="M467.789 103.095C468.669 100.996 469.184 98.6679 469.297 96.2784C469.41 93.8888 469.117 91.4962 468.441 89.2712C467.764 87.0463 466.719 85.0438 465.382 83.4067C464.044 81.7696 462.447 80.5381 460.703 79.8002C458.959 79.0623 457.112 78.8361 455.293 79.1377C453.475 79.4394 451.73 80.2614 450.182 81.5453C448.635 82.8291 447.324 84.5431 446.342 86.5649C445.36 88.5868 444.733 90.8666 444.503 93.2419C442.937 91.8803 441.134 91.053 439.26 90.8357C437.386 90.6184 435.5 91.0181 433.774 91.9981C432.049 92.9781 430.539 94.5073 429.383 96.4458C428.227 98.3844 427.461 100.67 427.155 103.095H467.789Z" fill="white"/>
<path d="M492.18 103.095C493.07 101.28 493.543 99.1689 493.542 97.013C493.542 93.9884 492.622 91.0876 490.984 88.9489C489.347 86.8102 487.126 85.6086 484.81 85.6086C482.494 85.6086 480.273 86.8102 478.635 88.9489C476.998 91.0876 476.078 93.9884 476.078 97.013C476.077 99.1689 476.55 101.28 477.44 103.095H492.18Z" fill="white"/>
<path d="M515.361 103.095C517.656 103.095 519.517 100.665 519.517 97.6668C519.517 94.6687 517.656 92.2383 515.361 92.2383C513.065 92.2383 511.204 94.6687 511.204 97.6668C511.204 100.665 513.065 103.095 515.361 103.095Z" fill="white"/>
<path d="M413.742 103.095C413.124 99.1252 411.707 95.4417 409.638 92.4236C407.569 89.4055 404.921 87.1617 401.968 85.9229C399.014 84.6841 395.862 84.4951 392.834 85.3752C389.806 86.2553 387.012 88.1729 384.74 90.9306C384.537 85.0015 382.681 79.3736 379.523 75.1064C376.364 70.8393 372.121 68.2272 367.59 67.7618C363.06 67.2965 358.555 69.01 354.925 72.5798C351.294 76.1496 348.788 81.3295 347.878 87.1444C346.036 85.5194 343.85 84.6906 341.627 84.7749C339.405 84.8592 337.259 85.8523 335.492 87.6142C333.725 89.3761 332.426 91.818 331.778 94.5954C331.13 97.3729 331.166 100.346 331.881 103.095H413.695H413.742Z" fill="white"/>
<path d="M226.526 92.74C226.526 94.7911 226.06 96.7961 225.188 98.5014C224.315 100.207 223.075 101.536 221.624 102.321C220.173 103.106 218.577 103.311 217.036 102.911C215.496 102.511 214.081 101.523 212.971 100.073C211.86 98.6226 211.104 96.7748 210.798 94.7632C210.491 92.7515 210.648 90.6664 211.249 88.7714C211.85 86.8765 212.868 85.2569 214.174 84.1174C215.48 82.9778 217.015 82.3696 218.585 82.3696C220.691 82.3696 222.711 83.4622 224.2 85.4071C225.689 87.3519 226.526 89.9896 226.526 92.74Z" fill="white"/>
<path d="M197.221 103.095C200.205 103.095 202.623 99.9364 202.623 96.0397C202.623 92.1431 200.205 88.9843 197.221 88.9843C194.238 88.9843 191.819 92.1431 191.819 96.0397C191.819 99.9364 194.238 103.095 197.221 103.095Z" fill="white"/>
<path d="M297.558 61.0664C310.47 61.0664 320.937 47.3962 320.937 30.5332C320.937 13.6702 310.47 0 297.558 0C284.647 0 274.18 13.6702 274.18 30.5332C274.18 47.3962 284.647 61.0664 297.558 61.0664Z" fill="url(#paint42_linear_2_413)"/>
<path d="M235.793 103.095C234.539 100.152 233.799 96.882 233.628 93.5208C233.456 90.1596 233.856 86.7905 234.8 83.6555C235.744 80.5206 237.208 77.6976 239.087 75.3894C240.965 73.0813 243.212 71.3453 245.666 70.3061C248.119 69.267 250.719 68.9506 253.277 69.3795C255.835 69.8085 258.289 70.9723 260.462 72.7872C262.635 74.602 264.473 77.023 265.845 79.8761C267.216 82.7292 268.086 85.9436 268.393 89.2883C270.588 87.3874 273.113 86.234 275.737 85.9332C278.361 85.6324 281.001 86.1937 283.416 87.5662C285.831 88.9386 287.945 91.0784 289.565 93.7907C291.185 96.503 292.26 99.7016 292.692 103.095H235.793Z" fill="white"/>
<path d="M292.646 104.783H235.794C235.557 104.787 235.324 104.707 235.119 104.551C234.914 104.396 234.745 104.171 234.63 103.901C233.32 100.832 232.531 97.432 232.316 93.9302C232.1 90.4284 232.464 86.9071 233.382 83.6048C234.299 80.3026 235.75 77.2966 237.635 74.7905C239.52 72.2844 241.796 70.3368 244.307 69.0797C246.819 67.8226 249.509 67.2853 252.193 67.5042C254.878 67.7231 257.495 68.6932 259.868 70.3487C262.24 72.0041 264.313 74.3063 265.944 77.0992C267.576 79.8921 268.729 83.1104 269.325 86.5361C271.722 84.9488 274.371 84.1207 277.058 84.119C279.745 84.1172 282.395 84.9419 284.793 86.5261C287.19 88.1104 289.269 90.4098 290.86 93.2382C292.45 96.0665 293.509 99.3443 293.95 102.806C293.98 103.054 293.968 103.308 293.916 103.549C293.864 103.791 293.772 104.015 293.647 104.205C293.522 104.39 293.367 104.537 293.194 104.637C293.022 104.736 292.835 104.786 292.646 104.783ZM236.586 101.331H291.004C290.389 98.4628 289.264 95.8247 287.719 93.6328C286.175 91.4408 284.255 89.7571 282.117 88.7191C279.98 87.6812 277.684 87.3184 275.418 87.6605C273.152 88.0025 270.981 89.0397 269.081 90.6873C268.893 90.8499 268.678 90.9477 268.454 90.9717C268.23 90.9956 268.005 90.9448 267.8 90.8242C267.595 90.7029 267.418 90.5146 267.285 90.2775C267.153 90.0404 267.069 89.7625 267.043 89.4708C266.762 86.4258 265.974 83.4979 264.736 80.8918C263.498 78.2856 261.839 76.0641 259.875 74.3826C257.91 72.7012 255.689 71.6002 253.365 71.1569C251.041 70.7135 248.671 70.9384 246.421 71.8158C244.171 72.6932 242.094 74.202 240.337 76.2366C238.58 78.2712 237.184 80.7826 236.247 83.5952C235.31 86.4077 234.855 89.4535 234.914 92.5197C234.972 95.5859 235.543 98.5984 236.586 101.347V101.331Z" fill="#434343"/>
<path d="M218.586 104.783C216.739 104.798 214.93 104.096 213.389 102.765C211.849 101.434 210.646 99.5348 209.934 97.3089C209.221 95.0831 209.032 92.6309 209.39 90.2641C209.747 87.8973 210.635 85.7229 211.941 84.017C213.248 82.3112 214.913 81.1511 216.725 80.6842C218.537 80.2172 220.415 80.4645 222.119 81.3946C223.823 82.3248 225.277 83.8957 226.296 85.9078C227.315 87.9198 227.853 90.2822 227.842 92.6945C227.811 93.1243 227.658 93.5235 227.414 93.8141C227.169 94.1048 226.851 94.2658 226.52 94.2658C226.19 94.2658 225.871 94.1048 225.627 93.8141C225.382 93.5235 225.23 93.1243 225.199 92.6945C225.199 90.9863 224.811 89.3165 224.084 87.8961C223.358 86.4758 222.325 85.3688 221.116 84.7151C219.908 84.0614 218.578 83.8903 217.296 84.2236C216.013 84.5568 214.834 85.3794 213.91 86.5873C212.985 87.7952 212.355 89.3342 212.1 91.0096C211.844 92.6849 211.975 94.4215 212.476 95.9997C212.976 97.5779 213.824 98.9268 214.912 99.8758C215.999 100.825 217.278 101.331 218.586 101.331C218.915 101.372 219.22 101.571 219.443 101.89C219.665 102.209 219.789 102.626 219.789 103.057C219.789 103.489 219.665 103.905 219.443 104.224C219.22 104.543 218.915 104.743 218.586 104.783Z" fill="#434343"/>
<path d="M413.742 104.783C413.437 104.784 413.142 104.646 412.906 104.394C412.67 104.141 412.509 103.79 412.45 103.399C411.873 99.7389 410.562 96.3443 408.651 93.563C406.739 90.7817 404.297 88.7137 401.572 87.5705C398.848 86.4273 395.94 86.25 393.146 87.0568C390.352 87.8636 387.773 89.6256 385.671 92.1622C385.487 92.3837 385.259 92.5327 385.013 92.5922C384.767 92.6517 384.513 92.6191 384.281 92.4983C384.048 92.3775 383.847 92.1734 383.699 91.9095C383.552 91.6455 383.465 91.3326 383.447 91.0066C383.173 85.5699 381.409 80.4441 378.477 76.5674C375.546 72.6906 371.644 70.3223 367.484 69.8958C363.325 69.4693 359.188 71.0132 355.829 74.2449C352.47 77.4766 350.115 82.1799 349.194 87.4941C349.149 87.7673 349.053 88.0218 348.915 88.2355C348.777 88.4493 348.601 88.6158 348.402 88.7207C348.204 88.8256 347.989 88.8656 347.776 88.8374C347.563 88.8091 347.358 88.7134 347.18 88.5585C345.633 87.2291 343.817 86.5326 341.965 86.5577C340.113 86.5829 338.308 87.3286 336.782 88.6997C335.256 90.0707 334.078 92.0048 333.398 94.2549C332.718 96.5049 332.567 98.9686 332.964 101.331H372.911C373.24 101.372 373.546 101.571 373.768 101.89C373.991 102.209 374.114 102.626 374.114 103.057C374.114 103.489 373.991 103.905 373.768 104.224C373.546 104.543 373.24 104.743 372.911 104.783H331.881C331.605 104.782 331.335 104.666 331.112 104.453C330.888 104.24 330.721 103.941 330.636 103.597C330.224 102.01 330.015 100.346 330.019 98.6703C330.022 94.5379 331.28 90.5759 333.517 87.6538C335.755 84.7318 338.788 83.0884 341.952 83.0844C343.699 83.0946 345.421 83.6141 346.994 84.6049C348.347 79.0724 351.073 74.2864 354.741 71.0032C358.409 67.7201 362.811 66.1271 367.249 66.4759C371.688 66.8247 375.912 69.0955 379.252 72.9294C382.593 76.7633 384.859 81.9416 385.695 87.6461C388.861 84.679 392.66 83.0835 396.557 83.0844C400.887 83.0985 405.082 85.057 408.438 88.6312C411.794 92.2055 414.106 97.1781 414.988 102.715C415.057 103.162 414.988 103.627 414.796 104.009C414.604 104.39 414.305 104.658 413.963 104.753L413.742 104.783Z" fill="#434343"/>
<path d="M427.19 104.783H426.98C426.809 104.748 426.644 104.669 426.496 104.55C426.348 104.432 426.219 104.276 426.118 104.092C426.016 103.908 425.943 103.7 425.903 103.479C425.863 103.259 425.857 103.03 425.886 102.806C426.202 100.309 426.956 97.9406 428.088 95.8859C429.22 93.8311 430.7 92.1451 432.412 90.9593C434.125 89.7734 436.023 89.1195 437.961 89.0486C439.898 88.9777 441.822 89.4916 443.583 90.5503C444.435 86.3252 446.435 82.6494 449.21 80.2093C451.985 77.7692 455.345 76.7316 458.663 77.2903C461.981 77.8489 465.03 79.9656 467.241 83.2452C469.451 86.5247 470.672 90.7429 470.676 95.1121C470.676 95.5678 470.537 96.0048 470.29 96.327C470.044 96.6493 469.709 96.8303 469.36 96.8303C469.011 96.8303 468.676 96.6493 468.43 96.327C468.183 96.0048 468.044 95.5678 468.044 95.1121C468.069 91.3863 466.998 87.7903 465.052 85.0664C463.105 82.3424 460.432 80.6986 457.585 80.4742C454.737 80.2498 451.932 81.462 449.749 83.8605C447.566 86.259 446.171 89.6608 445.853 93.3634C445.824 93.6555 445.739 93.9335 445.607 94.1724C445.475 94.4112 445.299 94.6035 445.096 94.7319C444.889 94.8525 444.663 94.9032 444.437 94.8793C444.211 94.8554 443.993 94.7576 443.804 94.5951C442.416 93.4058 440.823 92.6887 439.168 92.509C437.514 92.3293 435.852 92.6927 434.332 93.5662C432.813 94.4397 431.485 95.7954 430.47 97.5101C429.454 99.2249 428.783 101.244 428.517 103.384C428.457 103.784 428.291 104.143 428.048 104.399C427.805 104.655 427.501 104.791 427.19 104.783Z" fill="#434343"/>
<path d="M140.998 84.1488H55.1904V134.693H122.078L140.998 159.661V84.1488Z" fill="white"/>
<path d="M52.8604 85.2677V129.79H121.669L138.668 152.219V129.79V85.2677H52.8604Z" fill="#434343"/>
<path d="M422.695 179.154V254.666L441.615 229.714H508.503V179.154H422.695Z" fill="white"/>
<path d="M422.695 179.154V223.692V246.105L439.694 223.692H508.503V179.154H422.695Z" fill="#434343"/>
<path d="M576.998 52.9618H662.806V103.521H595.929L576.998 128.489V52.9618Z" fill="white"/>
<path d="M662.806 52.9618V97.4995H593.997L576.998 119.928V97.4995V52.9618H662.806Z" fill="#434343"/>
<path d="M379.128 104.783C378.799 104.743 378.494 104.543 378.271 104.224C378.049 103.905 377.925 103.489 377.925 103.057C377.925 102.626 378.049 102.209 378.271 101.89C378.494 101.571 378.799 101.372 379.128 101.331H393.251C393.58 101.372 393.886 101.571 394.108 101.89C394.331 102.209 394.454 102.626 394.454 103.057C394.454 103.489 394.331 103.905 394.108 104.224C393.886 104.543 393.58 104.743 393.251 104.783H379.128Z" fill="#434343"/>
<path d="M446.621 104.783C446.437 104.805 446.252 104.778 446.077 104.701C445.901 104.625 445.74 104.501 445.604 104.339C445.467 104.176 445.358 103.978 445.283 103.758C445.209 103.537 445.17 103.298 445.17 103.057C445.17 102.816 445.209 102.577 445.283 102.356C445.358 102.136 445.467 101.938 445.604 101.775C445.74 101.613 445.901 101.489 446.077 101.413C446.252 101.336 446.437 101.309 446.621 101.331H481.096C481.425 101.371 481.731 101.571 481.953 101.89C482.176 102.209 482.299 102.625 482.299 103.057C482.299 103.489 482.176 103.905 481.953 104.224C481.731 104.543 481.425 104.742 481.096 104.783H446.621Z" fill="#434343"/>
<path d="M1.45144 410.769C1.26748 410.792 1.08197 410.764 0.906717 410.687C0.731468 410.611 0.570355 410.487 0.433728 410.325C0.2971 410.162 0.187961 409.965 0.113273 409.744C0.0385856 409.523 0 409.284 0 409.043C0 408.802 0.0385856 408.563 0.113273 408.342C0.187961 408.122 0.2971 407.924 0.433728 407.761C0.570355 407.599 0.731468 407.476 0.906717 407.399C1.08197 407.323 1.26748 407.295 1.45144 407.317L722.065 407.317C722.395 407.358 722.7 407.557 722.923 407.876C723.145 408.195 723.269 408.611 723.269 409.043C723.269 409.475 723.145 409.891 722.923 410.21C722.7 410.529 722.395 410.729 722.065 410.769H1.45144Z" fill="#434343"/>
<path d="M487.092 104.783C486.763 104.743 486.457 104.543 486.235 104.224C486.012 103.905 485.889 103.489 485.889 103.057C485.889 102.626 486.012 102.209 486.235 101.89C486.457 101.571 486.763 101.372 487.092 101.331H495.079C495.408 101.372 495.714 101.571 495.936 101.89C496.159 102.209 496.282 102.626 496.282 103.057C496.282 103.489 496.159 103.905 495.936 104.224C495.714 104.543 495.408 104.743 495.079 104.783H487.092Z" fill="#434343"/>
<path d="M188.733 104.783C188.404 104.742 188.098 104.543 187.876 104.224C187.653 103.905 187.53 103.489 187.53 103.057C187.53 102.625 187.653 102.209 187.876 101.89C188.098 101.571 188.404 101.371 188.733 101.331H202.844C203.028 101.309 203.213 101.336 203.389 101.413C203.564 101.489 203.725 101.613 203.862 101.775C203.998 101.938 204.107 102.136 204.182 102.356C204.257 102.577 204.295 102.816 204.295 103.057C204.295 103.298 204.257 103.537 204.182 103.758C204.107 103.978 203.998 104.176 203.862 104.339C203.725 104.501 203.564 104.625 203.389 104.701C203.213 104.778 203.028 104.805 202.844 104.783H188.733Z" fill="#434343"/>
<defs>
<linearGradient id="paint0_linear_2_413" x1="656.198" y1="32.2666" x2="656.198" y2="409.629" gradientUnits="userSpaceOnUse">
<stop stop-color="#53CAA6"/>
<stop offset="0.65625" stop-color="#53CAA6" stop-opacity="0"/>
</linearGradient>
<linearGradient id="paint1_linear_2_413" x1="563.48" y1="409.629" x2="563.48" y2="161.516" gradientUnits="userSpaceOnUse">
<stop stop-color="#53CAA6"/>
<stop offset="0.65625" stop-color="#53CAA6" stop-opacity="0"/>
</linearGradient>
<linearGradient id="paint2_linear_2_413" x1="479.07" y1="125.037" x2="479.07" y2="409.628" gradientUnits="userSpaceOnUse">
<stop stop-color="#53CAA6"/>
<stop offset="0.65625" stop-color="#53CAA6" stop-opacity="0"/>
</linearGradient>
<linearGradient id="paint3_linear_2_413" x1="532.697" y1="307.826" x2="532.697" y2="380.388" gradientUnits="userSpaceOnUse">
<stop offset="0.432292" stop-color="#74D2B6"/>
<stop offset="1" stop-color="#74D2B6" stop-opacity="0"/>
</linearGradient>
<linearGradient id="paint4_linear_2_413" x1="67.5609" y1="409.629" x2="67.5609" y2="57.8428" gradientUnits="userSpaceOnUse">
<stop stop-color="#53CAA6"/>
<stop offset="0.65625" stop-color="#53CAA6" stop-opacity="0"/>
</linearGradient>
<linearGradient id="paint5_linear_2_413" x1="18.4978" y1="156.209" x2="18.4978" y2="409.629" gradientUnits="userSpaceOnUse">
<stop stop-color="#53CAA6"/>
<stop offset="0.65625" stop-color="#53CAA6" stop-opacity="0"/>
</linearGradient>
<linearGradient id="paint6_linear_2_413" x1="177.254" y1="199.348" x2="177.254" y2="409.628" gradientUnits="userSpaceOnUse">
<stop stop-color="#53CAA6"/>
<stop offset="0.65625" stop-color="#53CAA6" stop-opacity="0"/>
</linearGradient>
<linearGradient id="paint7_linear_2_413" x1="235.363" y1="307.826" x2="235.363" y2="380.388" gradientUnits="userSpaceOnUse">
<stop offset="0.432292" stop-color="#74D2B6"/>
<stop offset="1" stop-color="#74D2B6" stop-opacity="0"/>
</linearGradient>
<linearGradient id="paint8_linear_2_413" x1="591.866" y1="355.724" x2="591.866" y2="403.288" gradientUnits="userSpaceOnUse">
<stop stop-color="#53CAA6"/>
<stop offset="0.65625" stop-color="#53CAA6" stop-opacity="0"/>
</linearGradient>
<linearGradient id="paint9_linear_2_413" x1="591.306" y1="369.212" x2="591.306" y2="403.288" gradientUnits="userSpaceOnUse">
<stop stop-color="#5CCCAA"/>
<stop offset="1" stop-color="#CEF6F7" stop-opacity="0"/>
</linearGradient>
<linearGradient id="paint10_linear_2_413" x1="606.53" y1="135.453" x2="606.53" y2="194.548" gradientUnits="userSpaceOnUse">
<stop stop-color="#B1E2D3"/>
<stop offset="1" stop-color="#B1E2D3" stop-opacity="0"/>
</linearGradient>
<linearGradient id="paint11_linear_2_413" x1="606.536" y1="207.544" x2="606.536" y2="213.003" gradientUnits="userSpaceOnUse">
<stop stop-color="#B1E2D3"/>
<stop offset="1" stop-color="#B1E2D3" stop-opacity="0"/>
</linearGradient>
<linearGradient id="paint12_linear_2_413" x1="606.536" y1="335.439" x2="606.536" y2="340.883" gradientUnits="userSpaceOnUse">
<stop stop-color="#B1E2D3"/>
<stop offset="1" stop-color="#B1E2D3" stop-opacity="0"/>
</linearGradient>
<linearGradient id="paint13_linear_2_413" x1="608.474" y1="222.658" x2="608.474" y2="252.887" gradientUnits="userSpaceOnUse">
<stop stop-color="#53CAA6"/>
<stop offset="0.65625" stop-color="#53CAA6" stop-opacity="0"/>
</linearGradient>
<linearGradient id="paint14_linear_2_413" x1="575.257" y1="222.658" x2="575.257" y2="252.887" gradientUnits="userSpaceOnUse">
<stop stop-color="#53CAA6"/>
<stop offset="0.65625" stop-color="#53CAA6" stop-opacity="0"/>
</linearGradient>
<linearGradient id="paint15_linear_2_413" x1="641.691" y1="289.183" x2="641.691" y2="319.412" gradientUnits="userSpaceOnUse">
<stop stop-color="#53CAA6"/>
<stop offset="0.65625" stop-color="#53CAA6" stop-opacity="0"/>
</linearGradient>
<linearGradient id="paint16_linear_2_413" x1="608.474" y1="289.183" x2="608.474" y2="319.412" gradientUnits="userSpaceOnUse">
<stop stop-color="#53CAA6"/>
<stop offset="0.65625" stop-color="#53CAA6" stop-opacity="0"/>
</linearGradient>
<linearGradient id="paint17_linear_2_413" x1="575.257" y1="289.183" x2="575.257" y2="319.412" gradientUnits="userSpaceOnUse">
<stop stop-color="#53CAA6"/>
<stop offset="0.65625" stop-color="#53CAA6" stop-opacity="0"/>
</linearGradient>
<linearGradient id="paint18_linear_2_413" x1="641.691" y1="355.724" x2="641.691" y2="403.288" gradientUnits="userSpaceOnUse">
<stop stop-color="#53CAA6"/>
<stop offset="0.65625" stop-color="#53CAA6" stop-opacity="0"/>
</linearGradient>
<linearGradient id="paint19_linear_2_413" x1="641.691" y1="222.658" x2="641.691" y2="252.887" gradientUnits="userSpaceOnUse">
<stop stop-color="#53CAA6"/>
<stop offset="0.65625" stop-color="#53CAA6" stop-opacity="0"/>
</linearGradient>
<linearGradient id="paint20_linear_2_413" x1="574.949" y1="348.836" x2="574.949" y2="362.886" gradientUnits="userSpaceOnUse">
<stop stop-color="#BFE6DA"/>
<stop offset="1" stop-color="#BFE6DA" stop-opacity="0"/>
</linearGradient>
<linearGradient id="paint21_linear_2_413" x1="586.935" y1="348.836" x2="586.935" y2="363.145" gradientUnits="userSpaceOnUse">
<stop stop-color="#BFE6DA"/>
<stop offset="1" stop-color="#BFE6DA" stop-opacity="0"/>
</linearGradient>
<linearGradient id="paint22_linear_2_413" x1="598.915" y1="348.836" x2="598.915" y2="363.145" gradientUnits="userSpaceOnUse">
<stop stop-color="#BFE6DA"/>
<stop offset="1" stop-color="#BFE6DA" stop-opacity="0"/>
</linearGradient>
<linearGradient id="paint23_linear_2_413" x1="610.897" y1="348.836" x2="610.897" y2="363.145" gradientUnits="userSpaceOnUse">
<stop stop-color="#BFE6DA"/>
<stop offset="1" stop-color="#BFE6DA" stop-opacity="0"/>
</linearGradient>
<linearGradient id="paint24_linear_2_413" x1="85.4497" y1="170.594" x2="85.4497" y2="303.454" gradientUnits="userSpaceOnUse">
<stop stop-color="#B1E2D3"/>
<stop offset="1" stop-color="#B1E2D3" stop-opacity="0"/>
</linearGradient>
<linearGradient id="paint25_linear_2_413" x1="123.981" y1="349.398" x2="123.981" y2="407.91" gradientUnits="userSpaceOnUse">
<stop stop-color="#B1E2D3"/>
<stop offset="1" stop-color="#B1E2D3" stop-opacity="0"/>
</linearGradient>
<linearGradient id="paint26_linear_2_413" x1="81.4969" y1="207.635" x2="81.4969" y2="316.098" gradientUnits="userSpaceOnUse">
<stop stop-color="#53CAA6"/>
<stop offset="0.65625" stop-color="#53CAA6" stop-opacity="0"/>
</linearGradient>
<linearGradient id="paint27_linear_2_413" x1="157.74" y1="207.635" x2="157.74" y2="343.058" gradientUnits="userSpaceOnUse">
<stop stop-color="#53CAA6"/>
<stop offset="0.65625" stop-color="#53CAA6" stop-opacity="0"/>
</linearGradient>
<linearGradient id="paint28_linear_2_413" x1="157.74" y1="277.308" x2="157.74" y2="333.752" gradientUnits="userSpaceOnUse">
<stop stop-color="#B1E2D3"/>
<stop offset="1" stop-color="#B1E2D3" stop-opacity="0"/>
</linearGradient>
<linearGradient id="paint29_linear_2_413" x1="157.74" y1="300.725" x2="157.74" y2="343.058" gradientUnits="userSpaceOnUse">
<stop stop-color="#B1E2D3"/>
<stop offset="1" stop-color="#B1E2D3" stop-opacity="0"/>
</linearGradient>
<linearGradient id="paint30_linear_2_413" x1="79.6455" y1="349.398" x2="79.6455" y2="407.91" gradientUnits="userSpaceOnUse">
<stop stop-color="#B1E2D3"/>
<stop offset="1" stop-color="#B1E2D3" stop-opacity="0"/>
</linearGradient>
<linearGradient id="paint31_linear_2_413" x1="380.275" y1="275.883" x2="380.275" y2="288.342" gradientUnits="userSpaceOnUse">
<stop stop-color="#BFE6DA"/>
<stop offset="1" stop-color="#BFE6DA" stop-opacity="0"/>
</linearGradient>
<linearGradient id="paint32_linear_2_413" x1="367.817" y1="266.537" x2="367.817" y2="276.086" gradientUnits="userSpaceOnUse">
<stop stop-color="#BFE6DA"/>
<stop offset="1" stop-color="#BFE6DA" stop-opacity="0"/>
</linearGradient>
<linearGradient id="paint33_linear_2_413" x1="467.469" y1="266.567" x2="467.469" y2="322.479" gradientUnits="userSpaceOnUse">
<stop stop-color="#BFE6DA"/>
<stop offset="1" stop-color="#BFE6DA" stop-opacity="0"/>
</linearGradient>
<linearGradient id="paint34_linear_2_413" x1="455.011" y1="266.567" x2="455.011" y2="322.479" gradientUnits="userSpaceOnUse">
<stop stop-color="#BFE6DA"/>
<stop offset="1" stop-color="#BFE6DA" stop-opacity="0"/>
</linearGradient>
<linearGradient id="paint35_linear_2_413" x1="442.552" y1="266.567" x2="442.552" y2="322.479" gradientUnits="userSpaceOnUse">
<stop stop-color="#BFE6DA"/>
<stop offset="1" stop-color="#BFE6DA" stop-opacity="0"/>
</linearGradient>
<linearGradient id="paint36_linear_2_413" x1="430.094" y1="266.567" x2="430.094" y2="322.479" gradientUnits="userSpaceOnUse">
<stop stop-color="#BFE6DA"/>
<stop offset="1" stop-color="#BFE6DA" stop-opacity="0"/>
</linearGradient>
<linearGradient id="paint37_linear_2_413" x1="417.643" y1="266.421" x2="417.643" y2="322.302" gradientUnits="userSpaceOnUse">
<stop stop-color="#BFE6DA"/>
<stop offset="1" stop-color="#BFE6DA" stop-opacity="0"/>
</linearGradient>
<linearGradient id="paint38_linear_2_413" x1="405.185" y1="266.421" x2="405.185" y2="312.692" gradientUnits="userSpaceOnUse">
<stop stop-color="#BFE6DA"/>
<stop offset="1" stop-color="#BFE6DA" stop-opacity="0"/>
</linearGradient>
<linearGradient id="paint39_linear_2_413" x1="392.727" y1="276.061" x2="392.727" y2="300.436" gradientUnits="userSpaceOnUse">
<stop stop-color="#BFE6DA"/>
<stop offset="1" stop-color="#BFE6DA" stop-opacity="0"/>
</linearGradient>
<linearGradient id="paint40_linear_2_413" x1="380.368" y1="254.104" x2="380.368" y2="409.659" gradientUnits="userSpaceOnUse">
<stop stop-color="#53CAA6"/>
<stop offset="0.65625" stop-color="#53CAA6" stop-opacity="0"/>
</linearGradient>
<linearGradient id="paint41_linear_2_413" x1="369.452" y1="345.034" x2="369.452" y2="372.405" gradientUnits="userSpaceOnUse">
<stop stop-color="#BFE6DA"/>
<stop offset="1" stop-color="#BFE6DA" stop-opacity="0"/>
</linearGradient>
<linearGradient id="paint42_linear_2_413" x1="320.99" y1="-13.3763" x2="284.707" y2="54.1627" gradientUnits="userSpaceOnUse">
<stop stop-color="#8DD9C2"/>
<stop offset="1" stop-color="#8DD9C2" stop-opacity="0"/>
</linearGradient>
</defs>
</svg>
