<svg width="340" height="340" viewBox="0 0 340 340" fill="none" xmlns="http://www.w3.org/2000/svg">
<g filter="url(#filter0_ii_540_986)">
<rect width="326" height="326" rx="163" fill="#EDEDED"/>
</g>
<g filter="url(#filter1_diii_540_986)">
<rect x="56" y="56" width="214" height="214" rx="107" fill="#EDEDED"/>
</g>
<g clip-path="url(#clip0_540_986)">
<path d="M163 211C193.376 211 218 186.376 218 156C218 125.624 193.376 101 163 101C132.624 101 108 125.624 108 156C108 186.376 132.624 211 163 211Z" fill="#12B7B6"/>
<path d="M195 128H145V188H195V128Z" fill="white"/>
<path d="M173.725 174C173.725 178.419 177.306 182 181.725 182C186.143 182 190.14 178.399 189.725 174C189.302 169.524 185.832 165.958 181.725 166C177.306 166.046 173.725 169.582 173.725 174Z" fill="#12B7B6"/>
<path d="M173.725 174C173.725 178.42 177.305 182 181.725 182C185.084 182 187.958 179.934 189.145 177L174.365 170.847C173.951 171.814 173.725 172.88 173.725 174Z" fill="#0081A1"/>
<path d="M173.712 174.003C173.712 176.823 175.172 179.303 177.378 180.73L181.705 173.91L174.352 170.85C173.938 171.816 173.712 172.884 173.712 174.003Z" fill="#12B7B6"/>
<path d="M174.364 170.847L181.724 173.914V166C178.424 166 175.591 168 174.364 170.847Z" fill="#33899E"/>
<path d="M189 141H185V159H189V141Z" fill="#12B7B6"/>
<path d="M181.712 149H177.712V159H181.712V149Z" fill="#12B7B6"/>
<path d="M168.333 170.667C169.161 170.667 169.833 169.995 169.833 169.167C169.833 168.339 169.161 167.667 168.333 167.667C167.505 167.667 166.833 168.339 166.833 169.167C166.833 169.995 167.505 170.667 168.333 170.667Z" fill="#12B7B6"/>
<path d="M164.712 168.667H154.712V169.667H164.712V168.667Z" fill="#12B7B6"/>
<path d="M168.333 175.833C169.161 175.833 169.833 175.161 169.833 174.333C169.833 173.505 169.161 172.833 168.333 172.833C167.505 172.833 166.833 173.505 166.833 174.333C166.833 175.161 167.505 175.833 168.333 175.833Z" fill="#12B7B6"/>
<path d="M164.712 173.833H154.712V174.833H164.712V173.833Z" fill="#12B7B6"/>
<path d="M168.333 181C169.161 181 169.833 180.328 169.833 179.5C169.833 178.672 169.161 178 168.333 178C167.505 178 166.833 178.672 166.833 179.5C166.833 180.328 167.505 181 168.333 181Z" fill="#12B7B6"/>
<path d="M164.712 179H154.712V180H164.712V179Z" fill="#12B7B6"/>
<path d="M147.742 159.021L136.944 169.819C135.599 171.163 133.422 171.163 132.077 169.819C130.733 168.474 130.733 166.297 132.077 164.952L142.899 154.13C144.098 156.126 145.758 157.805 147.742 159.021Z" fill="#0C333D"/>
<path d="M144.992 156.826L132.041 169.776C130.733 168.432 130.745 166.285 132.071 164.952L142.899 154.124C143.489 155.104 144.195 156.01 144.992 156.826Z" fill="#0F6175"/>
<path d="M155.4 161.1C147.405 161.1 140.9 154.595 140.9 146.6C140.9 138.605 147.405 132.1 155.4 132.1C163.395 132.1 169.9 138.605 169.9 146.6C169.9 154.595 163.395 161.1 155.4 161.1Z" fill="white"/>
<path d="M155.5 131.988C163.512 131.988 170.012 138.488 170.012 146.5C170.012 154.512 163.512 161.012 155.5 161.012C147.459 161.012 140.988 154.451 140.988 146.5C140.988 138.488 147.488 131.988 155.5 131.988ZM155.5 130C146.402 130 139 137.402 139 146.5C139 155.599 146.402 163 155.5 163C164.598 163 172 155.599 172 146.5C172 137.402 164.598 130 155.5 130Z" fill="#53BAD4"/>
<path d="M155.4 158.158C161.784 158.158 166.958 152.983 166.958 146.6C166.958 140.217 161.784 135.042 155.4 135.042C149.017 135.042 143.842 140.217 143.842 146.6C143.842 152.983 149.017 158.158 155.4 158.158Z" fill="#12B7B6"/>
<path d="M155.4 135.042C149.017 135.042 143.842 140.217 143.842 146.6C143.842 149.758 145.112 152.618 147.165 154.704L163.504 138.365C161.418 136.312 158.559 135.042 155.4 135.042Z" fill="#12B7B6"/>
</g>
<defs>
<filter id="filter0_ii_540_986" x="-20" y="-20" width="366" height="366" filterUnits="userSpaceOnUse" color-interpolation-filters="sRGB">
<feFlood flood-opacity="0" result="BackgroundImageFix"/>
<feBlend mode="normal" in="SourceGraphic" in2="BackgroundImageFix" result="shape"/>
<feColorMatrix in="SourceAlpha" type="matrix" values="0 0 0 0 0 0 0 0 0 0 0 0 0 0 0 0 0 0 127 0" result="hardAlpha"/>
<feOffset dx="20" dy="20"/>
<feGaussianBlur stdDeviation="25"/>
<feComposite in2="hardAlpha" operator="arithmetic" k2="-1" k3="1"/>
<feColorMatrix type="matrix" values="0 0 0 0 0.804167 0 0 0 0 0.804167 0 0 0 0 0.804167 0 0 0 1 0"/>
<feBlend mode="normal" in2="shape" result="effect1_innerShadow_540_986"/>
<feColorMatrix in="SourceAlpha" type="matrix" values="0 0 0 0 0 0 0 0 0 0 0 0 0 0 0 0 0 0 127 0" result="hardAlpha"/>
<feOffset dx="-20" dy="-20"/>
<feGaussianBlur stdDeviation="25"/>
<feComposite in2="hardAlpha" operator="arithmetic" k2="-1" k3="1"/>
<feColorMatrix type="matrix" values="0 0 0 0 1 0 0 0 0 1 0 0 0 0 1 0 0 0 1 0"/>
<feBlend mode="normal" in2="effect1_innerShadow_540_986" result="effect2_innerShadow_540_986"/>
</filter>
<filter id="filter1_diii_540_986" x="26" y="26" width="314" height="314" filterUnits="userSpaceOnUse" color-interpolation-filters="sRGB">
<feFlood flood-opacity="0" result="BackgroundImageFix"/>
<feColorMatrix in="SourceAlpha" type="matrix" values="0 0 0 0 0 0 0 0 0 0 0 0 0 0 0 0 0 0 127 0" result="hardAlpha"/>
<feOffset dx="20" dy="20"/>
<feGaussianBlur stdDeviation="25"/>
<feColorMatrix type="matrix" values="0 0 0 0 0 0 0 0 0 0 0 0 0 0 0 0 0 0 0.18 0"/>
<feBlend mode="normal" in2="BackgroundImageFix" result="effect1_dropShadow_540_986"/>
<feBlend mode="normal" in="SourceGraphic" in2="effect1_dropShadow_540_986" result="shape"/>
<feColorMatrix in="SourceAlpha" type="matrix" values="0 0 0 0 0 0 0 0 0 0 0 0 0 0 0 0 0 0 127 0" result="hardAlpha"/>
<feOffset dx="20" dy="20"/>
<feGaussianBlur stdDeviation="25"/>
<feComposite in2="hardAlpha" operator="arithmetic" k2="-1" k3="1"/>
<feColorMatrix type="matrix" values="0 0 0 0 1 0 0 0 0 1 0 0 0 0 1 0 0 0 1 0"/>
<feBlend mode="normal" in2="shape" result="effect2_innerShadow_540_986"/>
<feColorMatrix in="SourceAlpha" type="matrix" values="0 0 0 0 0 0 0 0 0 0 0 0 0 0 0 0 0 0 127 0" result="hardAlpha"/>
<feOffset dx="-20" dy="-20"/>
<feGaussianBlur stdDeviation="25"/>
<feComposite in2="hardAlpha" operator="arithmetic" k2="-1" k3="1"/>
<feColorMatrix type="matrix" values="0 0 0 0 0.804167 0 0 0 0 0.804167 0 0 0 0 0.804167 0 0 0 1 0"/>
<feBlend mode="normal" in2="effect2_innerShadow_540_986" result="effect3_innerShadow_540_986"/>
<feColorMatrix in="SourceAlpha" type="matrix" values="0 0 0 0 0 0 0 0 0 0 0 0 0 0 0 0 0 0 127 0" result="hardAlpha"/>
<feOffset dx="20" dy="20"/>
<feGaussianBlur stdDeviation="25"/>
<feComposite in2="hardAlpha" operator="arithmetic" k2="-1" k3="1"/>
<feColorMatrix type="matrix" values="0 0 0 0 1 0 0 0 0 1 0 0 0 0 1 0 0 0 0.25 0"/>
<feBlend mode="normal" in2="effect3_innerShadow_540_986" result="effect4_innerShadow_540_986"/>
</filter>
<clipPath id="clip0_540_986">
<rect width="110" height="110" fill="white" transform="translate(108 101)"/>
</clipPath>
</defs>
</svg>
