<svg width="32" height="33" viewBox="0 0 32 33" fill="none" xmlns="http://www.w3.org/2000/svg">
<path d="M16.163 32.043H16.142C15.857 32.043 13.949 32.026 1.33398 32.002C0.980094 32.0017 0.64077 31.861 0.390625 31.6106C0.14048 31.3603 -9.92834e-08 31.0209 0 30.667V1.333C0.000529556 0.979456 0.14127 0.640558 0.391357 0.390658C0.641445 0.140758 0.98044 0.000264431 1.33398 0L30.667 0C31.0204 0.000264858 31.3593 0.140791 31.6093 0.390719C31.8592 0.640648 31.9997 0.979548 32 1.333V30.667C31.9995 31.0204 31.8589 31.3591 31.609 31.609C31.3591 31.8589 31.0204 31.9995 30.667 32C18.24 32.024 16.439 32.038 16.183 32.041L16.163 32.043ZM16.5 6C13.7162 6.00318 11.0473 7.11044 9.07886 9.07889C7.11041 11.0473 6.00318 13.7162 6 16.5C6.00318 19.2838 7.11041 21.9527 9.07886 23.9211C11.0473 25.8896 13.7162 26.9968 16.5 27C19.2838 26.9968 21.9527 25.8896 23.9211 23.9211C25.8896 21.9527 26.9968 19.2838 27 16.5C26.9968 13.7162 25.8896 11.0473 23.9211 9.07889C21.9527 7.11044 19.2838 6.00318 16.5 6ZM27.5 2C26.837 2 26.201 2.26339 25.7322 2.73223C25.2633 3.20107 25 3.83696 25 4.5C25 5.16304 25.2633 5.79893 25.7322 6.26777C26.201 6.73661 26.837 7 27.5 7C27.8283 7 28.1534 6.93534 28.4567 6.8097C28.76 6.68406 29.0357 6.49991 29.2678 6.26777C29.5 6.03562 29.6841 5.76002 29.8097 5.45671C29.9353 5.15339 30 4.8283 30 4.5C30 3.83696 29.7367 3.20107 29.2678 2.73223C28.799 2.26339 28.163 2 27.5 2ZM16.5 23C14.7767 22.9979 13.1247 22.3124 11.9061 21.0939C10.6876 19.8753 10.0021 18.2233 10 16.5C10.0019 14.7767 10.6873 13.1244 11.9059 11.9059C13.1245 10.6873 14.7767 10.0019 16.5 10C18.2233 10.0019 19.8755 10.6873 21.0941 11.9059C22.3127 13.1244 22.9981 14.7767 23 16.5C22.9979 18.2233 22.3124 19.8753 21.0939 21.0939C19.8753 22.3124 18.2233 22.9979 16.5 23Z" fill="white"/>
</svg>
