<svg width="340" height="340" viewBox="0 0 340 340" fill="none" xmlns="http://www.w3.org/2000/svg">
<g filter="url(#filter0_ii_540_986)">
<rect width="326" height="326" rx="163" fill="#EDEDED"/>
</g>
<g filter="url(#filter1_diii_540_986)">
<rect x="56" y="56" width="214" height="214" rx="107" fill="#EDEDED"/>
</g>
<g clip-path="url(#clip0_540_986)">
<path d="M199.339 125.159H114.629V181.482H199.339V125.159Z" fill="#E6E9ED"/>
<path d="M150.451 124.125L176.06 134.085L199.339 126.249V137.647L182.608 143.275L199.339 149.787V161.428L166.546 148.676L144.082 156.242L165.911 164.72H156.984C155.192 164.72 153.726 166.002 153.726 167.569V171.63L128.036 161.642L114.629 166.144V154.746L130.659 149.36C132.548 150.058 134.894 150.471 137.435 150.471C143.74 150.471 148.839 147.921 148.839 144.772C148.839 144.287 148.708 143.803 148.48 143.361L159.997 139.485L145.939 134.014C147.275 131.962 148.464 129.853 149.523 127.688L149.555 127.588C150.109 126.476 150.402 125.308 150.451 124.125Z" fill="#5CD6B3"/>
<path d="M150.468 123.755C150.468 123.883 150.468 123.997 150.452 124.125C150.403 125.308 150.109 126.476 149.556 127.588L149.523 127.688C148.464 129.853 147.275 131.962 145.939 134.014C144.734 135.909 143.414 137.747 141.981 139.542C140.58 141.338 139.065 143.09 137.436 144.772C135.807 143.09 134.292 141.338 132.891 139.542C129.909 135.795 127.384 131.834 125.348 127.688L125.316 127.588C124.713 126.362 124.403 125.066 124.403 123.755C124.403 123.142 124.468 122.558 124.599 121.974C125.625 117.115 130.805 113.425 137.061 113.425H137.81C141.313 113.425 144.473 114.579 146.754 116.445C148.562 117.913 149.833 119.837 150.272 121.974C150.403 122.558 150.468 123.142 150.468 123.755Z" fill="#FCD770"/>
<path d="M137.436 130.523C141.034 130.523 143.952 127.971 143.952 124.823C143.952 121.676 141.034 119.124 137.436 119.124C133.837 119.124 130.919 121.676 130.919 124.823C130.919 127.971 133.837 130.523 137.436 130.523Z" fill="#FF826E"/>
<path d="M148.48 143.361C148.708 143.803 148.839 144.287 148.839 144.772C148.839 147.921 143.74 150.471 137.435 150.471C134.894 150.471 132.548 150.058 130.659 149.36C127.857 148.32 126.032 146.652 126.032 144.772C126.032 142.435 128.85 140.426 132.89 139.542C134.291 141.338 135.806 143.09 137.435 144.772C139.064 143.09 140.579 141.338 141.98 139.542C145.173 140.241 147.601 141.637 148.48 143.361Z" fill="#AAB2BD"/>
<path d="M192.822 170.419V193.216H176.532C176.532 190.067 173.616 187.517 170.016 187.517C166.416 187.517 163.5 190.067 163.5 193.216H156.984C155.192 193.216 153.726 191.934 153.726 190.367V181.817V171.63V167.569C153.726 166.002 155.192 164.719 156.984 164.719H165.911H189.564C191.356 164.719 192.822 166.002 192.822 167.569V170.419Z" fill="#12B7B6"/>
<path d="M199.338 187.517C195.738 187.517 192.822 190.068 192.822 193.217V170.419H199.338H205.855C209.455 170.419 212.371 172.969 212.371 176.118H204.225C201.521 176.118 199.338 178.028 199.338 180.393V181.818H212.371V190.367C212.371 191.934 210.905 193.217 209.113 193.217H205.855C205.855 190.068 202.939 187.517 199.338 187.517Z" fill="#FC6E51"/>
<path d="M212.371 176.118V181.818H199.338V180.393C199.338 178.027 201.521 176.118 204.225 176.118H212.371Z" fill="#69D6F4"/>
<path d="M199.338 198.916C202.937 198.916 205.855 196.364 205.855 193.216C205.855 190.069 202.937 187.517 199.338 187.517C195.74 187.517 192.822 190.069 192.822 193.216C192.822 196.364 195.74 198.916 199.338 198.916Z" fill="#969FAA"/>
<path d="M170.016 198.916C173.615 198.916 176.532 196.364 176.532 193.216C176.532 190.069 173.615 187.517 170.016 187.517C166.417 187.517 163.5 190.069 163.5 193.216C163.5 196.364 166.417 198.916 170.016 198.916Z" fill="#969FAA"/>
<path d="M170.016 190.87C169.117 190.87 168.387 191.469 168.387 192.21C168.387 192.951 169.117 193.551 170.016 193.551C170.915 193.551 171.645 192.951 171.645 192.21C171.645 191.469 170.915 190.87 170.016 190.87Z" fill="black"/>
<path d="M199.339 190.87C198.439 190.87 197.709 191.469 197.709 192.21C197.709 192.951 198.439 193.551 199.339 193.551C200.238 193.551 200.968 192.951 200.968 192.21C200.968 191.469 200.238 190.87 199.339 190.87Z" fill="black"/>
<path d="M205.855 168.994H200.968V120.549H151.545C149.844 115.622 144.339 112 137.815 112H137.058C130.533 112 125.027 115.622 123.328 120.549H113V183.243H152.097V190.367C152.097 192.724 154.289 194.641 156.984 194.641H162.435C163.612 197.183 166.556 199 170.016 199C173.476 199 176.42 197.185 177.598 194.641H191.756C192.933 197.183 195.877 199 199.337 199C202.797 199 205.741 197.185 206.919 194.641H209.113C211.807 194.641 214 192.724 214 190.367V176.118C214 172.19 210.346 168.994 205.855 168.994ZM194.452 168.994V167.569C194.452 165.213 192.259 163.295 189.565 163.295H166.253L148.339 156.33L166.504 150.219L197.71 162.351V168.994H194.452ZM152.097 167.569V169.434L128.073 160.096L116.258 164.07V155.724L130.66 150.878C132.625 151.523 134.933 151.896 137.435 151.896C144.743 151.896 150.468 148.767 150.468 144.772C150.468 144.591 150.419 144.417 150.396 144.24L164.256 139.578L148.21 133.34C149.236 131.647 150.191 129.919 151.059 128.148C151.37 127.514 151.602 126.863 151.774 126.201L176.011 135.623L197.71 128.323V136.668L178.349 143.183L197.71 150.709V159.232L166.594 147.137L139.827 156.142L158.23 163.295H156.984C154.289 163.295 152.097 165.213 152.097 167.569ZM136.189 145.691L137.435 146.984L138.682 145.691C140.079 144.239 141.399 142.74 142.652 141.205C145.38 142.005 147.21 143.402 147.21 144.772C147.21 146.793 143.196 149.046 137.435 149.046C131.675 149.046 127.661 146.793 127.661 144.772C127.661 143.402 129.491 142.006 132.219 141.205C133.472 142.738 134.792 144.237 136.189 145.691ZM146.617 135.839L155.746 139.387L149.14 141.607C148.117 140.456 146.529 139.483 144.536 138.784C145.258 137.818 145.95 136.837 146.617 135.839ZM197.71 147.59L186.86 143.372L197.71 139.722V147.59ZM197.71 125.27L176.099 132.539L152.587 123.399H197.71V125.27ZM137.058 114.85H137.815C143.893 114.85 148.839 118.844 148.839 123.751C148.839 124.876 148.578 125.978 148.019 127.121C145.327 132.613 141.77 137.79 137.435 142.527C133.101 137.79 129.541 132.606 126.806 127.024C126.293 125.979 126.032 124.876 126.032 123.751C126.032 118.844 130.978 114.85 137.058 114.85ZM122.795 123.399C122.792 123.517 122.774 123.632 122.774 123.751C122.774 125.265 123.123 126.746 123.857 128.242C125.653 131.907 127.826 135.427 130.335 138.786C126.679 140.068 124.403 142.291 124.403 144.772C124.403 146.397 125.364 147.876 126.982 149.062L116.258 152.671V123.399H122.795ZM116.258 180.393V167.123L127.984 163.179L152.097 172.553V180.393H116.258ZM170.016 196.15C167.322 196.15 165.129 194.383 165.129 192.211C165.129 190.038 167.322 188.271 170.016 188.271C172.711 188.271 174.903 190.038 174.903 192.211C174.903 194.383 172.711 196.15 170.016 196.15ZM170.016 185.421C165.698 185.421 162.187 188.247 161.921 191.792H156.984C156.085 191.792 155.355 191.153 155.355 190.367V167.569C155.355 166.783 156.085 166.144 156.984 166.144H189.565C190.464 166.144 191.194 166.783 191.194 167.569V191.792H178.111C177.845 188.247 174.335 185.421 170.016 185.421ZM199.339 196.15C196.644 196.15 194.452 194.383 194.452 192.211C194.452 190.038 196.644 188.271 199.339 188.271C202.033 188.271 204.226 190.038 204.226 192.211C204.226 194.383 202.033 196.15 199.339 196.15ZM209.113 191.792H207.433C207.168 188.247 203.657 185.421 199.339 185.421C197.498 185.421 195.817 185.953 194.452 186.813V171.844H205.855C207.976 171.844 209.768 173.039 210.442 174.693H204.226C200.632 174.693 197.71 177.25 197.71 180.393V183.243H210.742V190.367C210.742 191.153 210.012 191.792 209.113 191.792ZM210.742 177.543V180.393H200.968C200.968 178.821 202.429 177.543 204.226 177.543H210.742Z" fill="black"/>
<path d="M137.436 134.631C141.927 134.631 145.581 131.585 145.581 127.84C145.581 124.097 141.927 121.051 137.436 121.051C132.944 121.051 129.291 124.097 129.291 127.84C129.291 131.585 132.944 134.631 137.436 134.631ZM137.436 123.902C140.13 123.902 142.323 125.669 142.323 127.842C142.323 130.015 140.13 131.783 137.436 131.783C134.741 131.783 132.549 130.016 132.549 127.842C132.549 125.669 134.741 123.902 137.436 123.902Z" fill="black"/>
</g>
<defs>
<filter id="filter0_ii_540_986" x="-20" y="-20" width="366" height="366" filterUnits="userSpaceOnUse" color-interpolation-filters="sRGB">
<feFlood flood-opacity="0" result="BackgroundImageFix"/>
<feBlend mode="normal" in="SourceGraphic" in2="BackgroundImageFix" result="shape"/>
<feColorMatrix in="SourceAlpha" type="matrix" values="0 0 0 0 0 0 0 0 0 0 0 0 0 0 0 0 0 0 127 0" result="hardAlpha"/>
<feOffset dx="20" dy="20"/>
<feGaussianBlur stdDeviation="25"/>
<feComposite in2="hardAlpha" operator="arithmetic" k2="-1" k3="1"/>
<feColorMatrix type="matrix" values="0 0 0 0 0.804167 0 0 0 0 0.804167 0 0 0 0 0.804167 0 0 0 1 0"/>
<feBlend mode="normal" in2="shape" result="effect1_innerShadow_540_986"/>
<feColorMatrix in="SourceAlpha" type="matrix" values="0 0 0 0 0 0 0 0 0 0 0 0 0 0 0 0 0 0 127 0" result="hardAlpha"/>
<feOffset dx="-20" dy="-20"/>
<feGaussianBlur stdDeviation="25"/>
<feComposite in2="hardAlpha" operator="arithmetic" k2="-1" k3="1"/>
<feColorMatrix type="matrix" values="0 0 0 0 1 0 0 0 0 1 0 0 0 0 1 0 0 0 1 0"/>
<feBlend mode="normal" in2="effect1_innerShadow_540_986" result="effect2_innerShadow_540_986"/>
</filter>
<filter id="filter1_diii_540_986" x="26" y="26" width="314" height="314" filterUnits="userSpaceOnUse" color-interpolation-filters="sRGB">
<feFlood flood-opacity="0" result="BackgroundImageFix"/>
<feColorMatrix in="SourceAlpha" type="matrix" values="0 0 0 0 0 0 0 0 0 0 0 0 0 0 0 0 0 0 127 0" result="hardAlpha"/>
<feOffset dx="20" dy="20"/>
<feGaussianBlur stdDeviation="25"/>
<feColorMatrix type="matrix" values="0 0 0 0 0 0 0 0 0 0 0 0 0 0 0 0 0 0 0.18 0"/>
<feBlend mode="normal" in2="BackgroundImageFix" result="effect1_dropShadow_540_986"/>
<feBlend mode="normal" in="SourceGraphic" in2="effect1_dropShadow_540_986" result="shape"/>
<feColorMatrix in="SourceAlpha" type="matrix" values="0 0 0 0 0 0 0 0 0 0 0 0 0 0 0 0 0 0 127 0" result="hardAlpha"/>
<feOffset dx="20" dy="20"/>
<feGaussianBlur stdDeviation="25"/>
<feComposite in2="hardAlpha" operator="arithmetic" k2="-1" k3="1"/>
<feColorMatrix type="matrix" values="0 0 0 0 1 0 0 0 0 1 0 0 0 0 1 0 0 0 1 0"/>
<feBlend mode="normal" in2="shape" result="effect2_innerShadow_540_986"/>
<feColorMatrix in="SourceAlpha" type="matrix" values="0 0 0 0 0 0 0 0 0 0 0 0 0 0 0 0 0 0 127 0" result="hardAlpha"/>
<feOffset dx="-20" dy="-20"/>
<feGaussianBlur stdDeviation="25"/>
<feComposite in2="hardAlpha" operator="arithmetic" k2="-1" k3="1"/>
<feColorMatrix type="matrix" values="0 0 0 0 0.804167 0 0 0 0 0.804167 0 0 0 0 0.804167 0 0 0 1 0"/>
<feBlend mode="normal" in2="effect2_innerShadow_540_986" result="effect3_innerShadow_540_986"/>
<feColorMatrix in="SourceAlpha" type="matrix" values="0 0 0 0 0 0 0 0 0 0 0 0 0 0 0 0 0 0 127 0" result="hardAlpha"/>
<feOffset dx="20" dy="20"/>
<feGaussianBlur stdDeviation="25"/>
<feComposite in2="hardAlpha" operator="arithmetic" k2="-1" k3="1"/>
<feColorMatrix type="matrix" values="0 0 0 0 1 0 0 0 0 1 0 0 0 0 1 0 0 0 0.25 0"/>
<feBlend mode="normal" in2="effect3_innerShadow_540_986" result="effect4_innerShadow_540_986"/>
</filter>
<clipPath id="clip0_540_986">
<rect width="101" height="87" fill="white" transform="translate(113 112)"/>
</clipPath>
</defs>
</svg>
