<svg width="340" height="340" viewBox="0 0 340 340" fill="none" xmlns="http://www.w3.org/2000/svg">
<g filter="url(#filter0_ii_540_986)">
<rect width="326" height="326" rx="163" fill="#EDEDED"/>
</g>
<g filter="url(#filter1_diii_540_986)">
<rect x="56" y="56" width="214" height="214" rx="107" fill="#EDEDED"/>
</g>
<path d="M194.186 201.63L189.496 198.064C189.496 198.064 194.574 195.719 196.767 195.707V173.401L193.795 170.629V163.985L196.767 162.945V139.311H128.907V152.496L132.23 154.157V157.479L134.379 160.996L128.907 164.733V202.969C129.856 202.054 130.944 201.541 132.132 201.922C136.236 203.241 136.529 200.017 136.529 200.017C136.529 200.017 137.311 203.827 136.697 207.49H146.22L149.494 190.344L151.494 207.49H180.386L183.047 198.552L186.76 207.49H194.601L194.186 201.63Z" fill="#12B7B6"/>
<path d="M192.121 200.06C190.665 200.622 189.497 201.161 189.497 201.161L194.187 204.727L194.383 207.491H194.602L194.187 201.63L192.121 200.06Z" fill="#12B7B6"/>
<path d="M136.878 205.941C136.841 206.453 136.784 206.973 136.698 207.491H136.931C136.929 206.944 136.91 206.422 136.878 205.941Z" fill="#12B7B6"/>
<path d="M133.045 161.908L128.908 164.733V167.83L134.38 164.093L133.045 161.908Z" fill="#12B7B6"/>
<path d="M196.768 139.311H128.908V142.408H196.768V139.311Z" fill="#12B7B6"/>
<path d="M193.796 173.726L196.767 176.498V173.401L193.796 170.629V173.726Z" fill="#12B7B6"/>
<path d="M161.56 146.474C157.172 146.474 153.616 150.031 153.616 154.417C153.616 158.289 155.809 163.446 161.56 169.194C167.311 163.446 169.504 158.289 169.504 154.417C169.504 150.03 165.948 146.474 161.56 146.474ZM161.56 156.456C159.921 156.456 158.592 155.129 158.592 153.491C158.592 151.854 159.921 150.526 161.56 150.526C163.199 150.526 164.526 151.855 164.526 153.491C164.526 155.128 163.199 156.456 161.56 156.456Z" fill="#F68C43"/>
<path d="M128.908 139.312C134.653 139.312 139.31 134.655 139.31 128.91C139.31 123.165 134.653 118.508 128.908 118.508C123.163 118.508 118.506 123.165 118.506 128.91C118.506 134.655 123.163 139.312 128.908 139.312Z" fill="#12B7B6"/>
<path d="M207.494 128.91C207.494 123.166 202.836 118.509 197.092 118.509H128.908C134.653 118.509 139.31 123.166 139.31 128.91C139.31 134.091 135.518 138.374 130.561 139.168L130.656 139.16C130.566 139.175 130.474 139.182 130.383 139.195C130.207 139.22 130.032 139.248 129.854 139.264C129.543 139.294 129.228 139.312 128.909 139.312H197.094C199.213 139.312 201.183 138.675 202.827 137.584L195.288 131.005L206.546 133.233C207.147 131.915 207.494 130.455 207.494 128.91Z" fill="white"/>
<path d="M137.127 193.364C138.756 193.364 140.076 192.044 140.076 190.415C140.076 188.786 138.756 187.466 137.127 187.466C135.499 187.466 134.178 188.786 134.178 190.415C134.178 192.044 135.499 193.364 137.127 193.364Z" fill="white"/>
<path d="M155.39 192.869C158.221 188.858 154.549 181.746 171.487 181.62C188.425 181.494 187.649 172.267 191.333 177.07C195.017 181.873 187.541 183.643 188.552 186.297C189.563 188.951 176.923 188.825 175.785 194.513C174.647 200.201 165.041 202.052 163.524 198.725C162.007 195.398 161.628 194.892 157.836 196.535C154.043 198.177 153.172 196.01 155.39 192.869Z" fill="white"/>
<path d="M161.56 169.7C161.431 169.7 161.301 169.651 161.203 169.552C155.985 164.337 153.111 158.962 153.111 154.417C153.111 149.758 156.901 145.968 161.56 145.968C166.219 145.968 170.01 149.758 170.01 154.417C170.01 158.961 167.136 164.336 161.918 169.552C161.818 169.651 161.689 169.7 161.56 169.7ZM161.56 146.979C157.459 146.979 154.122 150.316 154.122 154.417C154.122 158.589 156.76 163.567 161.56 168.475C166.361 163.567 168.999 158.589 168.999 154.417C168.998 150.316 165.661 146.979 161.56 146.979ZM161.56 156.961C159.645 156.961 158.086 155.404 158.086 153.49C158.086 151.576 159.644 150.019 161.56 150.019C163.474 150.019 165.032 151.576 165.032 153.49C165.032 155.404 163.474 156.961 161.56 156.961ZM161.56 151.031C160.202 151.031 159.098 152.134 159.098 153.491C159.098 154.848 160.203 155.951 161.56 155.951C162.917 155.951 164.02 154.848 164.02 153.491C164.02 152.134 162.917 151.031 161.56 151.031Z" fill="#136296"/>
<path d="M128.908 139.817C122.893 139.817 118 134.924 118 128.91C118 122.896 122.893 118.003 128.908 118.003C134.922 118.003 139.815 122.896 139.815 128.91C139.815 134.924 134.922 139.817 128.908 139.817ZM128.908 119.015C123.451 119.015 119.011 123.454 119.011 128.911C119.011 134.368 123.45 138.807 128.908 138.807C134.365 138.807 138.804 134.368 138.804 128.911C138.804 123.454 134.364 119.015 128.908 119.015Z" fill="#136296"/>
<path d="M134.812 137.969C134.751 137.969 134.689 137.958 134.629 137.934C134.369 137.833 134.24 137.54 134.341 137.28C137.114 130.14 134.328 126.52 133.002 125.296C131.038 123.482 128.279 122.958 126.138 123.99C124.599 124.733 123.55 126.462 123.4 128.5C123.256 130.455 123.989 132.177 125.359 133.107C126.73 134.038 128.23 134.072 129.371 133.203C130.358 132.45 130.753 131.251 130.376 130.15C130.155 129.504 129.82 129.1 129.352 128.914C128.421 128.545 127.251 129.152 127.239 129.158C126.991 129.288 126.686 129.194 126.556 128.948C126.425 128.702 126.518 128.397 126.764 128.265C126.828 128.23 128.351 127.433 129.719 127.971C130.471 128.267 131.014 128.891 131.333 129.822C131.845 131.319 131.302 133 129.985 134.006C128.825 134.892 126.851 135.341 124.792 133.944C123.119 132.809 122.222 130.746 122.392 128.427C122.568 126.028 123.835 123.979 125.699 123.08C128.211 121.867 131.421 122.459 133.689 124.553C135.167 125.918 138.282 129.926 135.285 137.646C135.205 137.846 135.014 137.969 134.812 137.969Z" fill="#136296"/>
<path d="M128.917 139.817C128.638 139.817 128.409 139.591 128.409 139.311C128.409 139.031 128.633 138.805 128.912 138.805H128.917C129.196 138.805 129.423 139.031 129.423 139.311C129.423 139.591 129.197 139.817 128.917 139.817Z" fill="#136296"/>
<path d="M128.917 139.817C128.638 139.817 128.409 139.591 128.409 139.311C128.409 139.031 128.633 138.805 128.912 138.805H128.917C129.196 138.805 129.423 139.031 129.423 139.311C129.423 139.591 129.197 139.817 128.917 139.817Z" fill="#136296"/>
<path d="M197.092 139.817H128.908C128.629 139.817 128.402 139.591 128.402 139.311C128.402 139.031 128.628 138.805 128.908 138.805C129.19 138.805 129.484 138.79 129.805 138.76C129.943 138.748 130.077 138.728 130.209 138.709L130.427 138.68C130.444 138.675 130.462 138.671 130.48 138.669C135.303 137.897 138.803 133.793 138.803 128.911C138.803 123.455 134.364 119.015 128.906 119.015C128.627 119.015 128.4 118.789 128.4 118.509C128.4 118.23 128.626 118.003 128.906 118.003H197.091C203.107 118.003 208 122.896 208 128.91C208 130.474 207.665 131.999 207.004 133.443C206.907 133.656 206.677 133.773 206.446 133.729L197.045 131.868L203.158 137.202C203.277 137.306 203.341 137.459 203.33 137.616C203.319 137.773 203.236 137.917 203.105 138.004C201.317 139.19 199.238 139.817 197.092 139.817ZM133.491 138.806H197.092C198.815 138.806 200.49 138.361 201.975 137.514L194.954 131.387C194.781 131.236 194.731 130.989 194.833 130.783C194.934 130.578 195.157 130.466 195.385 130.51L206.243 132.659C206.738 131.457 206.989 130.198 206.989 128.911C206.989 123.455 202.55 119.015 197.092 119.015H133.493C137.223 120.75 139.815 124.533 139.815 128.911C139.815 133.272 137.281 137.069 133.491 138.806Z" fill="#136296"/>
<path d="M128.917 119.015C128.638 119.015 128.409 118.789 128.409 118.509C128.409 118.23 128.633 118.003 128.912 118.003H128.917C129.196 118.003 129.423 118.229 129.423 118.509C129.423 118.788 129.197 119.015 128.917 119.015Z" fill="#136296"/>
<path d="M194.601 207.997H186.76C186.556 207.997 186.371 207.874 186.293 207.685L183.125 200.06L180.869 207.635C180.805 207.85 180.608 207.996 180.385 207.996H151.493C151.236 207.996 151.02 207.804 150.991 207.549L149.372 193.673L146.716 207.585C146.671 207.823 146.462 207.996 146.219 207.996H136.696C136.547 207.996 136.406 207.931 136.31 207.817C136.214 207.703 136.173 207.553 136.197 207.407C136.545 205.335 136.429 203.192 136.273 201.77C136.123 201.94 135.943 202.102 135.729 202.244C134.807 202.854 133.544 202.908 131.976 202.403C131.087 202.118 130.199 202.423 129.257 203.332C129.111 203.473 128.895 203.513 128.708 203.433C128.521 203.354 128.4 203.171 128.4 202.968V164.733C128.4 164.566 128.482 164.41 128.621 164.316L133.696 160.851L131.797 157.744C131.749 157.665 131.723 157.573 131.723 157.48V154.47L128.679 152.949C128.508 152.863 128.4 152.688 128.4 152.497V139.311C128.4 139.032 128.626 138.805 128.906 138.805H196.766C197.045 138.805 197.272 139.031 197.272 139.311V162.946C197.272 163.161 197.136 163.352 196.933 163.423L194.3 164.344V170.409L197.111 173.031C197.213 173.127 197.271 173.261 197.271 173.401V195.707C197.271 195.985 197.046 196.211 196.768 196.213C195.204 196.221 191.967 197.538 190.482 198.18L194.49 201.228C194.606 201.316 194.678 201.45 194.688 201.595L195.103 207.456C195.113 207.596 195.064 207.734 194.969 207.836C194.875 207.938 194.741 207.997 194.601 207.997ZM187.097 206.985H194.058L193.698 201.894L189.19 198.467C189.049 198.36 188.974 198.186 188.993 198.01C189.012 197.833 189.122 197.68 189.284 197.606C189.481 197.515 193.827 195.518 196.261 195.235V173.621L193.45 170.999C193.348 170.903 193.29 170.769 193.29 170.629V163.985C193.29 163.77 193.426 163.579 193.629 163.508L196.262 162.587V139.817H129.413V152.184L132.457 153.705C132.628 153.791 132.736 153.966 132.736 154.157V157.337L134.811 160.733C134.951 160.963 134.887 161.262 134.664 161.414L129.413 165V201.912C130.36 201.29 131.322 201.132 132.287 201.441C133.549 201.847 134.519 201.834 135.172 201.401C135.921 200.906 136.025 199.981 136.026 199.971C136.049 199.721 136.251 199.526 136.501 199.512C136.734 199.501 136.974 199.669 137.024 199.915C137.055 200.066 137.739 203.469 137.283 206.984H145.801L148.996 190.249C149.043 190.004 149.262 189.834 149.511 189.838C149.76 189.847 149.966 190.037 149.995 190.285L151.943 206.984H180.008L182.562 198.407C182.623 198.202 182.806 198.057 183.02 198.046C183.235 198.036 183.431 198.159 183.513 198.357L187.097 206.985Z" fill="#136296"/>
<path d="M137.972 184.992C137.95 184.992 137.927 184.991 137.905 184.987C137.628 184.95 137.434 184.698 137.47 184.422C137.474 184.391 137.574 183.655 138.054 182.6C138.17 182.346 138.468 182.233 138.724 182.349C138.978 182.465 139.09 182.764 138.975 183.018C138.563 183.924 138.474 184.548 138.473 184.554C138.439 184.807 138.221 184.992 137.972 184.992Z" fill="#136296"/>
<path d="M140.47 180.468C140.344 180.468 140.218 180.421 140.12 180.328C139.918 180.135 139.911 179.815 140.105 179.613C140.902 178.78 141.851 178.031 142.925 177.386C143.165 177.242 143.475 177.319 143.619 177.559C143.763 177.798 143.685 178.109 143.446 178.253C142.449 178.852 141.571 179.546 140.834 180.314C140.736 180.416 140.603 180.468 140.47 180.468ZM146.326 176.861C146.118 176.861 145.923 176.732 145.85 176.524C145.757 176.261 145.894 175.972 146.157 175.878C147.212 175.504 148.363 175.193 149.576 174.954C149.849 174.9 150.116 175.079 150.17 175.353C150.224 175.627 150.045 175.893 149.771 175.947C148.606 176.176 147.504 176.473 146.496 176.831C146.439 176.851 146.382 176.861 146.326 176.861ZM153.109 175.486C152.849 175.486 152.628 175.287 152.606 175.023C152.582 174.745 152.789 174.5 153.067 174.477C154.176 174.384 155.35 174.337 156.556 174.337C156.842 174.352 157.076 174.56 157.076 174.843C157.076 175.125 156.836 175.359 156.567 175.349C155.378 175.349 154.232 175.395 153.152 175.486C153.138 175.485 153.124 175.486 153.109 175.486ZM160.528 175.426L160.043 175.424C159.764 175.422 159.539 175.193 159.542 174.914C159.544 174.637 159.771 174.413 160.048 174.413H160.052L160.528 174.415C161.528 174.415 162.522 174.383 163.483 174.321C163.753 174.303 164.002 174.515 164.02 174.793C164.038 175.071 163.827 175.312 163.548 175.33C162.566 175.394 161.55 175.426 160.528 175.426ZM166.965 174.964C166.719 174.964 166.503 174.784 166.465 174.534C166.424 174.258 166.614 174 166.89 173.959C168.041 173.786 169.169 173.561 170.244 173.29C170.515 173.223 170.79 173.386 170.858 173.657C170.926 173.928 170.762 174.203 170.491 174.271C169.385 174.55 168.225 174.782 167.041 174.96C167.016 174.963 166.99 174.964 166.965 174.964ZM173.679 173.254C173.475 173.254 173.282 173.129 173.206 172.926C173.107 172.665 173.24 172.373 173.501 172.275C174.585 171.867 175.628 171.397 176.602 170.878C176.85 170.746 177.155 170.84 177.286 171.086C177.417 171.332 177.324 171.639 177.078 171.77C176.065 172.31 174.981 172.798 173.856 173.221C173.799 173.243 173.738 173.254 173.679 173.254ZM179.773 169.98C179.618 169.98 179.466 169.909 179.367 169.776C179.201 169.552 179.247 169.235 179.471 169.069C180.388 168.388 181.243 167.637 182.011 166.838C182.205 166.636 182.524 166.63 182.726 166.824C182.927 167.017 182.933 167.337 182.74 167.539C181.933 168.378 181.037 169.166 180.074 169.881C179.983 169.948 179.877 169.98 179.773 169.98ZM184.547 164.995C184.451 164.995 184.353 164.968 184.267 164.91C184.034 164.755 183.972 164.441 184.127 164.209C184.748 163.278 185.29 162.281 185.74 161.246C185.851 160.99 186.149 160.872 186.405 160.983C186.661 161.094 186.779 161.392 186.668 161.648C186.195 162.739 185.624 163.789 184.969 164.77C184.87 164.916 184.71 164.995 184.547 164.995ZM187.303 158.668C187.263 158.668 187.223 158.663 187.183 158.654C186.912 158.588 186.746 158.314 186.812 158.043C187.074 156.97 187.257 155.845 187.356 154.699C187.38 154.421 187.616 154.208 187.903 154.239C188.181 154.263 188.387 154.508 188.363 154.786C188.26 155.983 188.069 157.159 187.795 158.283C187.737 158.513 187.53 158.668 187.303 158.668Z" fill="#136296"/>
<path d="M187.916 151.734C187.648 151.734 187.425 151.523 187.411 151.253C187.384 150.691 187.337 150.108 187.272 149.518C187.241 149.241 187.442 148.991 187.719 148.96C187.998 148.928 188.246 149.13 188.277 149.407C188.344 150.017 188.393 150.621 188.421 151.203C188.434 151.482 188.219 151.719 187.941 151.733C187.933 151.734 187.924 151.734 187.916 151.734Z" fill="#136296"/>
<path d="M188.206 146.474L189.278 145.401C189.476 145.204 189.476 144.883 189.278 144.686C189.08 144.489 188.761 144.489 188.563 144.686L187.491 145.759L186.419 144.686C186.221 144.489 185.902 144.489 185.704 144.686C185.506 144.883 185.506 145.203 185.704 145.401L186.776 146.474L185.704 147.547C185.506 147.744 185.506 148.065 185.704 148.262C185.803 148.361 185.932 148.41 186.061 148.41C186.19 148.41 186.32 148.361 186.418 148.262L187.49 147.189L188.562 148.262C188.661 148.361 188.79 148.41 188.919 148.41C189.048 148.41 189.178 148.361 189.276 148.262C189.474 148.065 189.474 147.745 189.276 147.547L188.206 146.474Z" fill="#F0566F"/>
<path d="M137.127 193.87C135.222 193.87 133.672 192.32 133.672 190.415C133.672 188.51 135.222 186.96 137.127 186.96C139.032 186.96 140.582 188.51 140.582 190.415C140.581 192.32 139.032 193.87 137.127 193.87ZM137.127 187.972C135.78 187.972 134.683 189.068 134.683 190.415C134.683 191.762 135.779 192.859 137.127 192.859C138.474 192.859 139.571 191.763 139.571 190.415C139.571 189.067 138.474 187.972 137.127 187.972Z" fill="#136296"/>
<path d="M167.168 200.88C165.157 200.88 163.629 200.173 163.063 198.933C161.614 195.757 161.496 195.498 158.036 196.998C155.502 198.097 154.462 197.447 154.067 196.961C153.324 196.047 153.655 194.449 154.977 192.577C155.62 191.667 155.908 190.552 156.212 189.372C157.2 185.547 158.32 181.212 171.483 181.113C180.867 181.043 184.652 178.179 186.914 176.468C188.666 175.143 189.823 174.269 191.734 176.761C194.228 180.013 192.064 182.126 190.484 183.669C189.399 184.729 188.76 185.422 189.024 186.116C189.156 186.462 189.143 186.814 188.987 187.133C188.512 188.101 186.824 188.616 184.488 189.327C181.095 190.361 176.873 191.647 176.28 194.611C175.538 198.322 171.6 200.429 168.254 200.815C167.88 200.859 167.516 200.88 167.168 200.88ZM160.86 195.119C162.263 195.119 162.92 196.183 163.984 198.514C164.451 199.539 166.077 200.049 168.139 199.811C171.227 199.454 174.675 197.485 175.289 194.412C176 190.856 180.543 189.471 184.194 188.359C185.966 187.819 187.798 187.261 188.079 186.687C188.107 186.631 188.117 186.574 188.079 186.475C187.56 185.111 188.687 184.01 189.778 182.945C191.373 181.387 192.879 179.916 190.931 177.376C189.632 175.681 189.268 175.954 187.524 177.274C185.162 179.061 181.21 182.052 171.491 182.124C159.104 182.216 158.132 185.982 157.191 189.624C156.877 190.84 156.552 192.097 155.803 193.159C154.672 194.761 154.51 195.902 154.852 196.322C155.129 196.662 156.004 196.775 157.634 196.069C159.071 195.448 160.08 195.119 160.86 195.119Z" fill="#136296"/>
<path d="M160.282 190.299C160.258 190.299 160.235 190.298 160.21 190.294C159.935 190.255 159.744 190.004 159.78 189.729C159.885 188.942 160.683 187.456 162.849 187.525C163.128 187.532 163.349 187.764 163.342 188.043C163.335 188.322 163.091 188.551 162.824 188.535C162.791 188.534 162.76 188.534 162.729 188.534C161.037 188.534 160.804 189.729 160.783 189.867C160.744 190.117 160.529 190.299 160.282 190.299Z" fill="#1F1F1F"/>
<path d="M173.755 186.556C173.731 186.556 173.708 186.555 173.683 186.551C173.408 186.512 173.217 186.261 173.253 185.986C173.358 185.199 174.155 183.712 176.322 183.782C176.601 183.789 176.822 184.021 176.815 184.3C176.808 184.575 176.583 184.793 176.309 184.793C176.305 184.793 176.301 184.793 176.296 184.793C176.263 184.792 176.232 184.792 176.201 184.792C174.509 184.792 174.276 185.987 174.255 186.125C174.217 186.375 174.001 186.556 173.755 186.556Z" fill="#136296"/>
<path d="M184.117 185.673C184.093 185.673 184.07 185.672 184.045 185.668C183.77 185.629 183.579 185.378 183.615 185.103C183.72 184.316 184.517 182.829 186.684 182.899C186.963 182.906 187.184 183.138 187.177 183.417C187.17 183.696 186.925 183.926 186.659 183.909C186.626 183.908 186.595 183.908 186.564 183.908C184.872 183.908 184.639 185.103 184.618 185.241C184.58 185.492 184.364 185.673 184.117 185.673Z" fill="#136296"/>
<path d="M168.433 196.529C168.409 196.529 168.386 196.528 168.361 196.524C168.086 196.485 167.895 196.234 167.931 195.959C168.036 195.172 168.83 193.69 171 193.755C171.279 193.762 171.5 193.994 171.493 194.273C171.486 194.552 171.262 194.778 170.975 194.765C170.942 194.764 170.911 194.764 170.88 194.764C169.188 194.764 168.955 195.959 168.934 196.097C168.896 196.347 168.68 196.529 168.433 196.529Z" fill="#136296"/>
<defs>
<filter id="filter0_ii_540_986" x="-20" y="-20" width="366" height="366" filterUnits="userSpaceOnUse" color-interpolation-filters="sRGB">
<feFlood flood-opacity="0" result="BackgroundImageFix"/>
<feBlend mode="normal" in="SourceGraphic" in2="BackgroundImageFix" result="shape"/>
<feColorMatrix in="SourceAlpha" type="matrix" values="0 0 0 0 0 0 0 0 0 0 0 0 0 0 0 0 0 0 127 0" result="hardAlpha"/>
<feOffset dx="20" dy="20"/>
<feGaussianBlur stdDeviation="25"/>
<feComposite in2="hardAlpha" operator="arithmetic" k2="-1" k3="1"/>
<feColorMatrix type="matrix" values="0 0 0 0 0.804167 0 0 0 0 0.804167 0 0 0 0 0.804167 0 0 0 1 0"/>
<feBlend mode="normal" in2="shape" result="effect1_innerShadow_540_986"/>
<feColorMatrix in="SourceAlpha" type="matrix" values="0 0 0 0 0 0 0 0 0 0 0 0 0 0 0 0 0 0 127 0" result="hardAlpha"/>
<feOffset dx="-20" dy="-20"/>
<feGaussianBlur stdDeviation="25"/>
<feComposite in2="hardAlpha" operator="arithmetic" k2="-1" k3="1"/>
<feColorMatrix type="matrix" values="0 0 0 0 1 0 0 0 0 1 0 0 0 0 1 0 0 0 1 0"/>
<feBlend mode="normal" in2="effect1_innerShadow_540_986" result="effect2_innerShadow_540_986"/>
</filter>
<filter id="filter1_diii_540_986" x="26" y="26" width="314" height="314" filterUnits="userSpaceOnUse" color-interpolation-filters="sRGB">
<feFlood flood-opacity="0" result="BackgroundImageFix"/>
<feColorMatrix in="SourceAlpha" type="matrix" values="0 0 0 0 0 0 0 0 0 0 0 0 0 0 0 0 0 0 127 0" result="hardAlpha"/>
<feOffset dx="20" dy="20"/>
<feGaussianBlur stdDeviation="25"/>
<feColorMatrix type="matrix" values="0 0 0 0 0 0 0 0 0 0 0 0 0 0 0 0 0 0 0.18 0"/>
<feBlend mode="normal" in2="BackgroundImageFix" result="effect1_dropShadow_540_986"/>
<feBlend mode="normal" in="SourceGraphic" in2="effect1_dropShadow_540_986" result="shape"/>
<feColorMatrix in="SourceAlpha" type="matrix" values="0 0 0 0 0 0 0 0 0 0 0 0 0 0 0 0 0 0 127 0" result="hardAlpha"/>
<feOffset dx="20" dy="20"/>
<feGaussianBlur stdDeviation="25"/>
<feComposite in2="hardAlpha" operator="arithmetic" k2="-1" k3="1"/>
<feColorMatrix type="matrix" values="0 0 0 0 1 0 0 0 0 1 0 0 0 0 1 0 0 0 1 0"/>
<feBlend mode="normal" in2="shape" result="effect2_innerShadow_540_986"/>
<feColorMatrix in="SourceAlpha" type="matrix" values="0 0 0 0 0 0 0 0 0 0 0 0 0 0 0 0 0 0 127 0" result="hardAlpha"/>
<feOffset dx="-20" dy="-20"/>
<feGaussianBlur stdDeviation="25"/>
<feComposite in2="hardAlpha" operator="arithmetic" k2="-1" k3="1"/>
<feColorMatrix type="matrix" values="0 0 0 0 0.804167 0 0 0 0 0.804167 0 0 0 0 0.804167 0 0 0 1 0"/>
<feBlend mode="normal" in2="effect2_innerShadow_540_986" result="effect3_innerShadow_540_986"/>
<feColorMatrix in="SourceAlpha" type="matrix" values="0 0 0 0 0 0 0 0 0 0 0 0 0 0 0 0 0 0 127 0" result="hardAlpha"/>
<feOffset dx="20" dy="20"/>
<feGaussianBlur stdDeviation="25"/>
<feComposite in2="hardAlpha" operator="arithmetic" k2="-1" k3="1"/>
<feColorMatrix type="matrix" values="0 0 0 0 1 0 0 0 0 1 0 0 0 0 1 0 0 0 0.25 0"/>
<feBlend mode="normal" in2="effect3_innerShadow_540_986" result="effect4_innerShadow_540_986"/>
</filter>
</defs>
</svg>
