<svg width="924" height="634" viewBox="0 0 924 634" fill="none" xmlns="http://www.w3.org/2000/svg">
<rect width="924" height="634" fill="#D9D9D9" fill-opacity="0.01"/>
<path fill-rule="evenodd" clip-rule="evenodd" d="M486.932 560.32C486.932 563.377 486.764 566.371 486.448 569.28C484.529 586.526 477.15 601.347 466.756 610.455H418.456C416.706 608.916 415.041 607.229 413.459 605.374C410.065 601.368 407.114 596.667 404.731 591.438C402.813 587.201 401.274 582.626 400.177 577.777C399.861 576.343 399.566 574.909 399.334 573.455C399.081 572 398.891 570.545 398.723 569.048C398.406 566.202 398.259 563.272 398.259 560.299C398.259 555.661 398.659 551.149 399.397 546.806H485.815C486.363 550.032 486.722 553.363 486.869 556.757C486.911 557.938 486.932 559.119 486.932 560.32Z" fill="#F67459"/>
<path fill-rule="evenodd" clip-rule="evenodd" d="M486.932 560.299C486.932 563.356 486.764 566.35 486.447 569.26C484.529 586.505 477.15 601.326 466.756 610.434H418.435C416.685 608.895 415.019 607.208 413.438 605.353C410.044 601.347 407.092 596.646 404.71 591.439C404.499 590.996 404.141 590.511 403.677 590.047C403.845 590.131 404.035 590.216 404.204 590.279C416.158 595.592 431.548 597.974 444.999 593.884C468.084 586.864 470.108 566.519 465.681 546.828H485.794C486.342 550.053 486.7 553.384 486.848 556.779C486.911 557.938 486.932 559.119 486.932 560.299Z" fill="#F67459"/>
<path fill-rule="evenodd" clip-rule="evenodd" d="M484.993 546.827C484.993 546.827 480.65 548.999 470.172 550.686C467.284 551.149 463.932 551.571 460.074 551.908C455.098 552.33 449.3 552.604 442.575 552.604C436.229 552.604 430.684 552.351 425.899 551.972C425.14 551.908 424.423 551.845 423.706 551.782C406.861 550.18 400.135 546.827 400.135 546.827C450.291 544.888 484.993 546.827 484.993 546.827Z" fill="#1B1A60"/>
<path d="M382.046 503.544C411.14 501.52 444.303 523.847 444.303 523.847C444.303 523.847 415.209 507.613 426.025 503.544C436.861 499.475 465.787 507.023 465.787 507.023L470.678 517.754L449.026 540.755L428.723 541.43L382.046 503.544Z" fill="url(#paint0_linear_551_1969)"/>
<path d="M429.419 544.129C429.419 546.827 393.558 569.175 373.255 564.431C370.789 563.841 369.587 561.965 369.418 559.329C368.849 550.58 379.538 533.714 391.513 530.594C398.47 528.781 406.798 530.762 413.861 533.735C422.61 537.424 429.419 542.653 429.419 544.129Z" fill="url(#paint1_linear_551_1969)"/>
<path opacity="0.5" d="M384.07 529.244C403.023 524.501 431.906 548.43 431.906 548.43L434.141 544.129L398.954 523.826L384.07 529.244Z" fill="url(#paint2_linear_551_1969)"/>
<path d="M524.144 533.988C524.144 537.234 483.855 551.613 464.374 543.939C463.51 543.601 462.667 543.201 461.887 542.779C443.608 532.638 462.561 518.429 462.561 518.429H472.702C486.195 517.354 496.294 518.176 503.799 519.926C520.054 523.678 524.144 531.69 524.144 533.988Z" fill="url(#paint3_linear_551_1969)"/>
<path d="M416.011 503.566C431.591 490.937 465.787 507.002 465.787 507.002C465.787 507.002 428.281 514.824 421.683 509.891C415.105 504.957 416.011 503.566 416.011 503.566Z" fill="url(#paint4_linear_551_1969)"/>
<path opacity="0.4" d="M396.552 524.986C396.826 526.461 395.856 528.021 393.979 529.582L396.552 524.986Z" fill="url(#paint5_linear_551_1969)"/>
<path opacity="0.4" d="M392.462 519.884C391.45 519.546 390.122 519.04 388.393 518.366C387.76 518.113 387.128 517.902 386.495 517.712C388.709 518.239 390.775 518.935 392.462 519.884Z" fill="url(#paint6_linear_551_1969)"/>
<path d="M508.775 547.671C508.838 550.137 507.911 551.972 506.35 553.258C500.194 558.36 484.277 554.986 480.882 549.421C478.69 545.815 478.036 543.159 478.184 541.241C478.458 537.193 482.147 536.286 482.147 536.286C482.147 536.286 481.093 532.913 483.455 529.814C483.665 529.519 483.918 529.245 484.192 528.97C485.689 527.474 490.897 528.675 496.125 531.606C502.345 535.084 508.627 540.988 508.775 547.671Z" fill="url(#paint7_linear_551_1969)"/>
<path opacity="0.5" d="M502.619 545.563C501.628 544.445 481.621 533.524 478.163 541.22C478.437 537.172 482.127 536.265 482.127 536.265C482.127 536.265 481.072 532.892 483.434 529.793C482.654 536.223 498.951 541.346 502.619 545.563Z" fill="url(#paint8_linear_551_1969)"/>
<path opacity="0.4" d="M503.715 546.047C503.568 545.984 503.272 545.857 502.809 545.646C503.272 545.857 503.589 545.984 503.715 546.047Z" fill="url(#paint9_linear_551_1969)"/>
<path opacity="0.5" d="M507.764 547.059C507.806 549.4 506.941 551.128 505.466 552.351C506.731 547.924 506.562 540.271 495.81 531.901C501.692 535.19 507.637 540.777 507.764 547.059Z" fill="url(#paint10_linear_551_1969)"/>
<path d="M464.606 503.545C459.188 502.87 456.489 507.614 452.42 504.219C452.42 504.219 447.002 500.846 444.303 496.102C443.987 495.575 443.818 495.09 443.755 494.648C443.228 491.211 449.047 490.263 450.354 486.763C450.375 486.721 450.396 486.678 450.396 486.636C451.345 483.811 456.911 481.956 463.193 483.643C463.973 488.47 463.488 491.127 463.046 492.413L466.588 484.908C468.211 485.666 469.813 486.678 471.373 488.007C480.165 495.407 470.024 504.219 464.606 503.545Z" fill="url(#paint11_linear_551_1969)"/>
<path opacity="0.5" d="M462.561 495.406C462.476 495.322 462.244 495.09 461.865 494.753C462.308 495.048 462.519 495.322 462.561 495.406Z" fill="url(#paint12_linear_551_1969)"/>
<path d="M458.345 497.093C459.483 498.042 460.263 496.714 461.781 496.903C463.32 497.093 466.187 494.605 463.7 492.497C461.212 490.389 458.155 490.958 457.775 492.118C457.396 493.256 455.288 493.446 456.047 494.795C456.827 496.144 458.345 497.093 458.345 497.093Z" fill="#FFF764"/>
<path d="M463.025 492.413C462.814 493.066 462.582 493.34 462.561 493.383L463.025 492.413Z" fill="#FFF764"/>
<path opacity="0.4" d="M503.82 519.926C476.265 529.308 467.157 539.554 464.374 543.96C463.51 543.623 462.667 543.222 461.887 542.801C443.608 532.66 462.561 518.45 462.561 518.45H472.702C486.216 517.354 496.315 518.176 503.82 519.926Z" fill="url(#paint13_linear_551_1969)"/>
<path opacity="0.4" d="M469.835 509.785C470.446 509.342 471.205 508.752 472.133 508.014C472.449 507.761 472.786 507.508 473.145 507.297C471.795 508.035 470.615 508.878 469.835 509.785Z" fill="url(#paint14_linear_551_1969)"/>
<path d="M458.998 524.205C482.021 526.082 516.765 513.2 512.253 510.333C508.395 507.866 487.144 500.108 480.018 502.743C478.415 503.334 477.108 504.388 476.244 506.18C476.244 506.18 471.964 507.15 467.073 508.857C464.838 509.637 462.414 510.607 460.158 511.724C458.028 512.779 456.047 513.98 454.55 515.309C452.442 517.164 451.282 519.23 452.02 521.401C452.02 521.401 452.02 521.401 452.02 521.423C452.568 522.983 455.098 523.868 458.998 524.205Z" fill="url(#paint15_linear_551_1969)"/>
<path opacity="0.4" d="M503.63 509.384C503.419 509.342 503.103 509.279 502.702 509.216C503.103 509.3 503.419 509.342 503.63 509.384Z" fill="url(#paint16_linear_551_1969)"/>
<path opacity="0.5" d="M467.073 508.857C479.196 505.4 497.516 508.309 502.597 509.195C497.432 508.225 479.406 504.704 479.997 502.722C478.394 503.313 477.087 504.367 476.223 506.159C476.223 506.18 471.943 507.129 467.073 508.857Z" fill="url(#paint17_linear_551_1969)"/>
<path d="M458.641 524.627C455.12 524.185 453.37 527.263 450.735 525.07C450.735 525.07 447.214 522.877 445.464 519.799C445.253 519.462 445.148 519.125 445.106 518.851C444.768 516.616 448.542 516.004 449.385 513.728C449.385 513.706 449.406 513.664 449.406 513.643C450.018 511.809 453.644 510.607 457.713 511.704C458.219 514.845 457.903 516.574 457.608 517.396L459.906 512.526C460.96 513.011 462.014 513.685 463.026 514.529C468.76 519.357 462.161 525.07 458.641 524.627Z" fill="url(#paint18_linear_551_1969)"/>
<path opacity="0.5" d="M457.312 519.335C457.27 519.293 457.101 519.124 456.869 518.913C457.143 519.124 457.27 519.293 457.312 519.335Z" fill="url(#paint19_linear_551_1969)"/>
<path d="M454.572 520.453C455.31 521.064 455.816 520.2 456.806 520.326C457.797 520.453 459.674 518.83 458.05 517.459C456.427 516.089 454.445 516.468 454.192 517.206C453.939 517.944 452.569 518.071 453.075 518.935C453.581 519.82 454.572 520.453 454.572 520.453Z" fill="#FFF764"/>
<path d="M457.629 517.396C457.481 517.817 457.355 518.007 457.333 518.028L457.629 517.396Z" fill="#FFF764"/>
<path d="M466.756 574.382C462.182 576.006 457.311 575.9 452.462 574.614C433.34 569.512 414.956 545.942 420.143 537.888C423.516 532.681 427.501 530.151 431.338 529.139C439.37 526.989 446.812 531.395 446.812 531.395C446.812 531.395 451.514 527.853 460.98 529.097C461.844 529.202 462.772 529.371 463.721 529.561C468.886 530.657 474.662 538.415 477.277 547.291C480.439 557.854 479.069 569.997 466.756 574.382Z" fill="url(#paint20_linear_551_1969)"/>
<path opacity="0.5" d="M461.149 564.79C461.739 562.766 451.177 528.949 431.359 529.118C439.391 526.968 446.834 531.374 446.834 531.374C446.834 531.374 451.535 527.832 461.001 529.076C447.761 532.006 463.383 557.179 461.149 564.79Z" fill="url(#paint21_linear_551_1969)"/>
<path opacity="0.4" d="M461.95 566.561C461.845 566.35 461.613 565.844 461.297 565.106C461.634 565.844 461.866 566.35 461.95 566.561Z" fill="url(#paint22_linear_551_1969)"/>
<path opacity="0.5" d="M466.335 572.654C462.013 574.193 457.417 574.087 452.842 572.865C463.13 571.81 477.256 566.772 476.307 547.038C479.258 557.053 477.951 568.522 466.335 572.654Z" fill="url(#paint23_linear_551_1969)"/>
<path d="M409.243 530.256C397.521 539.975 350.486 549.926 348.357 544.593C346.269 539.364 353.29 510.924 370.915 512.884C374.162 513.243 377.767 514.634 381.751 517.375C381.751 517.375 387.402 516.869 393.832 517.29C396.467 517.459 399.208 517.796 401.759 518.366C403.994 518.872 406.039 519.567 407.725 520.516C409.876 521.739 411.415 523.383 411.836 525.597C411.836 525.597 411.836 525.597 411.836 525.618C412.089 527.157 411.141 528.696 409.243 530.256Z" fill="url(#paint24_linear_551_1969)"/>
<path opacity="0.4" d="M356.958 537.761C357.106 537.572 357.359 537.298 357.696 536.96C357.38 537.319 357.127 537.572 356.958 537.761Z" fill="url(#paint25_linear_551_1969)"/>
<path opacity="0.5" d="M393.811 517.333C377.24 517.607 361.892 532.554 357.781 536.876C361.828 532.407 375.701 516.468 370.915 512.905C374.162 513.264 377.767 514.655 381.752 517.396C381.73 517.396 387.402 516.911 393.811 517.333Z" fill="url(#paint26_linear_551_1969)"/>
<rect x="241.638" y="58.9564" width="435.686" height="297.465" rx="16" fill="white"/>
<mask id="mask0_551_1969" style="mask-type:alpha" maskUnits="userSpaceOnUse" x="241" y="58" width="437" height="299">
<rect x="241.638" y="58.9564" width="435.686" height="297.465" rx="16" fill="white"/>
</mask>
<g mask="url(#mask0_551_1969)">
<circle cx="696.769" cy="53.7007" r="133.988" stroke="#E6F4F1" stroke-opacity="0.02" stroke-width="40"/>
<circle cx="222.718" cy="372.713" r="133.988" stroke="#E6F4F1" stroke-opacity="0.02" stroke-width="40"/>
</g>
<rect x="436.335" y="200.554" width="198.782" height="122.537" rx="8" fill="#E6F4F1"/>
<rect x="464" y="110.309" width="164.744" height="87.1372" rx="8" transform="rotate(-9.71309 464 110.309)" fill="#E6F4F1"/>
<path d="M508.337 172.8C508.337 172.8 521.185 132.774 535.57 130.153C550.165 127.493 554.74 147.91 569.555 147.127C592.652 145.906 611.399 93 611.399 93" stroke="#6C95FF" stroke-width="3" stroke-linecap="round"/>
<g filter="url(#filter0_d_551_1969)">
<circle cx="533.557" cy="130.497" r="5.44607" transform="rotate(-9.71309 533.557 130.497)" fill="white"/>
</g>
<g filter="url(#filter1_d_551_1969)">
<circle cx="605.759" cy="108.469" r="5.44607" transform="rotate(-9.71309 605.759 108.469)" fill="white"/>
</g>
<path d="M668.904 73.6368L633.466 78.9276C637.455 100.011 652.317 107.064 659.25 107.955L668.904 73.6368Z" fill="#E4C6C7"/>
<path d="M667.868 66.5494L632.038 66.7352C632.982 88.1719 646.687 97.2709 653.421 99.1408L667.868 66.5494Z" fill="#F27559"/>
<mask id="mask1_551_1969" style="mask-type:alpha" maskUnits="userSpaceOnUse" x="632" y="66" width="36" height="34">
<path d="M667.868 66.5494L632.038 66.7352C632.982 88.1719 646.687 97.2709 653.421 99.1408L667.868 66.5494Z" fill="#F27559"/>
</mask>
<g mask="url(#mask1_551_1969)">
<path d="M660.659 76.2448C660.892 73.653 654.073 68.9037 650.635 66.853C602.588 58.7665 623.186 78.9872 639.491 90.1084C641.335 90.544 646.845 91.6698 654.131 92.6881C663.237 93.9609 663.35 86.589 658.781 85.0909C654.213 83.5928 653.248 83.7841 640.476 81.7332C627.113 80.4811 629.28 72.8851 632.034 69.2436C631.922 68.7355 633.033 67.8973 638.376 68.6089C647.52 70.9464 652.341 76.8562 655.512 78.7179C658.682 80.5796 660.367 79.4846 660.659 76.2448Z" stroke="white" stroke-width="3" stroke-linecap="round"/>
</g>
<path opacity="0.24" d="M675.707 37.7268C671.337 37.0775 668.226 32.9295 670.023 28.8936C671.32 25.982 673.089 23.284 675.273 20.9145C679.278 16.5704 684.497 13.5311 690.251 12.1915C696.006 10.8519 702.031 11.274 707.542 13.4028C713.054 15.5317 717.798 19.269 721.158 24.1291C724.518 28.9892 726.339 34.7476 726.384 40.6559C726.429 46.5643 724.695 52.3495 721.41 57.2601C718.124 62.1707 713.437 65.9796 707.958 68.1919C704.97 69.3986 701.821 70.0998 698.639 70.2849C694.228 70.5413 691.447 66.1652 692.383 61.8473L693.323 57.5131C694.068 54.0779 697.66 52.0761 700.919 50.76V50.76C702.901 49.9597 704.597 48.5818 705.785 46.8053C706.974 45.0289 707.601 42.936 707.585 40.7986C707.569 38.6612 706.91 36.5781 705.694 34.8199C704.479 33.0617 702.763 31.7097 700.769 30.9396C698.775 30.1694 696.595 30.0168 694.514 30.5014C692.432 30.986 690.544 32.0855 689.095 33.657V33.657C686.713 36.2414 683.571 38.895 680.094 38.3785L675.707 37.7268Z" fill="url(#paint27_linear_551_1969)"/>
<rect x="281.122" y="99.802" width="171.551" height="87.1372" rx="8" fill="#E6F4F1"/>
<path d="M317.784 146.55C320.961 147.23 327.451 149.817 327.996 154.719C328.677 160.846 342.292 165.611 343.653 149.953C345.015 134.296 355.206 115.851 361.353 135.657C367.48 155.399 368.841 153.357 374.287 147.911C377.01 145.188 383.41 141.784 387.222 149.953C392.668 156.489 394.029 158.349 396.072 159.484" stroke="#6C95FF" stroke-width="3" stroke-linecap="round"/>
<g filter="url(#filter2_d_551_1969)">
<circle cx="399.475" cy="160.846" r="4.08455" fill="#E9EAFF"/>
</g>
<rect x="296" y="120" width="13.6152" height="4.08455" rx="1.5" fill="#D5DEFF"/>
<rect x="296" y="132.254" width="13.6152" height="4.08455" rx="1.5" fill="#D5DEFF"/>
<rect x="296" y="144.507" width="13.6152" height="4.08455" rx="1.5" fill="#D5DEFF"/>
<rect x="296" y="156.761" width="13.6152" height="4.08455" rx="1.5" fill="#D5DEFF"/>
<rect x="296" y="169.015" width="13.6152" height="4.08455" rx="1.5" fill="#D5DEFF"/>
<path d="M247.159 256.545C245.875 257.327 246.097 258.364 246.368 258.785C246.765 259.516 247.752 261.055 248.528 261.359C248.576 261.377 248.624 261.394 248.671 261.409C249.853 261.787 251.19 261.931 252.233 262.602C252.996 263.094 253.768 262.731 254.058 262.488C254.699 262.038 256.22 261.006 257.176 260.48C257.995 260.029 258.229 259.223 258.253 258.726C258.26 258.578 258.244 258.485 258.2 258.344C257.914 257.428 258.357 256.369 258.553 255.43C258.708 254.69 258.488 253.934 258.276 253.517L257.183 251.82C256.593 250.904 255.491 251.216 255.014 251.486C252.93 252.846 248.442 255.763 247.159 256.545Z" fill="url(#paint28_linear_551_1969)"/>
<path d="M235.413 249.926C239.008 250.514 241.597 252.476 242.443 253.384C243.983 255.429 245.553 255.178 246.145 254.797C248.267 253.467 252.603 250.726 252.973 250.399C253.435 249.989 255.269 249.367 254.29 246.982C253.312 244.596 253.789 244.903 253.365 243.724C253.026 242.781 253.501 239.021 253.78 237.258C253.898 236.661 253.872 234.765 252.822 231.956C250.16 226.522 247.832 224.727 242.789 223.228C237.747 221.729 231.064 224.358 228.134 229.26C225.205 234.163 225.691 238.819 226.856 241.755C228.02 244.691 230.952 248.722 235.413 249.926Z" fill="url(#paint29_linear_551_1969)"/>
<path d="M246.721 228.514L245.181 229.506L246.517 230.712L247.427 229.177L246.721 228.514Z" fill="white"/>
<path d="M244.372 227.232L243.325 228.734L245.018 229.342L245.276 227.576L244.372 227.232Z" fill="white"/>
<path d="M241.652 226.997L241.188 228.768L242.988 228.754L242.62 227.008L241.652 226.997Z" fill="white"/>
<path d="M238.963 228.027L239.494 229.78L241.02 228.826L239.793 227.53L238.963 228.027Z" fill="white"/>
<path d="M236.915 229.913L237.987 231.398L239.12 230L237.539 229.173L236.915 229.913Z" fill="white"/>
<path d="M235.792 232.493L237.402 233.364L237.816 231.613L236.032 231.555L235.792 232.493Z" fill="white"/>
<path d="M236.014 235.296L237.843 235.389L237.462 233.63L235.828 234.346L236.014 235.296Z" fill="white"/>
<path d="M237.024 237.851L238.815 237.471L237.996 235.869L236.6 236.981L237.024 237.851Z" fill="white"/>
<path d="M239.347 239.725L240.78 238.584L239.331 237.518L238.579 239.136L239.347 239.725Z" fill="white"/>
<path d="M242.179 240.277L242.762 238.541L240.965 238.433L241.214 240.2L242.179 240.277Z" fill="white"/>
<path d="M244.923 239.921L244.871 238.091L243.148 238.609L243.99 240.182L244.923 239.921Z" fill="white"/>
<path d="M247.189 238.316L246.429 236.65L245.043 237.798L246.432 238.919L247.189 238.316Z" fill="white"/>
<path d="M248.79 236.031L247.411 234.827L246.621 236.444L248.348 236.893L248.79 236.031Z" fill="white"/>
<path d="M249.148 233.336L247.395 232.806L247.342 234.605L249.101 234.303L249.148 233.336Z" fill="white"/>
<path d="M248.565 230.62L246.754 230.894L247.478 232.541L248.937 231.513L248.565 230.62Z" fill="white"/>
<path fill-rule="evenodd" clip-rule="evenodd" d="M245.446 238.326C248.018 236.67 248.76 233.241 247.103 230.669C245.447 228.097 242.018 227.355 239.446 229.011C236.874 230.668 236.132 234.096 237.788 236.669C239.445 239.241 242.873 239.983 245.446 238.326ZM243.971 236.037C245.279 235.195 245.657 233.451 244.814 232.143C243.972 230.835 242.229 230.458 240.921 231.3C239.613 232.143 239.235 233.886 240.078 235.194C240.92 236.502 242.663 236.879 243.971 236.037Z" fill="white"/>
<path d="M241.781 240.283L241.079 241.276L242.201 241.688L242.381 240.516L241.781 240.283Z" fill="white"/>
<path d="M240.015 240.076L239.743 241.262L240.938 241.216L240.658 240.064L240.015 240.076Z" fill="white"/>
<path d="M238.281 240.607L238.435 241.813L239.541 241.358L238.88 240.373L238.281 240.607Z" fill="white"/>
<path d="M236.88 241.909L237.642 242.857L238.346 241.891L237.268 241.397L236.88 241.909Z" fill="white"/>
<path d="M236.086 243.58L237.115 244.229L237.467 243.086L236.287 242.969L236.086 243.58Z" fill="white"/>
<path d="M236.034 245.448L237.243 245.586L237.064 244.404L235.95 244.811L236.034 245.448Z" fill="white"/>
<path d="M236.868 247.121L238.018 246.724L237.347 245.735L236.517 246.582L236.868 247.121Z" fill="white"/>
<path d="M238.125 248.445L239.134 247.766L238.231 246.982L237.647 248.014L238.125 248.445Z" fill="white"/>
<path d="M240.022 249.022L240.621 247.964L239.463 247.666L239.402 248.85L240.022 249.022Z" fill="white"/>
<path d="M241.904 248.659L241.832 247.444L240.698 247.824L241.291 248.851L241.904 248.659Z" fill="white"/>
<path d="M243.506 247.758L243.02 246.643L242.087 247.39L242.996 248.151L243.506 247.758Z" fill="white"/>
<path d="M244.504 246.207L243.622 245.369L243.053 246.42L244.187 246.766L244.504 246.207Z" fill="white"/>
<path d="M244.923 244.401L243.774 244.001L243.689 245.194L244.865 245.042L244.923 244.401Z" fill="white"/>
<path d="M244.474 242.651L243.263 242.76L243.677 243.882L244.686 243.259L244.474 242.651Z" fill="white"/>
<path d="M243.44 241.123L242.393 241.741L243.248 242.576L243.892 241.58L243.44 241.123Z" fill="white"/>
<path fill-rule="evenodd" clip-rule="evenodd" d="M243.432 246.646C244.606 244.986 244.212 242.689 242.552 241.516C240.892 240.342 238.595 240.736 237.422 242.396C236.248 244.055 236.642 246.352 238.302 247.526C239.961 248.7 242.258 248.306 243.432 246.646ZM241.955 245.601C242.552 244.757 242.351 243.59 241.507 242.993C240.664 242.396 239.496 242.596 238.899 243.44C238.302 244.284 238.502 245.452 239.346 246.049C240.19 246.646 241.358 246.445 241.955 245.601Z" fill="white"/>
<path d="M234.677 235.945L234.138 236.706L234.998 237.021L235.136 236.123L234.677 235.945Z" fill="white"/>
<path d="M233.324 235.787L233.115 236.695L234.031 236.66L233.816 235.777L233.324 235.787Z" fill="white"/>
<path d="M231.995 236.193L232.113 237.117L232.96 236.768L232.454 236.014L231.995 236.193Z" fill="white"/>
<path d="M230.921 237.191L231.505 237.917L232.044 237.177L231.219 236.798L230.921 237.191Z" fill="white"/>
<path d="M230.313 238.471L231.102 238.968L231.371 238.092L230.467 238.003L230.313 238.471Z" fill="white"/>
<path d="M230.274 239.903L231.2 240.008L231.062 239.102L230.209 239.414L230.274 239.903Z" fill="white"/>
<path d="M230.912 241.184L231.793 240.88L231.279 240.122L230.643 240.771L230.912 241.184Z" fill="white"/>
<path d="M231.875 242.198L232.649 241.678L231.957 241.078L231.509 241.868L231.875 242.198Z" fill="white"/>
<path d="M233.329 242.641L233.788 241.83L232.901 241.602L232.854 242.509L233.329 242.641Z" fill="white"/>
<path d="M234.771 242.362L234.715 241.432L233.847 241.723L234.301 242.51L234.771 242.362Z" fill="white"/>
<path d="M235.998 241.672L235.625 240.818L234.91 241.39L235.608 241.973L235.998 241.672Z" fill="white"/>
<path d="M236.763 240.483L236.087 239.841L235.651 240.647L236.52 240.912L236.763 240.483Z" fill="white"/>
<path d="M237.084 239.1L236.204 238.794L236.139 239.707L237.04 239.591L237.084 239.1Z" fill="white"/>
<path d="M236.74 237.76L235.812 237.843L236.129 238.702L236.902 238.225L236.74 237.76Z" fill="white"/>
<path d="M235.948 236.588L235.145 237.062L235.801 237.702L236.294 236.939L235.948 236.588Z" fill="white"/>
<path fill-rule="evenodd" clip-rule="evenodd" d="M235.942 240.82C236.841 239.548 236.539 237.789 235.267 236.889C233.996 235.99 232.236 236.292 231.337 237.564C230.437 238.835 230.739 240.595 232.011 241.494C233.283 242.394 235.042 242.092 235.942 240.82ZM234.81 240.02C235.267 239.373 235.114 238.478 234.467 238.021C233.82 237.564 232.926 237.717 232.468 238.364C232.011 239.011 232.165 239.905 232.811 240.363C233.458 240.82 234.353 240.666 234.81 240.02Z" fill="white"/>
<path d="M237.908 215.195C237.775 211.893 240.156 205.933 242.763 200.962" stroke="#FFC2A4" stroke-width="2" stroke-linecap="round"/>
<path d="M213.258 261.293C215.316 258.708 221.014 255.754 226.238 253.697" stroke="#FFC2A4" stroke-width="2" stroke-linecap="round"/>
<path d="M223.143 221.029C220.162 219.604 216.005 214.714 212.829 210.085" stroke="#FFC2A4" stroke-width="2" stroke-linecap="round"/>
<path d="M260.723 241.765C263.915 240.912 270.252 241.93 275.673 243.386" stroke="#FFC2A4" stroke-width="2" stroke-linecap="round"/>
<path d="M216.978 231.649C213.694 232.008 207.584 230.044 202.445 227.785" stroke="#FFC2A4" stroke-width="2" stroke-linecap="round"/>
<path d="M262.223 230.679C264.666 228.455 270.762 226.446 276.246 225.247" stroke="#FFC2A4" stroke-width="2" stroke-linecap="round"/>
<path d="M218.502 244.103C215.53 245.545 209.115 245.749 203.515 245.348" stroke="#FFC2A4" stroke-width="2" stroke-linecap="round"/>
<path d="M252.808 220.364C254.176 217.357 258.986 213.107 263.553 209.843" stroke="#FFC2A4" stroke-width="2" stroke-linecap="round"/>
<path d="M153.896 180.799C150.255 174.431 154.537 168.429 157.133 166.223C171.799 151.51 202.688 120.264 208.919 112.986C215.149 105.709 220.887 106.439 222.978 107.714C226.147 104.268 232.506 97.5007 232.587 97.9969C232.667 98.4931 236.868 102.614 238.959 104.613C237.205 106.508 232.91 111.043 229.754 114.02C231.535 120.718 227.866 125.356 225.81 126.838C209.829 143.378 176.714 177.491 172.102 181.626C167.854 187.518 158.448 188.759 153.896 180.799Z" fill="#23649A"/>
<path d="M258.174 25.8418C266.636 23.0163 287.708 21.0867 304.296 35.9725C297.62 28.2194 283.359 13.7471 258.174 25.8418Z" fill="#23649A"/>
<path d="M252.465 95.6006C259.593 99.1979 278.074 104.518 294.975 97.0191C287.92 101.292 273.149 108.932 252.465 95.6006Z" fill="#23649A"/>
<path d="M275.364 107.991C301.13 107.991 321.98 86.6492 321.98 60.3693C321.98 34.0895 301.13 12.748 275.364 12.748C249.598 12.748 228.748 34.0895 228.748 60.3693C228.748 86.6492 249.598 107.991 275.364 107.991Z" stroke="#23649A" stroke-width="2"/>
<rect x="450.78" y="50.5137" width="10.7216" height="8.56383" transform="rotate(56.3598 450.78 50.5137)" fill="#30215A"/>
<rect x="475.158" y="346.237" width="16.3247" height="14.4049" rx="2" transform="rotate(42.8614 475.158 346.237)" fill="#30215A"/>
<rect x="236.667" y="302.15" width="13.7312" height="10.9677" rx="2" transform="rotate(15.0588 236.667 302.15)" fill="#30215A"/>
<path d="M689.011 240.444C678.929 244.33 670.461 239.278 667.487 236.266C672.519 246.439 665.201 255.24 664.291 257.03C672.214 253.848 681.377 258.644 684.969 261.44C681.141 248.766 685.756 245.679 689.011 240.444Z" fill="#F27559"/>
<path d="M251.825 144.05C243.24 147.36 236.029 143.058 233.497 140.493C237.782 149.156 231.55 156.65 230.776 158.174C237.521 155.464 245.324 159.548 248.383 161.929C245.123 151.136 249.053 148.508 251.825 144.05Z" fill="#F27559"/>
<rect x="287" y="203.95" width="136.152" height="122.537" rx="8" fill="#E6F4F1"/>
<path d="M287 211.95C287 207.532 290.582 203.95 295 203.95H415.152C419.57 203.95 423.152 207.532 423.152 211.95V221.998H287V211.95Z" fill="#D6E4FF"/>
<ellipse cx="294.042" cy="212.974" rx="2.34745" ry="2.37474" fill="white"/>
<ellipse cx="300.615" cy="212.974" rx="2.34745" ry="2.37474" fill="white"/>
<ellipse cx="307.188" cy="212.974" rx="2.34745" ry="2.37474" fill="white"/>
<path d="M384.245 278.744C382.693 285.518 378.924 291.564 373.551 295.902C368.178 300.239 361.515 302.615 354.64 302.643C347.766 302.671 341.084 300.35 335.676 296.057C330.268 291.763 326.452 285.748 324.845 278.987L354.517 271.771L384.245 278.744Z" fill="#F27559"/>
<path d="M355.456 239C359.967 239 364.422 240.012 368.501 241.963C372.579 243.913 376.179 246.755 379.042 250.282C381.904 253.809 383.958 257.934 385.056 262.361C386.153 266.788 386.267 271.405 385.389 275.882L355.456 269.872L355.456 239Z" fill="#51C0A6"/>
<path d="M324.433 275.056C323.696 270.676 323.902 266.186 325.037 261.894C326.172 257.602 328.209 253.608 331.01 250.185C333.811 246.763 337.309 243.992 341.265 242.063C345.222 240.133 349.543 239.09 353.934 239.006L354.517 269.872L324.433 275.056Z" fill="#86B2F3"/>
<rect x="324" y="171" width="79.8131" height="3.79959" fill="#CED5E7"/>
<rect x="339.023" y="179.549" width="49.7658" height="3.79959" fill="#CED5E7"/>
<rect opacity="0.54" x="455" y="249.518" width="10.8921" height="54.0007" rx="2" fill="url(#paint30_linear_551_1969)"/>
<rect opacity="0.54" x="565.283" y="216" width="10.8921" height="87.5184" rx="2" fill="url(#paint31_linear_551_1969)"/>
<rect opacity="0.54" x="491.761" y="227.173" width="10.8921" height="76.3458" rx="2" fill="url(#paint32_linear_551_1969)"/>
<rect opacity="0.54" x="602.044" y="249.518" width="10.8921" height="54.0007" rx="2" fill="url(#paint33_linear_551_1969)"/>
<rect opacity="0.54" x="528.522" y="227.173" width="10.8921" height="76.3458" rx="2" fill="url(#paint34_linear_551_1969)"/>
<path d="M670.833 609.392L721.059 610.12L718.148 594.106H691.943C675.638 596.435 671.076 605.267 670.833 609.392Z" fill="#1D468A"/>
<path d="M737.801 609.392L781.476 610.12L778.565 594.833C773.712 595.076 761.24 595.416 750.176 594.833C739.111 597.163 737.316 605.509 737.801 609.392Z" fill="#1D468A"/>
<path d="M712.74 256.314L708.315 229.762L735.888 228.741L736.909 256.314H712.74Z" fill="#F7B39D"/>
<path d="M766.19 258.537C730.086 224.18 675.929 258.538 675.929 267.999L687.576 349.526L688.304 383.01L769.102 384.466L774.925 291.293C773.469 264.36 774.197 268.728 766.19 258.537Z" fill="#F99744"/>
<path d="M769.101 384.467L688.303 383.011L691.943 594.106H718.148L729.066 428.142L750.904 594.834L764.5 595.999L778.564 594.834L769.101 384.467Z" fill="#1D468A"/>
<path d="M788.755 316.043C781.767 280.521 771.285 263.876 766.918 259.994L764.734 406.304L774.925 412.128L788.755 359.718C789.483 356.321 791.085 349.09 791.667 347.343C792.249 345.596 792.395 342.733 792.395 341.52V339.336C792.395 338.851 791.667 333.513 788.755 316.043Z" fill="#ED7D31"/>
<path d="M774.196 410.672L769.101 408.488L767.645 421.59C768.616 424.987 770.993 430.034 772.74 423.046C773.468 416.495 772.74 418.679 772.74 415.767C772.74 411.4 773.711 411.4 774.196 410.672Z" fill="#F7B39D"/>
<path d="M632.253 365.541C628.614 368.21 620.898 373.985 619.151 375.732C616.967 377.916 611.872 380.099 611.144 380.099C610.416 380.099 603.137 383.011 611.144 377.188C612.89 376.023 613.812 375.247 614.054 375.004C611.87 376.217 607.066 378.789 605.319 379.372C603.135 380.099 597.312 380.827 603.863 376.46C606.686 374.579 608.228 373.598 609.012 373.131C605.676 374.653 599.857 377.188 598.77 377.188C597.315 377.188 590.763 379.372 598.042 374.276L603.863 370.637L595.858 372.092C592.947 372.335 588.87 372.092 595.858 369.181C602.846 366.269 605.564 364.571 606.049 364.085L608.961 361.902C609.446 361.659 609.98 360.883 608.233 359.718C606.049 358.262 602.41 356.078 606.777 355.35C610.271 355.35 614.542 355.836 616.24 356.078C618.181 356.564 622.791 357.243 625.703 356.078C628.615 354.914 631.283 361.902 632.253 365.541Z" fill="#F7B39D"/>
<path d="M699.222 273.097C693.399 253.297 681.752 259.994 676.657 265.818C671.416 274.552 668.165 315.558 667.194 334.969L622.792 356.079L627.159 370.637C641.475 366.755 672.581 357.826 682.48 353.167C692.38 348.508 696.311 336.182 697.039 330.602C699.222 320.168 702.716 294.061 699.222 273.097Z" fill="#ED7D31"/>
<path d="M702.862 216.32C702.28 211.661 703.832 199.335 705.045 193.755C714.023 192.056 733.725 188.805 740.713 189.387C749.448 190.115 760.366 212.68 731.25 230.15C707.957 244.126 702.619 226.753 702.862 216.32Z" fill="#F7B39D"/>
<path d="M719.604 174.828C711.452 174.828 704.561 178.225 702.134 179.924C692.314 186.798 698.494 187.931 702.134 188.658C698.058 190.988 696.068 193.511 695.583 194.482C689.761 203.945 698.495 199.577 704.318 200.305C710.142 201.033 710.142 204.673 709.414 206.128C708.686 207.584 708.686 208.312 708.686 210.496C708.686 212.68 710.142 217.047 712.325 215.591C714.072 214.427 715.48 214.135 715.965 214.135C721.788 214.135 719.604 222.142 718.876 225.782C715.965 235.973 728.339 238.156 736.346 235.973C746.537 230.149 749.449 222.142 753.816 209.04C757.31 198.558 753.816 192.055 751.633 190.114C749.691 188.416 745.518 184.873 744.353 184.291C740.714 182.107 741.442 181.379 737.802 179.196C734.163 177.012 729.795 174.828 719.604 174.828Z" fill="#163561" stroke="#FF4B4B" stroke-width="0.05"/>
<path d="M708.996 232.825C713.421 235.889 725.063 240.859 736.228 236.229C729.76 239.974 714.442 243.037 708.996 232.825Z" fill="#F8A9A9"/>
<path d="M300.721 264.153C298.134 272.883 293.715 276.413 291.829 277.086L299.104 291.232C301.664 286.92 307.268 277.732 309.208 275.469C311.633 272.64 317.696 270.215 320.929 268.194C324.163 266.173 325.779 262.536 320.929 263.748C317.049 264.718 317.426 262.805 318.1 261.727C318.774 259.706 320.929 254.371 324.163 249.198C327.396 244.025 324.971 245.426 323.354 246.773L316.483 253.644C317.292 252.701 319.232 249.683 320.525 245.157C321.818 240.63 319.178 243.27 317.696 245.157C316.483 246.369 313.25 251.219 311.229 254.857C312.846 251.3 314.058 247.447 314.463 245.966C315.271 243.136 313.051 244.598 311.633 246.37C310.017 248.391 307.996 252.567 306.783 255.261C307.322 253.914 308.481 250.815 308.804 249.199C309.208 247.178 309.208 246.774 307.592 248.39C304.358 251.22 303.954 253.24 300.721 264.153Z" fill="#FFC7C7"/>
<path d="M157.242 390.657L149.159 599.612L175.43 601.633L197.255 437.945L208.167 601.633H231.205L233.226 390.657H157.242Z" fill="#0D264A"/>
<path d="M175.428 597.995L149.561 597.591H149.157L145.924 612.95H187.957C189.574 602.28 180.278 598.534 175.428 597.995Z" fill="#06152C"/>
<path d="M204.559 612.91L207.792 597.551H232.446C250.23 600.138 252.79 608.868 251.847 612.91H204.559Z" fill="#06152C"/>
<path d="M234.842 310.228V273.853L272.429 296.487L296.275 269.811C298.7 271.293 304.763 275.066 309.613 278.299C293.042 311.441 282.938 319.524 281.321 320.737C279.704 321.949 278.492 322.757 274.046 322.353C257.879 322.03 241.174 314.135 234.842 310.228Z" fill="#122D53"/>
<path d="M178.258 263.749L180.279 251.219L201.295 252.432L203.72 262.536L194.425 275.469L178.258 263.749Z" fill="#FFC7C7"/>
<path d="M181.345 263.051C177.932 263.904 172.33 265.904 169.366 266.982L180.278 397.932H214.633L210.995 264.152L202.103 262.132L194.02 272.64C190.787 270.484 183.285 265.314 181.345 263.051Z" fill="#00A3FE"/>
<path d="M236.488 274.622C225.818 267.832 213.69 264.557 208.975 263.749L206.55 295.274V304.166L209.379 416.929L236.458 420.566C236.458 373.279 236.488 277.855 236.488 274.622Z" fill="#163561"/>
<path d="M146.329 279.107C154.089 272.641 168.154 267.252 174.216 265.366L183.917 298.912L186.342 416.929L151.179 420.566L146.329 279.107Z" fill="#163561"/>
<path fill-rule="evenodd" clip-rule="evenodd" d="M181.345 263.051L191.585 270.304V277.984L178.635 264.126L181.345 263.051Z" fill="#89C2D9"/>
<path fill-rule="evenodd" clip-rule="evenodd" d="M191.585 270.304L189.878 354.508L197.498 366.134L204.926 354.52L196.252 269.877L191.585 270.304Z" fill="#00243D"/>
<path d="M202.912 260.111C186.422 262.051 179.874 253.914 179.066 250.007L202.942 251.988L202.912 260.111Z" fill="#F3B1B1"/>
<path d="M202.913 256.07C182.866 258.657 173.274 248.526 170.983 243.137C163.304 207.166 200.083 198.274 207.358 207.974C214.633 217.674 214.199 231.456 212.208 237.883C210.217 244.309 211.4 250.412 202.913 256.07Z" fill="#FFC7C7"/>
<path d="M185.129 196.656C174.135 200.213 167.615 205.413 165.728 207.569C161.202 210.155 160.07 218.616 160.07 222.523C160.878 226.16 161.283 236.669 169.366 245.965C175.519 253.04 176.102 247.716 175.428 244.348C175.024 242.866 174.054 238.609 173.408 233.435C173.003 226.969 179.066 228.585 179.47 233.435C179.874 238.285 181.895 236.265 182.703 234.244C183.35 232.627 183.781 227.642 183.916 225.352C185.533 212.742 198.062 217.314 209.379 218.885C223.929 220.906 219.887 212.015 214.633 203.123C210.591 195.444 202.238 195.039 198.062 195.039C196.176 194.905 190.949 195.039 185.129 196.656Z" fill="#163561"/>
<path d="M167.749 299.719C169.366 276.439 154.816 274.66 146.328 279.107C141.074 285.978 134.607 305.781 132.587 321.948C130.566 338.114 129.757 349.027 134.607 361.96C138.487 372.307 148.619 390.521 153.199 398.335L167.345 388.231L154.816 350.644C158.373 337.064 164.92 311.036 167.749 299.719Z" fill="#224373"/>
<path fill-rule="evenodd" clip-rule="evenodd" d="M201.597 262.157C202.197 262.078 205.1 262.751 205.1 262.751L196.705 274.144L196.278 269.877C196.278 269.877 200.997 262.25 201.588 262.168L201.597 262.157Z" fill="#89C2D9"/>
<path fill-rule="evenodd" clip-rule="evenodd" d="M486.932 560.32C486.932 563.377 486.764 566.371 486.448 569.28C484.529 586.526 477.15 601.347 466.756 610.455H418.456C416.706 608.916 415.041 607.229 413.459 605.374C410.065 601.368 407.114 596.667 404.731 591.438C402.813 587.201 401.274 582.626 400.177 577.777C399.861 576.343 399.566 574.909 399.334 573.455C399.081 572 398.891 570.545 398.723 569.048C398.406 566.202 398.259 563.272 398.259 560.299C398.259 555.661 398.659 551.149 399.397 546.806H485.815C486.363 550.032 486.722 553.363 486.869 556.757C486.911 557.938 486.932 559.119 486.932 560.32Z" fill="#F67459"/>
<path fill-rule="evenodd" clip-rule="evenodd" d="M486.932 560.299C486.932 563.356 486.764 566.35 486.447 569.26C484.529 586.505 477.15 601.326 466.756 610.434H418.435C416.685 608.895 415.019 607.208 413.438 605.353C410.044 601.347 407.092 596.646 404.71 591.439C404.499 590.996 404.141 590.511 403.677 590.047C403.845 590.131 404.035 590.216 404.204 590.279C416.158 595.592 431.548 597.974 444.999 593.884C468.084 586.864 470.108 566.519 465.681 546.828H485.794C486.342 550.053 486.7 553.384 486.848 556.779C486.911 557.938 486.932 559.119 486.932 560.299Z" fill="#F67459"/>
<path fill-rule="evenodd" clip-rule="evenodd" d="M484.993 546.827C484.993 546.827 480.65 548.999 470.172 550.686C467.284 551.149 463.932 551.571 460.074 551.908C455.098 552.33 449.3 552.604 442.575 552.604C436.229 552.604 430.684 552.351 425.899 551.972C425.14 551.908 424.423 551.845 423.706 551.782C406.861 550.18 400.135 546.827 400.135 546.827C450.291 544.888 484.993 546.827 484.993 546.827Z" fill="#1B1A60"/>
<path d="M382.046 503.544C411.14 501.52 444.303 523.847 444.303 523.847C444.303 523.847 415.209 507.613 426.025 503.544C436.861 499.475 465.787 507.023 465.787 507.023L470.678 517.754L449.026 540.755L428.723 541.43L382.046 503.544Z" fill="url(#paint35_linear_551_1969)"/>
<path d="M429.419 544.129C429.419 546.827 393.558 569.175 373.255 564.431C370.789 563.841 369.587 561.965 369.418 559.329C368.849 550.58 379.538 533.714 391.513 530.594C398.47 528.781 406.798 530.762 413.861 533.735C422.61 537.424 429.419 542.653 429.419 544.129Z" fill="url(#paint36_linear_551_1969)"/>
<path opacity="0.5" d="M384.07 529.244C403.023 524.501 431.906 548.43 431.906 548.43L434.141 544.129L398.954 523.826L384.07 529.244Z" fill="url(#paint37_linear_551_1969)"/>
<path d="M524.144 533.988C524.144 537.234 483.855 551.613 464.374 543.939C463.51 543.601 462.667 543.201 461.887 542.779C443.608 532.638 462.561 518.429 462.561 518.429H472.702C486.195 517.354 496.294 518.176 503.799 519.926C520.054 523.678 524.144 531.69 524.144 533.988Z" fill="url(#paint38_linear_551_1969)"/>
<path d="M416.011 503.566C431.591 490.937 465.787 507.002 465.787 507.002C465.787 507.002 428.281 514.824 421.683 509.891C415.105 504.957 416.011 503.566 416.011 503.566Z" fill="url(#paint39_linear_551_1969)"/>
<path opacity="0.4" d="M396.552 524.986C396.826 526.461 395.856 528.021 393.979 529.582L396.552 524.986Z" fill="url(#paint40_linear_551_1969)"/>
<path opacity="0.4" d="M392.462 519.884C391.45 519.546 390.122 519.04 388.393 518.366C387.76 518.113 387.128 517.902 386.495 517.712C388.709 518.239 390.775 518.935 392.462 519.884Z" fill="url(#paint41_linear_551_1969)"/>
<path d="M508.775 547.671C508.838 550.137 507.911 551.972 506.35 553.258C500.194 558.36 484.277 554.986 480.882 549.421C478.69 545.815 478.036 543.159 478.184 541.241C478.458 537.193 482.147 536.286 482.147 536.286C482.147 536.286 481.093 532.913 483.455 529.814C483.665 529.519 483.918 529.245 484.192 528.97C485.689 527.474 490.897 528.675 496.125 531.606C502.345 535.084 508.627 540.988 508.775 547.671Z" fill="url(#paint42_linear_551_1969)"/>
<path opacity="0.5" d="M502.619 545.563C501.628 544.445 481.621 533.524 478.163 541.22C478.437 537.172 482.127 536.265 482.127 536.265C482.127 536.265 481.072 532.892 483.434 529.793C482.654 536.223 498.951 541.346 502.619 545.563Z" fill="url(#paint43_linear_551_1969)"/>
<path opacity="0.4" d="M503.715 546.047C503.568 545.984 503.272 545.857 502.809 545.646C503.272 545.857 503.589 545.984 503.715 546.047Z" fill="url(#paint44_linear_551_1969)"/>
<path opacity="0.5" d="M507.764 547.059C507.806 549.4 506.941 551.128 505.466 552.351C506.731 547.924 506.562 540.271 495.81 531.901C501.692 535.19 507.637 540.777 507.764 547.059Z" fill="url(#paint45_linear_551_1969)"/>
<path d="M464.606 503.545C459.188 502.87 456.489 507.614 452.42 504.219C452.42 504.219 447.002 500.846 444.303 496.102C443.987 495.575 443.818 495.09 443.755 494.648C443.228 491.211 449.047 490.263 450.354 486.763C450.375 486.721 450.396 486.678 450.396 486.636C451.345 483.811 456.911 481.956 463.193 483.643C463.973 488.47 463.488 491.127 463.046 492.413L466.588 484.908C468.211 485.666 469.813 486.678 471.373 488.007C480.165 495.407 470.024 504.219 464.606 503.545Z" fill="url(#paint46_linear_551_1969)"/>
<path opacity="0.5" d="M462.561 495.406C462.476 495.322 462.244 495.09 461.865 494.753C462.308 495.048 462.519 495.322 462.561 495.406Z" fill="url(#paint47_linear_551_1969)"/>
<path d="M458.345 497.093C459.483 498.042 460.263 496.714 461.781 496.903C463.32 497.093 466.187 494.605 463.7 492.497C461.212 490.389 458.155 490.958 457.775 492.118C457.396 493.256 455.288 493.446 456.047 494.795C456.827 496.144 458.345 497.093 458.345 497.093Z" fill="#FFF764"/>
<path d="M463.025 492.413C462.814 493.066 462.582 493.34 462.561 493.383L463.025 492.413Z" fill="#FFF764"/>
<path opacity="0.4" d="M503.82 519.926C476.265 529.308 467.157 539.554 464.374 543.96C463.51 543.623 462.667 543.222 461.887 542.801C443.608 532.66 462.561 518.45 462.561 518.45H472.702C486.216 517.354 496.315 518.176 503.82 519.926Z" fill="url(#paint48_linear_551_1969)"/>
<path opacity="0.4" d="M469.835 509.785C470.446 509.342 471.205 508.752 472.133 508.014C472.449 507.761 472.786 507.508 473.145 507.297C471.795 508.035 470.615 508.878 469.835 509.785Z" fill="url(#paint49_linear_551_1969)"/>
<path d="M458.998 524.205C482.021 526.082 516.765 513.2 512.253 510.333C508.395 507.866 487.144 500.108 480.018 502.743C478.415 503.334 477.108 504.388 476.244 506.18C476.244 506.18 471.964 507.15 467.073 508.857C464.838 509.637 462.414 510.607 460.158 511.724C458.028 512.779 456.047 513.98 454.55 515.309C452.442 517.164 451.282 519.23 452.02 521.401C452.02 521.401 452.02 521.401 452.02 521.423C452.568 522.983 455.098 523.868 458.998 524.205Z" fill="url(#paint50_linear_551_1969)"/>
<path opacity="0.4" d="M503.63 509.384C503.419 509.342 503.103 509.279 502.702 509.216C503.103 509.3 503.419 509.342 503.63 509.384Z" fill="url(#paint51_linear_551_1969)"/>
<path opacity="0.5" d="M467.073 508.857C479.196 505.4 497.516 508.309 502.597 509.195C497.432 508.225 479.406 504.704 479.997 502.722C478.394 503.313 477.087 504.367 476.223 506.159C476.223 506.18 471.943 507.129 467.073 508.857Z" fill="url(#paint52_linear_551_1969)"/>
<path d="M458.641 524.627C455.12 524.185 453.37 527.263 450.735 525.07C450.735 525.07 447.214 522.877 445.464 519.799C445.253 519.462 445.148 519.125 445.106 518.851C444.768 516.616 448.542 516.004 449.385 513.728C449.385 513.706 449.406 513.664 449.406 513.643C450.018 511.809 453.644 510.607 457.713 511.704C458.219 514.845 457.903 516.574 457.608 517.396L459.906 512.526C460.96 513.011 462.014 513.685 463.026 514.529C468.76 519.357 462.161 525.07 458.641 524.627Z" fill="url(#paint53_linear_551_1969)"/>
<path opacity="0.5" d="M457.312 519.335C457.27 519.293 457.101 519.124 456.869 518.913C457.143 519.124 457.27 519.293 457.312 519.335Z" fill="url(#paint54_linear_551_1969)"/>
<path d="M454.572 520.453C455.31 521.064 455.816 520.2 456.806 520.326C457.797 520.453 459.674 518.83 458.05 517.459C456.427 516.089 454.445 516.468 454.192 517.206C453.939 517.944 452.569 518.071 453.075 518.935C453.581 519.82 454.572 520.453 454.572 520.453Z" fill="#FFF764"/>
<path d="M457.629 517.396C457.481 517.817 457.355 518.007 457.333 518.028L457.629 517.396Z" fill="#FFF764"/>
<path d="M466.756 574.382C462.182 576.006 457.311 575.9 452.462 574.614C433.34 569.512 414.956 545.942 420.143 537.888C423.516 532.681 427.501 530.151 431.338 529.139C439.37 526.989 446.812 531.395 446.812 531.395C446.812 531.395 451.514 527.853 460.98 529.097C461.844 529.202 462.772 529.371 463.721 529.561C468.886 530.657 474.662 538.415 477.277 547.291C480.439 557.854 479.069 569.997 466.756 574.382Z" fill="url(#paint55_linear_551_1969)"/>
<path opacity="0.5" d="M461.149 564.79C461.739 562.766 451.177 528.949 431.359 529.118C439.391 526.968 446.834 531.374 446.834 531.374C446.834 531.374 451.535 527.832 461.001 529.076C447.761 532.006 463.383 557.179 461.149 564.79Z" fill="url(#paint56_linear_551_1969)"/>
<path opacity="0.4" d="M461.95 566.561C461.845 566.35 461.613 565.844 461.297 565.106C461.634 565.844 461.866 566.35 461.95 566.561Z" fill="url(#paint57_linear_551_1969)"/>
<path opacity="0.5" d="M466.335 572.654C462.013 574.193 457.417 574.087 452.842 572.865C463.13 571.81 477.256 566.772 476.307 547.038C479.258 557.053 477.951 568.522 466.335 572.654Z" fill="url(#paint58_linear_551_1969)"/>
<path d="M409.243 530.256C397.521 539.975 350.486 549.926 348.357 544.593C346.269 539.364 353.29 510.924 370.915 512.884C374.162 513.243 377.767 514.634 381.751 517.375C381.751 517.375 387.402 516.869 393.832 517.29C396.467 517.459 399.208 517.796 401.759 518.366C403.994 518.872 406.039 519.567 407.725 520.516C409.876 521.739 411.415 523.383 411.836 525.597C411.836 525.597 411.836 525.597 411.836 525.618C412.089 527.157 411.141 528.696 409.243 530.256Z" fill="url(#paint59_linear_551_1969)"/>
<path opacity="0.4" d="M356.958 537.761C357.106 537.572 357.359 537.298 357.696 536.96C357.38 537.319 357.127 537.572 356.958 537.761Z" fill="url(#paint60_linear_551_1969)"/>
<path opacity="0.5" d="M393.811 517.333C377.24 517.607 361.892 532.554 357.781 536.876C361.828 532.407 375.701 516.468 370.915 512.905C374.162 513.264 377.767 514.655 381.752 517.396C381.73 517.396 387.402 516.911 393.811 517.333Z" fill="url(#paint61_linear_551_1969)"/>
<rect x="241.638" y="58.9564" width="435.686" height="297.465" rx="16" fill="white"/>
<mask id="mask2_551_1969" style="mask-type:alpha" maskUnits="userSpaceOnUse" x="241" y="58" width="437" height="299">
<rect x="241.638" y="58.9564" width="435.686" height="297.465" rx="16" fill="white"/>
</mask>
<g mask="url(#mask2_551_1969)">
<circle cx="696.769" cy="53.7007" r="133.988" stroke="#E6F4F1" stroke-opacity="0.02" stroke-width="40"/>
<circle cx="222.718" cy="372.713" r="133.988" stroke="#E6F4F1" stroke-opacity="0.02" stroke-width="40"/>
</g>
<rect x="436.335" y="200.554" width="198.782" height="122.537" rx="8" fill="#E6F4F1"/>
<rect x="464" y="110.309" width="164.744" height="87.1372" rx="8" transform="rotate(-9.71309 464 110.309)" fill="#E6F4F1"/>
<path d="M508.337 172.8C508.337 172.8 521.185 132.774 535.57 130.153C550.165 127.493 554.74 147.91 569.555 147.127C592.652 145.906 611.399 93 611.399 93" stroke="#6C95FF" stroke-width="3" stroke-linecap="round"/>
<g filter="url(#filter3_d_551_1969)">
<circle cx="533.557" cy="130.497" r="5.44607" transform="rotate(-9.71309 533.557 130.497)" fill="white"/>
</g>
<g filter="url(#filter4_d_551_1969)">
<circle cx="605.759" cy="108.469" r="5.44607" transform="rotate(-9.71309 605.759 108.469)" fill="white"/>
</g>
<path d="M668.904 73.6368L633.466 78.9276C637.455 100.011 652.317 107.064 659.25 107.955L668.904 73.6368Z" fill="#E4C6C7"/>
<path d="M667.868 66.5494L632.038 66.7352C632.982 88.1719 646.687 97.2709 653.421 99.1408L667.868 66.5494Z" fill="#F27559"/>
<mask id="mask3_551_1969" style="mask-type:alpha" maskUnits="userSpaceOnUse" x="632" y="66" width="36" height="34">
<path d="M667.868 66.5494L632.038 66.7352C632.982 88.1719 646.687 97.2709 653.421 99.1408L667.868 66.5494Z" fill="#F27559"/>
</mask>
<g mask="url(#mask3_551_1969)">
<path d="M660.659 76.2448C660.892 73.653 654.073 68.9037 650.635 66.853C602.588 58.7665 623.186 78.9872 639.491 90.1084C641.335 90.544 646.845 91.6698 654.131 92.6881C663.237 93.9609 663.35 86.589 658.781 85.0909C654.213 83.5928 653.248 83.7841 640.476 81.7332C627.113 80.4811 629.28 72.8851 632.034 69.2436C631.922 68.7355 633.033 67.8973 638.376 68.6089C647.52 70.9464 652.341 76.8562 655.512 78.7179C658.682 80.5796 660.367 79.4846 660.659 76.2448Z" stroke="white" stroke-width="3" stroke-linecap="round"/>
</g>
<path opacity="0.24" d="M675.707 37.7268C671.337 37.0775 668.226 32.9295 670.023 28.8936C671.32 25.982 673.089 23.284 675.273 20.9145C679.278 16.5704 684.497 13.5311 690.251 12.1915C696.006 10.8519 702.031 11.274 707.542 13.4028C713.054 15.5317 717.798 19.269 721.158 24.1291C724.518 28.9892 726.339 34.7476 726.384 40.6559C726.429 46.5643 724.695 52.3495 721.41 57.2601C718.124 62.1707 713.437 65.9796 707.958 68.1919C704.97 69.3986 701.821 70.0998 698.639 70.2849C694.228 70.5413 691.447 66.1652 692.383 61.8473L693.323 57.5131C694.068 54.0779 697.66 52.0761 700.919 50.76V50.76C702.901 49.9597 704.597 48.5818 705.785 46.8053C706.974 45.0289 707.601 42.936 707.585 40.7986C707.569 38.6612 706.91 36.5781 705.694 34.8199C704.479 33.0617 702.763 31.7097 700.769 30.9396C698.775 30.1694 696.595 30.0168 694.514 30.5014C692.432 30.986 690.544 32.0855 689.095 33.657V33.657C686.713 36.2414 683.571 38.895 680.094 38.3785L675.707 37.7268Z" fill="url(#paint62_linear_551_1969)"/>
<rect x="281.122" y="99.802" width="171.551" height="87.1372" rx="8" fill="#E6F4F1"/>
<path d="M317.784 146.55C320.961 147.23 327.451 149.817 327.996 154.719C328.677 160.846 342.292 165.611 343.653 149.953C345.015 134.296 355.206 115.851 361.353 135.657C367.48 155.399 368.841 153.357 374.287 147.911C377.01 145.188 383.41 141.784 387.222 149.953C392.668 156.489 394.029 158.349 396.072 159.484" stroke="#6C95FF" stroke-width="3" stroke-linecap="round"/>
<g filter="url(#filter5_d_551_1969)">
<circle cx="399.475" cy="160.846" r="4.08455" fill="#E9EAFF"/>
</g>
<rect x="296" y="120" width="13.6152" height="4.08455" rx="1.5" fill="#D5DEFF"/>
<rect x="296" y="132.254" width="13.6152" height="4.08455" rx="1.5" fill="#D5DEFF"/>
<rect x="296" y="144.507" width="13.6152" height="4.08455" rx="1.5" fill="#D5DEFF"/>
<rect x="296" y="156.761" width="13.6152" height="4.08455" rx="1.5" fill="#D5DEFF"/>
<rect x="296" y="169.015" width="13.6152" height="4.08455" rx="1.5" fill="#D5DEFF"/>
<path d="M247.159 256.545C245.875 257.327 246.097 258.364 246.368 258.785C246.765 259.516 247.752 261.055 248.528 261.359C248.576 261.377 248.624 261.394 248.671 261.409C249.853 261.787 251.19 261.931 252.233 262.602C252.996 263.094 253.768 262.731 254.058 262.488C254.699 262.038 256.22 261.006 257.176 260.48C257.995 260.029 258.229 259.223 258.253 258.726C258.26 258.578 258.244 258.485 258.2 258.344C257.914 257.428 258.357 256.369 258.553 255.43C258.708 254.69 258.488 253.934 258.276 253.517L257.183 251.82C256.593 250.904 255.491 251.216 255.014 251.486C252.93 252.846 248.442 255.763 247.159 256.545Z" fill="url(#paint63_linear_551_1969)"/>
<path d="M235.413 249.926C239.008 250.514 241.597 252.476 242.443 253.384C243.983 255.429 245.553 255.178 246.145 254.797C248.267 253.467 252.603 250.726 252.973 250.399C253.435 249.989 255.269 249.367 254.29 246.982C253.312 244.596 253.789 244.903 253.365 243.724C253.026 242.781 253.501 239.021 253.78 237.258C253.898 236.661 253.872 234.765 252.822 231.956C250.16 226.522 247.832 224.727 242.789 223.228C237.747 221.729 231.064 224.358 228.134 229.26C225.205 234.163 225.691 238.819 226.856 241.755C228.02 244.691 230.952 248.722 235.413 249.926Z" fill="url(#paint64_linear_551_1969)"/>
<path d="M246.721 228.514L245.181 229.506L246.517 230.712L247.427 229.177L246.721 228.514Z" fill="white"/>
<path d="M244.372 227.232L243.325 228.734L245.018 229.342L245.276 227.576L244.372 227.232Z" fill="white"/>
<path d="M241.652 226.997L241.188 228.768L242.988 228.754L242.62 227.008L241.652 226.997Z" fill="white"/>
<path d="M238.963 228.027L239.494 229.78L241.02 228.826L239.793 227.53L238.963 228.027Z" fill="white"/>
<path d="M236.915 229.913L237.987 231.398L239.12 230L237.539 229.173L236.915 229.913Z" fill="white"/>
<path d="M235.792 232.493L237.402 233.364L237.816 231.613L236.032 231.555L235.792 232.493Z" fill="white"/>
<path d="M236.014 235.296L237.843 235.389L237.462 233.63L235.828 234.346L236.014 235.296Z" fill="white"/>
<path d="M237.024 237.851L238.815 237.471L237.996 235.869L236.6 236.981L237.024 237.851Z" fill="white"/>
<path d="M239.347 239.725L240.78 238.584L239.331 237.518L238.579 239.136L239.347 239.725Z" fill="white"/>
<path d="M242.179 240.277L242.762 238.541L240.965 238.433L241.214 240.2L242.179 240.277Z" fill="white"/>
<path d="M244.923 239.921L244.871 238.091L243.148 238.609L243.99 240.182L244.923 239.921Z" fill="white"/>
<path d="M247.189 238.316L246.429 236.65L245.043 237.798L246.432 238.919L247.189 238.316Z" fill="white"/>
<path d="M248.79 236.031L247.411 234.827L246.621 236.444L248.348 236.893L248.79 236.031Z" fill="white"/>
<path d="M249.148 233.336L247.395 232.806L247.342 234.605L249.101 234.303L249.148 233.336Z" fill="white"/>
<path d="M248.565 230.62L246.754 230.894L247.478 232.541L248.937 231.513L248.565 230.62Z" fill="white"/>
<path fill-rule="evenodd" clip-rule="evenodd" d="M245.446 238.326C248.018 236.67 248.76 233.241 247.103 230.669C245.447 228.097 242.018 227.355 239.446 229.011C236.874 230.668 236.132 234.096 237.788 236.669C239.445 239.241 242.873 239.983 245.446 238.326ZM243.971 236.037C245.279 235.195 245.657 233.451 244.814 232.143C243.972 230.835 242.229 230.458 240.921 231.3C239.613 232.143 239.235 233.886 240.078 235.194C240.92 236.502 242.663 236.879 243.971 236.037Z" fill="white"/>
<path d="M241.781 240.283L241.079 241.276L242.201 241.688L242.381 240.516L241.781 240.283Z" fill="white"/>
<path d="M240.015 240.076L239.743 241.262L240.938 241.216L240.658 240.064L240.015 240.076Z" fill="white"/>
<path d="M238.281 240.607L238.435 241.813L239.541 241.358L238.88 240.373L238.281 240.607Z" fill="white"/>
<path d="M236.88 241.909L237.642 242.857L238.346 241.891L237.268 241.397L236.88 241.909Z" fill="white"/>
<path d="M236.086 243.58L237.115 244.229L237.467 243.086L236.287 242.969L236.086 243.58Z" fill="white"/>
<path d="M236.034 245.448L237.243 245.586L237.064 244.404L235.95 244.811L236.034 245.448Z" fill="white"/>
<path d="M236.868 247.121L238.018 246.724L237.347 245.735L236.517 246.582L236.868 247.121Z" fill="white"/>
<path d="M238.125 248.445L239.134 247.766L238.231 246.982L237.647 248.014L238.125 248.445Z" fill="white"/>
<path d="M240.022 249.022L240.621 247.964L239.463 247.666L239.402 248.85L240.022 249.022Z" fill="white"/>
<path d="M241.904 248.659L241.832 247.444L240.698 247.824L241.291 248.851L241.904 248.659Z" fill="white"/>
<path d="M243.506 247.758L243.02 246.643L242.087 247.39L242.996 248.151L243.506 247.758Z" fill="white"/>
<path d="M244.504 246.207L243.622 245.369L243.053 246.42L244.187 246.766L244.504 246.207Z" fill="white"/>
<path d="M244.923 244.401L243.774 244.001L243.689 245.194L244.865 245.042L244.923 244.401Z" fill="white"/>
<path d="M244.474 242.651L243.263 242.76L243.677 243.882L244.686 243.259L244.474 242.651Z" fill="white"/>
<path d="M243.44 241.123L242.393 241.741L243.248 242.576L243.892 241.58L243.44 241.123Z" fill="white"/>
<path fill-rule="evenodd" clip-rule="evenodd" d="M243.432 246.646C244.606 244.986 244.212 242.689 242.552 241.516C240.892 240.342 238.595 240.736 237.422 242.396C236.248 244.055 236.642 246.352 238.302 247.526C239.961 248.7 242.258 248.306 243.432 246.646ZM241.955 245.601C242.552 244.757 242.351 243.59 241.507 242.993C240.664 242.396 239.496 242.596 238.899 243.44C238.302 244.284 238.502 245.452 239.346 246.049C240.19 246.646 241.358 246.445 241.955 245.601Z" fill="white"/>
<path d="M234.677 235.945L234.138 236.706L234.998 237.021L235.136 236.123L234.677 235.945Z" fill="white"/>
<path d="M233.324 235.787L233.115 236.695L234.031 236.66L233.816 235.777L233.324 235.787Z" fill="white"/>
<path d="M231.995 236.193L232.113 237.117L232.96 236.768L232.454 236.014L231.995 236.193Z" fill="white"/>
<path d="M230.921 237.191L231.505 237.917L232.044 237.177L231.219 236.798L230.921 237.191Z" fill="white"/>
<path d="M230.313 238.471L231.102 238.968L231.371 238.092L230.467 238.003L230.313 238.471Z" fill="white"/>
<path d="M230.274 239.903L231.2 240.008L231.062 239.102L230.209 239.414L230.274 239.903Z" fill="white"/>
<path d="M230.912 241.184L231.793 240.88L231.279 240.122L230.643 240.771L230.912 241.184Z" fill="white"/>
<path d="M231.875 242.198L232.649 241.678L231.957 241.078L231.509 241.868L231.875 242.198Z" fill="white"/>
<path d="M233.329 242.641L233.788 241.83L232.901 241.602L232.854 242.509L233.329 242.641Z" fill="white"/>
<path d="M234.771 242.362L234.715 241.432L233.847 241.723L234.301 242.51L234.771 242.362Z" fill="white"/>
<path d="M235.998 241.672L235.625 240.818L234.91 241.39L235.608 241.973L235.998 241.672Z" fill="white"/>
<path d="M236.763 240.483L236.087 239.841L235.651 240.647L236.52 240.912L236.763 240.483Z" fill="white"/>
<path d="M237.084 239.1L236.204 238.794L236.139 239.707L237.04 239.591L237.084 239.1Z" fill="white"/>
<path d="M236.74 237.76L235.812 237.843L236.129 238.702L236.902 238.225L236.74 237.76Z" fill="white"/>
<path d="M235.948 236.588L235.145 237.062L235.801 237.702L236.294 236.939L235.948 236.588Z" fill="white"/>
<path fill-rule="evenodd" clip-rule="evenodd" d="M235.942 240.82C236.841 239.548 236.539 237.789 235.267 236.889C233.996 235.99 232.236 236.292 231.337 237.564C230.437 238.835 230.739 240.595 232.011 241.494C233.283 242.394 235.042 242.092 235.942 240.82ZM234.81 240.02C235.267 239.373 235.114 238.478 234.467 238.021C233.82 237.564 232.926 237.717 232.468 238.364C232.011 239.011 232.165 239.905 232.811 240.363C233.458 240.82 234.353 240.666 234.81 240.02Z" fill="white"/>
<path d="M237.908 215.195C237.775 211.893 240.156 205.933 242.763 200.962" stroke="#FFC2A4" stroke-width="2" stroke-linecap="round"/>
<path d="M213.258 261.293C215.316 258.708 221.014 255.754 226.238 253.697" stroke="#FFC2A4" stroke-width="2" stroke-linecap="round"/>
<path d="M223.143 221.029C220.162 219.604 216.005 214.714 212.829 210.085" stroke="#FFC2A4" stroke-width="2" stroke-linecap="round"/>
<path d="M260.723 241.765C263.915 240.912 270.252 241.93 275.673 243.386" stroke="#FFC2A4" stroke-width="2" stroke-linecap="round"/>
<path d="M216.978 231.649C213.694 232.008 207.584 230.044 202.445 227.785" stroke="#FFC2A4" stroke-width="2" stroke-linecap="round"/>
<path d="M262.223 230.679C264.666 228.455 270.762 226.446 276.246 225.247" stroke="#FFC2A4" stroke-width="2" stroke-linecap="round"/>
<path d="M218.502 244.103C215.53 245.545 209.115 245.749 203.515 245.348" stroke="#FFC2A4" stroke-width="2" stroke-linecap="round"/>
<path d="M252.808 220.364C254.176 217.357 258.986 213.107 263.553 209.843" stroke="#FFC2A4" stroke-width="2" stroke-linecap="round"/>
<path d="M153.896 180.799C150.255 174.431 154.537 168.429 157.133 166.223C171.799 151.51 202.688 120.264 208.919 112.986C215.149 105.709 220.887 106.439 222.978 107.714C226.147 104.268 232.506 97.5007 232.587 97.9969C232.667 98.4931 236.868 102.614 238.959 104.613C237.205 106.508 232.91 111.043 229.754 114.02C231.535 120.718 227.866 125.356 225.81 126.838C209.829 143.378 176.714 177.491 172.102 181.626C167.854 187.518 158.448 188.759 153.896 180.799Z" fill="#23649A"/>
<path d="M258.174 25.8418C266.636 23.0163 287.708 21.0867 304.296 35.9725C297.62 28.2194 283.359 13.7471 258.174 25.8418Z" fill="#23649A"/>
<path d="M252.465 95.6006C259.593 99.1979 278.074 104.518 294.975 97.0191C287.92 101.292 273.149 108.932 252.465 95.6006Z" fill="#23649A"/>
<path d="M275.364 107.991C301.13 107.991 321.98 86.6492 321.98 60.3693C321.98 34.0895 301.13 12.748 275.364 12.748C249.598 12.748 228.748 34.0895 228.748 60.3693C228.748 86.6492 249.598 107.991 275.364 107.991Z" stroke="#23649A" stroke-width="2"/>
<rect x="450.78" y="50.5137" width="10.7216" height="8.56383" transform="rotate(56.3598 450.78 50.5137)" fill="#30215A"/>
<rect x="475.158" y="346.237" width="16.3247" height="14.4049" rx="2" transform="rotate(42.8614 475.158 346.237)" fill="#30215A"/>
<rect x="236.667" y="302.15" width="13.7312" height="10.9677" rx="2" transform="rotate(15.0588 236.667 302.15)" fill="#30215A"/>
<path d="M689.011 240.444C678.929 244.33 670.461 239.278 667.487 236.266C672.519 246.439 665.201 255.24 664.291 257.03C672.214 253.848 681.377 258.644 684.969 261.44C681.141 248.766 685.756 245.679 689.011 240.444Z" fill="#F27559"/>
<path d="M251.825 144.05C243.24 147.36 236.029 143.058 233.497 140.493C237.782 149.156 231.55 156.65 230.776 158.174C237.521 155.464 245.324 159.548 248.383 161.929C245.123 151.136 249.053 148.508 251.825 144.05Z" fill="#F27559"/>
<rect x="287" y="203.95" width="136.152" height="122.537" rx="8" fill="#E6F4F1"/>
<path d="M287 211.95C287 207.532 290.582 203.95 295 203.95H415.152C419.57 203.95 423.152 207.532 423.152 211.95V221.998H287V211.95Z" fill="#D6E4FF"/>
<ellipse cx="294.042" cy="212.974" rx="2.34745" ry="2.37474" fill="white"/>
<ellipse cx="300.615" cy="212.974" rx="2.34745" ry="2.37474" fill="white"/>
<ellipse cx="307.188" cy="212.974" rx="2.34745" ry="2.37474" fill="white"/>
<path d="M384.245 278.744C382.693 285.518 378.924 291.564 373.551 295.902C368.178 300.239 361.515 302.615 354.64 302.643C347.766 302.671 341.084 300.35 335.676 296.057C330.268 291.763 326.452 285.748 324.845 278.987L354.517 271.771L384.245 278.744Z" fill="#F27559"/>
<path d="M355.456 239C359.967 239 364.422 240.012 368.501 241.963C372.579 243.913 376.179 246.755 379.042 250.282C381.904 253.809 383.958 257.934 385.056 262.361C386.153 266.788 386.267 271.405 385.389 275.882L355.456 269.872L355.456 239Z" fill="#51C0A6"/>
<path d="M324.433 275.056C323.696 270.676 323.902 266.186 325.037 261.894C326.172 257.602 328.209 253.608 331.01 250.185C333.811 246.763 337.309 243.992 341.265 242.063C345.222 240.133 349.543 239.09 353.934 239.006L354.517 269.872L324.433 275.056Z" fill="#86B2F3"/>
<rect x="324" y="171" width="79.8131" height="3.79959" fill="#CED5E7"/>
<rect x="339.023" y="179.549" width="49.7658" height="3.79959" fill="#CED5E7"/>
<rect opacity="0.54" x="455" y="249.518" width="10.8921" height="54.0007" rx="2" fill="url(#paint65_linear_551_1969)"/>
<rect opacity="0.54" x="565.283" y="216" width="10.8921" height="87.5184" rx="2" fill="url(#paint66_linear_551_1969)"/>
<rect opacity="0.54" x="491.761" y="227.173" width="10.8921" height="76.3458" rx="2" fill="url(#paint67_linear_551_1969)"/>
<rect opacity="0.54" x="602.044" y="249.518" width="10.8921" height="54.0007" rx="2" fill="url(#paint68_linear_551_1969)"/>
<rect opacity="0.54" x="528.522" y="227.173" width="10.8921" height="76.3458" rx="2" fill="url(#paint69_linear_551_1969)"/>
<path d="M670.833 609.392L721.059 610.12L718.148 594.106H691.943C675.638 596.435 671.076 605.267 670.833 609.392Z" fill="#1D468A"/>
<path d="M737.801 609.392L781.476 610.12L778.565 594.833C773.712 595.076 761.24 595.416 750.176 594.833C739.111 597.163 737.316 605.509 737.801 609.392Z" fill="#1D468A"/>
<path d="M712.74 256.314L708.315 229.762L735.888 228.741L736.909 256.314H712.74Z" fill="#F7B39D"/>
<path d="M766.19 258.537C730.086 224.18 675.929 258.538 675.929 267.999L687.576 349.526L688.304 383.01L769.102 384.466L774.925 291.293C773.469 264.36 774.197 268.728 766.19 258.537Z" fill="#F99744"/>
<path d="M769.101 384.467L688.303 383.011L691.943 594.106H718.148L729.066 428.142L750.904 594.834L764.5 595.999L778.564 594.834L769.101 384.467Z" fill="#1D468A"/>
<path d="M788.755 316.043C781.767 280.521 771.285 263.876 766.918 259.994L764.734 406.304L774.925 412.128L788.755 359.718C789.483 356.321 791.085 349.09 791.667 347.343C792.249 345.596 792.395 342.733 792.395 341.52V339.336C792.395 338.851 791.667 333.513 788.755 316.043Z" fill="#ED7D31"/>
<path d="M774.196 410.672L769.101 408.488L767.645 421.59C768.616 424.987 770.993 430.034 772.74 423.046C773.468 416.495 772.74 418.679 772.74 415.767C772.74 411.4 773.711 411.4 774.196 410.672Z" fill="#F7B39D"/>
<path d="M632.253 365.541C628.614 368.21 620.898 373.985 619.151 375.732C616.967 377.916 611.872 380.099 611.144 380.099C610.416 380.099 603.137 383.011 611.144 377.188C612.89 376.023 613.812 375.247 614.054 375.004C611.87 376.217 607.066 378.789 605.319 379.372C603.135 380.099 597.312 380.827 603.863 376.46C606.686 374.579 608.228 373.598 609.012 373.131C605.676 374.653 599.857 377.188 598.77 377.188C597.315 377.188 590.763 379.372 598.042 374.276L603.863 370.637L595.858 372.092C592.947 372.335 588.87 372.092 595.858 369.181C602.846 366.269 605.564 364.571 606.049 364.085L608.961 361.902C609.446 361.659 609.98 360.883 608.233 359.718C606.049 358.262 602.41 356.078 606.777 355.35C610.271 355.35 614.542 355.836 616.24 356.078C618.181 356.564 622.791 357.243 625.703 356.078C628.615 354.914 631.283 361.902 632.253 365.541Z" fill="#F7B39D"/>
<path d="M699.222 273.097C693.399 253.297 681.752 259.994 676.657 265.818C671.416 274.552 668.165 315.558 667.194 334.969L622.792 356.079L627.159 370.637C641.475 366.755 672.581 357.826 682.48 353.167C692.38 348.508 696.311 336.182 697.039 330.602C699.222 320.168 702.716 294.061 699.222 273.097Z" fill="#ED7D31"/>
<path d="M702.862 216.32C702.28 211.661 703.832 199.335 705.045 193.755C714.023 192.056 733.725 188.805 740.713 189.387C749.448 190.115 760.366 212.68 731.25 230.15C707.957 244.126 702.619 226.753 702.862 216.32Z" fill="#F7B39D"/>
<path d="M719.604 174.828C711.452 174.828 704.561 178.225 702.134 179.924C692.314 186.798 698.494 187.931 702.134 188.658C698.058 190.988 696.068 193.511 695.583 194.482C689.761 203.945 698.495 199.577 704.318 200.305C710.142 201.033 710.142 204.673 709.414 206.128C708.686 207.584 708.686 208.312 708.686 210.496C708.686 212.68 710.142 217.047 712.325 215.591C714.072 214.427 715.48 214.135 715.965 214.135C721.788 214.135 719.604 222.142 718.876 225.782C715.965 235.973 728.339 238.156 736.346 235.973C746.537 230.149 749.449 222.142 753.816 209.04C757.31 198.558 753.816 192.055 751.633 190.114C749.691 188.416 745.518 184.873 744.353 184.291C740.714 182.107 741.442 181.379 737.802 179.196C734.163 177.012 729.795 174.828 719.604 174.828Z" fill="#163561" stroke="#FF4B4B" stroke-width="0.05"/>
<path d="M708.996 232.825C713.421 235.889 725.063 240.859 736.228 236.229C729.76 239.974 714.442 243.037 708.996 232.825Z" fill="#F8A9A9"/>
<path d="M300.721 264.153C298.134 272.883 293.715 276.413 291.829 277.086L299.104 291.232C301.664 286.92 307.268 277.732 309.208 275.469C311.633 272.64 317.696 270.215 320.929 268.194C324.163 266.173 325.779 262.536 320.929 263.748C317.049 264.718 317.426 262.805 318.1 261.727C318.774 259.706 320.929 254.371 324.163 249.198C327.396 244.025 324.971 245.426 323.354 246.773L316.483 253.644C317.292 252.701 319.232 249.683 320.525 245.157C321.818 240.63 319.178 243.27 317.696 245.157C316.483 246.369 313.25 251.219 311.229 254.857C312.846 251.3 314.058 247.447 314.463 245.966C315.271 243.136 313.051 244.598 311.633 246.37C310.017 248.391 307.996 252.567 306.783 255.261C307.322 253.914 308.481 250.815 308.804 249.199C309.208 247.178 309.208 246.774 307.592 248.39C304.358 251.22 303.954 253.24 300.721 264.153Z" fill="#FFC7C7"/>
<path d="M157.242 390.657L149.159 599.612L175.43 601.633L197.255 437.945L208.167 601.633H231.205L233.226 390.657H157.242Z" fill="#0D264A"/>
<path d="M175.428 597.995L149.561 597.591H149.157L145.924 612.95H187.957C189.574 602.28 180.278 598.534 175.428 597.995Z" fill="#06152C"/>
<path d="M204.559 612.91L207.792 597.551H232.446C250.23 600.138 252.79 608.868 251.847 612.91H204.559Z" fill="#06152C"/>
<path d="M234.842 310.228V273.853L272.429 296.487L296.275 269.811C298.7 271.293 304.763 275.066 309.613 278.299C293.042 311.441 282.938 319.524 281.321 320.737C279.704 321.949 278.492 322.757 274.046 322.353C257.879 322.03 241.174 314.135 234.842 310.228Z" fill="#122D53"/>
<path d="M178.258 263.749L180.279 251.219L201.295 252.432L203.72 262.536L194.425 275.469L178.258 263.749Z" fill="#FFC7C7"/>
<path d="M181.345 263.051C177.932 263.904 172.33 265.904 169.366 266.982L180.278 397.932H214.633L210.995 264.152L202.103 262.132L194.02 272.64C190.787 270.484 183.285 265.314 181.345 263.051Z" fill="#00A3FE"/>
<path d="M236.488 274.622C225.818 267.832 213.69 264.557 208.975 263.749L206.55 295.274V304.166L209.379 416.929L236.458 420.566C236.458 373.279 236.488 277.855 236.488 274.622Z" fill="#163561"/>
<path d="M146.329 279.107C154.089 272.641 168.154 267.252 174.216 265.366L183.917 298.912L186.342 416.929L151.179 420.566L146.329 279.107Z" fill="#163561"/>
<path fill-rule="evenodd" clip-rule="evenodd" d="M181.345 263.051L191.585 270.304V277.984L178.635 264.126L181.345 263.051Z" fill="#89C2D9"/>
<path fill-rule="evenodd" clip-rule="evenodd" d="M191.585 270.304L189.878 354.508L197.498 366.134L204.926 354.52L196.252 269.877L191.585 270.304Z" fill="#00243D"/>
<path d="M202.912 260.111C186.422 262.051 179.874 253.914 179.066 250.007L202.942 251.988L202.912 260.111Z" fill="#F3B1B1"/>
<path d="M202.913 256.07C182.866 258.657 173.274 248.526 170.983 243.137C163.304 207.166 200.083 198.274 207.358 207.974C214.633 217.674 214.199 231.456 212.208 237.883C210.217 244.309 211.4 250.412 202.913 256.07Z" fill="#FFC7C7"/>
<path d="M185.129 196.656C174.135 200.213 167.615 205.413 165.728 207.569C161.202 210.155 160.07 218.616 160.07 222.523C160.878 226.16 161.283 236.669 169.366 245.965C175.519 253.04 176.102 247.716 175.428 244.348C175.024 242.866 174.054 238.609 173.408 233.435C173.003 226.969 179.066 228.585 179.47 233.435C179.874 238.285 181.895 236.265 182.703 234.244C183.35 232.627 183.781 227.642 183.916 225.352C185.533 212.742 198.062 217.314 209.379 218.885C223.929 220.906 219.887 212.015 214.633 203.123C210.591 195.444 202.238 195.039 198.062 195.039C196.176 194.905 190.949 195.039 185.129 196.656Z" fill="#163561"/>
<path d="M167.749 299.719C169.366 276.439 154.816 274.66 146.328 279.107C141.074 285.978 134.607 305.781 132.587 321.948C130.566 338.114 129.757 349.027 134.607 361.96C138.487 372.307 148.619 390.521 153.199 398.335L167.345 388.231L154.816 350.644C158.373 337.064 164.92 311.036 167.749 299.719Z" fill="#224373"/>
<path fill-rule="evenodd" clip-rule="evenodd" d="M201.597 262.157C202.197 262.078 205.1 262.751 205.1 262.751L196.705 274.144L196.278 269.877C196.278 269.877 200.997 262.25 201.588 262.168L201.597 262.157Z" fill="#89C2D9"/>
<defs>
<filter id="filter0_d_551_1969" x="520.11" y="119.05" width="26.894" height="26.8939" filterUnits="userSpaceOnUse" color-interpolation-filters="sRGB">
<feFlood flood-opacity="0" result="BackgroundImageFix"/>
<feColorMatrix in="SourceAlpha" type="matrix" values="0 0 0 0 0 0 0 0 0 0 0 0 0 0 0 0 0 0 127 0" result="hardAlpha"/>
<feOffset dy="2"/>
<feGaussianBlur stdDeviation="4"/>
<feComposite in2="hardAlpha" operator="out"/>
<feColorMatrix type="matrix" values="0 0 0 0 0.201043 0 0 0 0 0.167438 0 0 0 0 0.5875 0 0 0 0.12 0"/>
<feBlend mode="normal" in2="BackgroundImageFix" result="effect1_dropShadow_551_1969"/>
<feBlend mode="normal" in="SourceGraphic" in2="effect1_dropShadow_551_1969" result="shape"/>
</filter>
<filter id="filter1_d_551_1969" x="592.312" y="97.0223" width="26.894" height="26.8939" filterUnits="userSpaceOnUse" color-interpolation-filters="sRGB">
<feFlood flood-opacity="0" result="BackgroundImageFix"/>
<feColorMatrix in="SourceAlpha" type="matrix" values="0 0 0 0 0 0 0 0 0 0 0 0 0 0 0 0 0 0 127 0" result="hardAlpha"/>
<feOffset dy="2"/>
<feGaussianBlur stdDeviation="4"/>
<feComposite in2="hardAlpha" operator="out"/>
<feColorMatrix type="matrix" values="0 0 0 0 0.201043 0 0 0 0 0.167438 0 0 0 0 0.5875 0 0 0 0.12 0"/>
<feBlend mode="normal" in2="BackgroundImageFix" result="effect1_dropShadow_551_1969"/>
<feBlend mode="normal" in="SourceGraphic" in2="effect1_dropShadow_551_1969" result="shape"/>
</filter>
<filter id="filter2_d_551_1969" x="391.391" y="154.761" width="16.1692" height="16.1691" filterUnits="userSpaceOnUse" color-interpolation-filters="sRGB">
<feFlood flood-opacity="0" result="BackgroundImageFix"/>
<feColorMatrix in="SourceAlpha" type="matrix" values="0 0 0 0 0 0 0 0 0 0 0 0 0 0 0 0 0 0 127 0" result="hardAlpha"/>
<feOffset dy="2"/>
<feGaussianBlur stdDeviation="2"/>
<feComposite in2="hardAlpha" operator="out"/>
<feColorMatrix type="matrix" values="0 0 0 0 0.443137 0 0 0 0 0.517647 0 0 0 0 0.819608 0 0 0 0.16 0"/>
<feBlend mode="normal" in2="BackgroundImageFix" result="effect1_dropShadow_551_1969"/>
<feBlend mode="normal" in="SourceGraphic" in2="effect1_dropShadow_551_1969" result="shape"/>
</filter>
<filter id="filter3_d_551_1969" x="520.11" y="119.05" width="26.894" height="26.8939" filterUnits="userSpaceOnUse" color-interpolation-filters="sRGB">
<feFlood flood-opacity="0" result="BackgroundImageFix"/>
<feColorMatrix in="SourceAlpha" type="matrix" values="0 0 0 0 0 0 0 0 0 0 0 0 0 0 0 0 0 0 127 0" result="hardAlpha"/>
<feOffset dy="2"/>
<feGaussianBlur stdDeviation="4"/>
<feComposite in2="hardAlpha" operator="out"/>
<feColorMatrix type="matrix" values="0 0 0 0 0.201043 0 0 0 0 0.167438 0 0 0 0 0.5875 0 0 0 0.12 0"/>
<feBlend mode="normal" in2="BackgroundImageFix" result="effect1_dropShadow_551_1969"/>
<feBlend mode="normal" in="SourceGraphic" in2="effect1_dropShadow_551_1969" result="shape"/>
</filter>
<filter id="filter4_d_551_1969" x="592.312" y="97.0223" width="26.894" height="26.8939" filterUnits="userSpaceOnUse" color-interpolation-filters="sRGB">
<feFlood flood-opacity="0" result="BackgroundImageFix"/>
<feColorMatrix in="SourceAlpha" type="matrix" values="0 0 0 0 0 0 0 0 0 0 0 0 0 0 0 0 0 0 127 0" result="hardAlpha"/>
<feOffset dy="2"/>
<feGaussianBlur stdDeviation="4"/>
<feComposite in2="hardAlpha" operator="out"/>
<feColorMatrix type="matrix" values="0 0 0 0 0.201043 0 0 0 0 0.167438 0 0 0 0 0.5875 0 0 0 0.12 0"/>
<feBlend mode="normal" in2="BackgroundImageFix" result="effect1_dropShadow_551_1969"/>
<feBlend mode="normal" in="SourceGraphic" in2="effect1_dropShadow_551_1969" result="shape"/>
</filter>
<filter id="filter5_d_551_1969" x="391.391" y="154.761" width="16.1692" height="16.1691" filterUnits="userSpaceOnUse" color-interpolation-filters="sRGB">
<feFlood flood-opacity="0" result="BackgroundImageFix"/>
<feColorMatrix in="SourceAlpha" type="matrix" values="0 0 0 0 0 0 0 0 0 0 0 0 0 0 0 0 0 0 127 0" result="hardAlpha"/>
<feOffset dy="2"/>
<feGaussianBlur stdDeviation="2"/>
<feComposite in2="hardAlpha" operator="out"/>
<feColorMatrix type="matrix" values="0 0 0 0 0.443137 0 0 0 0 0.517647 0 0 0 0 0.819608 0 0 0 0.16 0"/>
<feBlend mode="normal" in2="BackgroundImageFix" result="effect1_dropShadow_551_1969"/>
<feBlend mode="normal" in="SourceGraphic" in2="effect1_dropShadow_551_1969" result="shape"/>
</filter>
<linearGradient id="paint0_linear_551_1969" x1="426.362" y1="502.34" x2="426.362" y2="541.43" gradientUnits="userSpaceOnUse">
<stop stop-color="#50AF9A"/>
<stop offset="1" stop-color="#349B44"/>
</linearGradient>
<linearGradient id="paint1_linear_551_1969" x1="399.408" y1="529.9" x2="399.408" y2="565.09" gradientUnits="userSpaceOnUse">
<stop stop-color="#50AF9A"/>
<stop offset="1" stop-color="#349B44"/>
</linearGradient>
<linearGradient id="paint2_linear_551_1969" x1="425.505" y1="565.781" x2="377.005" y2="558.464" gradientUnits="userSpaceOnUse">
<stop stop-color="white"/>
<stop offset="1" stop-color="white"/>
</linearGradient>
<linearGradient id="paint3_linear_551_1969" x1="489.039" y1="517.947" x2="489.039" y2="546.164" gradientUnits="userSpaceOnUse">
<stop stop-color="#50AF9A"/>
<stop offset="1" stop-color="#349B44"/>
</linearGradient>
<linearGradient id="paint4_linear_551_1969" x1="440.878" y1="498.724" x2="440.878" y2="511.523" gradientUnits="userSpaceOnUse">
<stop stop-color="#337F6D"/>
<stop offset="1" stop-color="#5FDBBD"/>
</linearGradient>
<linearGradient id="paint5_linear_551_1969" x1="392.671" y1="541.326" x2="395.768" y2="525.24" gradientUnits="userSpaceOnUse">
<stop stop-color="white"/>
<stop offset="1" stop-color="#5B2B00"/>
</linearGradient>
<linearGradient id="paint6_linear_551_1969" x1="388.932" y1="521.591" x2="389.545" y2="518.405" gradientUnits="userSpaceOnUse">
<stop stop-color="white"/>
<stop offset="1" stop-color="#5B2B00"/>
</linearGradient>
<linearGradient id="paint7_linear_551_1969" x1="493.471" y1="528.325" x2="493.471" y2="555.77" gradientUnits="userSpaceOnUse">
<stop stop-color="#50AF9A"/>
<stop offset="1" stop-color="#349B44"/>
</linearGradient>
<linearGradient id="paint8_linear_551_1969" x1="498.401" y1="556.684" x2="474.489" y2="553.935" gradientUnits="userSpaceOnUse">
<stop stop-color="white"/>
<stop offset="1" stop-color="white"/>
</linearGradient>
<linearGradient id="paint9_linear_551_1969" x1="504.551" y1="547.813" x2="503.081" y2="545.564" gradientUnits="userSpaceOnUse">
<stop stop-color="white"/>
<stop offset="1" stop-color="#5B2B00"/>
</linearGradient>
<linearGradient id="paint10_linear_551_1969" x1="505.703" y1="566.773" x2="493.882" y2="566.261" gradientUnits="userSpaceOnUse">
<stop stop-color="white"/>
<stop offset="1" stop-color="white"/>
</linearGradient>
<linearGradient id="paint11_linear_551_1969" x1="444.713" y1="483.175" x2="499.839" y2="524.679" gradientUnits="userSpaceOnUse">
<stop offset="0.00540541" stop-color="#DDF25C"/>
<stop offset="0.2342" stop-color="#DDE767"/>
<stop offset="0.6581" stop-color="#6064CA"/>
<stop offset="0.9946" stop-color="#40A8AF"/>
</linearGradient>
<linearGradient id="paint12_linear_551_1969" x1="461.268" y1="494.473" x2="462.648" y2="495.343" gradientUnits="userSpaceOnUse">
<stop offset="0.3659" stop-color="white"/>
<stop offset="0.5772" stop-color="#D3A1B9"/>
<stop offset="0.7848" stop-color="#AB4A78"/>
<stop offset="0.9297" stop-color="#921550"/>
<stop offset="1" stop-color="#880041"/>
</linearGradient>
<linearGradient id="paint13_linear_551_1969" x1="525.876" y1="518.575" x2="480.034" y2="527.84" gradientUnits="userSpaceOnUse">
<stop stop-color="white"/>
<stop offset="1" stop-color="#5B2B00"/>
</linearGradient>
<linearGradient id="paint14_linear_551_1969" x1="471.95" y1="509.238" x2="471.392" y2="508.404" gradientUnits="userSpaceOnUse">
<stop stop-color="white"/>
<stop offset="1" stop-color="#5B2B00"/>
</linearGradient>
<linearGradient id="paint15_linear_551_1969" x1="482.225" y1="502.204" x2="482.225" y2="524.391" gradientUnits="userSpaceOnUse">
<stop stop-color="#337F6D"/>
<stop offset="1" stop-color="#5FDBBD"/>
</linearGradient>
<linearGradient id="paint16_linear_551_1969" x1="504.217" y1="510.868" x2="503.017" y2="509.073" gradientUnits="userSpaceOnUse">
<stop stop-color="white"/>
<stop offset="1" stop-color="#5B2B00"/>
</linearGradient>
<linearGradient id="paint17_linear_551_1969" x1="496.47" y1="513.759" x2="466.276" y2="501.474" gradientUnits="userSpaceOnUse">
<stop stop-color="white"/>
<stop offset="1" stop-color="white"/>
</linearGradient>
<linearGradient id="paint18_linear_551_1969" x1="445.728" y1="511.399" x2="481.523" y2="538.348" gradientUnits="userSpaceOnUse">
<stop offset="0.00540541" stop-color="#DDF25C"/>
<stop offset="0.2342" stop-color="#DDE767"/>
<stop offset="0.6581" stop-color="#6064CA"/>
<stop offset="0.9946" stop-color="#40A8AF"/>
</linearGradient>
<linearGradient id="paint19_linear_551_1969" x1="456.473" y1="518.743" x2="457.37" y2="519.308" gradientUnits="userSpaceOnUse">
<stop offset="0.3659" stop-color="white"/>
<stop offset="0.5772" stop-color="#D3A1B9"/>
<stop offset="0.7848" stop-color="#AB4A78"/>
<stop offset="0.9297" stop-color="#921550"/>
<stop offset="1" stop-color="#880041"/>
</linearGradient>
<linearGradient id="paint20_linear_551_1969" x1="448.991" y1="528.548" x2="448.991" y2="575.59" gradientUnits="userSpaceOnUse">
<stop stop-color="#50AF9A"/>
<stop offset="1" stop-color="#349B44"/>
</linearGradient>
<linearGradient id="paint21_linear_551_1969" x1="456.195" y1="590.364" x2="426.574" y2="588.547" gradientUnits="userSpaceOnUse">
<stop stop-color="white"/>
<stop offset="1" stop-color="white"/>
</linearGradient>
<linearGradient id="paint22_linear_551_1969" x1="460.422" y1="568.695" x2="461.805" y2="565.41" gradientUnits="userSpaceOnUse">
<stop stop-color="white"/>
<stop offset="1" stop-color="#5B2B00"/>
</linearGradient>
<linearGradient id="paint23_linear_551_1969" x1="473.373" y1="592.665" x2="448.91" y2="590.984" gradientUnits="userSpaceOnUse">
<stop stop-color="white"/>
<stop offset="1" stop-color="white"/>
</linearGradient>
<linearGradient id="paint24_linear_551_1969" x1="379.938" y1="512.787" x2="379.938" y2="546.084" gradientUnits="userSpaceOnUse">
<stop stop-color="#337F6D"/>
<stop offset="1" stop-color="#5FDBBD"/>
</linearGradient>
<linearGradient id="paint25_linear_551_1969" x1="356.835" y1="539.952" x2="357.407" y2="536.984" gradientUnits="userSpaceOnUse">
<stop stop-color="white"/>
<stop offset="1" stop-color="#5B2B00"/>
</linearGradient>
<linearGradient id="paint26_linear_551_1969" x1="387.596" y1="553.781" x2="352.34" y2="549.853" gradientUnits="userSpaceOnUse">
<stop stop-color="white"/>
<stop offset="1" stop-color="white"/>
</linearGradient>
<linearGradient id="paint27_linear_551_1969" x1="703.046" y1="12.0666" x2="690.813" y2="69.6924" gradientUnits="userSpaceOnUse">
<stop stop-color="#00A3FE"/>
<stop offset="1" stop-color="#0047FE"/>
</linearGradient>
<linearGradient id="paint28_linear_551_1969" x1="250.975" y1="254.086" x2="255.709" y2="261.436" gradientUnits="userSpaceOnUse">
<stop stop-color="#50AF9A"/>
<stop offset="1" stop-color="#349B44"/>
</linearGradient>
<linearGradient id="paint29_linear_551_1969" x1="232.241" y1="225.102" x2="249.857" y2="252.455" gradientUnits="userSpaceOnUse">
<stop stop-color="#FBE0B3"/>
<stop offset="1" stop-color="#FFCB6A"/>
</linearGradient>
<linearGradient id="paint30_linear_551_1969" x1="460.446" y1="249.518" x2="460.446" y2="303.518" gradientUnits="userSpaceOnUse">
<stop stop-color="#00A3FE"/>
<stop offset="1" stop-color="#0047FE"/>
</linearGradient>
<linearGradient id="paint31_linear_551_1969" x1="570.729" y1="216" x2="570.729" y2="303.518" gradientUnits="userSpaceOnUse">
<stop stop-color="#00A3FE"/>
<stop offset="1" stop-color="#0047FE"/>
</linearGradient>
<linearGradient id="paint32_linear_551_1969" x1="497.207" y1="227.173" x2="497.207" y2="303.518" gradientUnits="userSpaceOnUse">
<stop stop-color="#00A3FE"/>
<stop offset="1" stop-color="#0047FE"/>
</linearGradient>
<linearGradient id="paint33_linear_551_1969" x1="607.49" y1="249.518" x2="607.49" y2="303.518" gradientUnits="userSpaceOnUse">
<stop stop-color="#00A3FE"/>
<stop offset="1" stop-color="#0047FE"/>
</linearGradient>
<linearGradient id="paint34_linear_551_1969" x1="533.968" y1="227.173" x2="533.968" y2="303.518" gradientUnits="userSpaceOnUse">
<stop stop-color="#00A3FE"/>
<stop offset="1" stop-color="#0047FE"/>
</linearGradient>
<linearGradient id="paint35_linear_551_1969" x1="426.362" y1="502.34" x2="426.362" y2="541.43" gradientUnits="userSpaceOnUse">
<stop stop-color="#50AF9A"/>
<stop offset="1" stop-color="#349B44"/>
</linearGradient>
<linearGradient id="paint36_linear_551_1969" x1="399.408" y1="529.9" x2="399.408" y2="565.09" gradientUnits="userSpaceOnUse">
<stop stop-color="#50AF9A"/>
<stop offset="1" stop-color="#349B44"/>
</linearGradient>
<linearGradient id="paint37_linear_551_1969" x1="425.505" y1="565.781" x2="377.005" y2="558.464" gradientUnits="userSpaceOnUse">
<stop stop-color="white"/>
<stop offset="1" stop-color="white"/>
</linearGradient>
<linearGradient id="paint38_linear_551_1969" x1="489.039" y1="517.947" x2="489.039" y2="546.164" gradientUnits="userSpaceOnUse">
<stop stop-color="#50AF9A"/>
<stop offset="1" stop-color="#349B44"/>
</linearGradient>
<linearGradient id="paint39_linear_551_1969" x1="440.878" y1="498.724" x2="440.878" y2="511.523" gradientUnits="userSpaceOnUse">
<stop stop-color="#337F6D"/>
<stop offset="1" stop-color="#5FDBBD"/>
</linearGradient>
<linearGradient id="paint40_linear_551_1969" x1="392.671" y1="541.326" x2="395.768" y2="525.24" gradientUnits="userSpaceOnUse">
<stop stop-color="white"/>
<stop offset="1" stop-color="#5B2B00"/>
</linearGradient>
<linearGradient id="paint41_linear_551_1969" x1="388.932" y1="521.591" x2="389.545" y2="518.405" gradientUnits="userSpaceOnUse">
<stop stop-color="white"/>
<stop offset="1" stop-color="#5B2B00"/>
</linearGradient>
<linearGradient id="paint42_linear_551_1969" x1="493.471" y1="528.325" x2="493.471" y2="555.77" gradientUnits="userSpaceOnUse">
<stop stop-color="#50AF9A"/>
<stop offset="1" stop-color="#349B44"/>
</linearGradient>
<linearGradient id="paint43_linear_551_1969" x1="498.401" y1="556.684" x2="474.489" y2="553.935" gradientUnits="userSpaceOnUse">
<stop stop-color="white"/>
<stop offset="1" stop-color="white"/>
</linearGradient>
<linearGradient id="paint44_linear_551_1969" x1="504.551" y1="547.813" x2="503.081" y2="545.564" gradientUnits="userSpaceOnUse">
<stop stop-color="white"/>
<stop offset="1" stop-color="#5B2B00"/>
</linearGradient>
<linearGradient id="paint45_linear_551_1969" x1="505.703" y1="566.773" x2="493.882" y2="566.261" gradientUnits="userSpaceOnUse">
<stop stop-color="white"/>
<stop offset="1" stop-color="white"/>
</linearGradient>
<linearGradient id="paint46_linear_551_1969" x1="444.713" y1="483.175" x2="499.839" y2="524.679" gradientUnits="userSpaceOnUse">
<stop offset="0.00540541" stop-color="#DDF25C"/>
<stop offset="0.2342" stop-color="#DDE767"/>
<stop offset="0.6581" stop-color="#6064CA"/>
<stop offset="0.9946" stop-color="#40A8AF"/>
</linearGradient>
<linearGradient id="paint47_linear_551_1969" x1="461.268" y1="494.473" x2="462.648" y2="495.343" gradientUnits="userSpaceOnUse">
<stop offset="0.3659" stop-color="white"/>
<stop offset="0.5772" stop-color="#D3A1B9"/>
<stop offset="0.7848" stop-color="#AB4A78"/>
<stop offset="0.9297" stop-color="#921550"/>
<stop offset="1" stop-color="#880041"/>
</linearGradient>
<linearGradient id="paint48_linear_551_1969" x1="525.876" y1="518.575" x2="480.034" y2="527.84" gradientUnits="userSpaceOnUse">
<stop stop-color="white"/>
<stop offset="1" stop-color="#5B2B00"/>
</linearGradient>
<linearGradient id="paint49_linear_551_1969" x1="471.95" y1="509.238" x2="471.392" y2="508.404" gradientUnits="userSpaceOnUse">
<stop stop-color="white"/>
<stop offset="1" stop-color="#5B2B00"/>
</linearGradient>
<linearGradient id="paint50_linear_551_1969" x1="482.225" y1="502.204" x2="482.225" y2="524.391" gradientUnits="userSpaceOnUse">
<stop stop-color="#337F6D"/>
<stop offset="1" stop-color="#5FDBBD"/>
</linearGradient>
<linearGradient id="paint51_linear_551_1969" x1="504.217" y1="510.868" x2="503.017" y2="509.073" gradientUnits="userSpaceOnUse">
<stop stop-color="white"/>
<stop offset="1" stop-color="#5B2B00"/>
</linearGradient>
<linearGradient id="paint52_linear_551_1969" x1="496.47" y1="513.759" x2="466.276" y2="501.474" gradientUnits="userSpaceOnUse">
<stop stop-color="white"/>
<stop offset="1" stop-color="white"/>
</linearGradient>
<linearGradient id="paint53_linear_551_1969" x1="445.728" y1="511.399" x2="481.523" y2="538.348" gradientUnits="userSpaceOnUse">
<stop offset="0.00540541" stop-color="#DDF25C"/>
<stop offset="0.2342" stop-color="#DDE767"/>
<stop offset="0.6581" stop-color="#6064CA"/>
<stop offset="0.9946" stop-color="#40A8AF"/>
</linearGradient>
<linearGradient id="paint54_linear_551_1969" x1="456.473" y1="518.743" x2="457.37" y2="519.308" gradientUnits="userSpaceOnUse">
<stop offset="0.3659" stop-color="white"/>
<stop offset="0.5772" stop-color="#D3A1B9"/>
<stop offset="0.7848" stop-color="#AB4A78"/>
<stop offset="0.9297" stop-color="#921550"/>
<stop offset="1" stop-color="#880041"/>
</linearGradient>
<linearGradient id="paint55_linear_551_1969" x1="448.991" y1="528.548" x2="448.991" y2="575.59" gradientUnits="userSpaceOnUse">
<stop stop-color="#50AF9A"/>
<stop offset="1" stop-color="#349B44"/>
</linearGradient>
<linearGradient id="paint56_linear_551_1969" x1="456.195" y1="590.364" x2="426.574" y2="588.547" gradientUnits="userSpaceOnUse">
<stop stop-color="white"/>
<stop offset="1" stop-color="white"/>
</linearGradient>
<linearGradient id="paint57_linear_551_1969" x1="460.422" y1="568.695" x2="461.805" y2="565.41" gradientUnits="userSpaceOnUse">
<stop stop-color="white"/>
<stop offset="1" stop-color="#5B2B00"/>
</linearGradient>
<linearGradient id="paint58_linear_551_1969" x1="473.373" y1="592.665" x2="448.91" y2="590.984" gradientUnits="userSpaceOnUse">
<stop stop-color="white"/>
<stop offset="1" stop-color="white"/>
</linearGradient>
<linearGradient id="paint59_linear_551_1969" x1="379.938" y1="512.787" x2="379.938" y2="546.084" gradientUnits="userSpaceOnUse">
<stop stop-color="#337F6D"/>
<stop offset="1" stop-color="#5FDBBD"/>
</linearGradient>
<linearGradient id="paint60_linear_551_1969" x1="356.835" y1="539.952" x2="357.407" y2="536.984" gradientUnits="userSpaceOnUse">
<stop stop-color="white"/>
<stop offset="1" stop-color="#5B2B00"/>
</linearGradient>
<linearGradient id="paint61_linear_551_1969" x1="387.596" y1="553.781" x2="352.34" y2="549.853" gradientUnits="userSpaceOnUse">
<stop stop-color="white"/>
<stop offset="1" stop-color="white"/>
</linearGradient>
<linearGradient id="paint62_linear_551_1969" x1="703.046" y1="12.0666" x2="690.813" y2="69.6924" gradientUnits="userSpaceOnUse">
<stop stop-color="#00A3FE"/>
<stop offset="1" stop-color="#0047FE"/>
</linearGradient>
<linearGradient id="paint63_linear_551_1969" x1="250.975" y1="254.086" x2="255.709" y2="261.436" gradientUnits="userSpaceOnUse">
<stop stop-color="#50AF9A"/>
<stop offset="1" stop-color="#349B44"/>
</linearGradient>
<linearGradient id="paint64_linear_551_1969" x1="232.241" y1="225.102" x2="249.857" y2="252.455" gradientUnits="userSpaceOnUse">
<stop stop-color="#FBE0B3"/>
<stop offset="1" stop-color="#FFCB6A"/>
</linearGradient>
<linearGradient id="paint65_linear_551_1969" x1="460.446" y1="249.518" x2="460.446" y2="303.518" gradientUnits="userSpaceOnUse">
<stop stop-color="#00A3FE"/>
<stop offset="1" stop-color="#0047FE"/>
</linearGradient>
<linearGradient id="paint66_linear_551_1969" x1="570.729" y1="216" x2="570.729" y2="303.518" gradientUnits="userSpaceOnUse">
<stop stop-color="#00A3FE"/>
<stop offset="1" stop-color="#0047FE"/>
</linearGradient>
<linearGradient id="paint67_linear_551_1969" x1="497.207" y1="227.173" x2="497.207" y2="303.518" gradientUnits="userSpaceOnUse">
<stop stop-color="#00A3FE"/>
<stop offset="1" stop-color="#0047FE"/>
</linearGradient>
<linearGradient id="paint68_linear_551_1969" x1="607.49" y1="249.518" x2="607.49" y2="303.518" gradientUnits="userSpaceOnUse">
<stop stop-color="#00A3FE"/>
<stop offset="1" stop-color="#0047FE"/>
</linearGradient>
<linearGradient id="paint69_linear_551_1969" x1="533.968" y1="227.173" x2="533.968" y2="303.518" gradientUnits="userSpaceOnUse">
<stop stop-color="#00A3FE"/>
<stop offset="1" stop-color="#0047FE"/>
</linearGradient>
</defs>
</svg>
