<svg width="2531" height="1569" viewBox="0 0 2531 1569" fill="none" xmlns="http://www.w3.org/2000/svg">
<rect width="989" height="695" fill="white" fill-opacity="0.01"/>
<path d="M2255.7 973.76C2257.07 974.145 2260.32 975.481 2262.31 977.742C2264.79 980.569 2268.83 974.29 2268.64 973.317C2268.45 972.345 2272.49 970.619 2274.49 973.408C2276.5 976.198 2280.5 977.464 2282.66 972.838C2284.81 968.212 2286.67 969.313 2288.73 971.149C2290.78 972.984 2291.84 973.425 2293.28 973.296" stroke="#FF7C0D" stroke-width="4.75524"/>
<path d="M2259.65 1150.92L2291.83 1140.65L2284.63 1173.65L2259.65 1150.92Z" fill="url(#paint0_linear_405_1122)"/>
<rect x="1872" y="955" width="380.468" height="183.989" rx="10" fill="white"/>
<circle cx="1938.31" cy="1032.82" r="44.6762" fill="#D1E4FF"/>
<path d="M1982.99 1032.82C1982.99 1042.25 1980.01 1051.43 1974.47 1059.06C1968.93 1066.69 1961.13 1072.38 1952.16 1075.3C1943.2 1078.22 1933.55 1078.23 1924.58 1075.34C1915.61 1072.44 1907.78 1066.78 1902.23 1059.16C1896.67 1051.55 1893.66 1042.37 1893.64 1032.95C1893.61 1023.52 1896.57 1014.33 1902.08 1006.68C1907.6 999.039 1915.39 993.335 1924.34 990.388C1933.3 987.44 1942.95 987.401 1951.93 990.274L1938.31 1032.82H1982.99Z" fill="#00FF57"/>
<path d="M1982.99 1032.82C1982.99 1042.25 1980.01 1051.43 1974.47 1059.06C1968.93 1066.69 1961.13 1072.38 1952.16 1075.3C1943.2 1078.22 1933.55 1078.23 1924.58 1075.34C1915.61 1072.44 1907.78 1066.78 1902.23 1059.16C1896.67 1051.55 1893.66 1042.37 1893.64 1032.95C1893.61 1023.52 1896.57 1014.33 1902.08 1006.68C1907.6 999.039 1915.39 993.335 1924.34 990.388C1933.3 987.44 1942.95 987.401 1951.93 990.274L1938.31 1032.82H1982.99Z" fill="#81C2FF"/>
<path d="M1982.99 1032.82C1982.99 1041.07 1980.71 1049.15 1976.4 1056.18L1938.31 1032.82H1982.99Z" fill="#BAAFFB"/>
<path d="M1982.99 1032.82C1982.99 1037.06 1982.38 1041.28 1981.2 1045.35L1938.31 1032.82H1982.99Z" fill="#7F91F0"/>
<rect x="1893.64" y="1089.03" width="111.45" height="2.88234" fill="#DEEAFF"/>
<rect x="1893.64" y="1098.26" width="97.0386" height="2.88234" fill="#DEEAFF"/>
<rect x="1893.64" y="1106.41" width="82.627" height="2.88234" fill="#DEEAFF"/>
<g filter="url(#filter0_f_405_1122)">
<path d="M2032.94 1112.72C2032.94 1112.72 2038.26 1060.76 2063.2 1053.39C2086.26 1046.58 2078.22 1096.68 2100.44 1087.5C2124.2 1077.69 2113.93 1012.48 2137.91 1003.19C2158.05 995.391 2187.25 1053.79 2207.8 1047.15C2227.44 1040.81 2226.54 992.144 2226.54 992.144" stroke="#1E6AD6" stroke-opacity="0.12"/>
<path d="M2054.32 1112.24C2054.32 1112.24 2059.64 1060.28 2084.58 1052.91C2107.64 1046.1 2117.85 1088.75 2140.07 1079.57C2163.83 1069.76 2132.91 1025.21 2156.88 1015.92C2177.02 1008.12 2187.73 1042.98 2208.28 1036.34C2227.92 1030 2238.31 992.864 2238.31 992.864" stroke="#FF7C0D" stroke-opacity="0.12"/>
</g>
<path d="M2028.86 1107.29C2028.86 1107.29 2034.18 1055.32 2059.13 1047.96C2082.18 1041.15 2074.14 1091.24 2096.36 1082.07C2120.12 1072.25 2109.85 1007.04 2133.83 997.757C2153.97 989.956 2183.17 1048.35 2203.73 1041.71C2223.36 1035.37 2222.46 986.708 2222.46 986.708" stroke="#1E6AD6"/>
<path d="M2050.24 1106.81C2050.24 1106.81 2055.56 1054.84 2080.51 1047.48C2103.56 1040.67 2113.77 1083.32 2135.99 1074.14C2159.75 1064.32 2128.83 1019.77 2152.8 1010.49C2172.95 1002.69 2183.65 1037.54 2204.21 1030.9C2223.84 1024.56 2234.23 987.429 2234.23 987.429" stroke="#FF7C0D"/>
<path d="M1845.21 1068.98L1853.1 1049.27L1866.23 1065.96L1845.21 1068.98Z" fill="#0176FF"/>
<path d="M2022.43 957.107L2020.44 944.662L2032.21 949.16L2022.43 957.107Z" fill="url(#paint1_linear_405_1122)"/>
<path d="M2155.59 1133.87C2156.56 1135.33 2158.48 1139.18 2158.48 1142.86C2158.48 1147.46 2167.37 1144.95 2167.99 1143.9C2168.61 1142.86 2173.77 1144.53 2173.36 1148.71C2172.95 1152.89 2175.63 1157.28 2181.42 1154.77C2187.2 1152.26 2188.03 1154.77 2188.44 1158.12C2188.85 1161.46 2189.47 1162.72 2190.92 1163.76" stroke="#0199FF" stroke-width="4.75524"/>
<path fill-rule="evenodd" clip-rule="evenodd" d="M1777.27 987.256C1773.81 990.002 1773.23 995.034 1775.97 998.495L1784.92 1009.77C1787.66 1013.23 1792.7 1013.81 1796.16 1011.06L1807.29 1002.23L1813.55 1004.7L1812.56 998.045L1823.5 989.366C1826.96 986.62 1827.54 981.588 1824.79 978.127L1815.85 966.854C1813.1 963.393 1808.07 962.813 1804.61 965.56L1777.27 987.256Z" fill="url(#paint2_linear_405_1122)"/>
<path fill-rule="evenodd" clip-rule="evenodd" d="M2227.44 963.541C2236.79 962.721 2244.07 956.441 2244.07 948.816C2244.07 940.633 2235.69 934 2225.36 934C2215.03 934 2206.66 940.633 2206.66 948.816C2206.66 956.119 2213.33 962.189 2222.11 963.408L2224.82 968.092L2227.44 963.541Z" fill="url(#paint3_linear_405_1122)"/>
<path fill-rule="evenodd" clip-rule="evenodd" d="M1878.55 1179.74C1880.34 1170.52 1876.31 1161.8 1868.98 1159.69C1861.11 1157.44 1852.43 1163.66 1849.58 1173.59C1846.73 1183.52 1850.8 1193.4 1858.66 1195.65C1865.68 1197.67 1873.36 1192.93 1876.95 1184.82L1882.2 1183.52L1878.55 1179.74Z" fill="#FF7C0D"/>
<path d="M2076.6 1436.98L2077.22 1448.45L2088.07 1449.06L2087.26 1435.95L2076.6 1436.98Z" fill="#FFB27D"/>
<path d="M2031.13 1449.47L2033.38 1435.54L2045.67 1437.38L2040.14 1452.13L2031.13 1449.47Z" fill="#FFB27D"/>
<path d="M2026.21 1458.07C2026.05 1449.22 2029.15 1446.47 2030.72 1446.19C2033.67 1452.58 2040.83 1449.81 2044.04 1447.63C2045.81 1449.81 2051.16 1454.76 2058.37 1457.05C2066.98 1461.15 2065.13 1464.83 2058.37 1465.86C2048.21 1466.68 2038.98 1461.69 2035.64 1459.1L2035.23 1460.94C2034 1460.74 2030.48 1459.88 2026.21 1458.07Z" fill="#2555A5"/>
<path d="M2026.42 1457.87V1454.8L2035.64 1458.28L2035.02 1461.15L2026.42 1457.87Z" fill="#133A7A"/>
<path d="M2073.74 1453.98C2071.77 1450.05 2074.01 1446.19 2075.37 1444.76C2080.62 1447.55 2085.07 1445.72 2087.25 1444.35C2087.87 1444.35 2090.57 1445.09 2090.74 1445.58C2094.42 1448.86 2099.54 1450.5 2102.41 1450.91C2105.28 1451.32 2105.28 1450.7 2109.17 1453.16C2115.73 1458.48 2100.77 1459.71 2100.57 1459.71C2100.36 1459.71 2089.51 1460.33 2087.66 1458.48C2086.19 1457.01 2083.5 1456.64 2082.34 1456.64V1458.69L2073.74 1457.67V1453.98Z" fill="#2555A5"/>
<path d="M2073.77 1457.61L2073.77 1454.71L2082.34 1456.44L2082.34 1458.69L2073.77 1457.61Z" fill="#133A7A"/>
<path d="M1966.81 1251.8C1972.71 1251.47 1979.92 1253.71 1982.79 1254.87L1987.91 1248.73C1985.86 1247.84 1981.52 1245.53 1980.53 1243.4C1979.3 1240.74 1978.89 1237.87 1972.13 1235C1965.37 1232.13 1967.83 1234.8 1971.93 1237.87C1975.21 1240.33 1972.27 1240.05 1970.29 1239.71L1962.1 1236.44C1954.93 1233.57 1953.9 1234.59 1960.46 1238.28C1964.82 1240.73 1961.07 1240.33 1957.18 1238.89C1950.79 1236.76 1952.88 1239.24 1954.72 1240.74L1958.82 1242.99C1958.89 1243.06 1958.49 1243.07 1956.36 1242.58C1948.99 1241.76 1952.61 1244.02 1955.34 1245.24C1957.39 1245.72 1961.07 1246.76 1959.43 1247.09C1952.06 1245.78 1953.63 1247.63 1955.34 1248.73C1957.86 1249.55 1963.69 1251.31 1966.81 1251.8Z" fill="#FFB27D"/>
<path d="M2054.89 1216.16C2050.79 1205.83 2070.39 1210.76 2080.7 1214.52C2081.25 1214.86 2082.01 1216.4 2080.7 1219.84C2075.58 1228.65 2062.06 1226.19 2054.89 1216.16Z" fill="white"/>
<path d="M2071.07 1222.1L2073.12 1219.43L2076.6 1221.48L2075.37 1223.74L2083.16 1253.23L2071.07 1255.28L2073.12 1223.74L2071.07 1222.1Z" fill="#545272"/>
<path d="M2057.35 1214.31L2058.99 1199.36L2077.01 1206.53C2077.01 1209.12 2077.14 1215.05 2077.63 1218C2072.22 1224.39 2061.85 1218.21 2057.35 1214.31Z" fill="#FFB27D"/>
<path d="M2084.8 1194.65C2085.62 1182.19 2084.04 1176.49 2083.16 1175.19C2065.95 1162.49 2050.38 1186.25 2056.94 1198.75C2063.49 1211.24 2074.14 1211.65 2077.22 1210.83C2080.29 1210.01 2083.77 1210.22 2084.8 1194.65Z" fill="#FFB27D"/>
<path d="M2054.28 1177.65C2051.24 1190.3 2056.12 1198.54 2058.58 1201L2059.81 1196.9C2059.53 1197.31 2058.54 1196.82 2056.73 1191.58C2055.71 1184.2 2060.63 1188.3 2061.85 1189.94C2063.08 1188.5 2064.72 1179.9 2064.72 1178.26C2071.6 1179.41 2080.7 1177.78 2084.39 1176.83C2083.98 1174.16 2081.72 1172.12 2079.47 1169.66C2077.63 1167.4 2057.96 1162.28 2054.28 1177.65Z" fill="#545272"/>
<path d="M2149.53 1244.22C2148.22 1246.51 2143.93 1250.77 2141.95 1252.62L2144.82 1258.35L2157.52 1258.97C2160.52 1257.94 2167.35 1255.4 2170.63 1253.44C2173.9 1251.47 2171.58 1251.66 2170.01 1252L2167.14 1252.62C2167.55 1252 2169.15 1250.32 2172.26 1248.52C2175.38 1246.72 2172.47 1246.68 2170.63 1246.88L2166.53 1248.52C2167.69 1247.5 2170.26 1245.2 2171.24 1244.22C2173.08 1240.12 2167.76 1244.22 2167.14 1244.83C2166.65 1245.33 2164.48 1246.4 2163.46 1246.88C2163.52 1246.54 2164.48 1244.92 2167.76 1241.15C2171.24 1235.82 2165.71 1239.71 2162.02 1243.2C2159.4 1246.15 2155.33 1246.2 2153.62 1245.86C2153.76 1245.52 2154.4 1244.34 2155.88 1242.38C2159.56 1233.98 2151.17 1241.35 2149.53 1244.22Z" fill="#FFB27D"/>
<path d="M2040.14 1371.84V1315.5L2093.2 1303.42L2095.24 1313.87V1376.96C2094.02 1396.14 2091.56 1435.79 2091.56 1440.87C2088.44 1443.49 2078.52 1441.96 2073.94 1440.87C2073.53 1422.16 2072.71 1383.88 2072.71 1380.44C2070.58 1378.8 2068.96 1366.92 2068.41 1361.18L2062.06 1388.22C2057.96 1404.82 2049.32 1439.52 2047.52 1445.58C2041.45 1445.91 2033.52 1441.75 2030.31 1439.64C2030.99 1430.9 2033.1 1410.76 2036.05 1400.1C2039 1389.45 2040.01 1376.82 2040.14 1371.84Z" fill="#1D468A"/>
<path d="M2072.71 1340.29C2071.89 1341.93 2069.36 1354.36 2068.2 1360.36C2069.09 1363.98 2071.24 1370.69 2072.71 1368.56C2074.55 1365.89 2073.73 1338.24 2072.71 1340.29Z" fill="#173870"/>
<path d="M2075.58 1314.89C2074.1 1318.99 2073.32 1321.65 2072.3 1321.44L2074.14 1331.89C2075.71 1326.63 2078.2 1315.87 2075.58 1314.89Z" fill="#173870"/>
<path d="M1982.17 1242.99C1979.22 1245.61 1976.16 1252 1975 1254.87C1980.88 1258.76 1995.08 1267.82 2004.91 1272.9C2014.74 1277.98 2025.26 1269 2029.29 1263.88L2037.69 1252.41V1323.49C2037.34 1323.29 2036.99 1323.08 2038.3 1323.9C2053.05 1331.07 2072.3 1324.52 2077.42 1314.07C2088.9 1326.03 2095.86 1320.83 2097.91 1316.73L2092.79 1258.35C2094.29 1260.54 2099.79 1266.51 2109.79 1272.9C2119.79 1278.47 2130.89 1273.85 2135.19 1270.85C2139.29 1268.19 2148.09 1262.45 2150.55 1260.81C2150.39 1257.7 2146.8 1251.87 2145.02 1249.34L2120.65 1255.08C2117.37 1251.59 2109.22 1242.21 2102.82 1232.54C2097.25 1222.38 2089.03 1217.66 2085.62 1216.57L2074.15 1250.36C2068 1237.94 2054.15 1213.49 2047.93 1215.13C2040.14 1217.18 2036.25 1219.43 2030.93 1224.14C2026.66 1227.91 2015.77 1245.24 2010.85 1253.44C2002.86 1250.5 1985.94 1244.3 1982.17 1242.99Z" fill="#F99744"/>
<path d="M2079.88 1225.58C2081.03 1218.04 2078.17 1214.52 2076.6 1213.7C2076.74 1213.63 2077.09 1213.37 2077.42 1212.88C2079.88 1213.21 2084.59 1216.16 2086.64 1217.59L2082.54 1228.86C2082.75 1229.47 2083.57 1230.82 2085.21 1231.31C2083.24 1238.69 2078.24 1248.86 2075.99 1253.03C2076.81 1247.02 2078.73 1233.12 2079.88 1225.58Z" fill="#CD7123"/>
<path d="M2048.34 1214.93C2048.83 1213.62 2053.87 1211.51 2056.32 1210.62C2055.3 1214.52 2061.04 1228.86 2065.54 1234.8C2070.79 1241.51 2074.28 1250.43 2075.37 1254.05L2057.96 1234.8L2061.04 1232.34C2057.08 1227.35 2048.99 1216.89 2048.34 1214.93Z" fill="#CD7123"/>
<path d="M2044.24 1243.61C2043.91 1244.75 2039.73 1249.82 2037.68 1252.21V1255.49C2040.14 1252.96 2044.89 1247.05 2044.24 1243.61Z" fill="#C67633"/>
<path d="M2091.35 1230.29L2092.79 1257.74L2096.88 1262.65C2097.02 1262.79 2097.21 1262.49 2096.88 1260.2C2097.05 1251.84 2093.26 1236.78 2091.35 1230.29Z" fill="#C67633"/>
<path d="M2059.81 1189.73C2058.85 1189.39 2057.23 1189.4 2058.37 1192.19C2059.52 1194.98 2059.94 1195.4 2060.01 1195.26" stroke="#545272"/>
<path d="M2058.78 1202.43C2062.74 1206.05 2071.93 1212.8 2077.01 1210.83C2073.53 1215.13 2058.78 1211.44 2058.78 1202.43Z" fill="#EC9F6A"/>
<path d="M2398.08 1480.76L2388.09 1426.94L2391.14 1425.05L2402.07 1480.76H2398.08Z" fill="url(#paint4_linear_405_1122)"/>
<path d="M2364.12 1481.71L2372.53 1437.03L2368.64 1438.5L2359.91 1481.71H2364.12Z" fill="url(#paint5_linear_405_1122)"/>
<path d="M2333.11 1480.76L2325.75 1443.34H2322.17L2329.32 1480.76H2333.11Z" fill="url(#paint6_linear_405_1122)"/>
<path d="M2279.82 1466.67L2289.39 1419.26H2292.86L2283.29 1466.67H2279.82Z" fill="url(#paint7_linear_405_1122)"/>
<path d="M2404.71 1377.83C2398.09 1333.76 2380.97 1320.79 2371.14 1320.05C2327.53 1311.88 2311.92 1351.85 2307.71 1358.9C2303.5 1365.95 2303.62 1384.14 2288.26 1410.98C2272.9 1437.83 2282.75 1414.21 2284.49 1432.07C2407.18 1479.38 2409.69 1410.98 2404.71 1377.83Z" fill="url(#paint8_linear_405_1122)"/>
<path d="M2385.83 1368.89C2383.05 1331.13 2365.68 1320.43 2357.34 1319.8C2320.33 1312.86 2307.09 1346.81 2303.51 1352.81C2299.94 1358.8 2300.05 1374.25 2287.01 1397.06C2273.97 1419.88 2279.65 1433.75 2287.85 1435.86C2384.57 1457.51 2387.9 1397.06 2385.83 1368.89Z" fill="url(#paint9_linear_405_1122)"/>
<path d="M2322.03 1421.95C2322.74 1422 2386.92 1407.51 2351.32 1408.14C2322.85 1408.65 2319.93 1417.56 2322.03 1421.95Z" fill="#D0A85B"/>
<path d="M1615.18 1466.71L1625.41 1411.58L1622.29 1409.64L1611.09 1466.71H1615.18Z" fill="url(#paint10_linear_405_1122)"/>
<path d="M1649.96 1467.67L1641.35 1421.91L1645.33 1423.42L1654.27 1467.67H1649.96Z" fill="url(#paint11_linear_405_1122)"/>
<path d="M1681.72 1466.7L1689.26 1428.37H1692.92L1685.6 1466.7H1681.72Z" fill="url(#paint12_linear_405_1122)"/>
<path d="M1736.3 1452.27L1726.5 1403.71H1722.95L1732.75 1452.27H1736.3Z" fill="url(#paint13_linear_405_1122)"/>
<path d="M1608.39 1361.28C1615.17 1316.14 1632.71 1302.86 1642.78 1302.1C1687.44 1293.74 1703.43 1334.67 1707.74 1341.89C1712.05 1349.11 1711.93 1367.74 1727.66 1395.24C1743.4 1422.73 1733.3 1398.54 1731.52 1416.84C1605.86 1465.29 1603.29 1395.24 1608.39 1361.28Z" fill="url(#paint14_linear_405_1122)"/>
<path d="M1627.73 1352.12C1630.57 1313.45 1648.37 1302.49 1656.91 1301.84C1694.81 1294.74 1708.38 1329.51 1712.04 1335.65C1715.7 1341.79 1715.59 1357.62 1728.94 1380.98C1742.29 1404.35 1736.48 1418.56 1728.08 1420.71C1629.02 1442.89 1625.61 1380.98 1627.73 1352.12Z" fill="url(#paint15_linear_405_1122)"/>
<path d="M1693.07 1406.47C1692.35 1406.52 1626.62 1391.68 1663.07 1392.33C1692.24 1392.84 1695.22 1401.97 1693.07 1406.47Z" fill="#D0A85B"/>
<path d="M2279 1499.43C2257.68 1508.35 2263.18 1491.01 2275.64 1487.64L2266.21 1412.89L2289.78 1423.01L2284.84 1489.69C2284.54 1490.38 2283.67 1496.67 2279 1499.43Z" fill="#FFB27D"/>
<path d="M2253.46 1498.19C2248 1502.86 2251.95 1503.87 2254.6 1503.8L2285.59 1503.13L2286.41 1493.92C2287.09 1492.65 2284.73 1487.64 2274.42 1493.92C2271.6 1495.65 2267.89 1495.05 2266.9 1491.01C2264.7 1491.46 2258.93 1493.52 2253.46 1498.19Z" fill="#50246B"/>
<path d="M2231.94 1474.33L2256.78 1412.9C2257.01 1412.67 2271.58 1418.91 2279 1422.61C2266.22 1442.08 2240.06 1481.81 2237.67 1484.95C2234.69 1488.88 2236.76 1491.65 2236.3 1493.73C2235.38 1493.73 2233.31 1494.42 2221.37 1497.66C2209.43 1500.89 2217.01 1493.04 2222.52 1489.8C2226.93 1487.22 2230.63 1478.41 2231.94 1474.33Z" fill="#FFB27D"/>
<path d="M2206.33 1498.19C2200.86 1502.86 2204.81 1503.87 2207.46 1503.8L2238.45 1503.13V1492.58C2239.13 1491.31 2237.85 1489.8 2227.28 1493.93C2216.71 1498.05 2217.87 1493.7 2219.77 1491.01C2217.56 1491.46 2211.79 1493.52 2206.33 1498.19Z" fill="#50246B"/>
<path d="M2255.6 1408.49C2253.57 1412.57 2255.68 1414.36 2256.99 1414.75L2291.39 1434.44C2294.08 1427.26 2284.69 1406.64 2319.56 1411.97C2361.48 1414 2367.66 1384.7 2365.5 1369.79C2354.73 1369.87 2332.67 1370.44 2330.64 1372.11C2328.1 1374.2 2296.24 1384.62 2281.69 1386.25C2267.15 1387.87 2258.14 1403.39 2255.6 1408.49Z" fill="url(#paint16_linear_405_1122)"/>
<path d="M2324.79 1375.06C2326.84 1374.7 2326.11 1369.62 2325.49 1367.13L2365.67 1363.73C2365.82 1364.64 2366.04 1367.36 2365.67 1370.98C2360.56 1374.83 2331.3 1375.51 2324.79 1375.06Z" fill="#8B49B3"/>
<path d="M2326.14 1369.12C2316.11 1337.95 2318.4 1320.99 2320.8 1316.4C2320.8 1293.56 2342.49 1276.91 2353.41 1274.84L2365.87 1365.68C2358.98 1366.52 2341.38 1368.39 2326.14 1369.12Z" fill="url(#paint17_linear_405_1122)"/>
<path d="M2292.83 1330.06L2268.9 1316.13L2275.8 1304.47L2287.31 1311.56L2305.94 1309.96L2292.83 1330.06Z" fill="url(#paint18_linear_405_1122)"/>
<path d="M2241.59 1291.7C2243.06 1294.62 2250.94 1299.01 2254.69 1300.84C2257.82 1303.03 2266.87 1311.81 2271.01 1315.92L2276.98 1307.24C2275.37 1306.17 2270.82 1303.4 2265.49 1300.84C2258.6 1298.78 2257.45 1295.58 2254 1290.1C2250.56 1284.61 2252.62 1289.87 2252.16 1291.24C2251.8 1292.34 2249.87 1290.93 2248.95 1290.1C2247.34 1288.34 2243.62 1285.21 2241.59 1286.67C2239.06 1288.5 2239.75 1288.04 2241.59 1291.7Z" fill="#FFB27D"/>
<path d="M2275.86 1304.47C2270.12 1309.19 2268.83 1314.29 2268.9 1316.26L2272.72 1318.61L2279.68 1307.3C2279.3 1306.99 2278.02 1305.98 2275.86 1304.47Z" fill="#4586F2"/>
<path d="M2227.92 1328.48C2224.08 1331.17 2226.32 1331.84 2227.92 1331.84C2229.75 1331.39 2233.64 1330.45 2234.55 1330.27C2235.7 1330.05 2238.9 1332.96 2240.72 1333.86C2242.19 1334.57 2247.73 1333.56 2250.33 1332.96L2271.81 1333.86L2272.27 1324.68L2251.93 1327.59C2250.48 1328.18 2246.76 1328.93 2243.47 1327.14C2238.9 1323.11 2232.72 1325.12 2227.92 1328.48Z" fill="#FFB27D"/>
<path d="M2324.61 1288.24C2323.47 1283.93 2320.32 1277.9 2318.89 1275.43L2325.23 1268.56L2338.12 1281.37L2326.05 1295.48C2326.05 1294.86 2325.76 1292.55 2324.61 1288.24Z" fill="#FFB27D"/>
<path d="M2332.65 1284.41C2329.96 1283.44 2326.07 1287.4 2324.79 1289.66C2324.87 1289.98 2326.19 1293.56 2326.37 1294.34C2328.16 1293.7 2333.88 1288.65 2336.92 1286.35C2336.62 1286.11 2335.34 1285.38 2332.65 1284.41Z" fill="white"/>
<path d="M2338.26 1296.42C2334.35 1285.46 2318.16 1295.96 2310.41 1303.26C2304.27 1308.13 2291.81 1318.1 2291.07 1319.01C2290.34 1319.93 2288.16 1321.22 2287.16 1321.75L2274.96 1323.58V1335.45H2299.13L2328.82 1317.87C2338.03 1312.17 2337.34 1307.83 2338.26 1296.42Z" fill="url(#paint19_linear_405_1122)"/>
<path d="M2269.61 1324.01L2268.9 1334.76L2276.98 1335.45V1323.33L2269.61 1324.01Z" fill="#4586F2"/>
<path d="M2322.73 1283.94C2324.53 1284.3 2326.84 1279.54 2327.51 1277.53L2320.81 1280.1C2321.03 1280.69 2322.01 1282.51 2322.73 1283.94Z" fill="#E4A579"/>
<path d="M2331.72 1275.47C2313.16 1288.23 2309.43 1275.55 2309.88 1267.61C2309.2 1261.3 2308.56 1247.6 2311.48 1243.35C2315.11 1238.03 2354.91 1259.52 2331.72 1275.47Z" fill="#FFB27D"/>
<path d="M2330.37 1279C2329.63 1273.8 2331.29 1264.46 2332.22 1260.44C2336.78 1259.2 2347.05 1256.86 2351.68 1257.42C2356.31 1257.98 2360.71 1268.94 2362.33 1274.36C2363.11 1280.7 2364.46 1294.54 2363.72 1299.18C2361.87 1305.91 2363.96 1306.83 2365.58 1311.71C2367.2 1316.58 2367.89 1322.61 2358.4 1324.47C2350.8 1325.95 2349.05 1319.21 2349.13 1315.65V1299.87C2349.13 1293.38 2345.66 1289.2 2339.63 1287.58C2333.61 1285.95 2331.29 1285.49 2330.37 1279Z" fill="#0F2B53"/>
<path d="M2314.71 1246.87C2310.47 1245.6 2309.25 1253.65 2309.18 1257.83C2307.56 1256.01 2306.41 1249.16 2306.64 1246.87C2306.87 1244.59 2310.1 1239.34 2313.32 1238.88C2315.72 1240.16 2319.55 1238.81 2321.16 1237.97C2324.31 1236.83 2332.04 1235.23 2337.75 1237.97C2344.9 1241.4 2349.5 1249.84 2349.04 1252.81C2348.58 1255.78 2350.43 1255.32 2352.27 1258.29C2353.42 1261.48 2346.97 1265.36 2339.83 1266.05C2332.68 1266.73 2322.08 1258.29 2320.7 1253.27C2319.32 1248.24 2318.39 1246.87 2314.71 1246.87Z" fill="#163561"/>
<path d="M1735.75 1216.4C1733.92 1214.05 1733.9 1208.68 1734.12 1206.29C1734.66 1204.98 1734.7 1200.34 1730.52 1192.25C1725.3 1182.13 1695.93 1219.99 1696.9 1225.22C1697.69 1229.4 1695.27 1236.32 1693.97 1239.25L1712.57 1247.41C1713.44 1242.52 1716.55 1233.38 1722.04 1235.99C1727.52 1238.6 1730.42 1234.9 1731.18 1232.72C1731.61 1230.55 1733.01 1225.54 1735.09 1222.93C1739.34 1221.3 1738.03 1219.34 1735.75 1216.4Z" fill="#F7B39D"/>
<path d="M1737.38 1196.17C1742.6 1203.48 1736.95 1207.27 1733.46 1208.24C1733.35 1204.87 1732.68 1197.73 1730.85 1196.17C1724.98 1196.82 1723.34 1199.76 1720.41 1202.7C1718.06 1205.05 1717.03 1210.64 1716.82 1213.14C1709.96 1202.37 1707.35 1213.14 1708.33 1216.08C1709.31 1219.02 1702.45 1220.32 1702.45 1222.28C1702.45 1224.24 1700.82 1226.85 1699.84 1226.85C1698.86 1226.85 1698.21 1229.79 1697.56 1231.75C1695.6 1231.75 1693.32 1221.95 1692.34 1220.32C1691.55 1219.02 1690.05 1211.73 1689.4 1208.24C1688.09 1204.65 1687.05 1195.97 1693.32 1189.97C1699.58 1183.96 1710.94 1184.63 1715.84 1185.72C1719.75 1187.03 1729.35 1189.51 1736.4 1188.99C1745.21 1188.33 1740.32 1194.54 1737.38 1196.17Z" fill="#1C1717"/>
<path d="M1708.66 1226.85C1709.44 1229.2 1717.47 1233.49 1721.39 1235.34C1717.73 1234.55 1715.08 1238.71 1714.21 1240.89C1712.46 1238.49 1708.92 1232.33 1708.66 1226.85Z" fill="#EFA069"/>
<path d="M1694.29 1238.6L1712.9 1247.09C1710.61 1251.33 1713.88 1257.21 1716.49 1265.04C1720.15 1270 1721.71 1289.74 1722.04 1298.99C1721.5 1306.82 1719.62 1323.4 1716.49 1327.06C1712.57 1331.63 1714.86 1346.64 1714.86 1354.48C1714.86 1362.31 1705.39 1358.39 1701.48 1354.48C1697.56 1350.56 1687.77 1348.93 1683.85 1357.41C1679.93 1365.9 1672.42 1361 1663.61 1361.66C1656.56 1362.18 1660.67 1344.68 1663.61 1335.87C1664.16 1335.54 1665.7 1329.67 1667.53 1308.78C1669.62 1281.62 1676.67 1261.99 1679.93 1255.57C1681.89 1252.96 1686.46 1247.15 1689.07 1244.8C1692.21 1244.28 1693.86 1240.45 1694.29 1238.6Z" fill="#9566FA"/>
<path d="M1708.03 1318.5L1715.86 1328.95C1716.95 1331.12 1720.82 1335.08 1727.61 1333.52C1734.92 1333.52 1745.46 1332.65 1749.81 1332.21C1754.92 1331.78 1765.93 1331.17 1769.07 1332.21C1772.98 1333.52 1784.08 1334.17 1787.35 1334.5C1790.61 1334.82 1801.06 1329.6 1793.22 1330.58C1792.07 1330.58 1791 1330.71 1790.16 1330.86C1796.06 1329.4 1803.41 1327.16 1794.53 1327.64C1791.65 1328.42 1790.07 1328.4 1789.63 1328.29C1796.7 1325.9 1807.45 1321.83 1793.87 1324.7C1790.28 1324.7 1807.26 1319.81 1791.59 1321.77C1779.06 1323.33 1779.19 1319.59 1780.82 1317.52C1783.21 1317.3 1787.61 1316.28 1786.04 1313.93C1784.08 1310.99 1785.39 1315.56 1779.51 1314.26C1774.81 1313.21 1768.2 1317.52 1765.48 1319.81L1729.9 1317.52L1722.72 1307.73L1708.03 1318.5Z" fill="#F7B39D"/>
<path d="M1680.91 1294.42C1671.45 1240.23 1708.98 1243.5 1719.1 1289.52C1719.86 1292.65 1726.6 1303.66 1729.87 1308.78C1725.41 1312.26 1714.27 1320.79 1705.39 1327.06C1698.34 1319.75 1686.13 1302.25 1680.91 1294.42Z" fill="#8959EF"/>
<path d="M1756.34 1479.42L1751.11 1464.08L1763.19 1461.47L1767.11 1479.42H1756.34Z" fill="#F7B39D"/>
<path d="M1750.79 1468L1728.59 1391.94H1757.64L1766.46 1465.06L1750.79 1468Z" fill="#2D4364"/>
<path d="M1753.24 1487.08C1751.03 1479.26 1753.14 1476.09 1754.47 1475.48C1758.58 1480.47 1764.29 1476.33 1766.63 1473.64C1768.72 1475.17 1774.62 1478.31 1781.56 1478.66C1790.16 1480.29 1789.38 1484 1783.62 1486.48C1774.79 1489.58 1765.43 1487.31 1761.85 1485.79L1761.92 1487.52C1760.78 1487.63 1757.45 1487.69 1753.24 1487.08Z" fill="#142743"/>
<path d="M1771.68 1478.12L1770.37 1461.14H1783.1L1781.14 1481.38L1771.68 1478.12Z" fill="#F7B39D"/>
<path d="M1769.49 1484.25C1767.33 1476.41 1769.46 1473.25 1770.8 1472.65C1774.87 1477.67 1780.61 1473.58 1782.97 1470.91C1785.05 1472.45 1790.93 1475.63 1797.87 1476.03C1806.45 1477.72 1805.65 1481.42 1799.87 1483.87C1791.02 1486.91 1781.67 1484.57 1778.1 1483.02L1778.16 1484.75C1777.02 1484.85 1773.69 1484.88 1769.49 1484.25Z" fill="#193052"/>
<path d="M1716.52 1357.02C1690.93 1348.92 1675.93 1344.4 1660.37 1346.57C1650.25 1396.3 1680.61 1401.08 1697.91 1400.43C1715.21 1399.78 1722.65 1400.43 1735.45 1400.43C1747.85 1400.43 1747.52 1397.6 1758.62 1406.63L1768.74 1464.08L1784.41 1465.06C1786.69 1445.26 1789.78 1406.55 1791.09 1397.93C1792.72 1387.16 1791.41 1371.82 1776.72 1370.84C1764.97 1370.06 1724.46 1358.87 1716.52 1357.02Z" fill="#3C5780"/>
<path d="M2312.48 1333.52H1728.99C1727.03 1333.52 1725.43 1335.12 1725.43 1337.09C1725.43 1339.05 1727.03 1340.65 1728.99 1340.65H2312.48C2314.86 1340.65 2316.57 1338.36 2315.89 1336.08C2315.45 1334.56 2314.06 1333.52 2312.48 1333.52Z" fill="#A4C0EE"/>
<path d="M1742.58 1493.15L1736.25 1491.31L1767.91 1338.8H1776.88L1742.58 1493.15Z" fill="#A4C0EE"/>
<path d="M1835.98 1337.48H1826.22L1860.52 1493.68L1868.96 1490.78L1835.98 1337.48Z" fill="#A4C0EE"/>
<path d="M2193.24 1337.75H2184L2151.55 1491.57L2159.99 1493.42L2193.24 1337.75Z" fill="#A4C0EE"/>
<path d="M2276.88 1493.42L2242.84 1338.54H2252.08L2284.8 1491.84L2276.88 1493.42Z" fill="#A4C0EE"/>
<path d="M1926.35 1491.85L1921.04 1468.01L1939.01 1464.8L1941.86 1491.48L1926.35 1491.85Z" fill="#FFB27D"/>
<path d="M1977 1493.55L1975.24 1465.22L1992.13 1462.88L1994.4 1491.99L1977 1493.55Z" fill="#FFB27D"/>
<path d="M1974.99 1507.78C1972.49 1505.29 1973.95 1490.63 1974.99 1483.61C1979.49 1483.09 1989.8 1482.05 1995 1482.05C1995 1491.67 2006.7 1492.71 2015.53 1497.12C2022.6 1500.66 2023.33 1504.84 2022.81 1506.48C2019.26 1506.91 2010.8 1507.78 2005.4 1507.78C1998.64 1507.78 1997.86 1505.44 1993.7 1503.36C1990.37 1501.7 1990.06 1505.61 1990.32 1507.78H1974.99Z" fill="#163561"/>
<path d="M1990.32 1505.44L1974.21 1504.92L1974.73 1508.04H1990.32V1505.44Z" fill="#0A1F3D"/>
<path d="M1925.01 1507.95C1922.27 1505.73 1922.15 1491 1922.44 1483.91C1926.86 1482.91 1937.01 1480.78 1942.18 1480.23C1943.2 1489.79 1954.94 1489.58 1964.2 1493.04C1971.6 1495.8 1972.77 1499.87 1972.43 1501.57C1968.94 1502.37 1960.63 1504.14 1955.25 1504.71C1948.53 1505.43 1947.51 1503.19 1943.15 1501.56C1939.67 1500.26 1939.77 1504.19 1940.26 1506.32L1925.01 1507.95Z" fill="#163561"/>
<path d="M1939.88 1503.13L1923.84 1504.73L1924.76 1507.75L1940.23 1505.7L1939.88 1503.13Z" fill="#0A1F3D"/>
<path d="M1972.89 1381.05C1962.94 1354.51 1910.7 1359.42 1885.83 1365.2C1883.55 1370.48 1879.1 1383.92 1879.49 1395.44C1879.97 1409.83 1945.33 1395.92 1951.67 1406.9C1956.75 1415.68 1967.93 1452.5 1972.89 1469.82H1995.08C1996.3 1449.58 1987.04 1413.73 1987.04 1411.04C1987.04 1408.36 1981.91 1394.95 1972.89 1381.05Z" fill="url(#paint20_linear_405_1122)"/>
<path d="M1952.65 1319.83C1948.36 1318.08 1940.13 1322.03 1936.56 1324.22C1937.69 1326.58 1940.17 1331.39 1940.95 1331.78C1941.92 1332.27 1944.12 1334.47 1945.82 1333.49C1947.53 1332.52 1950.46 1331.3 1953.38 1331.78C1956.31 1332.27 1957.53 1331.3 1959.24 1329.35C1960.94 1327.4 1960.7 1329.59 1962.89 1331.3C1965.09 1333 1968.99 1333.98 1966.8 1327.4C1964.6 1320.81 1958.02 1322.03 1952.65 1319.83Z" fill="#FFB27D"/>
<path d="M1896.8 1408.12C1859.73 1396.8 1834.53 1379.34 1824.61 1371.78C1824.61 1336.47 1881.35 1370.56 1909.73 1392.02C1914.68 1396.17 1925.87 1406.75 1930.94 1415.92C1936.02 1425.09 1940.7 1456.16 1942.41 1470.55H1918.51L1912.65 1450.31C1909.08 1437.38 1900.9 1410.85 1896.8 1408.12Z" fill="url(#paint21_linear_405_1122)"/>
<path d="M1839.01 1279.11C1841.74 1273.45 1841.77 1264.72 1841.44 1261.06C1835.83 1213.75 1866.56 1216.43 1874.37 1224.97C1882.17 1233.5 1876.81 1248.38 1876.81 1257.4C1876.81 1266.43 1868.51 1263.74 1865.1 1263.74C1862.91 1275.94 1868.51 1281.3 1869 1284.23C1862.56 1292.81 1845.02 1287.81 1837.05 1284.23C1836.57 1284.88 1836.27 1284.76 1839.01 1279.11Z" fill="#FFB27D"/>
<path d="M1816.81 1287.15C1797.89 1306.27 1814.13 1352.19 1824.61 1372.76C1859.73 1385.44 1894.85 1372.76 1899.97 1364.46C1905.09 1356.17 1903.63 1311.05 1897.05 1295.69C1890.46 1280.33 1880.22 1279.11 1867.78 1279.11C1853.15 1291.59 1841.85 1284.31 1838.03 1279.11C1835.91 1279.68 1828.71 1282.08 1816.81 1287.15Z" fill="url(#paint22_linear_405_1122)"/>
<path d="M1830.22 1255.45C1848.76 1276.33 1858.76 1259.6 1861.44 1248.62C1850.71 1235.16 1859.73 1231.55 1864.61 1236.18H1866.07L1866.56 1227.89C1877.29 1227.16 1878.02 1225.7 1879.24 1216.92C1880.61 1207.1 1870.54 1202.61 1865.1 1201.55C1860.63 1200.98 1848.9 1200.97 1837.78 1205.45C1817.05 1217.89 1819.98 1235.45 1830.22 1255.45Z" fill="#163561"/>
<path d="M1885.58 1326.91L1876.56 1305.2C1872.25 1293.25 1869.63 1273.11 1893.63 1288.13C1903.66 1311.54 1906.58 1318.78 1906.92 1319.89C1910.54 1321.77 1918.4 1321.28 1930.94 1319.83C1935.33 1321.78 1937.29 1323 1938.75 1323L1942.65 1333C1931.84 1337.07 1907.92 1345.54 1898.75 1346.9C1892.51 1342.03 1887.37 1331.54 1885.58 1326.91Z" fill="url(#paint23_linear_405_1122)"/>
<path d="M1814.5 1500.91L1826.37 1436.97L1822.74 1434.72L1809.76 1500.91H1814.5Z" fill="url(#paint24_linear_405_1122)"/>
<path d="M1854.84 1502.04L1844.85 1448.96L1849.47 1450.71L1859.84 1502.04H1854.84Z" fill="url(#paint25_linear_405_1122)"/>
<path d="M1869.88 1503.93L1878.63 1459.47H1882.87L1874.38 1503.93H1869.88Z" fill="url(#paint26_linear_405_1122)"/>
<path d="M1915.69 1504.51L1904.32 1448.18H1900.2L1911.57 1504.51H1915.69Z" fill="url(#paint27_linear_405_1122)"/>
<path d="M1819.25 1385.05C1826.94 1335.75 1846.83 1321.25 1858.25 1320.42C1908.9 1311.28 1916.19 1354.36 1921.08 1362.24C1925.97 1370.13 1924.1 1374.85 1931.92 1412.7C1938.99 1446.91 1937.75 1430.32 1935.73 1450.3C1793.22 1503.22 1813.47 1422.14 1819.25 1385.05Z" fill="url(#paint28_linear_405_1122)"/>
<path d="M2466 1526C2466 1526.58 2266.77 1527 2021.02 1527C1775.27 1527 1576 1526.73 1576 1526C1576 1525.27 1775.22 1525 2021.02 1525C2266.82 1525 2466 1525.62 2466 1526Z" fill="#263238"/>
<defs>
<filter id="filter0_f_405_1122" x="2027.44" y="987.135" width="216.345" height="130.637" filterUnits="userSpaceOnUse" color-interpolation-filters="sRGB">
<feFlood flood-opacity="0" result="BackgroundImageFix"/>
<feBlend mode="normal" in="SourceGraphic" in2="BackgroundImageFix" result="shape"/>
<feGaussianBlur stdDeviation="2.5" result="effect1_foregroundBlur_405_1122"/>
</filter>
<linearGradient id="paint0_linear_405_1122" x1="2259.65" y1="1150.92" x2="2297.76" y2="1159.23" gradientUnits="userSpaceOnUse">
<stop stop-color="#00A3FE"/>
<stop offset="1" stop-color="#0047FE"/>
</linearGradient>
<linearGradient id="paint1_linear_405_1122" x1="2022.43" y1="957.107" x2="2027.62" y2="943.512" gradientUnits="userSpaceOnUse">
<stop stop-color="#00A3FE"/>
<stop offset="1" stop-color="#0047FE"/>
</linearGradient>
<linearGradient id="paint2_linear_405_1122" x1="1790.94" y1="976.408" x2="1813.45" y2="1004.78" gradientUnits="userSpaceOnUse">
<stop stop-color="#7FD1FF"/>
<stop offset="1" stop-color="#83A6FF"/>
</linearGradient>
<linearGradient id="paint3_linear_405_1122" x1="2225.36" y1="934" x2="2225.36" y2="968.092" gradientUnits="userSpaceOnUse">
<stop stop-color="#7FD1FF"/>
<stop offset="1" stop-color="#83A6FF"/>
</linearGradient>
<linearGradient id="paint4_linear_405_1122" x1="2402.12" y1="1482.26" x2="2399.96" y2="1422.96" gradientUnits="userSpaceOnUse">
<stop offset="0.550331" stop-color="#7C8DB7"/>
<stop offset="1" stop-color="#A1ACBB"/>
</linearGradient>
<linearGradient id="paint5_linear_405_1122" x1="2372.57" y1="1482.91" x2="2371.03" y2="1435.34" gradientUnits="userSpaceOnUse">
<stop offset="0.550331" stop-color="#7C8DB7"/>
<stop offset="1" stop-color="#A1ACBB"/>
</linearGradient>
<linearGradient id="paint6_linear_405_1122" x1="2333.14" y1="1481.77" x2="2331.9" y2="1441.92" gradientUnits="userSpaceOnUse">
<stop offset="0.550331" stop-color="#7C8DB7"/>
<stop offset="1" stop-color="#A1ACBB"/>
</linearGradient>
<linearGradient id="paint7_linear_405_1122" x1="2292.9" y1="1467.95" x2="2291.22" y2="1417.47" gradientUnits="userSpaceOnUse">
<stop offset="0.550331" stop-color="#7C8DB7"/>
<stop offset="1" stop-color="#A1ACBB"/>
</linearGradient>
<linearGradient id="paint8_linear_405_1122" x1="2342.92" y1="1318.95" x2="2342.92" y2="1448.23" gradientUnits="userSpaceOnUse">
<stop stop-color="#F7CD7E"/>
<stop offset="1" stop-color="#EEBA59"/>
</linearGradient>
<linearGradient id="paint9_linear_405_1122" x1="2332.74" y1="1318.87" x2="2332.74" y2="1440.45" gradientUnits="userSpaceOnUse">
<stop stop-color="#FBE0B3"/>
<stop offset="1" stop-color="#FFCB6A"/>
</linearGradient>
<linearGradient id="paint10_linear_405_1122" x1="1611.04" y1="1468.24" x2="1613.25" y2="1407.5" gradientUnits="userSpaceOnUse">
<stop offset="0.550331" stop-color="#7C8DB7"/>
<stop offset="1" stop-color="#A1ACBB"/>
</linearGradient>
<linearGradient id="paint11_linear_405_1122" x1="1641.3" y1="1468.91" x2="1642.88" y2="1420.19" gradientUnits="userSpaceOnUse">
<stop offset="0.550331" stop-color="#7C8DB7"/>
<stop offset="1" stop-color="#A1ACBB"/>
</linearGradient>
<linearGradient id="paint12_linear_405_1122" x1="1681.68" y1="1467.74" x2="1682.96" y2="1426.92" gradientUnits="userSpaceOnUse">
<stop offset="0.550331" stop-color="#7C8DB7"/>
<stop offset="1" stop-color="#A1ACBB"/>
</linearGradient>
<linearGradient id="paint13_linear_405_1122" x1="1722.9" y1="1453.58" x2="1724.62" y2="1401.88" gradientUnits="userSpaceOnUse">
<stop offset="0.550331" stop-color="#7C8DB7"/>
<stop offset="1" stop-color="#A1ACBB"/>
</linearGradient>
<linearGradient id="paint14_linear_405_1122" x1="1671.67" y1="1300.98" x2="1671.67" y2="1433.38" gradientUnits="userSpaceOnUse">
<stop stop-color="#F7CD7E"/>
<stop offset="1" stop-color="#EEBA59"/>
</linearGradient>
<linearGradient id="paint15_linear_405_1122" x1="1682.1" y1="1300.89" x2="1682.1" y2="1425.41" gradientUnits="userSpaceOnUse">
<stop stop-color="#FBE0B3"/>
<stop offset="1" stop-color="#FFCB6A"/>
</linearGradient>
<linearGradient id="paint16_linear_405_1122" x1="2310.32" y1="1369.79" x2="2310.32" y2="1434.44" gradientUnits="userSpaceOnUse">
<stop stop-color="#3D8F7D"/>
<stop offset="1" stop-color="#44B09D"/>
</linearGradient>
<linearGradient id="paint17_linear_405_1122" x1="2342.3" y1="1274.84" x2="2342.3" y2="1369.12" gradientUnits="userSpaceOnUse">
<stop stop-color="#00A3FE"/>
<stop offset="1" stop-color="#0047FE"/>
</linearGradient>
<linearGradient id="paint18_linear_405_1122" x1="2310.73" y1="1292.45" x2="2271.01" y2="1334.83" gradientUnits="userSpaceOnUse">
<stop stop-color="#0045B7"/>
<stop offset="1" stop-color="#0750C9"/>
<stop offset="1" stop-color="#00348A"/>
</linearGradient>
<linearGradient id="paint19_linear_405_1122" x1="2346.45" y1="1271.12" x2="2278.5" y2="1343.55" gradientUnits="userSpaceOnUse">
<stop stop-color="#3E86FC"/>
<stop offset="1" stop-color="#0750C9"/>
<stop offset="1" stop-color="#00348A"/>
</linearGradient>
<linearGradient id="paint20_linear_405_1122" x1="1937.33" y1="1360.64" x2="1937.33" y2="1469.82" gradientUnits="userSpaceOnUse">
<stop stop-color="#3D8F7D"/>
<stop offset="1" stop-color="#44B09D"/>
</linearGradient>
<linearGradient id="paint21_linear_405_1122" x1="1883.51" y1="1356.5" x2="1883.51" y2="1470.55" gradientUnits="userSpaceOnUse">
<stop stop-color="#3D8F7D"/>
<stop offset="1" stop-color="#44B09D"/>
</linearGradient>
<linearGradient id="paint22_linear_405_1122" x1="1855.57" y1="1279.11" x2="1855.57" y2="1378.13" gradientUnits="userSpaceOnUse">
<stop stop-color="#00A3FE"/>
<stop offset="1" stop-color="#0047FE"/>
</linearGradient>
<linearGradient id="paint23_linear_405_1122" x1="1895.18" y1="1287.15" x2="1922.1" y2="1342.27" gradientUnits="userSpaceOnUse">
<stop stop-color="#4FC0FF"/>
<stop offset="1" stop-color="#0047FE"/>
</linearGradient>
<linearGradient id="paint24_linear_405_1122" x1="1809.7" y1="1502.7" x2="1812.26" y2="1432.24" gradientUnits="userSpaceOnUse">
<stop offset="0.550331" stop-color="#7C8DB7"/>
<stop offset="1" stop-color="#A1ACBB"/>
</linearGradient>
<linearGradient id="paint25_linear_405_1122" x1="1844.8" y1="1503.47" x2="1846.63" y2="1446.95" gradientUnits="userSpaceOnUse">
<stop offset="0.550331" stop-color="#7C8DB7"/>
<stop offset="1" stop-color="#A1ACBB"/>
</linearGradient>
<linearGradient id="paint26_linear_405_1122" x1="1869.84" y1="1505.13" x2="1871.32" y2="1457.79" gradientUnits="userSpaceOnUse">
<stop offset="0.550331" stop-color="#7C8DB7"/>
<stop offset="1" stop-color="#A1ACBB"/>
</linearGradient>
<linearGradient id="paint27_linear_405_1122" x1="1900.15" y1="1506.03" x2="1902.14" y2="1446.06" gradientUnits="userSpaceOnUse">
<stop offset="0.550331" stop-color="#7C8DB7"/>
<stop offset="1" stop-color="#A1ACBB"/>
</linearGradient>
<linearGradient id="paint28_linear_405_1122" x1="1891.02" y1="1319.19" x2="1891.02" y2="1463.8" gradientUnits="userSpaceOnUse">
<stop stop-color="#F7CD7E"/>
<stop offset="1" stop-color="#EEBA59"/>
</linearGradient>
</defs>
</svg>
