<svg width="580" height="371" viewBox="0 0 580 371" fill="none" xmlns="http://www.w3.org/2000/svg">
<path d="M318.842 366.034C317.569 364.979 314.719 361.59 316.921 357.663C317.72 356.216 319.436 355.498 320.98 354.865C322.576 354.346 324.08 353.588 325.438 352.616C327.856 350.621 328.525 347.285 330.134 344.614C331.98 341.553 335.412 339.251 339.05 339.41C343.206 339.6 346.682 342.904 348.258 346.683C349.834 350.463 349.888 354.643 349.909 358.718C349.909 360.967 349.834 363.501 348.128 365.052C346.423 366.604 344.21 366.467 342.083 366.404L319.339 365.728" fill="#F5F5F5"/>
<path d="M267.647 280.297H213.318L223.033 337.146C223.234 338.335 223.777 339.444 224.599 340.341C225.421 341.239 226.488 341.888 227.675 342.214L227.858 342.266C228.017 342.315 228.18 342.354 228.344 342.382C228.699 342.455 229.06 342.498 229.423 342.509H229.693H253.927C254.373 342.51 254.818 342.468 255.255 342.382C256.671 342.182 257.979 341.528 258.975 340.523C259.971 339.519 260.598 338.22 260.76 336.83L265.477 297.653L265.693 296.09L267.561 280.582L267.647 280.297ZM257.392 316.56H251.811L252.373 300.06H258.849L257.392 316.56ZM259.378 300.06H264.776L262.789 316.56H257.986L259.378 300.06ZM243.446 334.898L243.1 320.561H251.099L250.602 334.898H243.446ZM234.81 320.561H242.614L242.96 334.898H235.954L234.81 320.561ZM235.414 334.898H228.862C228.247 331.023 227.437 325.998 226.563 320.561H234.27L235.414 334.898ZM234.497 316.602L233.18 300.102H242.129L242.517 316.602H234.497ZM243.068 316.602L242.668 300.102H251.887L251.326 316.602H243.068ZM242.582 296.143L242.215 280.867H252.545L252.027 296.143H242.582ZM242.042 296.143H232.856L231.636 280.867H241.675L242.042 296.143ZM232.327 296.143H222.612C222.277 294.032 221.943 292.036 221.651 290.242C220.637 284.066 220.259 281.743 220.043 280.867H231.107L232.327 296.143ZM232.64 300.102L233.957 316.602H225.926C225.656 314.934 225.386 313.235 225.116 311.546C224.479 307.65 223.853 303.755 223.26 300.102H232.64ZM225.386 316.602H220.14L217.29 300.102H222.688C223.476 305.159 224.393 310.838 225.321 316.56L225.386 316.602ZM226.023 320.561L228.333 334.898H223.292L220.82 320.561H226.023ZM251.25 334.898L251.747 320.561H257.144L255.881 334.898H251.25ZM252.578 296.143L253.096 280.867H260.652L259.303 296.143H252.578ZM219.471 280.825C219.687 281.933 220.68 287.94 222.008 296.101H216.556L213.922 280.825H219.471ZM260.49 334.855H256.291L257.576 320.519H262.25L260.49 334.855ZM265.153 296.101H259.735L261.073 280.825H267.043L265.153 296.101Z" fill="#EBEBEB"/>
<g opacity="0.24">
<path d="M262.678 273.809L261.491 268.34L262.678 266.081V263.917L261.491 262.787L262.678 261.056V254.025H285.358L285.206 255.535L285.973 257.498L286.75 261.119L285.822 268.678L286.75 270.336V273.809H262.678Z" fill="#E0E0E0"/>
</g>
<path d="M495.32 370.274C495.32 370.433 384.438 370.549 247.671 370.549C110.904 370.549 0 370.475 0 370.274C0 370.074 110.871 370 247.671 370C384.471 370 495.32 370.169 495.32 370.274Z" fill="#263238"/>
<path d="M362.043 253.626L359.819 347.573H355.588L355.858 253.859L362.043 253.626Z" fill="#455A64"/>
<path d="M377.351 252.581L397.947 347.573H402.675L385.522 252.581H377.351Z" fill="#455A64"/>
<path d="M338.727 253.627L315.94 347.573H311.212L331.905 253.236L338.727 253.627Z" fill="#455A64"/>
<path d="M398.011 163.586C398.011 163.586 420.766 162.32 418.521 188.057C416.275 213.795 414.948 239.86 406.495 248.76C398.043 257.659 312.906 257.976 305.76 250.671C298.614 243.365 319.405 243.671 323.302 243.671C327.198 243.671 351.249 245.899 359.053 225.883C366.858 205.867 364.872 162.267 398.011 163.586Z" fill="#455A64"/>
<path d="M399.469 163.586C399.469 163.586 416.859 167.07 415.24 184.869C413.62 202.668 409.065 233.811 400.613 241.76C392.161 249.71 359.054 251.431 341.146 250.343C320.344 249.066 307.218 245.191 307.218 245.191C307.218 245.191 303.418 247.577 304.574 249.119C305.729 250.66 315.865 256.836 365.023 255.812C414.182 254.788 410.76 247.683 412.8 239.976C414.84 232.27 419.126 190.918 418.532 181.839C417.938 172.76 413.253 165.138 399.469 163.586Z" fill="#455A64"/>
<path opacity="0.2" d="M399.469 163.586C399.469 163.586 416.859 167.07 415.24 184.869C413.62 202.668 409.065 233.811 400.613 241.76C392.161 249.71 359.054 251.431 341.146 250.343C320.344 249.066 307.218 245.191 307.218 245.191C307.218 245.191 303.418 247.577 304.574 249.119C305.729 250.66 315.865 256.836 365.023 255.812C414.182 254.788 410.76 247.683 412.8 239.976C414.84 232.27 419.126 190.918 418.532 181.839C417.938 172.76 413.253 165.138 399.469 163.586Z" fill="black"/>
<path d="M385.208 198.192C385.295 198.538 385.48 198.854 385.742 199.102C386.004 199.35 386.332 199.522 386.689 199.596C387.045 199.671 387.416 199.646 387.759 199.524C388.102 199.402 388.402 199.188 388.627 198.907C388.851 198.626 388.99 198.289 389.028 197.934C389.065 197.579 389 197.221 388.839 196.901C388.678 196.581 388.429 196.311 388.119 196.123C387.809 195.935 387.451 195.836 387.086 195.838C386.805 195.872 386.533 195.96 386.287 196.096C386.04 196.233 385.823 196.416 385.649 196.635C385.474 196.853 385.346 197.103 385.27 197.37C385.194 197.638 385.173 197.917 385.208 198.192Z" fill="#455A64"/>
<path d="M386.493 187.772C386.128 188.884 385.91 190.037 385.846 191.203C385.836 192.453 386.12 193.689 386.677 194.814C386.999 195.471 387.417 196.079 387.918 196.619C388.233 196.903 388.526 197.21 388.793 197.537C388.939 197.741 389.042 197.971 389.096 198.214C389.15 198.457 389.153 198.708 389.106 198.952C388.848 199.746 388.527 200.519 388.145 201.264C387.948 201.951 387.853 202.662 387.864 203.375C387.891 204.625 388.217 205.85 388.814 206.954C389.411 207.955 390.137 208.878 390.973 209.699C390.973 209.699 390.639 209.583 390.131 209.182C389.432 208.619 388.84 207.94 388.382 207.176C387.677 206.028 387.28 204.724 387.227 203.386C387.192 202.588 387.287 201.79 387.508 201.021C387.859 200.303 388.169 199.567 388.436 198.815C388.609 198.108 388.015 197.611 387.422 197.02C386.883 196.427 386.439 195.758 386.105 195.035C385.533 193.824 385.277 192.493 385.36 191.161C385.406 190.272 385.607 189.398 385.954 188.575C386.074 188.273 386.258 188 386.493 187.772Z" fill="#455A64"/>
<path d="M381.333 195.141C381.441 195.141 381.333 195.701 381.603 196.482C381.926 197.501 382.592 198.382 383.492 198.984C384.43 199.552 385.484 199.912 386.58 200.039C387.443 200.166 387.994 200.177 387.994 200.272C387.994 200.367 387.454 200.493 386.547 200.483C385.334 200.472 384.148 200.128 383.125 199.49C382.615 199.155 382.178 198.723 381.839 198.221C381.5 197.719 381.266 197.157 381.15 196.566C381.01 195.658 381.269 195.12 381.333 195.141Z" fill="#455A64"/>
<g opacity="0.2">
<path d="M385.208 198.192C385.295 198.538 385.48 198.854 385.742 199.102C386.004 199.35 386.332 199.522 386.689 199.596C387.045 199.671 387.416 199.646 387.759 199.524C388.102 199.402 388.402 199.188 388.627 198.907C388.851 198.626 388.99 198.288 389.028 197.934C389.065 197.579 389 197.221 388.839 196.901C388.678 196.581 388.429 196.311 388.119 196.123C387.809 195.935 387.451 195.836 387.086 195.838C386.805 195.872 386.533 195.96 386.287 196.096C386.04 196.233 385.823 196.416 385.649 196.634C385.474 196.853 385.346 197.103 385.27 197.37C385.194 197.638 385.173 197.917 385.208 198.192Z" fill="black"/>
<path d="M386.493 187.772C386.128 188.884 385.91 190.037 385.846 191.203C385.836 192.453 386.12 193.689 386.677 194.814C386.999 195.471 387.417 196.079 387.918 196.619C388.233 196.903 388.526 197.21 388.793 197.537C388.939 197.741 389.042 197.971 389.096 198.214C389.15 198.457 389.153 198.708 389.106 198.952C388.848 199.746 388.527 200.519 388.145 201.264C387.948 201.951 387.853 202.662 387.864 203.375C387.891 204.624 388.217 205.85 388.814 206.954C389.411 207.955 390.137 208.878 390.973 209.699C390.973 209.699 390.639 209.583 390.131 209.182C389.432 208.619 388.84 207.94 388.382 207.176C387.677 206.028 387.28 204.724 387.227 203.386C387.192 202.588 387.287 201.79 387.508 201.021C387.859 200.303 388.169 199.567 388.436 198.815C388.609 198.108 388.015 197.611 387.422 197.02C386.883 196.427 386.439 195.758 386.105 195.035C385.533 193.824 385.277 192.493 385.36 191.161C385.406 190.272 385.607 189.398 385.954 188.575C386.074 188.273 386.258 188 386.493 187.772Z" fill="black"/>
<path d="M381.333 195.141C381.441 195.141 381.333 195.701 381.603 196.482C381.926 197.501 382.592 198.382 383.492 198.984C384.43 199.552 385.484 199.912 386.58 200.039C387.443 200.166 387.994 200.177 387.994 200.272C387.994 200.367 387.454 200.493 386.547 200.483C385.334 200.472 384.148 200.128 383.125 199.49C382.615 199.155 382.178 198.723 381.839 198.221C381.5 197.719 381.266 197.157 381.15 196.566C381.01 195.658 381.269 195.12 381.333 195.141Z" fill="black"/>
</g>
<path d="M359.107 99.3052C358.816 99.1997 358.438 99.0835 357.942 98.9568C356.257 98.5201 354.508 98.3666 352.771 98.5029C350.147 98.685 347.669 99.7478 345.754 101.512C344.623 102.56 343.754 103.849 343.218 105.28C342.943 106.042 342.783 106.839 342.743 107.645C342.743 108.469 342.808 109.271 342.743 110.052C342.747 110.42 342.675 110.785 342.53 111.124C342.385 111.464 342.171 111.771 341.901 112.026C341.304 112.49 340.628 112.848 339.904 113.082C339.155 113.354 338.458 113.747 337.842 114.243C337.003 114.947 336.387 115.87 336.066 116.904C335.744 117.938 335.732 119.04 336.029 120.081C336.408 121.195 336.927 122.259 337.572 123.248C337.831 123.65 338.047 124.04 338.252 124.42C338.29 124.75 338.29 125.083 338.252 125.413C338.01 126.859 337.294 128.189 336.212 129.202C335.128 130.202 334.184 131.338 333.405 132.581C333.024 133.21 332.838 133.935 332.871 134.666C332.903 135.397 333.153 136.103 333.589 136.698C334.668 137.923 336.579 137.922 338.241 137.88C344.013 137.847 349.781 138.161 355.513 138.82L360.176 99.5692C359.852 99.4917 359.496 99.4038 359.107 99.3052ZM344.567 106.252C344.308 107.804 344.567 109.482 343.779 110.865C342.991 112.248 341.275 113.082 339.99 114.18C338.994 115.057 338.242 116.167 337.804 117.406C337.366 118.645 337.257 119.972 337.486 121.264C337.605 121.918 337.82 122.562 338.004 123.217L337.939 123.111C337.329 122.117 336.847 121.053 336.504 119.944C336.152 118.699 336.299 117.371 336.914 116.228C337.228 115.612 337.669 115.066 338.209 114.623C338.788 114.168 339.441 113.811 340.141 113.568C340.925 113.303 341.656 112.907 342.3 112.396C342.622 112.092 342.877 111.728 343.052 111.325C343.226 110.922 343.316 110.489 343.315 110.052C343.315 109.197 343.239 108.395 343.315 107.635C343.348 106.883 343.493 106.139 343.747 105.428C344.249 104.071 345.061 102.843 346.121 101.839C347.949 100.136 350.311 99.0874 352.825 98.8618C353.373 98.8035 353.925 98.7753 354.476 98.7774C353.203 98.8196 351.944 99.051 350.742 99.4636C349.195 99.9678 347.811 100.86 346.727 102.051C345.644 103.242 344.899 104.691 344.567 106.252Z" fill="#263238"/>
<path d="M352.49 145.735C352.825 143.929 352.231 136.307 352.231 136.307C352.231 136.307 345.323 135.452 345.021 128.548C344.718 121.644 345.431 105.755 345.431 105.755L358.147 99.7802L369.254 112.164L369.459 145.629L352.49 145.735Z" fill="#FFBE9D"/>
<path d="M347.211 117.368C347.211 117.539 347.263 117.706 347.36 117.848C347.457 117.99 347.594 118.101 347.755 118.167C347.917 118.233 348.094 118.25 348.265 118.218C348.437 118.185 348.594 118.104 348.719 117.984C348.843 117.864 348.928 117.711 348.963 117.543C348.999 117.376 348.983 117.202 348.917 117.044C348.852 116.886 348.74 116.75 348.596 116.653C348.452 116.557 348.282 116.504 348.107 116.502C347.872 116.502 347.645 116.593 347.478 116.755C347.31 116.917 347.214 117.138 347.211 117.368Z" fill="#263238"/>
<path d="M345.765 116.397C345.873 116.513 346.532 115.964 347.482 115.932C348.432 115.901 349.133 116.365 349.23 116.239C349.327 116.112 349.166 115.975 348.863 115.753C348.454 115.471 347.959 115.334 347.46 115.362C346.957 115.38 346.474 115.562 346.089 115.88C345.808 116.08 345.711 116.344 345.765 116.397Z" fill="#263238"/>
<path d="M357.51 117.368C357.51 117.539 357.562 117.706 357.659 117.848C357.756 117.99 357.893 118.101 358.054 118.167C358.215 118.233 358.393 118.25 358.564 118.218C358.736 118.185 358.893 118.104 359.018 117.984C359.142 117.864 359.227 117.711 359.262 117.543C359.298 117.376 359.282 117.202 359.216 117.044C359.151 116.886 359.039 116.75 358.895 116.653C358.751 116.557 358.581 116.504 358.406 116.502C358.17 116.502 357.944 116.593 357.776 116.755C357.609 116.917 357.513 117.138 357.51 117.368Z" fill="#263238"/>
<path d="M356.257 116.576C356.365 116.693 357.024 116.144 357.974 116.112C358.924 116.08 359.625 116.545 359.722 116.418C359.82 116.291 359.658 116.154 359.355 115.932C358.945 115.652 358.452 115.511 357.952 115.531C357.45 115.554 356.969 115.735 356.581 116.049C356.301 116.302 356.203 116.524 356.257 116.576Z" fill="#263238"/>
<path d="M352.696 124.526C352.194 124.384 351.675 124.306 351.152 124.293C350.915 124.293 350.688 124.293 350.645 124.072C350.615 123.81 350.664 123.546 350.785 123.312C351.012 122.689 351.239 122.034 351.476 121.348C352.117 119.686 352.626 117.978 352.998 116.239C352.236 117.851 351.597 119.517 351.087 121.221C350.861 121.908 350.645 122.562 350.429 123.185C350.282 123.499 350.244 123.851 350.321 124.188C350.357 124.274 350.412 124.352 350.484 124.414C350.555 124.476 350.639 124.522 350.731 124.547C350.868 124.561 351.005 124.561 351.141 124.547C351.658 124.605 352.181 124.598 352.696 124.526Z" fill="#263238"/>
<path d="M352.231 136.307C355.51 136.22 358.691 135.201 361.385 133.372C361.385 133.372 359.226 138.398 352.35 137.996L352.231 136.307Z" fill="#EB996E"/>
<path d="M386.558 121.359C386.115 121.43 385.663 121.43 385.22 121.359C384.421 120.134 382.985 119.247 381.916 118.118C381.71 117.111 381.8 116.068 382.175 115.109C382.376 114.574 382.542 114.028 382.672 113.473C382.823 112.857 382.789 112.212 382.575 111.615C382.009 110.471 381.016 109.583 379.801 109.134C378.851 107.835 377.113 107.233 375.904 106.125C375.655 105.527 375.474 104.904 375.364 104.267C375.216 103.227 374.937 102.209 374.533 101.237C374.118 100.403 373.503 99.6782 372.741 99.1257C371.859 98.4519 370.807 98.025 369.697 97.8906C368.919 97.4949 368.08 97.224 367.214 97.0882C365.901 96.9011 364.562 97.0124 363.3 97.4133C362.039 97.8143 360.888 98.4942 359.939 99.4002C358.007 98.9225 355.996 98.8297 354.027 99.1271C352.057 99.4245 350.169 100.106 348.475 101.132C346.92 101.939 345.654 103.191 344.848 104.721C344.307 106.155 344.075 107.682 344.168 109.208C344.168 110.263 344.168 111.393 344.168 112.48C344.138 112.761 344.194 113.044 344.33 113.293C344.487 113.454 344.679 113.578 344.892 113.654C345.106 113.731 345.334 113.759 345.56 113.737L350.731 113.927C351.081 113.971 351.437 113.916 351.756 113.768C352.026 113.597 352.244 113.357 352.386 113.075C352.529 112.792 352.591 112.477 352.566 112.164C352.566 111.688 352.566 110.717 352.566 110.443C352.735 111.104 352.941 111.756 353.181 112.396C353.228 112.746 353.348 113.084 353.533 113.387C353.719 113.69 353.967 113.953 354.261 114.159C354.73 114.357 355.241 114.44 355.75 114.402C356.495 114.402 357.24 114.402 357.985 114.402C358.364 114.425 358.741 114.333 359.064 114.138C359.268 113.923 359.412 113.661 359.482 113.376C359.552 113.091 359.546 112.794 359.464 112.512C359.266 111.773 359.147 111.016 359.107 110.253C359.777 111.541 360.101 113.145 360.921 113.356C361.755 113.479 362.607 113.417 363.414 113.177C364.246 112.924 364.829 112.723 365.433 112.533C365.382 112.871 365.299 113.203 365.185 113.525C364.559 115.183 363.145 116.777 363.63 118.477C364.116 120.176 365.865 120.767 366.772 122.108C367.192 122.882 367.428 123.739 367.462 124.615C367.495 125.491 367.326 126.362 366.966 127.165C366.234 128.757 365.596 130.389 365.055 132.053C364.656 133.752 364.936 135.79 366.361 136.835C367.549 137.533 368.933 137.84 370.312 137.711L382.855 137.817C383.663 137.872 384.475 137.786 385.252 137.564C385.642 137.452 385.995 137.242 386.275 136.955C386.556 136.668 386.754 136.313 386.849 135.927C386.875 135.46 386.785 134.995 386.585 134.57C386.386 134.145 386.084 133.774 385.705 133.489C384.941 132.905 384.294 132.19 383.795 131.377C383.136 129.994 383.795 128.379 384.507 127.038C385.22 125.698 386.083 124.241 385.813 122.742C385.751 122.372 385.627 122.015 385.446 121.686C385.854 121.706 386.263 121.66 386.655 121.549C387.019 121.458 387.361 121.297 387.659 121.074C387.853 120.926 387.94 120.831 387.929 120.81C387.502 121.057 387.04 121.242 386.558 121.359ZM370.528 98.3656C371.244 98.5956 371.91 98.9535 372.493 99.4213C373.191 99.96 373.746 100.655 374.112 101.448C374.479 102.394 374.729 103.379 374.857 104.383C374.857 104.594 374.943 104.816 374.986 105.038C374.382 103.982 374.079 102.789 373.551 101.702C372.868 100.347 371.824 99.1977 370.528 98.3762V98.3656ZM380.243 109.978C381.038 110.365 381.674 111.006 382.046 111.794C382.289 112.86 382.16 113.975 381.679 114.961C381.37 115.755 381.252 116.607 381.333 117.453C381.112 117.16 380.931 116.841 380.794 116.502C379.973 114.497 380.999 112.026 380.254 110.031L380.243 109.978Z" fill="#263238"/>
<path d="M353.041 126.964C353.097 126.675 353.225 126.403 353.413 126.173C353.601 125.943 353.844 125.762 354.12 125.645C354.312 125.559 354.52 125.514 354.73 125.514C354.941 125.514 355.149 125.559 355.34 125.645C355.531 125.745 355.687 125.9 355.787 126.088C355.888 126.276 355.927 126.49 355.902 126.7C355.846 126.927 355.724 127.132 355.549 127.29C355.374 127.448 355.155 127.552 354.919 127.587C354.451 127.66 353.972 127.631 353.516 127.503C353.386 127.479 353.262 127.433 353.149 127.366C353.093 127.332 353.048 127.283 353.021 127.225C352.994 127.166 352.986 127.101 352.998 127.038" fill="#EB996E"/>
<path d="M355.384 124.526C355.459 124.526 355.578 124.779 355.546 125.223C355.488 125.821 355.213 126.38 354.769 126.795C354.319 127.206 353.732 127.443 353.117 127.461C352.653 127.461 352.394 127.334 352.405 127.271C352.415 127.207 353.484 127.197 354.38 126.394C355.276 125.592 355.233 124.526 355.384 124.526Z" fill="#263238"/>
<path d="M338.954 149.049C338.954 149.049 318.044 166.827 317.505 164.642C314.558 152.871 315.346 137.849 315.864 132.106C316.188 131.609 316.566 131.05 317.008 130.459C317.548 129.793 318.193 129.215 318.919 128.748C319.788 128.106 320.743 127.584 321.758 127.197C322.718 126.922 322.837 125.666 322.038 125.37C321.24 125.075 318.53 125.74 316.047 127.767C313.565 129.794 314.579 124.98 314.914 123.217C315.249 121.454 315.993 115.964 315.551 115.447C314.86 114.697 313.878 115.299 313.575 117.062C313.273 118.825 312.021 124.072 311.082 123.882C310.143 123.692 311.978 114.739 311.978 114.739C311.978 114.739 312.69 112.881 311.611 112.628C309.646 112.153 308.426 121.791 308.372 122.71C308.308 123.343 307.293 123.174 307.379 122.488C307.466 121.802 309.42 113.599 307.379 113.103C305.857 112.723 306.3 121.021 304.929 122.53C303.558 124.04 305.253 116.196 303.785 115.88C303.234 115.774 302.802 115.763 302.5 120.387C302.424 124.112 302.561 127.837 302.91 131.546C301.615 144.214 299.078 183.117 317.03 181.776C338.219 180.203 343.099 163.829 343.099 163.829L338.954 149.049Z" fill="#FFBE9D"/>
<path d="M397.526 177.31L393.899 159.533C391.233 144.975 370.367 143.972 370.367 143.972L353.991 143.708C353.991 143.708 343.089 143.37 334.356 150.369C325.623 157.368 319.772 162.763 319.772 162.763L333.471 178.261L341.588 172.982C341.588 172.982 338.663 178.134 339.149 182.483C339.613 186.706 344.147 189.937 344.147 189.937L340.736 225.693L394.212 223.581L387.325 177.31H397.526Z" fill="#FF725E"/>
<path d="M394.978 163.417C394.805 163.869 394.596 164.307 394.352 164.727C392.498 167.873 389.518 170.235 385.986 171.356C383.113 172.238 380.038 172.271 377.146 171.451C375.457 170.982 373.887 170.173 372.536 169.076C371.02 167.88 370.05 166.145 369.838 164.251C369.765 163.228 369.986 162.206 370.476 161.299C370.967 160.393 371.706 159.638 372.612 159.121C373.107 158.867 373.65 158.716 374.208 158.68C374.766 158.644 375.325 158.722 375.85 158.91C376.915 159.293 377.829 159.995 378.462 160.915C379.125 161.848 379.5 162.947 379.542 164.083C379.558 165.224 379.307 166.355 378.808 167.387C377.759 169.478 376.161 171.26 374.177 172.549C372.137 173.932 369.837 174.907 367.41 175.418C364.984 175.929 362.477 175.966 360.036 175.526C357.546 175.08 355.191 174.087 353.149 172.623C351.135 171.213 349.604 169.241 348.756 166.965C347.969 164.735 348.05 162.299 348.982 160.124C349.424 159.072 350.129 158.145 351.032 157.429C351.936 156.713 353.009 156.231 354.153 156.028C355.271 155.857 356.413 156.09 357.369 156.682C358.324 157.275 359.026 158.186 359.345 159.248C359.57 160.288 359.377 161.373 358.806 162.277C358.284 163.152 357.541 163.879 356.647 164.389C354.915 165.226 352.946 165.471 351.055 165.085C349.347 164.788 347.671 164.34 346.046 163.745C343.192 162.828 340.635 161.193 338.63 159.005C337.162 157.299 336.315 155.163 336.223 152.934C336.151 151.533 336.472 150.138 337.152 148.902C337.39 148.476 337.688 148.085 338.037 147.74C338.037 147.74 337.713 148.131 337.249 148.954C336.632 150.187 336.357 151.555 336.45 152.924C336.575 155.09 337.424 157.156 338.868 158.804C340.855 160.93 343.379 162.506 346.187 163.375C347.788 163.948 349.439 164.379 351.12 164.663C352.909 165.025 354.771 164.791 356.409 163.998C357.232 163.539 357.917 162.877 358.395 162.077C358.902 161.265 359.069 160.293 358.859 159.364C358.565 158.425 357.932 157.622 357.079 157.103C356.226 156.585 355.209 156.387 354.218 156.545C353.164 156.739 352.177 157.188 351.347 157.852C350.517 158.516 349.871 159.374 349.468 160.345C348.589 162.402 348.52 164.703 349.274 166.806C350.083 168.979 351.547 170.86 353.473 172.201C355.449 173.606 357.721 174.562 360.122 174.998C364.909 175.856 369.848 174.82 373.853 172.116C375.757 170.886 377.295 169.185 378.311 167.186C378.777 166.223 379.013 165.169 379.002 164.104C378.961 163.073 378.616 162.076 378.009 161.232C377.444 160.395 376.625 159.753 375.667 159.395C375.207 159.231 374.718 159.161 374.229 159.19C373.741 159.219 373.263 159.346 372.828 159.564C372.004 160.041 371.332 160.731 370.884 161.558C370.436 162.385 370.231 163.317 370.291 164.251C370.386 165.13 370.658 165.982 371.092 166.758C371.525 167.533 372.112 168.217 372.817 168.77C374.109 169.845 375.622 170.637 377.253 171.092C380.069 171.924 383.073 171.924 385.889 171.092C388.009 170.452 389.954 169.352 391.578 167.873C392.608 166.938 393.504 165.873 394.244 164.705L394.784 163.776L394.978 163.417Z" fill="white"/>
<path d="M392.744 217.743L392.452 217.87C392.258 217.934 391.966 218.06 391.578 218.166C390.433 218.5 389.252 218.698 388.059 218.757C386.164 218.861 384.266 218.647 382.445 218.124C380.022 217.435 377.801 216.19 375.969 214.492C374.25 212.87 372.91 210.904 372.042 208.728C371.174 206.552 370.797 204.219 370.938 201.887C371.003 200.101 371.514 198.357 372.428 196.809C372.933 195.999 373.629 195.318 374.458 194.824C375.321 194.325 376.316 194.083 377.318 194.128C377.839 194.139 378.352 194.254 378.825 194.466C379.299 194.679 379.723 194.984 380.071 195.363C380.777 196.146 381.162 197.158 381.15 198.203C381.152 199.242 380.841 200.26 380.254 201.127C379.662 201.985 378.902 202.72 378.02 203.291C376.237 204.426 374.228 205.178 372.126 205.497C367.961 206.119 363.706 205.282 360.111 203.133C358.408 202.126 356.917 200.811 355.718 199.258C354.521 197.781 353.74 196.023 353.451 194.159C353.321 193.261 353.384 192.346 353.637 191.474C353.89 190.601 354.327 189.79 354.919 189.092C355.486 188.414 356.233 187.902 357.078 187.614C357.913 187.346 358.81 187.324 359.658 187.551C360.487 187.745 361.238 188.175 361.817 188.786C362.377 189.38 362.699 190.152 362.724 190.961C362.708 191.701 362.524 192.428 362.186 193.091C361.848 193.753 361.365 194.335 360.77 194.793C359.75 195.649 358.559 196.289 357.273 196.672C356.148 197.038 354.98 197.262 353.797 197.337C351.897 197.452 349.994 197.168 348.216 196.503C347.105 196.071 346.062 195.488 345.118 194.772C344.868 194.589 344.63 194.392 344.405 194.18C344.254 194.043 344.179 193.969 344.189 193.959C344.2 193.948 344.524 194.223 345.183 194.677C347.677 196.454 350.744 197.29 353.818 197.031C354.974 196.943 356.113 196.709 357.208 196.334C358.443 195.959 359.583 195.333 360.554 194.497C361.097 194.076 361.539 193.542 361.847 192.934C362.155 192.327 362.321 191.66 362.335 190.982C362.273 190.26 361.972 189.577 361.477 189.038C360.982 188.498 360.321 188.132 359.593 187.994C358.837 187.793 358.037 187.815 357.294 188.057C356.526 188.32 355.846 188.783 355.33 189.398C354.788 190.049 354.39 190.802 354.159 191.611C353.929 192.419 353.872 193.265 353.991 194.096C354.268 195.867 355.012 197.537 356.15 198.942C357.311 200.441 358.755 201.709 360.403 202.679C363.885 204.747 368 205.554 372.029 204.959C374.052 204.651 375.986 203.932 377.707 202.848C378.546 202.372 379.25 201.699 379.755 200.89C380.26 200.08 380.55 199.16 380.6 198.213C380.619 197.306 380.305 196.422 379.714 195.722C379.412 195.401 379.047 195.142 378.641 194.961C378.235 194.78 377.796 194.68 377.35 194.666C376.451 194.63 375.559 194.846 374.781 195.289C374.023 195.739 373.383 196.357 372.914 197.094C372.046 198.573 371.557 200.236 371.489 201.94C371.388 203.557 371.537 205.18 371.932 206.754C372.658 209.591 374.171 212.177 376.303 214.228C378.077 215.904 380.229 217.148 382.586 217.86C385.514 218.734 388.63 218.811 391.599 218.081C392.323 217.86 392.733 217.722 392.744 217.743Z" fill="white"/>
<path d="M374.641 158.414C374.788 158.776 374.886 159.156 374.932 159.543C375.105 160.398 375.31 161.443 375.559 162.71C376.109 165.476 376.822 169.044 377.599 173.003C378.376 176.962 379.056 180.689 379.488 183.338C379.693 184.669 379.855 185.745 379.941 186.506C380.013 186.892 380.035 187.286 380.006 187.677C379.868 187.309 379.773 186.927 379.725 186.537C379.553 185.682 379.337 184.648 379.088 183.423C378.538 180.657 377.836 177.089 377.048 173.119C376.26 169.15 375.591 165.444 375.17 162.784C374.954 161.454 374.803 160.377 374.717 159.617C374.635 159.221 374.61 158.816 374.641 158.414Z" fill="#263238"/>
<path d="M397.86 177.458C394.577 177.751 391.279 177.854 387.983 177.764C384.689 177.866 381.391 177.789 378.106 177.532C381.389 177.238 384.687 177.133 387.983 177.215C391.277 177.12 394.575 177.201 397.86 177.458Z" fill="#263238"/>
<path d="M333.471 178.229C331.066 175.779 328.796 173.207 326.67 170.522C324.399 167.959 322.277 165.273 320.312 162.478C322.718 164.922 324.988 167.491 327.113 170.174C329.377 172.746 331.499 175.435 333.471 178.229Z" fill="#263238"/>
<path d="M368.909 144.024C368.099 144.215 367.269 144.308 366.437 144.299C364.904 144.383 362.788 144.436 360.446 144.404C358.103 144.373 355.998 144.257 354.466 144.119C353.634 144.104 352.807 143.987 352.004 143.771C352.83 143.688 353.662 143.688 354.487 143.771L360.457 143.898L366.426 143.95C367.254 143.896 368.086 143.921 368.909 144.024Z" fill="#263238"/>
<path d="M339.277 177.574C339.501 176.836 339.816 176.126 340.216 175.463L341.382 173.204C341.966 172.403 342.252 171.43 342.192 170.448C341.792 168.337 341.404 166.331 341.177 164.917C341 164.151 340.913 163.368 340.918 162.583C341.225 163.309 341.443 164.067 341.566 164.843C341.9 166.257 342.343 168.179 342.742 170.375C342.858 170.947 342.791 171.541 342.548 172.074C342.337 172.541 342.099 172.996 341.836 173.436C341.382 174.217 340.961 174.956 340.573 175.653C340.216 176.339 339.781 176.983 339.277 177.574Z" fill="#263238"/>
<path d="M295.915 341.861V330.977L315.853 330.851L316.026 347.129L314.784 347.214C309.279 347.562 286.794 348.269 283.102 347.119C278.979 345.873 295.915 341.861 295.915 341.861Z" fill="#FF725E"/>
<path d="M282.628 346.126C282.628 346.306 290.087 346.454 299.295 346.454C308.503 346.454 315.951 346.306 315.951 346.126C315.951 345.947 308.492 345.789 299.295 345.789C290.098 345.789 282.628 345.947 282.628 346.126Z" fill="#263238"/>
<path d="M295.56 344.11C295.722 344.026 295.56 343.445 295.161 342.885C294.761 342.326 294.211 342.009 294.081 342.136C293.952 342.263 294.221 342.748 294.61 343.276C294.999 343.804 295.398 344.173 295.56 344.11Z" fill="#263238"/>
<path d="M294.286 344.807C294.458 344.743 294.372 344.099 293.983 343.413C293.595 342.727 293.077 342.358 292.904 342.442C292.731 342.527 293.012 343.107 293.368 343.741C293.724 344.374 294.091 344.87 294.286 344.807Z" fill="#263238"/>
<path d="M309.949 346.052C310.024 346.105 310.316 345.82 310.747 345.335C311.278 344.715 311.863 344.143 312.496 343.624C313.124 343.144 313.867 342.828 314.655 342.706C315.26 342.621 315.659 342.706 315.735 342.621C315.81 342.537 315.389 342.273 314.655 342.231C313.726 342.223 312.822 342.529 312.097 343.096C311.405 343.642 310.823 344.307 310.38 345.06C310.024 345.62 309.873 346 309.949 346.052Z" fill="#263238"/>
<path d="M295.506 341.999C295.409 342.146 295.743 342.526 296.316 342.738C296.888 342.949 297.395 342.864 297.395 342.685C297.395 342.505 297.017 342.294 296.521 342.115C296.024 341.935 295.603 341.882 295.506 341.999Z" fill="#263238"/>
<path d="M295.819 340.943C295.819 341.122 296.327 341.281 297.007 341.291C297.687 341.302 298.216 341.165 298.194 340.975C298.173 340.785 297.654 340.637 297.007 340.626C296.359 340.616 295.83 340.806 295.819 340.943Z" fill="#263238"/>
<path d="M338.015 341.861V330.977L357.953 330.851L358.126 347.129L356.884 347.214C351.39 347.562 328.894 348.269 325.202 347.119C321.079 345.873 338.015 341.861 338.015 341.861Z" fill="#FF725E"/>
<path d="M324.737 346.126C324.737 346.306 332.196 346.454 341.393 346.454C350.59 346.454 358.049 346.306 358.049 346.126C358.049 345.947 350.601 345.789 341.393 345.789C332.186 345.789 324.737 345.947 324.737 346.126Z" fill="#263238"/>
<path d="M337.659 344.11C337.831 344.026 337.659 343.445 337.259 342.885C336.86 342.326 336.309 342.009 336.18 342.136C336.05 342.263 336.32 342.748 336.709 343.276C337.097 343.804 337.497 344.173 337.659 344.11Z" fill="#263238"/>
<path d="M336.396 344.807C336.568 344.743 336.471 344.099 336.082 343.413C335.694 342.727 335.176 342.358 335.003 342.442C334.83 342.527 335.111 343.107 335.467 343.741C335.823 344.374 336.19 344.87 336.396 344.807Z" fill="#263238"/>
<path d="M352.048 346.052C352.123 346.105 352.426 345.82 352.857 345.335C353.382 344.71 353.967 344.137 354.606 343.624C355.232 343.141 355.976 342.824 356.765 342.706C357.369 342.621 357.769 342.706 357.844 342.621C357.92 342.537 357.51 342.273 356.765 342.231C355.836 342.223 354.932 342.529 354.207 343.096C353.518 343.644 352.937 344.31 352.49 345.06C352.123 345.62 351.972 346 352.048 346.052Z" fill="#263238"/>
<path d="M337.605 341.999C337.507 342.146 337.842 342.526 338.414 342.738C338.986 342.949 339.494 342.864 339.494 342.685C339.494 342.505 339.116 342.294 338.619 342.115C338.123 341.935 337.702 341.882 337.605 341.999Z" fill="#263238"/>
<path d="M337.917 340.943C337.917 341.122 338.425 341.281 339.105 341.291C339.785 341.302 340.314 341.165 340.303 340.975C340.292 340.785 339.753 340.637 339.116 340.626C338.479 340.616 337.928 340.806 337.917 340.943Z" fill="#263238"/>
<path d="M399.76 191.541C398.681 183.001 397.526 177.49 397.526 177.49L378.516 177.775C378.516 177.775 380.222 187.16 379.693 189.673C379.24 191.868 342.549 193.315 332.985 193.463C332.424 193.051 331.592 193.748 330.826 193.125C330.173 192.565 329.622 191.901 329.196 191.161C328.626 190.257 328.186 189.28 327.89 188.258C327.875 188.055 327.793 187.862 327.657 187.707C327.522 187.552 327.338 187.445 327.135 187.4C326.932 187.355 326.719 187.375 326.529 187.457C326.338 187.54 326.179 187.68 326.076 187.857C325.688 188.659 326.076 191.319 327.933 193.895C329.79 196.471 324.997 195.131 323.248 194.677C321.499 194.223 316.048 193.061 315.476 193.494C314.656 194.117 315.174 195.12 316.923 195.542C318.671 195.965 323.842 197.569 323.561 198.477C323.281 199.385 314.44 196.936 314.44 196.936C314.44 196.936 312.626 196.102 312.281 197.147C311.622 199.026 321.219 200.937 322.136 201.095C322.773 201.201 322.503 202.204 321.823 202.056C321.143 201.908 313.058 199.406 312.367 201.317C311.849 202.784 320.247 202.953 321.64 204.41C323.032 205.867 315.282 203.618 314.839 205.044C314.677 205.571 317.894 205.814 322.525 206.448C327.285 206.9 332.068 207.069 336.849 206.954C347.644 207.524 385.587 208.295 393.704 207.736C403.182 207.081 400.116 194.476 399.76 191.541Z" fill="#FFBE9D"/>
<path d="M312.194 221.65C328.56 220.053 345.037 219.848 361.439 221.037L340.627 250.269L321.845 250.343L317.915 340.151H293.012L295.387 239.976C295.494 235.463 297.246 231.136 300.328 227.776C303.41 224.415 307.618 222.243 312.194 221.65Z" fill="#263238"/>
<path opacity="0.2" d="M312.194 221.65C328.56 220.053 345.037 219.848 361.439 221.037L340.627 250.269L321.845 250.343L317.915 340.151H293.012L295.387 239.976C295.494 235.463 297.246 231.136 300.328 227.776C303.41 224.415 307.618 222.243 312.194 221.65Z" fill="black"/>
<path d="M357.92 252.571C357.92 252.571 395.129 255.041 394.201 222.367C394.201 222.367 342.462 216.213 332.553 226.653C324.241 235.405 331.84 340.151 331.84 340.151L359.507 338.831" fill="#263238"/>
<path d="M365.66 220.594C365.416 220.623 365.17 220.623 364.926 220.594L362.821 220.678C360.997 220.752 358.363 220.9 355.103 221.132L349.781 221.533C347.87 221.713 345.819 221.871 343.725 222.241C341.52 222.637 339.353 223.217 337.248 223.972C335.09 224.785 332.931 225.999 331.851 228.195C330.874 230.337 330.251 232.618 330.005 234.951C329.738 237.138 329.583 239.337 329.541 241.539C329.444 245.762 329.239 249.562 329.099 252.761C328.958 255.96 328.861 258.462 328.786 260.309C328.786 261.164 328.732 261.84 328.71 262.368C328.716 262.608 328.697 262.849 328.656 263.086C328.608 262.849 328.589 262.608 328.602 262.368C328.602 261.903 328.602 261.206 328.602 260.309C328.602 258.525 328.602 255.939 328.732 252.74C328.861 249.541 328.98 245.741 329.055 241.528C329.079 239.309 329.227 237.092 329.498 234.888C329.736 232.492 330.37 230.149 331.376 227.952C331.939 226.824 332.781 225.851 333.827 225.123C334.83 224.442 335.918 223.888 337.065 223.476C339.206 222.719 341.409 222.144 343.65 221.755C345.809 221.396 347.86 221.248 349.77 221.09C351.681 220.932 353.484 220.837 355.114 220.752C358.352 220.573 361.018 220.488 362.853 220.467C363.76 220.467 364.472 220.467 364.958 220.467C365.196 220.485 365.431 220.527 365.66 220.594Z" fill="#455A64"/>
<path d="M359.722 332.012C359.372 332.115 359.009 332.172 358.643 332.181C357.941 332.244 356.905 332.328 355.631 332.413C353.094 332.592 349.575 332.793 345.689 332.983C341.803 333.173 338.284 333.321 335.737 333.395C334.463 333.395 333.427 333.458 332.714 333.458C332.354 333.487 331.991 333.469 331.635 333.405C331.987 333.31 332.349 333.256 332.714 333.247C333.427 333.173 334.452 333.099 335.726 333.015C338.263 332.835 341.782 332.635 345.668 332.434C349.554 332.233 353.073 332.107 355.62 332.022C356.894 332.022 357.93 331.97 358.643 331.97C359.003 331.941 359.365 331.955 359.722 332.012Z" fill="#455A64"/>
<path d="M318.736 333.236C318.736 333.384 312.961 333.511 305.782 333.511C298.604 333.511 292.829 333.384 292.829 333.236C292.829 333.089 298.615 332.962 305.782 332.962C312.95 332.962 318.736 333.078 318.736 333.236Z" fill="#455A64"/>
<path d="M330.168 232.407C330.064 232.423 329.958 232.423 329.855 232.407L328.937 232.333C328.138 232.259 326.951 232.164 325.418 232.101C323.885 232.038 322.007 231.974 319.837 232.101C318.68 232.15 317.526 232.267 316.383 232.449C315.11 232.613 313.878 232.999 312.745 233.589C312.153 233.892 311.676 234.373 311.385 234.962C311.105 235.614 310.87 236.284 310.684 236.968C310.287 238.429 309.987 239.913 309.788 241.412C309.475 244.579 309.194 247.905 308.935 251.441C308.417 258.525 308.039 266.316 307.737 274.498C307.175 290.882 306.538 305.704 306.085 316.44C305.848 321.772 305.653 326.1 305.513 329.109C305.427 330.576 305.373 331.737 305.329 332.561C305.329 332.93 305.329 333.226 305.265 333.458C305.277 333.56 305.277 333.663 305.265 333.764C305.253 333.662 305.253 333.56 305.265 333.458V332.561C305.265 331.727 305.265 330.576 305.351 329.098C305.437 326.058 305.578 321.708 305.74 316.43C306.128 305.662 306.657 290.85 307.229 274.487C307.532 266.305 307.931 258.504 308.471 251.42C308.744 247.901 309.046 244.548 309.377 241.359C309.585 239.84 309.903 238.337 310.327 236.862C310.513 236.157 310.759 235.469 311.061 234.803C311.393 234.144 311.929 233.604 312.594 233.262C313.777 232.661 315.06 232.272 316.383 232.111C317.542 231.942 318.71 231.84 319.881 231.805C321.749 231.752 323.619 231.791 325.483 231.921C327.016 232.027 328.203 232.164 329.002 232.259L329.919 232.396C330.002 232.391 330.086 232.394 330.168 232.407Z" fill="#455A64"/>
<path d="M388.005 221.745C388.021 221.867 388.021 221.991 388.005 222.114C388.005 222.357 387.951 222.726 387.864 223.17C387.604 224.562 387.097 225.898 386.364 227.118C385.404 228.69 384.094 230.031 382.532 231.039C380.97 232.048 379.195 232.7 377.34 232.946C375.746 233.083 374.146 233.129 372.547 233.083H355.513C354.434 233.083 353.354 233.083 352.339 233.083C351.279 233.122 350.237 233.366 349.274 233.801C348.28 234.249 347.386 234.886 346.645 235.674C345.904 236.463 345.33 237.386 344.956 238.393C344.582 239.444 344.414 240.554 344.459 241.666V245.16C344.459 249.858 344.459 254.724 344.459 259.718C344.459 279.649 344.395 297.723 344.373 310.792C344.373 317.295 344.308 322.584 344.287 326.269C344.287 328.074 344.287 329.436 344.287 330.492C344.287 330.946 344.287 331.305 344.287 331.547C344.287 331.79 344.287 331.917 344.287 331.917C344.272 331.794 344.272 331.67 344.287 331.547C344.287 331.273 344.287 330.914 344.287 330.492C344.287 329.436 344.287 328.085 344.287 326.269C344.287 322.584 344.287 317.295 344.2 310.792C344.2 297.691 344.146 279.649 344.114 259.718C344.114 254.724 344.114 249.858 344.114 245.16V241.708C344.075 240.534 344.262 239.363 344.664 238.256C345.066 237.182 345.682 236.198 346.477 235.361C347.273 234.523 348.231 233.849 349.295 233.378C350.315 232.926 351.415 232.671 352.534 232.629C353.613 232.629 354.693 232.629 355.772 232.629H361.86L372.784 232.692C374.365 232.747 375.947 232.715 377.523 232.597C379.338 232.369 381.077 231.748 382.614 230.778C384.151 229.808 385.447 228.514 386.407 226.991C387.155 225.8 387.691 224.494 387.994 223.128C388.091 222.663 388.134 222.304 388.177 222.072C388.221 221.84 388.005 221.745 388.005 221.745Z" fill="#455A64"/>
<path d="M358.288 245.329C358.508 248.121 358.344 250.929 357.802 253.679C357.613 252.278 357.613 250.858 357.802 249.457C357.784 248.066 357.947 246.679 358.288 245.329Z" fill="#455A64"/>
<path d="M203.795 185.006C203.795 185.006 202.597 175.685 203.536 175.685C204.475 175.685 205.058 185.006 205.058 185.006H203.482" fill="#263238"/>
<path d="M206.904 185.006C206.904 185.006 205.705 175.685 206.655 175.685C207.605 175.685 208.167 185.006 208.167 185.006H206.591" fill="#FF725E"/>
<path opacity="0.3" d="M206.904 185.006C206.904 185.006 205.705 175.685 206.655 175.685C207.605 175.685 208.167 185.006 208.167 185.006H206.591" fill="black"/>
<path d="M211.664 185.006C211.664 185.006 210.466 175.685 211.416 175.685C212.365 175.685 212.927 185.006 212.927 185.006H211.351" fill="#263238"/>
<path d="M208.879 185.492C208.879 185.492 208.879 176.107 209.829 176.223C210.779 176.339 210.132 185.65 210.132 185.65L208.566 185.46" fill="#455A64"/>
<path d="M205.965 185.006C205.965 185.006 204.767 175.685 205.717 175.685C206.667 175.685 207.228 185.006 207.228 185.006H205.652" fill="#FF725E"/>
<path opacity="0.5" d="M205.965 185.006C205.965 185.006 204.767 175.685 205.717 175.685C206.667 175.685 207.228 185.006 207.228 185.006H205.652" fill="white"/>
<path d="M203.6 199.67L202.014 185.006H214.73V199.67H203.6Z" fill="#FF725E"/>
<path d="M473.972 199.733H193V207.07H208.026L200.243 347.098H204.529L212.312 207.07H458.644L465.283 347.076L470.021 347.319L462.929 207.07H473.972V199.733Z" fill="#263238"/>
<path d="M284.981 156.397L300.569 200.926H371.122L370.593 198.625L342.063 197.77L328.926 156.376L284.981 156.397Z" fill="#263238"/>
<path d="M316.253 177.31C316.717 179.137 315.918 180.921 314.461 181.301C313.004 181.681 311.46 180.509 310.996 178.683C310.532 176.856 311.33 175.072 312.777 174.692C314.223 174.312 315.789 175.484 316.253 177.31Z" fill="white"/>
<path d="M452.772 186.115C451.514 185.203 449.961 184.768 448.4 184.89C448.4 184.056 448.4 183.55 448.4 183.55H424.468C424.468 183.55 423.724 198.973 435.792 199.522C441.189 199.765 444.298 197.411 446.068 194.413C446.952 194.624 447.858 194.734 448.767 194.74C450.106 194.789 451.425 194.419 452.534 193.684C453.139 193.219 453.618 192.615 453.931 191.927C454.243 191.239 454.379 190.487 454.326 189.736C454.361 189.057 454.239 188.379 453.97 187.753C453.701 187.126 453.292 186.566 452.772 186.115ZM451.142 191.847C450.062 192.597 448.292 192.481 447.105 192.27C447.707 190.635 448.099 188.932 448.271 187.202C449.317 187.078 450.376 187.317 451.261 187.878C451.518 188.116 451.716 188.407 451.841 188.731C451.967 189.055 452.015 189.402 451.984 189.747C452.027 190.138 451.971 190.534 451.823 190.9C451.674 191.266 451.437 191.591 451.131 191.847H451.142Z" fill="#FF725E"/>
<path d="M446.382 181.924C446.161 181.733 445.968 181.512 445.81 181.269C445.33 180.581 444.996 179.805 444.827 178.989C444.541 177.685 444.665 176.327 445.184 175.093C446.011 173.552 447.149 172.191 448.53 171.092C450.091 169.696 451.151 167.845 451.552 165.814C452.03 163.504 451.569 161.104 450.268 159.121C449.573 158.058 448.671 157.139 447.612 156.418C446.467 155.71 445.224 155.166 443.921 154.803C442.505 154.42 441.181 153.767 440.024 152.882C439.441 152.388 438.97 151.78 438.642 151.098C438.282 150.389 438.179 149.58 438.351 148.807L438.448 148.49L438.804 148.838C438.179 149.118 437.646 149.563 437.265 150.122C436.883 150.681 436.669 151.334 436.645 152.005C436.575 153.348 436.881 154.684 437.53 155.869C438.124 157.083 438.858 158.223 439.387 159.459C439.983 160.659 440.243 161.992 440.142 163.322C439.972 164.601 439.345 165.779 438.372 166.648C437.487 167.454 436.474 168.114 435.371 168.601C433.277 169.53 431.215 170.079 429.575 171.04C428.088 171.882 426.91 173.16 426.207 174.692C425.672 175.85 425.396 177.106 425.397 178.377C425.431 179.458 425.642 180.528 426.023 181.544C426.023 181.544 426.023 181.48 425.915 181.354C425.812 181.168 425.725 180.974 425.656 180.773C425.366 180.001 425.206 179.188 425.181 178.366C425.139 177.054 425.394 175.749 425.926 174.544C426.624 172.933 427.83 171.583 429.37 170.691C431.256 169.746 433.195 168.904 435.177 168.168C436.222 167.697 437.181 167.063 438.016 166.289C438.902 165.493 439.472 164.416 439.624 163.249C439.712 162.007 439.462 160.765 438.901 159.649C438.383 158.466 437.649 157.326 437.034 156.07C436.328 154.801 436.002 153.363 436.095 151.921C436.174 151.172 436.425 150.451 436.829 149.81C437.249 149.139 437.887 148.626 438.642 148.353L439.149 148.184L438.998 148.701L438.923 148.965C438.831 149.632 438.92 150.311 439.181 150.934C439.443 151.557 439.867 152.101 440.412 152.512C441.516 153.342 442.773 153.955 444.115 154.317C445.465 154.703 446.752 155.275 447.936 156.017C449.054 156.775 450.002 157.748 450.721 158.878C452.081 160.972 452.55 163.503 452.027 165.93C451.569 168.031 450.434 169.932 448.789 171.356C447.424 172.409 446.29 173.719 445.453 175.21C444.935 176.383 444.785 177.68 445.022 178.936C445.231 180.022 445.696 181.045 446.382 181.924Z" fill="#263238"/>
<path d="M225.87 161.348L225.73 151.256L261.903 154.254L262.928 163.259L225.87 161.348Z" fill="#263238"/>
<path d="M229.853 161.559C229.512 159.923 229.35 158.257 229.367 156.587C229.212 154.924 229.241 153.25 229.453 151.594C229.795 153.23 229.954 154.897 229.928 156.566C230.091 158.228 230.065 159.903 229.853 161.559Z" fill="#455A64"/>
<path d="M231.213 151.71C231.529 153.341 231.66 155.002 231.602 156.661C231.738 158.319 231.68 159.988 231.429 161.633C231.119 159.998 230.988 158.334 231.04 156.672C230.911 155.017 230.969 153.352 231.213 151.71Z" fill="#455A64"/>
<path d="M234.505 156.197C240.809 156.872 248.214 157.252 254.626 157.822L234.505 156.197Z" fill="white"/>
<path d="M254.626 157.78C253.641 157.849 252.651 157.831 251.669 157.727C249.834 157.643 247.351 157.485 244.544 157.284C241.738 157.083 239.244 156.851 237.431 156.64C236.441 156.576 235.461 156.413 234.505 156.154C235.492 156.096 236.482 156.128 237.463 156.249L244.577 156.735C247.362 156.936 249.877 157.147 251.69 157.347C252.681 157.395 253.665 157.54 254.626 157.78Z" fill="#455A64"/>
<path d="M257.272 162.963C256.747 159.984 256.594 156.953 256.818 153.937C257.343 156.917 257.495 159.948 257.272 162.963Z" fill="#455A64"/>
<path d="M259.55 163.08C259.121 161.615 258.875 160.105 258.816 158.582C258.568 157.078 258.51 155.55 258.643 154.032C259.064 155.499 259.31 157.008 259.377 158.53C259.618 160.034 259.675 161.562 259.55 163.08Z" fill="#455A64"/>
<path d="M239.87 158.414C243.853 158.677 246.887 158.867 250.06 158.941L239.87 158.414Z" fill="white"/>
<path d="M250.06 158.941C248.364 159.129 246.651 159.129 244.954 158.941C243.245 158.941 241.54 158.76 239.87 158.403C241.567 158.215 243.279 158.215 244.976 158.403C246.686 158.404 248.39 158.584 250.06 158.941Z" fill="#455A64"/>
<path d="M232.865 199.86L231.882 189.81L268.174 189.873L270.149 199.733L232.865 199.86Z" fill="#FF725E"/>
<path opacity="0.5" d="M232.865 199.86L231.882 189.81L268.174 189.873L270.149 199.733L232.865 199.86Z" fill="white"/>
<path d="M240.164 193.737L240.161 195.552L262.862 195.591L262.865 193.775L240.164 193.737Z" fill="#263238"/>
<path d="M227.749 190.654L226.875 180.604L263.166 181.037L264.861 189.958L227.749 190.654Z" fill="#263238"/>
<path d="M226.993 181.966L227.565 188.754L262.863 188.406L261.74 182.198L226.993 181.966Z" fill="white"/>
<path d="M259.884 184.975C259.464 185.051 259.037 185.079 258.611 185.059H255.135C252.199 185.059 248.151 185.059 243.682 184.954C239.213 184.848 235.165 184.774 232.229 184.679L228.763 184.531C228.335 184.542 227.907 184.499 227.49 184.405C227.909 184.327 228.337 184.299 228.763 184.32H232.239C235.165 184.32 239.213 184.32 243.692 184.426C248.172 184.531 252.209 184.605 255.145 184.7L258.611 184.848C259.039 184.838 259.467 184.88 259.884 184.975Z" fill="#263238"/>
<path d="M259.883 185.83C259.462 185.924 259.031 185.966 258.599 185.957L255.101 186.094C252.155 186.189 248.074 186.273 243.573 186.337C239.072 186.4 234.937 186.421 232.033 186.411H228.536C228.105 186.431 227.674 186.4 227.251 186.315C227.675 186.235 228.105 186.193 228.536 186.189L232.033 186.052C234.98 185.967 239.061 185.883 243.562 185.819C248.063 185.756 252.144 185.724 255.101 185.735H258.599C259.029 185.725 259.46 185.757 259.883 185.83Z" fill="#263238"/>
<path d="M228.288 181.058L227.608 170.987L263.889 172.106L265.4 181.048L228.288 181.058Z" fill="#455A64"/>
<path d="M229.723 179.791L265.032 179.295L264.05 173.024L229.065 172.391L229.723 179.791Z" fill="white"/>
<path d="M229.281 171.177L228.946 161.095L265.162 163.407L266.371 172.391L229.281 171.177Z" fill="#FF725E"/>
<path d="M236.699 163.788L236.587 165.604L259.288 166.936L259.4 165.12L236.699 163.788Z" fill="#263238"/>
<path d="M264.406 175.611C263.95 175.689 263.488 175.725 263.025 175.716L259.247 175.822C256.008 175.885 251.69 175.927 246.79 175.949C241.889 175.97 237.517 175.949 234.322 175.949L230.555 175.875C230.088 175.89 229.621 175.855 229.162 175.769C229.618 175.69 230.081 175.655 230.544 175.664L234.322 175.558C237.56 175.495 241.878 175.452 246.79 175.431C251.701 175.41 256.062 175.431 259.247 175.431L263.025 175.505C263.488 175.489 263.951 175.525 264.406 175.611Z" fill="#263238"/>
<path d="M264.828 177.564C264.364 177.639 263.894 177.668 263.424 177.648H259.625C256.386 177.648 251.971 177.648 247.07 177.553C242.17 177.458 237.744 177.405 234.527 177.31L230.727 177.173C230.26 177.17 229.795 177.127 229.335 177.046C229.794 176.962 230.261 176.93 230.727 176.951H234.527C237.766 176.951 242.181 176.951 247.081 177.036C251.982 177.12 256.419 177.194 259.635 177.289L263.435 177.426C263.903 177.42 264.37 177.466 264.828 177.564Z" fill="#263238"/>
</svg>
