<svg width="515" height="521" viewBox="0 0 515 521" fill="none" xmlns="http://www.w3.org/2000/svg">
<path d="M514.425 457.777H0V458.126H514.425V457.777Z" fill="#EBEBEB"/>
<path d="M134.131 471.087H53.9736V471.437H134.131V471.087Z" fill="#EBEBEB"/>
<path d="M462.88 481.728H423.887V482.078H462.88V481.728Z" fill="#EBEBEB"/>
<path d="M154.904 484.077H135.16V484.426H154.904V484.077Z" fill="#EBEBEB"/>
<path d="M252.438 467.299H208.002V467.648H252.438V467.299Z" fill="#EBEBEB"/>
<path d="M268.108 467.299H261.596V467.648H268.108V467.299Z" fill="#EBEBEB"/>
<path d="M381.591 475.828H337.124V476.177H381.591V475.828Z" fill="#EBEBEB"/>
<path d="M243.838 395.416H45.1769C43.6207 395.412 42.129 394.57 41.0295 393.073C39.93 391.576 39.3125 389.547 39.3125 387.432V7.91391C39.326 5.81103 39.9496 3.80033 41.0476 2.31855C42.1456 0.836775 43.6295 0.00360235 45.1769 0H243.838C245.396 0 246.89 0.841151 247.992 2.33841C249.093 3.83567 249.712 5.86638 249.712 7.98382V387.432C249.712 389.55 249.093 391.58 247.992 393.078C246.89 394.575 245.396 395.416 243.838 395.416ZM45.1769 0.279645C43.6889 0.283349 42.2627 1.0893 41.2114 2.52061C40.1601 3.95191 39.5697 5.8916 39.5697 7.91391V387.432C39.5697 389.455 40.1601 391.394 41.2114 392.826C42.2627 394.257 43.6889 395.063 45.1769 395.067H243.838C245.327 395.063 246.754 394.257 247.807 392.826C248.86 391.396 249.452 389.456 249.455 387.432V7.91391C249.452 5.89032 248.86 3.95065 247.807 2.51975C246.754 1.08885 245.327 0.283341 243.838 0.279645H45.1769Z" fill="#EBEBEB"/>
<path d="M466.388 395.416H267.717C266.16 395.412 264.668 394.57 263.566 393.074C262.465 391.577 261.845 389.549 261.843 387.432V7.91391C261.859 5.80975 262.485 3.79907 263.584 2.31768C264.684 0.836286 266.169 0.00356307 267.717 0H466.388C467.934 0.00727702 469.415 0.842076 470.511 2.32346C471.607 3.80484 472.229 5.81344 472.243 7.91391V387.432C472.243 389.545 471.626 391.571 470.529 393.068C469.432 394.564 467.943 395.409 466.388 395.416ZM267.717 0.279645C266.228 0.283341 264.801 1.08885 263.748 2.51975C262.695 3.95065 262.103 5.89032 262.1 7.91391V387.432C262.103 389.456 262.695 391.396 263.748 392.826C264.801 394.257 266.228 395.063 267.717 395.067H466.388C467.877 395.063 469.305 394.257 470.358 392.826C471.41 391.396 472.003 389.456 472.006 387.432V7.91391C472.003 5.89032 471.41 3.95065 470.358 2.51975C469.305 1.08885 467.877 0.283341 466.388 0.279645H267.717Z" fill="#EBEBEB"/>
<path d="M136.703 425.813H86.1457C85.0555 425.812 84.0022 425.277 83.1784 424.306C82.3547 423.336 81.8157 421.994 81.6599 420.528L69.0051 302.98C68.9104 302.103 68.956 301.209 69.1386 300.358C69.3212 299.507 69.6366 298.72 70.0633 298.05C70.49 297.38 71.0179 296.843 71.6112 296.475C72.2044 296.107 72.8491 295.917 73.5011 295.919H124.049C125.138 295.917 126.191 296.449 127.015 297.417C127.839 298.386 128.378 299.725 128.534 301.19L141.189 418.752C141.284 419.628 141.238 420.521 141.056 421.371C140.874 422.22 140.56 423.007 140.134 423.677C139.709 424.347 139.182 424.884 138.59 425.253C137.998 425.621 137.355 425.813 136.703 425.813Z" fill="#F0F0F0"/>
<path d="M92.1648 425.813H68.3264C67.2356 425.815 66.1811 425.281 65.3569 424.31C64.5327 423.338 63.9943 421.996 63.8406 420.528L51.1857 302.98C51.0912 302.104 51.1365 301.211 51.3185 300.361C51.5006 299.512 51.815 298.725 52.2406 298.055C52.6661 297.385 53.1928 296.848 53.7848 296.479C54.3768 296.111 55.0203 295.919 55.6715 295.919H79.51C80.5998 295.919 81.6533 296.452 82.4785 297.419C83.3037 298.387 83.8458 299.725 84.006 301.19L96.6506 418.752C96.7451 419.628 96.6998 420.521 96.5178 421.371C96.3358 422.22 96.0213 423.007 95.5957 423.677C95.1702 424.347 94.6435 424.884 94.0515 425.253C93.4595 425.621 92.816 425.813 92.1648 425.813Z" fill="#FAFAFA"/>
<path d="M393.865 266.123H148.155C141.91 266.123 136.426 272.485 135.891 280.329L129.718 371.087C129.183 378.931 133.833 385.293 140.006 385.293H385.696C391.941 385.293 397.424 378.931 397.959 371.087L404.133 280.329C404.729 272.485 400.11 266.123 393.865 266.123Z" fill="#E0E0E0"/>
<path d="M377.187 266.123H131.497C125.252 266.123 119.769 272.485 119.234 280.329L113.06 371.087C112.525 378.931 117.176 385.293 123.349 385.293H369.038C375.283 385.293 380.777 378.931 381.302 371.087L387.475 280.329C388.051 272.485 383.432 266.123 377.187 266.123Z" fill="#E6E6E6"/>
<path d="M207.827 415.76V383.433C207.827 377.881 204.515 373.38 200.43 373.38H107.885C103.799 373.38 100.487 377.881 100.487 383.433V415.76C100.487 421.312 103.799 425.813 107.885 425.813H200.43C204.515 425.813 207.827 421.312 207.827 415.76Z" fill="#EBEBEB"/>
<path d="M355.838 416.613V382.58C355.838 377.499 352.807 373.38 349.068 373.38H241.059C237.321 373.38 234.29 377.499 234.29 382.58V416.613C234.29 421.694 237.321 425.813 241.059 425.813H349.068C352.807 425.813 355.838 421.694 355.838 416.613Z" fill="#E0E0E0"/>
<path d="M329.365 416.599V382.566C329.365 377.485 326.334 373.366 322.595 373.366H214.587C210.848 373.366 207.817 377.485 207.817 382.566V416.599C207.817 421.68 210.848 425.799 214.587 425.799H322.595C326.334 425.799 329.365 421.68 329.365 416.599Z" fill="#EBEBEB"/>
<path d="M393.195 425.813H355.591C354.958 425.833 354.331 425.645 353.762 425.266C353.194 424.887 352.701 424.328 352.325 423.635C351.948 422.943 351.7 422.138 351.601 421.289C351.501 420.439 351.554 419.569 351.753 418.752L375.417 301.19C375.727 299.704 376.379 298.392 377.276 297.444C378.174 296.495 379.271 295.961 380.407 295.919H418.011C418.643 295.902 419.269 296.091 419.836 296.471C420.404 296.851 420.895 297.411 421.27 298.103C421.645 298.794 421.893 299.598 421.991 300.447C422.09 301.296 422.038 302.164 421.839 302.98L398.175 420.528C397.87 422.017 397.221 423.333 396.325 424.284C395.429 425.236 394.332 425.771 393.195 425.813Z" fill="#F0F0F0"/>
<path d="M361.6 425.813H337.761C337.129 425.83 336.503 425.641 335.936 425.261C335.369 424.881 334.877 424.321 334.502 423.63C334.127 422.938 333.88 422.134 333.781 421.285C333.682 420.436 333.735 419.568 333.934 418.752L357.598 301.19C357.907 299.703 358.558 298.389 359.455 297.441C360.353 296.492 361.451 295.959 362.587 295.919H386.436C387.069 295.9 387.696 296.087 388.265 296.466C388.833 296.845 389.326 297.405 389.702 298.097C390.079 298.789 390.327 299.594 390.426 300.444C390.526 301.293 390.473 302.163 390.274 302.98L366.61 420.528C366.3 422.021 365.647 423.34 364.745 424.291C363.843 425.242 362.741 425.776 361.6 425.813Z" fill="#FAFAFA"/>
<path d="M341.66 457.777H338.038L329.365 425.813H338.337L341.66 457.777Z" fill="#E0E0E0"/>
<path d="M387.567 457.777H383.946L375.272 425.813H384.234L387.567 457.777Z" fill="#E0E0E0"/>
<path d="M126.621 457.777H130.243L138.906 425.813H129.944L126.621 457.777Z" fill="#E0E0E0"/>
<path d="M80.7129 457.777H84.3344L92.9974 425.813H84.0464L80.7129 457.777Z" fill="#E0E0E0"/>
<path d="M394.389 59.662H120.036V192.647H394.389V59.662Z" fill="#E0E0E0"/>
<path d="M391.869 59.662H117.516V192.647H391.869V59.662Z" fill="#F0F0F0"/>
<path d="M383.648 181.461V70.8477L125.757 70.8477V181.461L383.648 181.461Z" fill="#FAFAFA"/>
<path d="M254.702 159.313C268.18 159.313 279.106 144.464 279.106 126.147C279.106 107.83 268.18 92.9816 254.702 92.9816C241.224 92.9816 230.298 107.83 230.298 126.147C230.298 144.464 241.224 159.313 254.702 159.313Z" fill="#F0F0F0"/>
<path d="M167.61 181.461L184.71 70.8477H222.427L205.338 181.461H167.61Z" fill="white"/>
<path d="M221.254 181.461L238.353 70.8477H257.212L240.123 181.461H221.254Z" fill="white"/>
<path d="M336.424 181.461L353.523 70.8477H372.382L355.293 181.461H336.424Z" fill="white"/>
<path d="M455.039 275.113C448.64 312.865 464.299 351.764 457.889 389.46L451.552 389.096L445.214 388.747C455.842 351.274 444.463 312.572 455.039 275.113Z" fill="#F0F0F0"/>
<path d="M438.63 291.459C443.877 327.505 427.045 363.551 432.293 399.597H444.978C435.503 363.537 448.106 327.505 438.63 291.459Z" fill="#F0F0F0"/>
<path d="M450.348 261.467C441.953 299.904 457.55 341.389 449.155 379.826L442.261 378.945L435.368 378.078C448.363 340.242 437.354 299.344 450.348 261.467Z" fill="#E6E6E6"/>
<path d="M462.704 316.85C465.41 337.628 450.358 353.973 453.023 374.764L458.167 376.037L463.311 377.309C457.138 355.679 468.816 338.481 462.704 316.85Z" fill="#E6E6E6"/>
<path d="M447.57 468.263C466.691 468.263 482.191 444.675 482.191 415.578C482.191 386.481 466.691 362.894 447.57 362.894C428.449 362.894 412.949 386.481 412.949 415.578C412.949 444.675 428.449 468.263 447.57 468.263Z" fill="#E0E0E0"/>
<path d="M257.212 520.92C367.384 520.92 456.696 513.834 456.696 505.092C456.696 496.351 367.384 489.265 257.212 489.265C147.04 489.265 57.7285 496.351 57.7285 505.092C57.7285 513.834 147.04 520.92 257.212 520.92Z" fill="#F5F5F5"/>
<path d="M394.873 307.035H172.538C171.977 307.036 171.422 306.881 170.907 306.58C170.391 306.279 169.927 305.838 169.541 305.284C169.156 304.731 168.858 304.075 168.665 303.359C168.473 302.643 168.391 301.881 168.423 301.12L175.933 115.87C176.013 114.28 176.531 112.788 177.383 111.692C178.235 110.597 179.359 109.977 180.532 109.956H402.867C403.428 109.954 403.983 110.109 404.498 110.41C405.014 110.711 405.478 111.152 405.864 111.706C406.249 112.26 406.547 112.915 406.74 113.631C406.932 114.347 407.015 115.109 406.982 115.87L399.492 301.12C399.417 302.718 398.898 304.217 398.04 305.315C397.183 306.413 396.051 307.027 394.873 307.035Z" fill="#263238"/>
<path d="M301.34 141.457H279.848C278.163 141.485 276.493 141.04 274.941 140.149C273.389 139.258 271.99 137.941 270.831 136.28C269.671 134.619 268.777 132.65 268.204 130.498C267.631 128.345 267.392 126.054 267.501 123.77L267.717 118.373C267.947 113.767 269.445 109.447 271.911 106.274C274.378 103.1 277.634 101.304 281.031 101.245H302.513C304.197 101.219 305.867 101.666 307.418 102.557C308.969 103.449 310.367 104.767 311.526 106.427C312.685 108.087 313.58 110.055 314.153 112.207C314.727 114.359 314.967 116.648 314.859 118.932L314.643 124.329C314.409 128.931 312.912 133.244 310.448 136.417C307.984 139.589 304.734 141.388 301.34 141.457Z" fill="#263238"/>
<path d="M320.908 499.248H314.025L295.063 105.37H301.957L320.908 499.248Z" fill="#263238"/>
<path d="M269.22 499.248H276.113L295.064 105.37H288.181L269.22 499.248Z" fill="#263238"/>
<path d="M393.689 307.035H171.355C170.794 307.036 170.238 306.881 169.723 306.58C169.208 306.279 168.743 305.838 168.358 305.284C167.972 304.731 167.674 304.075 167.482 303.359C167.29 302.643 167.207 301.881 167.239 301.12L174.719 115.87C174.799 114.28 175.316 112.788 176.169 111.692C177.021 110.597 178.145 109.977 179.318 109.956H401.652C402.213 109.954 402.769 110.109 403.284 110.41C403.799 110.711 404.264 111.152 404.649 111.706C405.035 112.26 405.333 112.915 405.525 113.631C405.717 114.347 405.8 115.109 405.768 115.87L398.278 301.12C398.203 302.711 397.688 304.204 396.837 305.301C395.986 306.397 394.862 307.017 393.689 307.035Z" fill="#12B7B6"/>
<path opacity="0.1" d="M391.991 207.929H327.019C326.637 207.936 326.258 207.835 325.906 207.633C325.554 207.431 325.236 207.132 324.973 206.755C324.71 206.378 324.508 205.931 324.378 205.443C324.249 204.954 324.195 204.434 324.221 203.916L327.461 123.672C327.464 123.6 327.456 123.527 327.438 123.458C327.42 123.39 327.391 123.327 327.355 123.273C327.319 123.22 327.275 123.177 327.226 123.147C327.177 123.117 327.124 123.101 327.071 123.099C326.957 123.102 326.849 123.163 326.767 123.269C326.685 123.375 326.636 123.519 326.628 123.672L323.387 203.916C323.334 204.987 322.987 205.993 322.416 206.735C321.845 207.478 321.091 207.904 320.301 207.929H252.788C252.405 207.936 252.026 207.835 251.674 207.633C251.322 207.431 251.005 207.132 250.742 206.755C250.479 206.378 250.276 205.931 250.147 205.443C250.017 204.954 249.963 204.434 249.989 203.916L253.23 123.672C253.233 123.6 253.225 123.527 253.206 123.458C253.188 123.39 253.16 123.327 253.124 123.273C253.087 123.22 253.043 123.177 252.994 123.147C252.945 123.117 252.893 123.101 252.839 123.099C252.726 123.102 252.618 123.163 252.536 123.269C252.454 123.375 252.404 123.519 252.397 123.672L249.156 203.916C249.102 204.987 248.756 205.993 248.185 206.735C247.614 207.478 246.859 207.904 246.069 207.929H181.077C180.963 207.929 180.853 207.988 180.771 208.095C180.689 208.202 180.64 208.348 180.634 208.502C180.632 208.574 180.64 208.646 180.658 208.714C180.676 208.782 180.705 208.844 180.741 208.896C180.778 208.948 180.822 208.99 180.871 209.019C180.92 209.047 180.972 209.062 181.025 209.061H245.966C246.349 209.056 246.728 209.159 247.08 209.362C247.432 209.566 247.75 209.866 248.013 210.244C248.275 210.622 248.478 211.07 248.607 211.56C248.737 212.049 248.79 212.569 248.765 213.088L245.524 293.318C245.518 293.392 245.524 293.466 245.541 293.537C245.558 293.607 245.586 293.672 245.623 293.726C245.66 293.78 245.705 293.823 245.756 293.852C245.806 293.88 245.86 293.894 245.915 293.891C246.028 293.888 246.136 293.828 246.218 293.722C246.3 293.615 246.35 293.472 246.357 293.318L249.598 213.088C249.647 212.013 249.992 211.002 250.563 210.256C251.135 209.511 251.892 209.084 252.685 209.061H320.167C320.557 209.039 320.947 209.128 321.31 209.324C321.673 209.519 322.002 209.817 322.275 210.197C322.548 210.577 322.758 211.031 322.893 211.529C323.028 212.027 323.084 212.559 323.058 213.088L319.817 293.318C319.811 293.392 319.817 293.466 319.834 293.537C319.851 293.607 319.879 293.672 319.916 293.726C319.953 293.78 319.999 293.823 320.049 293.852C320.099 293.88 320.154 293.894 320.208 293.891C320.321 293.888 320.429 293.828 320.511 293.722C320.593 293.615 320.643 293.472 320.65 293.318L323.891 213.088C323.94 212.013 324.285 211.002 324.857 210.256C325.428 209.511 326.185 209.084 326.978 209.061H391.919C392.03 209.059 392.137 209 392.219 208.897C392.3 208.794 392.351 208.653 392.361 208.502C392.365 208.431 392.359 208.36 392.343 208.292C392.326 208.225 392.3 208.162 392.265 208.109C392.231 208.056 392.189 208.012 392.142 207.981C392.094 207.95 392.043 207.932 391.991 207.929Z" fill="white"/>
<path opacity="0.4" d="M286.072 137.641H259.99L258.529 173.701L284.58 174.651L286.072 137.641Z" fill="#263238"/>
<path d="M283.253 173.099L257.068 171.365C258.511 159.187 259.421 146.903 259.795 134.578L286.123 136.312C285.701 148.641 284.743 160.925 283.253 173.099Z" fill="white"/>
<path opacity="0.4" d="M317.524 161.732L291.401 164.444L291.978 200.378L318.11 198.617L317.524 161.732Z" fill="#263238"/>
<path d="M316.691 197.219L290.373 198.211C291.131 185.973 291.351 173.684 291.031 161.41L317.494 160.39C317.765 172.677 317.497 184.975 316.691 197.219Z" fill="#EE786C"/>
<path opacity="0.4" d="M241.245 227.294L193.095 224.805L188.764 283.013L236.811 287.04L241.245 227.294Z" fill="#263238"/>
<path d="M234.413 284.411L186.222 279.084C189.425 259.548 191.659 239.742 192.909 219.8L241.389 225.113C240.051 245.071 237.721 264.882 234.413 284.411Z" fill="white"/>
<g style="mix-blend-mode:multiply" opacity="0.3">
<path d="M191.685 145.792C191.334 145.795 190.987 145.7 190.665 145.513C190.342 145.326 190.051 145.051 189.81 144.705C189.569 144.359 189.383 143.949 189.263 143.501C189.143 143.053 189.092 142.577 189.113 142.101C189.167 141.112 189.491 140.185 190.023 139.505C190.554 138.824 191.254 138.439 191.984 138.424C192.334 138.421 192.681 138.516 193.003 138.703C193.325 138.89 193.615 139.166 193.855 139.512C194.096 139.858 194.281 140.268 194.4 140.716C194.518 141.164 194.568 141.64 194.545 142.115C194.494 143.103 194.172 144.029 193.642 144.71C193.112 145.391 192.414 145.777 191.685 145.792Z" fill="#263238"/>
<path opacity="0.8" d="M234.228 145.792H200.821C200.471 145.795 200.124 145.7 199.802 145.513C199.48 145.325 199.19 145.05 198.949 144.704C198.709 144.358 198.524 143.948 198.405 143.5C198.286 143.052 198.237 142.576 198.259 142.101C198.306 141.109 198.626 140.177 199.157 139.493C199.687 138.809 200.388 138.422 201.119 138.409H234.578C234.928 138.407 235.276 138.502 235.598 138.689C235.921 138.876 236.212 139.151 236.453 139.497C236.694 139.843 236.88 140.253 237 140.701C237.12 141.149 237.171 141.625 237.15 142.101C237.098 143.105 236.767 144.044 236.224 144.73C235.682 145.415 234.968 145.795 234.228 145.792Z" fill="#263238"/>
<path d="M191.037 161.885C190.686 161.89 190.338 161.797 190.015 161.61C189.692 161.424 189.4 161.149 189.159 160.802C188.917 160.456 188.731 160.045 188.612 159.597C188.493 159.148 188.443 158.67 188.465 158.194C188.515 157.194 188.842 156.256 189.38 155.571C189.919 154.886 190.629 154.504 191.367 154.503C191.717 154.5 192.064 154.595 192.386 154.782C192.708 154.97 192.998 155.245 193.238 155.591C193.479 155.937 193.664 156.347 193.783 156.795C193.901 157.243 193.951 157.719 193.928 158.194C193.879 159.192 193.553 160.128 193.017 160.812C192.481 161.497 191.773 161.881 191.037 161.885Z" fill="#263238"/>
<path opacity="0.8" d="M239.496 161.885H200.173C199.823 161.888 199.475 161.793 199.153 161.606C198.83 161.419 198.539 161.144 198.298 160.798C198.057 160.452 197.871 160.042 197.751 159.594C197.631 159.146 197.58 158.67 197.601 158.194C197.653 157.202 197.976 156.273 198.508 155.589C199.039 154.906 199.74 154.518 200.472 154.503H239.794C240.145 154.5 240.493 154.595 240.815 154.782C241.138 154.969 241.428 155.244 241.67 155.59C241.911 155.937 242.097 156.346 242.217 156.794C242.337 157.242 242.388 157.718 242.367 158.194C242.315 159.186 241.992 160.116 241.46 160.799C240.929 161.483 240.228 161.87 239.496 161.885Z" fill="#263238"/>
<path d="M190.337 177.965C189.987 177.97 189.64 177.876 189.318 177.691C188.996 177.505 188.706 177.231 188.465 176.886C188.225 176.541 188.039 176.132 187.921 175.685C187.802 175.238 187.752 174.762 187.775 174.288C187.822 173.296 188.142 172.364 188.672 171.68C189.203 170.995 189.904 170.608 190.635 170.596C190.986 170.591 191.334 170.685 191.658 170.871C191.981 171.058 192.272 171.333 192.514 171.679C192.755 172.026 192.941 172.436 193.061 172.885C193.18 173.334 193.23 173.811 193.207 174.288C193.156 175.278 192.832 176.206 192.3 176.888C191.768 177.569 191.067 177.953 190.337 177.965Z" fill="#263238"/>
<path opacity="0.8" d="M218.661 177.965H199.514C199.165 177.97 198.818 177.876 198.496 177.691C198.174 177.505 197.884 177.231 197.643 176.886C197.403 176.541 197.217 176.132 197.098 175.685C196.98 175.238 196.93 174.762 196.953 174.288C196.999 173.296 197.32 172.364 197.85 171.68C198.381 170.995 199.082 170.608 199.813 170.596H218.96C219.31 170.591 219.658 170.685 219.981 170.872C220.304 171.058 220.594 171.333 220.835 171.68C221.076 172.027 221.261 172.437 221.379 172.886C221.497 173.335 221.546 173.812 221.522 174.288C221.472 175.277 221.151 176.205 220.621 176.886C220.091 177.568 219.391 177.953 218.661 177.965Z" fill="#263238"/>
<path opacity="0.8" d="M236.389 194.058H217.242C216.892 194.061 216.545 193.966 216.223 193.779C215.901 193.592 215.61 193.316 215.37 192.97C215.13 192.624 214.945 192.214 214.826 191.766C214.707 191.318 214.658 190.842 214.68 190.367C214.729 189.376 215.05 188.447 215.58 187.763C216.11 187.079 216.81 186.691 217.54 186.676H236.687C237.037 186.673 237.384 186.768 237.706 186.955C238.028 187.142 238.319 187.418 238.559 187.764C238.799 188.11 238.985 188.52 239.103 188.968C239.222 189.416 239.272 189.892 239.249 190.367C239.2 191.358 238.879 192.287 238.349 192.971C237.819 193.655 237.119 194.043 236.389 194.058Z" fill="#263238"/>
<path d="M189.73 194.058C189.38 194.061 189.033 193.966 188.711 193.779C188.389 193.592 188.099 193.316 187.858 192.97C187.618 192.624 187.433 192.214 187.314 191.766C187.195 191.318 187.146 190.842 187.168 190.367C187.217 189.376 187.539 188.447 188.069 187.763C188.598 187.079 189.298 186.691 190.029 186.676C190.379 186.673 190.726 186.768 191.048 186.955C191.37 187.142 191.66 187.418 191.9 187.764C192.141 188.11 192.326 188.52 192.445 188.968C192.563 189.416 192.613 189.892 192.59 190.367C192.541 191.358 192.22 192.287 191.69 192.971C191.161 193.655 190.461 194.043 189.73 194.058Z" fill="#263238"/>
<path opacity="0.8" d="M207.704 194.058H198.866C198.516 194.061 198.169 193.966 197.847 193.779C197.525 193.592 197.235 193.316 196.994 192.97C196.754 192.624 196.569 192.214 196.45 191.766C196.331 191.318 196.282 190.842 196.304 190.367C196.353 189.376 196.674 188.447 197.204 187.763C197.734 187.079 198.434 186.691 199.164 186.676H208.002C208.353 186.671 208.701 186.765 209.025 186.951C209.348 187.137 209.639 187.412 209.881 187.759C210.122 188.105 210.308 188.516 210.428 188.965C210.547 189.414 210.597 189.891 210.574 190.367C210.525 191.36 210.202 192.292 209.67 192.976C209.138 193.66 208.436 194.047 207.704 194.058Z" fill="#263238"/>
</g>
<path d="M272.789 241.934H259.836L258.056 285.991H271.009L272.789 241.934Z" fill="#EE786C"/>
<path d="M292.45 251.022H279.487L278.077 285.991H291.03L292.45 251.022Z" fill="#EE786C"/>
<path d="M313.409 227.56H300.456L298.1 285.991H311.053L313.409 227.56Z" fill="#EE786C"/>
<path d="M262.727 266.794C261.44 266.794 260.144 266.794 258.837 266.654C256.149 266.593 253.492 265.863 250.998 264.501C250.795 264.376 250.637 264.147 250.558 263.864C250.479 263.581 250.485 263.267 250.576 262.991C250.621 262.854 250.686 262.732 250.767 262.629C250.847 262.527 250.942 262.448 251.046 262.396C251.149 262.344 251.259 262.32 251.369 262.326C251.479 262.332 251.587 262.368 251.687 262.431C253.982 263.666 256.421 264.329 258.889 264.389C274.435 265.48 288.047 259.971 301.751 247.079C306.027 243.04 309.79 238.081 312.893 232.398C312.952 232.266 313.03 232.152 313.123 232.062C313.216 231.973 313.321 231.91 313.432 231.878C313.543 231.846 313.658 231.845 313.769 231.876C313.88 231.906 313.986 231.967 314.079 232.055C314.173 232.142 314.252 232.255 314.312 232.386C314.372 232.517 314.412 232.663 314.429 232.816C314.446 232.969 314.44 233.124 314.411 233.274C314.383 233.423 314.332 233.563 314.262 233.684C311.068 239.589 307.169 244.726 302.728 248.883C289.868 261.061 277.058 266.794 262.727 266.794Z" fill="white"/>
<path d="M316.228 241.095C316.091 241.095 315.956 241.049 315.835 240.962C315.713 240.874 315.61 240.747 315.534 240.592C315.457 240.437 315.41 240.259 315.397 240.074C315.383 239.888 315.404 239.701 315.456 239.529C316.634 235.654 316.885 231.374 316.177 227.294C312.928 230.267 309.459 232.77 305.826 234.761C305.724 234.822 305.614 234.855 305.503 234.857C305.391 234.859 305.281 234.831 305.177 234.775C305.074 234.718 304.98 234.633 304.901 234.526C304.822 234.419 304.76 234.292 304.718 234.151C304.676 234.011 304.655 233.86 304.656 233.709C304.658 233.557 304.682 233.408 304.727 233.269C304.772 233.13 304.836 233.005 304.917 232.901C304.999 232.797 305.094 232.716 305.199 232.663C309.075 230.535 312.758 227.81 316.177 224.54C316.284 224.442 316.405 224.38 316.533 224.356C316.661 224.333 316.791 224.349 316.913 224.405C317.035 224.46 317.146 224.553 317.238 224.675C317.33 224.798 317.399 224.948 317.442 225.113C318.639 230.116 318.482 235.536 317 240.395C316.936 240.603 316.829 240.78 316.692 240.904C316.555 241.029 316.393 241.095 316.228 241.095Z" fill="white"/>
<path d="M384.45 197.666H336.259C335.861 197.671 335.466 197.564 335.099 197.352C334.733 197.14 334.402 196.827 334.129 196.433C333.855 196.039 333.645 195.573 333.51 195.063C333.376 194.553 333.32 194.011 333.347 193.471L335.59 138.102C335.645 136.997 336.003 135.961 336.594 135.199C337.185 134.438 337.965 134.006 338.78 133.991H386.981C387.379 133.988 387.773 134.096 388.138 134.309C388.503 134.522 388.833 134.835 389.105 135.229C389.377 135.623 389.587 136.088 389.721 136.597C389.854 137.106 389.91 137.647 389.883 138.186L387.64 193.555C387.586 194.66 387.227 195.696 386.636 196.458C386.045 197.219 385.265 197.651 384.45 197.666ZM338.78 135.138C338.176 135.147 337.598 135.466 337.161 136.032C336.723 136.597 336.46 137.367 336.424 138.186L334.181 193.555C334.162 193.937 334.202 194.321 334.297 194.681C334.393 195.042 334.541 195.372 334.734 195.651C334.927 195.93 335.16 196.153 335.419 196.304C335.678 196.456 335.957 196.534 336.239 196.533H384.43C385.033 196.524 385.612 196.205 386.049 195.639C386.486 195.074 386.75 194.304 386.786 193.485L389.029 138.116C389.048 137.731 389.009 137.344 388.914 136.981C388.818 136.618 388.668 136.285 388.473 136.004C388.278 135.727 388.044 135.506 387.783 135.357C387.523 135.208 387.243 135.133 386.961 135.138H338.78Z" fill="#EE786C"/>
<path d="M389.008 149.889H335.508C335.408 149.868 335.318 149.799 335.253 149.695C335.187 149.591 335.151 149.459 335.151 149.323C335.151 149.186 335.187 149.054 335.253 148.95C335.318 148.846 335.408 148.778 335.508 148.756H389.008C389.068 148.743 389.129 148.748 389.188 148.771C389.247 148.794 389.301 148.833 389.347 148.887C389.394 148.941 389.431 149.008 389.456 149.083C389.482 149.158 389.495 149.24 389.495 149.323C389.495 149.405 389.482 149.487 389.456 149.563C389.431 149.638 389.394 149.705 389.347 149.758C389.301 149.812 389.247 149.852 389.188 149.874C389.129 149.897 389.068 149.902 389.008 149.889Z" fill="#EE786C"/>
<path d="M346.249 197.666C346.139 197.655 346.036 197.586 345.963 197.474C345.89 197.361 345.852 197.215 345.858 197.065L347.751 149.288C347.754 149.213 347.767 149.14 347.791 149.072C347.815 149.005 347.848 148.944 347.89 148.895C347.931 148.845 347.979 148.808 348.031 148.784C348.083 148.76 348.139 148.751 348.193 148.756C348.304 148.767 348.406 148.836 348.479 148.948C348.552 149.061 348.59 149.208 348.584 149.358L346.66 197.149C346.65 197.288 346.603 197.418 346.527 197.514C346.451 197.609 346.352 197.663 346.249 197.666Z" fill="#EE786C"/>
<path d="M382.887 155.566H353.863C353.764 155.544 353.673 155.476 353.608 155.372C353.543 155.268 353.507 155.136 353.507 154.999C353.507 154.863 353.543 154.731 353.608 154.627C353.673 154.523 353.764 154.454 353.863 154.433H382.887C382.947 154.42 383.009 154.425 383.067 154.448C383.126 154.47 383.18 154.51 383.227 154.564C383.273 154.617 383.31 154.684 383.336 154.759C383.361 154.835 383.374 154.916 383.374 154.999C383.374 155.082 383.361 155.164 383.336 155.239C383.31 155.314 383.273 155.381 383.227 155.435C383.18 155.489 383.126 155.528 383.067 155.551C383.009 155.573 382.947 155.578 382.887 155.566Z" fill="#EE786C"/>
<path d="M378.513 162.529H353.584C353.524 162.542 353.462 162.537 353.404 162.514C353.345 162.492 353.291 162.452 353.244 162.398C353.198 162.344 353.161 162.278 353.135 162.202C353.11 162.127 353.097 162.045 353.097 161.962C353.097 161.88 353.11 161.798 353.135 161.723C353.161 161.647 353.198 161.58 353.244 161.527C353.291 161.473 353.345 161.433 353.404 161.411C353.462 161.388 353.524 161.383 353.584 161.396H378.513C378.573 161.383 378.635 161.388 378.694 161.411C378.752 161.433 378.807 161.473 378.853 161.527C378.899 161.58 378.937 161.647 378.962 161.723C378.988 161.798 379.001 161.88 379.001 161.962C379.001 162.045 378.988 162.127 378.962 162.202C378.937 162.278 378.899 162.344 378.853 162.398C378.807 162.452 378.752 162.492 378.694 162.514C378.635 162.537 378.573 162.542 378.513 162.529Z" fill="#EE786C"/>
<path d="M367.804 169.716H353.297C353.237 169.728 353.175 169.723 353.117 169.701C353.058 169.678 353.004 169.639 352.957 169.585C352.911 169.531 352.874 169.464 352.848 169.389C352.823 169.314 352.81 169.232 352.81 169.149C352.81 169.066 352.823 168.985 352.848 168.909C352.874 168.834 352.911 168.767 352.957 168.714C353.004 168.66 353.058 168.62 353.117 168.598C353.175 168.575 353.237 168.57 353.297 168.583H367.804C367.864 168.57 367.926 168.575 367.984 168.598C368.043 168.62 368.097 168.66 368.144 168.714C368.19 168.767 368.227 168.834 368.253 168.909C368.278 168.985 368.291 169.066 368.291 169.149C368.291 169.232 368.278 169.314 368.253 169.389C368.227 169.464 368.19 169.531 368.144 169.585C368.097 169.639 368.043 169.678 367.984 169.701C367.926 169.723 367.864 169.728 367.804 169.716Z" fill="#EE786C"/>
<path d="M370.437 183.754H352.731C352.67 183.766 352.609 183.761 352.55 183.739C352.492 183.716 352.437 183.677 352.391 183.623C352.345 183.569 352.307 183.502 352.282 183.427C352.256 183.352 352.243 183.27 352.243 183.187C352.243 183.104 352.256 183.023 352.282 182.947C352.307 182.872 352.345 182.805 352.391 182.752C352.437 182.698 352.492 182.658 352.55 182.636C352.609 182.613 352.67 182.608 352.731 182.621H370.437C370.497 182.608 370.559 182.613 370.618 182.636C370.676 182.658 370.731 182.698 370.777 182.752C370.823 182.805 370.86 182.872 370.886 182.947C370.911 183.023 370.925 183.104 370.925 183.187C370.925 183.27 370.911 183.352 370.886 183.427C370.86 183.502 370.823 183.569 370.777 183.623C370.731 183.677 370.676 183.716 370.618 183.739C370.559 183.761 370.497 183.766 370.437 183.754Z" fill="#EE786C"/>
<path d="M366.95 190.941H352.433C352.334 190.919 352.244 190.851 352.178 190.747C352.113 190.643 352.077 190.511 352.077 190.374C352.077 190.238 352.113 190.106 352.178 190.002C352.244 189.898 352.334 189.829 352.433 189.808H366.95C367.05 189.829 367.14 189.898 367.205 190.002C367.271 190.106 367.307 190.238 367.307 190.374C367.307 190.511 367.271 190.643 367.205 190.747C367.14 190.851 367.05 190.919 366.95 190.941Z" fill="#EE786C"/>
<path d="M375.437 190.941H370.797C370.737 190.953 370.675 190.948 370.617 190.926C370.558 190.903 370.504 190.864 370.457 190.81C370.411 190.756 370.374 190.689 370.348 190.614C370.323 190.539 370.31 190.457 370.31 190.374C370.31 190.291 370.323 190.21 370.348 190.134C370.374 190.059 370.411 189.992 370.457 189.939C370.504 189.885 370.558 189.845 370.617 189.823C370.675 189.8 370.737 189.795 370.797 189.808H375.437C375.497 189.795 375.559 189.8 375.618 189.823C375.676 189.845 375.731 189.885 375.777 189.939C375.823 189.992 375.86 190.059 375.886 190.134C375.911 190.21 375.925 190.291 375.925 190.374C375.925 190.457 375.911 190.539 375.886 190.614C375.86 190.689 375.823 190.756 375.777 190.81C375.731 190.864 375.676 190.903 375.618 190.926C375.559 190.948 375.497 190.953 375.437 190.941Z" fill="#EE786C"/>
<path d="M380.19 176.693H353.008C352.896 176.693 352.789 176.632 352.709 176.525C352.63 176.417 352.586 176.271 352.586 176.119C352.586 175.967 352.63 175.822 352.709 175.714C352.789 175.607 352.896 175.546 353.008 175.546H380.19C380.302 175.546 380.409 175.607 380.488 175.714C380.567 175.822 380.612 175.967 380.612 176.119C380.612 176.271 380.567 176.417 380.488 176.525C380.409 176.632 380.302 176.693 380.19 176.693Z" fill="#EE786C"/>
<path d="M354.85 278.245C348.553 278.245 343.399 275.715 340.199 271.017C336.773 265.997 335.353 258.097 336.3 249.344C336.637 244.487 337.967 239.854 340.14 235.97C342.312 232.086 345.241 229.105 348.594 227.364C352.521 224.956 356.788 223.748 361.095 223.825C365.403 223.903 369.645 225.263 373.523 227.812C376.908 230.119 379.028 233.041 379.83 236.495C379.897 236.782 379.877 237.094 379.775 237.361C379.724 237.494 379.655 237.611 379.571 237.707C379.487 237.803 379.39 237.876 379.285 237.921C379.073 238.012 378.844 237.985 378.647 237.846C378.451 237.707 378.302 237.467 378.236 237.18C377.577 234.383 375.735 231.866 372.772 229.839C369.115 227.442 365.116 226.163 361.056 226.093C356.996 226.023 352.974 227.163 349.273 229.434C346.178 231.023 343.475 233.765 341.473 237.346C339.472 240.927 338.253 245.201 337.956 249.68C337.082 257.747 338.347 264.962 341.423 269.465C345.693 275.743 352.741 276.19 356.609 275.91C363.749 275.365 369.881 271.981 373.894 266.374C378.585 259.803 379.902 249.987 376.98 243.528C376.613 242.597 376.099 241.789 375.474 241.16C374.85 240.532 374.131 240.099 373.369 239.892C373.158 239.849 372.967 239.697 372.835 239.468C372.704 239.238 372.643 238.949 372.664 238.66C372.685 238.371 372.787 238.104 372.949 237.915C373.111 237.725 373.32 237.627 373.534 237.641C374.556 237.857 375.528 238.392 376.372 239.205C377.217 240.018 377.911 241.086 378.4 242.325C381.734 249.652 380.324 260.656 375.118 267.954C370.807 273.981 364.284 277.602 356.722 278.175C356.074 278.245 355.457 278.245 354.85 278.245Z" fill="white"/>
<path d="M141.282 159.872L138.308 166.863L135.407 174.036C133.493 178.832 131.662 183.67 129.995 188.522C129.162 190.969 128.37 193.387 127.649 195.82L127.516 196.268V196.366C127.48 196.426 127.449 196.492 127.423 196.561C127.369 196.692 127.321 196.828 127.279 196.967C127.214 197.494 127.257 198.036 127.402 198.533C127.972 200.44 128.815 202.175 129.882 203.636C131.142 205.473 132.486 207.201 133.905 208.81L131.487 215.801C130.353 215.376 129.243 214.843 128.164 214.207C127.102 213.57 126.071 212.841 125.077 212.026C122.767 210.205 120.784 207.707 119.274 204.713C118.346 202.785 117.729 200.612 117.464 198.337C117.34 197.075 117.34 195.796 117.464 194.534C117.505 193.906 117.584 193.284 117.7 192.674L117.865 191.766L117.988 191.206C118.657 188.41 119.336 185.516 120.139 182.817C121.703 177.336 123.472 172.023 125.386 166.863C126.353 164.291 127.341 161.732 128.39 159.215C129.44 156.698 130.448 154.237 131.682 151.693L141.282 159.872Z" fill="#FFC3BD"/>
<path d="M131.282 208.055L136.683 206.139L136.992 217.996C136.992 217.996 132.763 218.849 130.181 215.34L131.282 208.055Z" fill="#FFC3BD"/>
<path d="M144.348 204.14L143.123 214.556L136.991 217.996L136.683 206.139L144.348 204.14Z" fill="#FFC3BD"/>
<path d="M166.674 103.972C166.797 104.783 167.209 105.37 167.599 105.244C167.99 105.118 168.217 104.391 168.093 103.58C167.97 102.769 167.558 102.182 167.167 102.308C166.776 102.433 166.591 103.161 166.674 103.972Z" fill="#263238"/>
<path d="M167.188 105.37C168.271 107.653 169.58 109.723 171.078 111.522C170.731 112.031 170.306 112.43 169.833 112.691C169.36 112.952 168.851 113.069 168.341 113.032L167.188 105.37Z" fill="#ED847E"/>
<path d="M163.845 100.071C163.756 100.067 163.671 100.017 163.608 99.9308C163.574 99.8864 163.547 99.8332 163.529 99.7743C163.51 99.7155 163.501 99.6522 163.501 99.5882C163.501 99.5242 163.51 99.4609 163.529 99.4021C163.547 99.3432 163.574 99.29 163.608 99.2456C163.989 98.6584 164.468 98.2053 165.006 97.9253C165.543 97.6452 166.123 97.5465 166.695 97.6377C166.741 97.6478 166.785 97.6704 166.825 97.7042C166.865 97.738 166.899 97.7823 166.926 97.8344C166.953 97.8866 166.972 97.9456 166.981 98.0079C166.991 98.0701 166.992 98.1344 166.983 98.197C166.968 98.3248 166.916 98.4392 166.839 98.5152C166.762 98.5912 166.665 98.6226 166.571 98.6024C166.125 98.5464 165.674 98.6351 165.258 98.8611C164.841 99.0871 164.47 99.4441 164.174 99.9028C164.135 99.9678 164.084 100.018 164.026 100.047C163.968 100.076 163.906 100.085 163.845 100.071Z" fill="#263238"/>
<path d="M149.688 115.381C150.778 122.903 151.859 136.676 147.99 141.681C147.99 141.681 149.503 149.302 159.771 149.302C171.088 149.302 165.172 141.681 165.172 141.681C158.999 139.682 159.164 133.474 160.244 127.629L149.688 115.381Z" fill="#FFC3BD"/>
<path d="M145.757 143.08C144.934 140.996 144.019 138.605 145.901 137.85C147.959 137.025 161.272 135.501 165.182 137.053C163.978 139.948 166.005 143.513 166.005 143.513L145.757 143.08Z" fill="#263238"/>
<path d="M112.288 493.403C112.593 493.55 112.917 493.613 113.24 493.589C113.563 493.565 113.88 493.455 114.171 493.263C114.284 493.123 114.361 492.938 114.393 492.735C114.424 492.532 114.408 492.321 114.346 492.131C114.312 491.973 114.252 491.828 114.172 491.705C114.092 491.582 113.994 491.484 113.883 491.418C112.854 490.761 110.519 492.061 110.416 492.117C110.383 492.131 110.355 492.159 110.335 492.197C110.314 492.235 110.303 492.28 110.303 492.327C110.303 492.373 110.313 492.419 110.331 492.458C110.349 492.498 110.375 492.53 110.406 492.55C111.009 492.924 111.64 493.21 112.288 493.403ZM113.513 491.767C113.587 491.785 113.659 491.813 113.729 491.851C113.793 491.891 113.85 491.949 113.896 492.022C113.942 492.094 113.976 492.179 113.996 492.271C114.099 492.718 113.996 492.844 113.935 492.9C113.533 493.361 112.021 492.9 110.961 492.355C111.769 491.902 112.641 491.701 113.513 491.767Z" fill="#EE786C"/>
<path d="M110.448 492.578H110.53C111.384 492.243 113.215 490.481 113.236 489.32C113.239 489.137 113.196 488.957 113.114 488.812C113.031 488.667 112.915 488.565 112.783 488.523C112.654 488.46 112.517 488.435 112.38 488.45C112.244 488.464 112.111 488.518 111.991 488.607C110.962 489.32 110.335 492.159 110.314 492.284C110.3 492.321 110.292 492.362 110.292 492.403C110.292 492.445 110.3 492.486 110.314 492.522L110.448 492.578ZM112.588 488.943H112.66C112.886 489.055 112.886 489.194 112.886 489.264C112.886 489.949 111.662 491.334 110.828 491.893C111.068 490.765 111.548 489.758 112.207 488.999C112.327 488.927 112.46 488.908 112.588 488.943Z" fill="#EE786C"/>
<path d="M168.094 495.123C169.061 495.123 169.997 494.941 170.316 494.354C170.395 494.198 170.438 494.012 170.438 493.823C170.438 493.633 170.395 493.447 170.316 493.291C170.255 493.148 170.174 493.024 170.076 492.926C169.979 492.827 169.868 492.756 169.75 492.718C168.495 492.257 165.851 494.298 165.738 494.396C165.705 494.419 165.679 494.457 165.665 494.502C165.65 494.548 165.646 494.599 165.655 494.647C165.661 494.695 165.676 494.738 165.7 494.773C165.724 494.808 165.755 494.833 165.789 494.843C166.55 495.024 167.321 495.117 168.094 495.123ZM169.287 493.137C169.403 493.115 169.521 493.115 169.637 493.137C169.709 493.157 169.778 493.197 169.838 493.254C169.898 493.312 169.949 493.387 169.987 493.473C170.11 493.781 170.069 493.934 169.987 494.018C169.637 494.675 167.723 494.689 166.324 494.424C167.241 493.737 168.247 493.3 169.287 493.137Z" fill="#EE786C"/>
<path d="M165.81 494.843H165.882C166.798 494.284 168.598 492.047 168.464 490.9C168.464 490.621 168.289 490.285 167.795 490.215C167.612 490.187 167.426 490.21 167.25 490.282C167.073 490.354 166.908 490.474 166.767 490.635C165.81 491.711 165.604 494.48 165.594 494.592C165.595 494.635 165.602 494.677 165.616 494.716C165.631 494.755 165.651 494.789 165.676 494.815C165.696 494.832 165.718 494.843 165.741 494.848C165.764 494.852 165.787 494.851 165.81 494.843ZM167.651 490.649H167.754C168.084 490.649 168.104 490.858 168.104 490.914C168.186 491.613 166.962 493.361 166.046 494.116C166.135 492.942 166.496 491.836 167.075 490.956C167.253 490.764 167.476 490.664 167.703 490.677L167.651 490.649Z" fill="#EE786C"/>
<path d="M157.496 494.606H165.058L165.809 470.808H158.247L157.496 494.606Z" fill="#FFC3BD"/>
<path d="M102.021 489.852L109.408 492.019L116.826 469.871L109.439 467.69L102.021 489.852Z" fill="#FFC3BD"/>
<path d="M110.087 491.012L101.856 488.565C101.711 488.525 101.559 488.552 101.427 488.644C101.294 488.735 101.188 488.885 101.126 489.069L98.2452 497.57C98.175 497.776 98.1403 498.001 98.1438 498.228C98.1472 498.456 98.1887 498.679 98.2651 498.881C98.3414 499.083 98.4506 499.259 98.5845 499.395C98.7183 499.531 98.8732 499.624 99.0374 499.667C101.949 500.45 103.389 500.632 107.042 501.709C109.285 502.366 114.357 504.044 117.454 504.966C120.551 505.889 121.569 501.82 120.417 501.079C114.995 497.71 112.731 494.745 111.26 491.977C110.974 491.463 110.555 491.118 110.087 491.012Z" fill="#263238"/>
<path d="M165.007 493.417H156.776C156.627 493.416 156.482 493.485 156.366 493.612C156.249 493.74 156.169 493.918 156.138 494.116L154.647 503.247C154.609 503.466 154.609 503.694 154.646 503.914C154.683 504.133 154.756 504.338 154.86 504.514C154.964 504.689 155.097 504.83 155.247 504.925C155.397 505.02 155.561 505.068 155.727 505.064C158.71 505.064 163.011 504.771 166.756 504.771C171.129 504.771 174.905 505.092 180.039 505.092C183.125 505.092 184.01 500.828 182.703 500.436C176.798 498.689 171.962 498.493 166.859 494.214C166.308 493.719 165.667 493.443 165.007 493.417Z" fill="#263238"/>
<path d="M134.45 144.016C127.371 146.226 121.527 170.806 121.527 170.806L135.808 185.529C139.488 180.193 142.086 173.651 143.349 166.542C145.736 153.664 141.693 141.751 134.45 144.016Z" fill="#EE786C"/>
<path opacity="0.2" d="M134.45 144.016C127.371 146.226 121.527 170.806 121.527 170.806L135.808 185.529C139.488 180.193 142.086 173.651 143.349 166.542C145.736 153.664 141.693 141.751 134.45 144.016Z" fill="#FAFAFA"/>
<path opacity="0.2" d="M140.521 162.081C136.673 167.255 135.376 176.679 135.119 184.872L135.747 185.529C139.432 180.196 142.034 173.653 143.298 166.542C143.443 165.773 143.566 165.004 143.669 164.249L140.521 162.081Z" fill="black"/>
<path d="M176.799 144.534C176.799 144.534 184.844 156.88 177.241 233.321H136.838C136.56 224.931 140.46 183.74 134.472 144.002C138.943 142.834 143.466 142.058 148.011 141.681C153.734 141.234 159.471 141.234 165.193 141.681C169.11 142.22 172.991 143.174 176.799 144.534Z" fill="#EE786C"/>
<path opacity="0.2" d="M176.799 144.534C176.799 144.534 184.844 156.88 177.241 233.321H136.838C136.56 224.931 140.46 183.74 134.472 144.002C138.943 142.834 143.466 142.058 148.011 141.681C153.734 141.234 159.471 141.234 165.193 141.681C169.11 142.22 172.991 143.174 176.799 144.534Z" fill="#FAFAFA"/>
<path opacity="0.2" d="M180.326 167.898L180.172 167.716L170.985 170.708C170.46 179.098 176.849 189.249 180.141 193.863C180.548 185.219 180.61 176.551 180.326 167.898Z" fill="black"/>
<path opacity="0.2" d="M165.809 470.822L165.418 483.084H157.856L158.247 470.822H165.809Z" fill="black"/>
<path opacity="0.2" d="M109.429 467.69L116.826 469.871L112.999 481.295L105.602 479.113L109.429 467.69Z" fill="black"/>
<path d="M146.529 107.747C148.463 117.604 149.235 123.491 153.731 127.587C160.449 133.754 168.824 126.679 169.092 116.248C169.328 106.852 166.108 92.3244 158.33 90.3389C156.616 89.8849 154.845 90.0348 153.186 90.7742C151.527 91.5137 150.035 92.8182 148.852 94.5634C147.669 96.3086 146.834 98.4364 146.428 100.744C146.021 103.052 146.056 105.463 146.529 107.747Z" fill="#FFC3BD"/>
<path d="M149.853 123.812C152.939 126.203 164.164 118.219 161.86 106.055C161.86 106.055 166.14 99.0636 165.656 91.3454C165.172 83.6272 161.273 80.691 157.127 82.3548C153.474 83.7531 153.577 86.5495 153.577 86.5495C153.577 86.5495 136.303 89.3459 139.997 98.8678C132.959 109.257 146.005 120.82 149.853 123.812Z" fill="#263238"/>
<path d="M140.48 99.6229C140.48 99.6229 138.422 94.7851 135.418 97.4976C136.838 97.5256 139.142 97.8752 140.48 99.6229Z" fill="#263238"/>
<path d="M165.1 96.4772C165.1 96.4772 168.865 84.9279 163.042 81.2086C164.126 83.4326 164.868 85.9323 165.221 88.5565C165.575 91.1808 165.534 93.8752 165.1 96.4772Z" fill="#263238"/>
<path d="M158.855 108.166C159.356 110.616 160.442 112.77 161.941 114.29C163.906 116.276 165.378 114.29 165.244 111.298C165.11 108.572 163.937 104.307 161.766 103.454C159.595 102.601 158.289 105.202 158.855 108.166Z" fill="#FFC3BD"/>
<path d="M162.909 233.321C162.909 233.321 154.328 311.803 149.616 341.165C144.472 373.324 116.806 479.924 116.806 479.924L103.276 475.939C103.276 475.939 122.619 389.11 126.94 344.087C130.263 309.509 136.817 233.265 136.817 233.265L162.909 233.321Z" fill="#263238"/>
<path d="M120.046 473.842C120.108 473.842 117.525 480.498 117.525 480.498L102.309 476.009L103.584 469.801L120.046 473.842Z" fill="#EE786C"/>
<path opacity="0.3" d="M157.487 261.285C147.568 263.928 148.618 314.194 149.811 340.047C152.671 321.772 156.859 286.607 159.719 261.649C159.027 261.185 158.239 261.057 157.487 261.285Z" fill="black"/>
<path d="M177.24 233.321C177.24 233.321 178.269 310.125 177.467 341.445C176.613 374.023 168.207 480.707 168.207 480.707H155.429C155.429 480.707 154.966 375.925 154.4 343.934C153.782 308.978 150.686 233.321 150.686 233.321H177.24Z" fill="#263238"/>
<path opacity="0.4" d="M248.324 179.182H222.242L220.781 215.228L246.832 216.179L248.324 179.182Z" fill="#263238"/>
<path d="M234.578 202.378L208.455 197.988C210.556 186.041 212.126 173.934 213.157 161.732L239.434 166.122C238.352 178.329 236.73 190.436 234.578 202.378Z" fill="#EE786C"/>
<path d="M170.697 473.772C170.759 473.772 169.977 481.001 169.977 481.001H154.4L153.979 474.555L170.697 473.772Z" fill="#EE786C"/>
<path d="M180.522 153.902C181.684 156.363 183.012 159.131 184.339 161.676C185.666 164.221 187.034 166.821 188.454 169.296C191.158 174.2 194.174 178.772 197.467 182.957C198.241 183.944 199.052 184.877 199.895 185.753L200.512 186.382C200.396 186.313 200.275 186.257 200.152 186.215C199.885 186.215 199.751 186.215 199.823 186.215C200.414 186.244 200.999 186.06 201.521 185.683C202.421 185.164 203.292 184.551 204.124 183.852C207.967 180.431 211.613 176.617 215.029 172.442L219.443 177.28C216.768 183.391 213.432 188.92 209.546 193.681C208.453 195.008 207.272 196.192 206.017 197.219C204.433 198.561 202.666 199.455 200.821 199.847C199.502 200.082 198.161 199.925 196.891 199.386C196.187 199.085 195.513 198.667 194.885 198.141L194 197.372C192.817 196.338 191.695 195.233 190.635 194.101C186.542 189.606 182.81 184.535 179.503 178.972C177.888 176.259 176.324 173.519 174.873 170.666C173.423 167.814 172.034 165.073 170.676 161.83L180.522 153.902Z" fill="#FFC3BD"/>
<path d="M165.645 160.068C163.227 173.84 181.561 187.333 181.561 187.333L193.475 168.373C189.902 161.199 185.826 154.512 181.304 148.407C173.011 137.543 167.517 149.609 165.645 160.068Z" fill="#EE786C"/>
<path opacity="0.2" d="M165.645 160.068C163.227 173.84 181.561 187.333 181.561 187.333L193.475 168.373C189.902 161.199 185.826 154.512 181.304 148.407C173.011 137.543 167.517 149.609 165.645 160.068Z" fill="#FAFAFA"/>
<path d="M213.774 175.309L216.593 163.032L223.991 168.052C223.991 168.052 222.911 177 217.519 178.552L213.774 175.309Z" fill="#FFC3BD"/>
<path d="M219.557 159.635L226.224 162.137L223.992 168.052L216.584 163.032L219.557 159.635Z" fill="#FFC3BD"/>
</svg>
