<svg width="995" height="790" viewBox="0 0 995 790" fill="none" xmlns="http://www.w3.org/2000/svg">
<path d="M837.226 789.47C837.226 789.724 711.58 789.941 556.64 789.941C401.7 789.941 276 789.724 276 789.47C276 789.217 401.628 789 556.64 789C711.653 789 837.226 789.235 837.226 789.47Z" fill="#263238"/>
<path d="M843.999 551.351H577.761V397.284H843.999V551.351ZM579.386 549.726H842.375V398.908H579.386V549.726Z" fill="#E0E0E0"/>
<path d="M789.075 479.434H613.419V484.584H789.075V479.434Z" fill="#F0F0F0"/>
<path d="M801.178 498.636H613.419V504.257H801.178V498.636Z" fill="#F0F0F0"/>
<path d="M801.178 518.065H613.419V523.686H801.178V518.065Z" fill="#F0F0F0"/>
<path d="M674.809 451.542H613.419V464.911H674.809V451.542Z" fill="#F0F0F0"/>
<path d="M843.187 398.096H578.622V422.626H843.187V398.096Z" fill="#E0E0E0"/>
<path d="M822.832 418.955C822.49 418.63 825.902 414.52 830.434 409.776C834.967 405.033 838.947 401.443 839.272 401.751C839.596 402.06 836.201 406.186 831.669 410.946C827.137 415.706 823.157 419.279 822.832 418.955Z" fill="white"/>
<path d="M839.305 418.954C838.98 419.279 835.016 415.705 830.468 410.946C825.919 406.186 822.524 402.076 822.865 401.751C823.206 401.426 827.154 405 831.702 409.776C836.251 414.552 839.613 418.63 839.305 418.954Z" fill="white"/>
<path d="M516.388 93H251.823V245.459H516.388V93Z" fill="#E6E6E6"/>
<path d="M462.293 174.355H286.636V179.504H462.293V174.355Z" fill="#F0F0F0"/>
<path d="M474.395 193.556H286.636V199.177H474.395V193.556Z" fill="#F0F0F0"/>
<path d="M474.395 212.985H286.636V218.606H474.395V212.985Z" fill="#F0F0F0"/>
<path d="M348.026 146.462H286.636V159.832H348.026V146.462Z" fill="#F0F0F0"/>
<path d="M516.388 93H251.823V117.53H516.388V93Z" fill="#E0E0E0"/>
<path d="M495.14 113.745C494.799 113.436 498.21 109.31 502.742 104.566C507.275 99.8229 511.255 96.2328 511.58 96.5577C511.905 96.8826 508.509 100.993 503.977 105.736C499.445 110.48 495.465 114.037 495.14 113.745Z" fill="white"/>
<path d="M511.58 113.745C511.255 114.07 507.291 110.496 502.742 105.736C498.194 100.976 494.799 96.8825 495.14 96.5576C495.481 96.2327 499.428 99.8066 503.977 104.566C508.526 109.326 511.921 113.436 511.58 113.745Z" fill="white"/>
<path d="M416.189 376.214H150V222.131H416.189V376.214ZM151.624 374.59H414.565V223.755H151.624V374.59Z" fill="#E0E0E0"/>
<path d="M361.282 304.298H185.626V309.447H361.282V304.298Z" fill="#F0F0F0"/>
<path d="M373.385 323.499H185.626V329.12H373.385V323.499Z" fill="#F0F0F0"/>
<path d="M373.385 342.928H185.626V348.549H373.385V342.928Z" fill="#F0F0F0"/>
<path d="M247.016 276.405H185.626V289.775H247.016V276.405Z" fill="#F0F0F0"/>
<path d="M415.377 222.943H150.812V247.473H415.377V222.943Z" fill="#E0E0E0"/>
<path d="M723.397 411.514H411.007V691.187H723.397V411.514Z" fill="#E6E6E6"/>
<path d="M426.716 323.418H182.002V577.667H426.716V323.418Z" fill="#F0F0F0"/>
<path d="M426.716 323.418H182.002V351.116H426.716V323.418Z" fill="#E0E0E0"/>
<path d="M202.211 336.983C202.167 337.987 201.828 338.956 201.238 339.77C200.648 340.584 199.831 341.206 198.89 341.56C197.949 341.914 196.925 341.984 195.944 341.761C194.964 341.538 194.071 341.032 193.375 340.306C192.68 339.579 192.213 338.665 192.033 337.676C191.853 336.687 191.967 335.667 192.361 334.742C192.755 333.817 193.413 333.028 194.251 332.474C195.09 331.919 196.073 331.623 197.078 331.622C198.468 331.656 199.789 332.239 200.751 333.243C201.712 334.248 202.238 335.592 202.211 336.983V336.983Z" fill="white"/>
<path d="M223.053 336.983C223.012 337.992 222.675 338.967 222.083 339.785C221.492 340.604 220.673 341.231 219.729 341.589C218.784 341.946 217.755 342.017 216.77 341.794C215.785 341.571 214.887 341.063 214.189 340.333C213.49 339.604 213.021 338.685 212.841 337.691C212.661 336.697 212.777 335.672 213.174 334.744C213.572 333.815 214.234 333.024 215.078 332.469C215.921 331.914 216.91 331.62 217.92 331.622C219.31 331.656 220.63 332.239 221.592 333.243C222.554 334.248 223.079 335.592 223.053 336.983V336.983Z" fill="white"/>
<path d="M243.896 336.983C243.854 337.992 243.517 338.967 242.926 339.785C242.335 340.604 241.516 341.231 240.571 341.589C239.626 341.946 238.597 342.017 237.612 341.794C236.627 341.571 235.729 341.063 235.031 340.333C234.332 339.604 233.864 338.685 233.683 337.691C233.503 336.697 233.619 335.672 234.017 334.744C234.414 333.815 235.076 333.024 235.92 332.469C236.764 331.914 237.752 331.62 238.762 331.622C240.152 331.656 241.473 332.239 242.435 333.243C243.397 334.248 243.922 335.592 243.896 336.983V336.983Z" fill="white"/>
<path d="M809.057 148.606H496.667V459.957H809.057V148.606Z" fill="#F0F0F0"/>
<path d="M809.057 148.606H496.667V185.076H809.057V148.606Z" fill="#E0E0E0"/>
<path d="M523.276 166.476C523.219 167.802 522.774 169.081 521.995 170.156C521.217 171.231 520.14 172.054 518.898 172.522C517.657 172.99 516.305 173.083 515.01 172.79C513.716 172.496 512.537 171.829 511.618 170.871C510.7 169.913 510.083 168.707 509.845 167.401C509.606 166.096 509.756 164.749 510.277 163.528C510.797 162.307 511.664 161.266 512.771 160.534C513.878 159.802 515.175 159.411 516.502 159.409C518.336 159.452 520.079 160.219 521.348 161.544C522.618 162.868 523.311 164.642 523.276 166.476V166.476Z" fill="white"/>
<path d="M548.732 161.7C549.633 162.678 550.225 163.899 550.437 165.212C550.648 166.524 550.469 167.87 549.92 169.081C549.372 170.293 548.48 171.316 547.354 172.023C546.229 172.731 544.92 173.092 543.591 173.061C542.262 173.03 540.971 172.608 539.88 171.849C538.788 171.09 537.945 170.026 537.454 168.791C536.963 167.555 536.846 166.202 537.118 164.901C537.391 163.6 538.04 162.407 538.985 161.472C540.309 160.212 542.078 159.529 543.905 159.572C545.733 159.614 547.468 160.38 548.732 161.7V161.7Z" fill="white"/>
<path d="M578.151 166.476C578.094 167.802 577.649 169.081 576.87 170.156C576.092 171.231 575.015 172.054 573.773 172.522C572.532 172.99 571.18 173.083 569.885 172.79C568.591 172.496 567.412 171.829 566.493 170.871C565.575 169.913 564.958 168.707 564.72 167.401C564.481 166.096 564.631 164.749 565.152 163.528C565.672 162.307 566.539 161.266 567.646 160.534C568.753 159.802 570.05 159.411 571.377 159.409C573.211 159.452 574.954 160.219 576.223 161.544C577.493 162.868 578.186 164.642 578.151 166.476V166.476Z" fill="white"/>
<path d="M631.662 574.922C606.564 557.394 600.878 524.855 601.869 495.598C602.032 490.725 601.496 485.559 603.819 481.286C606.142 477.014 611.567 474.074 615.937 476.121C619.56 477.826 621.136 482.05 623.166 485.543C625.876 490.195 629.846 493.985 634.619 496.475C637.722 498.1 641.572 499.075 644.642 497.385C648.866 495.062 649.353 489.263 649.321 484.389C649.321 475.325 649.267 466.271 649.158 457.228C648.866 452.372 649.36 447.501 650.62 442.802C652.131 438.189 655.494 433.916 660.091 432.617C664.688 431.317 670.423 433.997 671.463 438.741C671.641 440.75 671.69 442.769 671.609 444.784C671.739 446.815 672.681 449.04 674.582 449.658C676.482 450.275 678.464 448.862 679.926 447.432C684.93 442.559 688.341 436.207 691.509 429.936C694.677 423.666 697.779 417.216 702.328 411.872C706.876 406.527 713.163 402.287 720.197 401.881C727.231 401.475 734.558 405.796 736.312 412.619C738.067 419.442 734.087 426.411 729.814 431.951C723.367 440.173 715.768 447.423 707.25 453.475C705.588 454.383 704.261 455.801 703.465 457.52C702.409 460.769 705.479 464.018 708.68 465.042C712.302 466.244 716.234 465.87 720.051 466.325C723.869 466.78 727.93 468.437 729.376 472.011C731.358 476.982 727.199 482.18 723.121 485.591C714.934 492.414 705.637 497.782 695.635 501.463C692.061 502.762 688.309 503.916 685.417 506.417C682.525 508.919 680.803 513.289 682.542 516.717C684.28 520.144 688.747 521.233 692.5 520.534C696.252 519.836 699.583 517.821 703.156 516.473C709.833 513.955 718.443 514.41 722.65 520.177C723.954 522.163 724.779 524.425 725.061 526.784C725.343 529.144 725.074 531.536 724.275 533.774C722.649 538.227 720.147 542.309 716.916 545.779C706.276 558.491 692.452 568.15 676.856 573.769C661.374 579.13 647.03 580.592 631.646 574.955" fill="#12B7B6"/>
<path d="M729.165 405.894C729.165 405.894 729.019 406.056 728.694 406.349L727.248 407.632C725.981 408.769 724.113 410.426 721.757 412.619C715.079 418.82 708.877 425.516 703.206 432.649C699.583 437.149 695.83 442.25 691.834 447.789C687.838 453.329 683.712 459.307 679.618 465.659C675.254 472.357 671.257 479.288 667.645 486.42C665.761 490.14 664.104 494.023 662.398 497.986L657.362 510.089C650.724 525.333 644.943 540.936 640.045 556.825C636.1 569.826 633.381 583.167 631.923 596.674C630.978 605.79 630.826 614.97 631.468 624.112C631.728 627.361 631.972 629.846 632.199 631.536C632.296 632.348 632.361 632.998 632.426 633.469V634.135C632.356 633.924 632.308 633.706 632.28 633.485C632.199 633.014 632.101 632.381 631.972 631.568C631.679 629.944 631.37 627.377 631.078 624.128C630.294 614.969 630.349 605.758 631.241 596.609C632.608 583.044 635.268 569.641 639.184 556.582C644.041 540.648 649.806 525.006 656.453 509.731L661.619 497.678C663.324 493.73 664.997 489.815 666.898 486.079C670.535 478.925 674.564 471.978 678.968 465.269C683.127 458.771 687.318 452.89 691.266 447.4C695.213 441.909 699.031 436.775 702.637 432.292C708.366 425.177 714.651 418.528 721.432 412.408C723.837 410.247 725.754 408.623 727.053 407.535L728.564 406.316C728.749 406.155 728.951 406.013 729.165 405.894V405.894Z" fill="#263238"/>
<path d="M667.11 486.046C666.88 485.377 666.723 484.685 666.639 483.983C666.379 482.635 666.086 480.734 665.745 478.265C665.047 473.391 664.332 466.715 663.568 459.323C662.805 451.932 661.944 445.239 661.229 440.414C660.855 438.01 660.53 436.077 660.303 434.728C660.126 434.038 660.033 433.329 660.027 432.617C660.307 433.267 660.508 433.949 660.628 434.647C660.985 435.979 661.391 437.896 661.846 440.317C662.772 445.19 663.682 451.818 664.445 459.226C665.209 466.633 665.859 473.131 666.362 478.184C666.606 480.458 666.817 482.391 666.98 483.934C667.106 484.631 667.149 485.34 667.11 486.046V486.046Z" fill="#263238"/>
<path d="M729.619 474.382C728.829 474.554 728.024 474.652 727.215 474.675C725.591 474.821 723.284 475.016 720.425 475.341C714.707 475.958 706.844 477.095 698.218 478.72C689.592 480.344 681.843 482.18 676.271 483.593C673.493 484.308 671.251 484.958 669.773 485.396C668.984 485.677 668.167 485.873 667.336 485.981C668.087 485.604 668.87 485.294 669.676 485.055C671.203 484.519 673.412 483.772 676.174 482.976C681.713 481.351 689.462 479.418 698.121 477.761C705.455 476.359 712.856 475.329 720.295 474.675C723.17 474.431 725.493 474.334 727.118 474.301C727.952 474.244 728.79 474.272 729.619 474.382Z" fill="#263238"/>
<path d="M639.98 555.445C639.807 555.209 639.665 554.953 639.558 554.681L638.486 552.423C637.56 550.457 636.309 547.549 634.814 543.992C631.793 536.844 627.943 526.837 623.849 515.726C619.755 504.614 615.987 494.607 613.127 487.378C611.73 483.869 610.577 480.994 609.716 478.85L608.806 476.527C608.68 476.259 608.593 475.974 608.546 475.682C608.72 475.917 608.862 476.174 608.969 476.445L610.041 478.703C610.951 480.669 612.218 483.577 613.712 487.135C616.734 494.282 620.584 504.289 624.678 515.401C628.771 526.512 632.54 536.519 635.399 543.748C636.796 547.257 637.95 550.132 638.794 552.277C639.168 553.203 639.477 553.901 639.72 554.6C639.847 554.868 639.934 555.152 639.98 555.445V555.445Z" fill="#263238"/>
<path d="M722.959 528.689C722.699 528.839 722.421 528.953 722.131 529.03L719.726 529.843L710.841 532.718C703.335 535.155 692.971 538.631 681.6 542.465C670.228 546.299 659.815 549.71 652.261 551.984C648.492 553.138 645.422 554.015 643.294 554.6L640.841 555.233C640.556 555.324 640.262 555.384 639.964 555.412C640.224 555.263 640.502 555.148 640.792 555.071L643.197 554.259L652.083 551.383C659.588 548.947 669.952 545.47 681.323 541.636C692.695 537.803 703.092 534.391 710.646 532.117C714.431 530.963 717.485 530.086 719.629 529.501L722.082 528.868C722.367 528.777 722.661 528.717 722.959 528.689V528.689Z" fill="#263238"/>
<path d="M689.106 134.636L680.739 137.625L677.149 126.692C670.554 106.532 649.533 95.8265 630.218 102.633C610.902 109.44 600.619 131.549 607.215 151.709L610.805 162.642L602.406 165.647C599.204 166.889 596.603 169.318 595.145 172.428C593.687 175.538 593.483 179.091 594.576 182.347L617.855 253.484C618.338 255.096 619.141 256.594 620.215 257.89C621.288 259.186 622.612 260.253 624.106 261.027C625.6 261.801 627.234 262.267 628.912 262.398C630.59 262.528 632.277 262.319 633.873 261.785L720.572 230.773C723.817 229.533 726.454 227.083 727.93 223.938C729.405 220.793 729.604 217.199 728.483 213.911L705.188 142.774C704.692 141.167 703.878 139.676 702.793 138.39C701.708 137.104 700.376 136.05 698.875 135.29C697.374 134.531 695.735 134.081 694.057 133.969C692.378 133.856 690.694 134.083 689.106 134.636V134.636ZM623.021 146.007C621.243 140.765 621.562 135.039 623.912 130.027C626.262 125.015 630.46 121.107 635.627 119.122C638.179 118.249 640.88 117.899 643.569 118.092C646.259 118.286 648.882 119.02 651.282 120.249C653.682 121.479 655.81 123.179 657.539 125.249C659.267 127.319 660.561 129.716 661.343 132.296L664.917 143.229L626.595 156.94L623.021 146.007ZM671.756 209.135L677.702 227.297C677.811 227.661 677.776 228.053 677.603 228.392C677.431 228.731 677.134 228.99 676.776 229.116L668.442 232.089C668.11 232.181 667.756 232.141 667.453 231.977C667.15 231.814 666.922 231.54 666.817 231.212L660.823 213.131C657.518 212.951 654.346 211.766 651.733 209.733C649.121 207.701 647.191 204.919 646.203 201.76C644.79 197.583 645.047 193.022 646.922 189.031C648.796 185.04 652.142 181.929 656.258 180.349C658.291 179.655 660.442 179.376 662.584 179.531C664.727 179.686 666.816 180.27 668.727 181.25C670.639 182.229 672.334 183.583 673.711 185.231C675.088 186.879 676.119 188.788 676.743 190.843C677.788 194.052 677.875 197.497 676.992 200.754C676.109 204.012 674.295 206.941 671.772 209.184L671.756 209.135Z" fill="#12B7B6"/>
<path d="M680.365 137.43C680.365 137.657 664.852 143.489 645.553 150.426C626.254 157.362 610.512 162.934 610.431 162.772C610.35 162.609 625.945 156.729 645.26 149.776C664.575 142.823 680.284 137.219 680.365 137.43Z" fill="#263238"/>
<path d="M698.788 140.419C698.859 140.56 698.919 140.707 698.966 140.858C699.096 141.182 699.243 141.605 699.438 142.125C699.86 143.311 700.445 144.951 701.176 146.998L707.414 165.16C710.013 172.86 713.116 181.99 716.56 192.127C718.184 197.211 720.101 202.507 721.888 208.079C722.845 210.95 723.258 213.975 723.106 216.998C722.969 218.57 722.521 220.099 721.791 221.497C721.01 222.891 719.967 224.121 718.72 225.12C716.211 226.952 713.425 228.372 710.468 229.327L702.102 232.333L686.263 238.002L659.443 247.554L641.329 253.922L636.456 255.547L635.156 255.969C635.017 256.031 634.869 256.069 634.718 256.083C634.718 256.083 634.848 256.083 635.124 255.888L636.391 255.384L641.264 253.549L659.28 246.921L686.052 237.174L701.858 231.456L710.224 228.434C713.097 227.518 715.802 226.141 718.233 224.357C719.393 223.43 720.364 222.288 721.092 220.994C721.78 219.7 722.195 218.279 722.31 216.819C722.46 213.906 722.063 210.992 721.141 208.225C719.386 202.702 717.534 197.357 715.861 192.273C712.482 182.12 709.363 172.958 706.894 165.257C704.425 157.557 702.345 151.368 700.916 147.014C700.234 144.886 699.714 143.229 699.291 142.027L698.902 140.728C698.852 140.629 698.814 140.526 698.788 140.419V140.419Z" fill="#263238"/>
<path d="M653.041 118.017C653.041 118.017 652.18 117.595 650.588 116.945C648.319 116.073 645.919 115.59 643.489 115.515C639.888 115.392 636.303 116.069 632.995 117.497C628.972 119.276 625.532 122.153 623.069 125.798C620.591 129.433 619.261 133.729 619.252 138.128C619.286 141.734 619.833 145.317 620.876 148.769C621.721 151.725 622.598 154.081 623.183 155.722C623.528 156.555 623.81 157.413 624.028 158.288C623.566 157.509 623.18 156.688 622.874 155.835C622.208 154.211 621.25 151.904 620.308 148.931C619.151 145.443 618.521 141.802 618.439 138.128C618.396 133.563 619.757 129.094 622.338 125.327C624.886 121.549 628.467 118.583 632.654 116.782C636.065 115.346 639.761 114.713 643.457 114.931C645.939 115.057 648.378 115.635 650.653 116.636C651.261 116.917 651.848 117.243 652.408 117.611C652.639 117.712 652.852 117.849 653.041 118.017V118.017Z" fill="#263238"/>
<path d="M653.788 181.584C654.048 181.426 654.319 181.291 654.601 181.177C655.414 180.81 656.256 180.512 657.119 180.284C658.488 179.88 659.9 179.64 661.326 179.569C663.265 179.465 665.206 179.758 667.028 180.43C671.187 181.892 675.004 186.132 676.889 191.802C677.792 194.844 677.792 198.084 676.889 201.126C675.887 204.428 674.091 207.435 671.658 209.882L671.755 209.444C673.916 215.373 676.271 221.806 678.708 228.515L678.854 228.921L678.448 229.067L674.728 230.302L666.606 233.015L666.199 233.145L666.069 232.739C663.844 226.013 661.407 219.743 659.572 213.586L659.929 213.862C656.753 213.598 653.725 212.406 651.222 210.435C648.957 208.69 647.099 206.473 645.78 203.937C644.589 201.688 643.996 199.17 644.058 196.626C644.133 194.026 644.782 191.475 645.959 189.155C647.135 186.835 648.811 184.805 650.864 183.208C651.71 182.522 652.658 181.974 653.675 181.584C652.757 182.128 651.868 182.719 651.01 183.354C648.755 185.263 647.026 187.718 645.991 190.486C645.102 192.573 644.686 194.83 644.773 197.097C644.86 199.364 645.448 201.583 646.494 203.595C647.792 206.035 649.605 208.164 651.806 209.833C654.195 211.708 657.082 212.838 660.108 213.082H660.384L660.465 213.326C662.252 219.369 664.705 225.689 666.963 232.446L666.427 232.186L674.549 229.474L678.253 228.223L677.993 228.775C675.573 222.066 673.234 215.617 671.089 209.687V209.444L671.284 209.249C673.646 206.903 675.407 204.022 676.418 200.85C677.279 197.94 677.279 194.842 676.418 191.932C674.647 186.473 670.992 182.331 667.028 180.869C665.273 180.192 663.4 179.877 661.521 179.943C660.118 179.975 658.723 180.166 657.362 180.511C654.942 181.112 653.805 181.665 653.788 181.584Z" fill="#263238"/>
<path d="M603.576 650.64L441.305 649.892C431.934 649.841 422.967 646.072 416.373 639.414C409.778 632.756 406.096 623.752 406.135 614.381L407.857 207.592C407.876 202.949 408.81 198.356 410.606 194.074C412.401 189.792 415.023 185.907 418.321 182.639C421.619 179.371 425.528 176.785 429.826 175.029C434.124 173.273 438.726 172.382 443.368 172.405L605.623 173.153C614.994 173.2 623.963 176.964 630.56 183.62C637.158 190.275 640.844 199.277 640.809 208.648L639.087 615.421C639.068 620.065 638.135 624.66 636.34 628.943C634.545 633.227 631.923 637.115 628.626 640.385C625.328 643.655 621.419 646.244 617.121 648.004C612.823 649.763 608.22 650.659 603.576 650.64V650.64Z" fill="#455A64"/>
<path d="M605.379 187.139H573.929C572.903 187.158 571.891 187.379 570.95 187.79C570.009 188.2 569.159 188.792 568.446 189.531C567.734 190.27 567.175 191.142 566.8 192.098C566.425 193.053 566.242 194.073 566.262 195.099V200.801C566.281 201.827 566.098 202.846 565.723 203.8C565.348 204.755 564.788 205.626 564.076 206.364C563.364 207.102 562.513 207.692 561.572 208.101C560.631 208.509 559.62 208.728 558.594 208.745L497.286 208.469C495.212 208.414 493.244 207.538 491.816 206.033C490.387 204.528 489.614 202.518 489.667 200.444V194.742C489.719 192.671 488.949 190.663 487.524 189.159C486.098 187.655 484.135 186.777 482.064 186.717H471.001L443.466 186.587C436.917 186.548 430.619 189.106 425.951 193.7C421.284 198.295 418.627 204.552 418.563 211.101L416.938 608.159C416.923 611.408 417.548 614.629 418.778 617.636C420.007 620.643 421.817 623.379 424.104 625.687C426.391 627.995 429.11 629.83 432.106 631.087C435.102 632.344 438.317 632.999 441.566 633.014L603.495 633.761C606.746 633.776 609.969 633.151 612.978 631.92C615.987 630.69 618.725 628.879 621.034 626.591C623.344 624.302 625.18 621.581 626.438 618.583C627.696 615.585 628.351 612.369 628.366 609.118L629.991 212.059C630.029 205.492 627.459 199.177 622.844 194.504C618.229 189.831 611.947 187.182 605.379 187.139V187.139Z" fill="white"/>
<path d="M583.595 580.787L463.187 580.267C461.936 580.267 460.929 578.902 460.946 577.245L461.075 545.746C461.075 544.122 462.099 542.725 463.35 542.725L583.757 543.277C584.45 543.397 585.07 543.78 585.488 544.346C585.906 544.912 586.089 545.617 585.999 546.315L585.885 577.781C585.885 579.454 584.846 580.803 583.595 580.787Z" fill="#12B7B6"/>
<path d="M502.289 557.878C502.233 557.403 502.004 557.034 501.604 556.771C501.204 556.509 500.713 556.377 500.131 556.377C499.706 556.377 499.334 556.446 499.015 556.584C498.699 556.721 498.452 556.911 498.274 557.151C498.099 557.392 498.011 557.666 498.011 557.972C498.011 558.229 498.072 558.449 498.194 558.634C498.319 558.815 498.479 558.967 498.672 559.089C498.866 559.208 499.07 559.306 499.282 559.384C499.495 559.459 499.69 559.52 499.869 559.567L500.844 559.83C501.094 559.896 501.373 559.986 501.679 560.102C501.989 560.218 502.284 560.376 502.566 560.576C502.85 560.773 503.085 561.026 503.269 561.336C503.454 561.645 503.546 562.025 503.546 562.475C503.546 562.995 503.41 563.464 503.138 563.883C502.869 564.302 502.475 564.635 501.956 564.882C501.44 565.129 500.813 565.252 500.075 565.252C499.387 565.252 498.791 565.141 498.288 564.919C497.787 564.697 497.393 564.388 497.106 563.991C496.821 563.593 496.66 563.132 496.623 562.607H497.823C497.855 562.97 497.977 563.27 498.189 563.507C498.405 563.742 498.677 563.917 499.006 564.033C499.337 564.145 499.693 564.202 500.075 564.202C500.519 564.202 500.918 564.13 501.271 563.986C501.625 563.839 501.904 563.636 502.111 563.376C502.317 563.113 502.42 562.807 502.42 562.457C502.42 562.138 502.331 561.878 502.153 561.678C501.975 561.478 501.74 561.315 501.449 561.19C501.159 561.065 500.844 560.956 500.507 560.862L499.324 560.524C498.574 560.308 497.98 560 497.542 559.6C497.104 559.2 496.885 558.676 496.885 558.029C496.885 557.491 497.031 557.022 497.322 556.621C497.615 556.218 498.009 555.905 498.504 555.683C499.001 555.458 499.556 555.345 500.169 555.345C500.788 555.345 501.338 555.456 501.82 555.678C502.302 555.897 502.683 556.198 502.965 556.579C503.249 556.961 503.399 557.394 503.415 557.878H502.289ZM506.622 555.477V565.083H505.459V555.477H506.622ZM516.572 555.477V565.083H515.447L510.212 557.541H510.118V565.083H508.955V555.477H510.08L515.334 563.038H515.428V555.477H516.572ZM525.467 558.479C525.364 558.163 525.228 557.88 525.059 557.63C524.893 557.377 524.695 557.161 524.464 556.983C524.235 556.804 523.976 556.668 523.685 556.574C523.394 556.481 523.075 556.434 522.728 556.434C522.159 556.434 521.641 556.581 521.175 556.875C520.709 557.169 520.339 557.602 520.064 558.174C519.788 558.746 519.651 559.448 519.651 560.28C519.651 561.112 519.79 561.814 520.068 562.386C520.347 562.959 520.723 563.392 521.199 563.686C521.674 563.98 522.209 564.127 522.803 564.127C523.353 564.127 523.838 564.009 524.257 563.775C524.679 563.537 525.008 563.202 525.242 562.771C525.48 562.336 525.599 561.825 525.599 561.237L525.955 561.312H523.066V560.28H526.724V561.312C526.724 562.103 526.556 562.791 526.218 563.376C525.883 563.961 525.42 564.414 524.829 564.736C524.241 565.055 523.566 565.215 522.803 565.215C521.952 565.215 521.205 565.015 520.561 564.614C519.92 564.214 519.419 563.645 519.06 562.907C518.703 562.169 518.525 561.293 518.525 560.28C518.525 559.52 518.627 558.837 518.83 558.23C519.036 557.62 519.327 557.101 519.702 556.673C520.078 556.245 520.522 555.916 521.035 555.688C521.547 555.46 522.112 555.345 522.728 555.345C523.235 555.345 523.707 555.422 524.145 555.575C524.585 555.725 524.978 555.94 525.322 556.218C525.669 556.493 525.958 556.823 526.19 557.208C526.421 557.589 526.581 558.013 526.668 558.479H525.467ZM538.736 555.477H539.9V561.837C539.9 562.494 539.745 563.081 539.435 563.597C539.129 564.109 538.696 564.514 538.136 564.811C537.576 565.105 536.919 565.252 536.166 565.252C535.412 565.252 534.755 565.105 534.196 564.811C533.636 564.514 533.201 564.109 532.892 563.597C532.585 563.081 532.432 562.494 532.432 561.837V555.477H533.595V561.744C533.595 562.213 533.698 562.63 533.905 562.996C534.111 563.359 534.405 563.645 534.787 563.855C535.171 564.061 535.631 564.164 536.166 564.164C536.701 564.164 537.16 564.061 537.545 563.855C537.93 563.645 538.224 563.359 538.427 562.996C538.633 562.63 538.736 562.213 538.736 561.744V555.477ZM542.223 565.083V555.477H545.469C546.222 555.477 546.838 555.613 547.317 555.885C547.799 556.154 548.155 556.518 548.386 556.978C548.618 557.438 548.734 557.95 548.734 558.516C548.734 559.082 548.618 559.597 548.386 560.06C548.158 560.523 547.805 560.892 547.326 561.167C546.848 561.439 546.235 561.575 545.488 561.575H543.161V560.543H545.45C545.966 560.543 546.38 560.454 546.693 560.275C547.006 560.097 547.233 559.856 547.373 559.553C547.517 559.247 547.589 558.901 547.589 558.516C547.589 558.132 547.517 557.788 547.373 557.484C547.233 557.181 547.004 556.943 546.688 556.771C546.373 556.596 545.954 556.509 545.431 556.509H543.386V565.083H542.223Z" fill="#E8E8E3"/>
<path d="M487.204 303.86L445.422 303.67L445.388 311.337L487.169 311.527L487.204 303.86Z" fill="#12B7B6"/>
<path opacity="0.1" d="M487.193 303.275L445.412 303.085L445.377 310.753L487.158 310.943L487.193 303.275Z" fill="black"/>
<path d="M609.684 350.937C610.012 350.904 610.334 350.827 610.642 350.71C611.092 350.534 611.483 350.235 611.77 349.847C612.057 349.459 612.229 348.998 612.266 348.517C612.266 345.934 612.266 342.165 612.266 337.324C612.266 334.903 612.266 332.19 612.266 329.201C612.266 328.47 612.266 327.707 612.266 326.943C612.372 326.202 612.211 325.448 611.812 324.815C611.588 324.512 611.297 324.264 610.962 324.092C610.626 323.92 610.255 323.829 609.878 323.824H607.344H583.87L447.998 323.321C447.65 323.315 447.306 323.393 446.995 323.548C446.684 323.704 446.415 323.932 446.211 324.214C445.819 324.85 445.669 325.605 445.788 326.342C445.788 327.967 445.788 329.591 445.788 331.216C445.788 334.465 445.788 337.714 445.788 340.963C445.788 342.587 445.788 344.212 445.788 345.836C445.721 346.593 445.721 347.354 445.788 348.11C445.874 348.435 446.032 348.735 446.252 348.989C446.472 349.242 446.747 349.442 447.056 349.572C447.376 349.7 447.718 349.761 448.063 349.751H456.331L492.411 349.946L553.492 350.32L594.673 350.645L605.866 350.775H608.774C609.44 350.775 609.765 350.775 609.765 350.775H608.774H605.866H594.673H553.492L492.411 350.58L456.331 350.433H448.063C447.608 350.452 447.154 350.374 446.731 350.206C446.303 350.023 445.922 349.746 445.618 349.394C445.314 349.042 445.095 348.625 444.976 348.175C444.882 347.749 444.849 347.311 444.879 346.876V345.674C444.879 344.049 444.879 342.425 444.879 340.8C444.879 337.551 444.879 334.302 444.879 331.053C444.879 329.429 444.879 327.804 444.879 326.18C444.848 325.747 444.848 325.313 444.879 324.88C444.94 324.402 445.124 323.949 445.415 323.564C445.695 323.172 446.066 322.854 446.496 322.636C446.926 322.418 447.402 322.307 447.884 322.313L583.757 323.061L607.231 323.223H609.765C610.211 323.224 610.651 323.331 611.047 323.538C611.443 323.744 611.783 324.043 612.039 324.409C612.497 325.115 612.682 325.964 612.559 326.797C612.559 327.561 612.559 328.324 612.559 329.055C612.559 332.012 612.559 334.725 612.559 337.178C612.559 342.051 612.445 345.787 612.413 348.387C612.373 348.886 612.191 349.364 611.889 349.764C611.587 350.164 611.177 350.47 610.707 350.645C610.4 350.835 610.045 350.936 609.684 350.937V350.937Z" fill="#E0E0E0"/>
<path d="M534.388 331.476H457.972V338.64H534.388V331.476Z" fill="#12B7B6"/>
<path opacity="0.2" d="M534.362 330.917H457.946V338.081H534.362V330.917Z" fill="white"/>
<path d="M486.919 373.808L445.138 373.619L445.103 381.286L486.884 381.476L486.919 373.808Z" fill="#12B7B6"/>
<path opacity="0.1" d="M486.296 373.303L444.514 373.114L444.479 380.781L486.261 380.971L486.296 373.303Z" fill="black"/>
<path d="M608.628 420.888C608.956 420.847 609.281 420.788 609.602 420.709C610.056 420.565 610.474 420.325 610.827 420.005C611.18 419.686 611.46 419.294 611.649 418.857C611.905 418.201 612.005 417.495 611.942 416.794C611.942 416.014 611.942 415.17 611.942 414.227C611.942 412.343 611.942 410.199 611.942 407.729V397.414C612.019 396.667 611.854 395.915 611.471 395.269C611.07 394.607 610.44 394.116 609.7 393.889C608.891 393.744 608.067 393.701 607.247 393.759H583.87L448.469 393.255C447.741 393.257 447.038 393.523 446.491 394.004C445.944 394.485 445.591 395.148 445.496 395.871C445.496 397.414 445.496 399.12 445.496 400.744C445.496 403.993 445.496 407.242 445.496 410.491C445.496 412.115 445.496 413.74 445.496 415.364C445.436 416.124 445.468 416.887 445.594 417.639C445.796 418.297 446.214 418.869 446.779 419.263C447.379 419.644 448.084 419.826 448.794 419.783H451.052H455.747L491.697 419.962L552.566 420.335L593.601 420.66L604.761 420.79H607.669H608.644H607.669H604.761H593.601H552.566L491.664 420.725L455.714 420.595H448.648C447.769 420.647 446.897 420.414 446.162 419.929C445.423 419.417 444.883 418.665 444.635 417.801C444.489 416.976 444.446 416.136 444.505 415.299C444.505 413.675 444.505 412.05 444.505 410.426C444.505 407.177 444.505 403.928 444.505 400.679C444.505 399.055 444.505 397.43 444.505 395.806C444.624 394.877 445.077 394.023 445.779 393.404C446.482 392.785 447.386 392.443 448.323 392.443L583.724 393.19L607.101 393.369C607.971 393.315 608.845 393.375 609.7 393.548C610.544 393.823 611.256 394.402 611.698 395.172C612.118 395.888 612.3 396.718 612.218 397.544C612.218 398.307 612.218 399.055 612.218 399.802C612.218 402.742 612.218 405.439 612.218 407.924C612.218 410.41 612.218 412.505 612.218 414.422C612.218 415.348 612.218 416.209 612.218 417.005C612.277 417.732 612.16 418.462 611.877 419.133C611.666 419.582 611.361 419.979 610.982 420.299C610.604 420.618 610.161 420.852 609.684 420.985C609.329 421.015 608.971 420.982 608.628 420.888V420.888Z" fill="#E0E0E0"/>
<path d="M486.604 446.794L444.822 446.605L444.787 454.272L486.569 454.462L486.604 446.794Z" fill="#12B7B6"/>
<path opacity="0.1" d="M486.296 446.025L444.514 445.836L444.479 453.503L486.261 453.693L486.296 446.025Z" fill="black"/>
<path d="M608.303 493.844C608.631 493.805 608.957 493.745 609.277 493.665C609.729 493.522 610.145 493.284 610.498 492.967C610.851 492.651 611.133 492.263 611.324 491.829C611.579 491.173 611.679 490.467 611.617 489.766C611.617 488.97 611.617 488.142 611.617 487.183C611.617 485.315 611.617 483.155 611.617 480.685V470.37C611.694 469.623 611.529 468.871 611.146 468.226C610.735 467.576 610.108 467.092 609.375 466.861C608.566 466.711 607.743 466.662 606.922 466.715H583.545L448.144 466.211C447.416 466.213 446.713 466.479 446.166 466.96C445.619 467.441 445.266 468.104 445.171 468.827C445.171 470.451 445.171 472.076 445.171 473.7C445.171 476.949 445.171 480.198 445.171 483.447C445.171 485.072 445.171 486.696 445.171 488.321C445.111 489.074 445.143 489.833 445.269 490.579C445.463 491.241 445.882 491.816 446.454 492.203C447.051 492.592 447.759 492.775 448.469 492.723H455.535L491.485 492.918L552.355 493.291L593.39 493.616L604.55 493.746H607.458C608.108 493.746 608.433 493.746 608.433 493.746C608.433 493.746 608.108 493.746 607.458 493.746H604.55H593.39H552.355L491.485 493.568L455.535 493.421H448.469C447.589 493.481 446.715 493.246 445.983 492.755C445.244 492.243 444.705 491.492 444.456 490.627C444.311 489.802 444.267 488.962 444.326 488.126C444.326 486.501 444.326 484.877 444.326 483.252C444.326 480.003 444.326 476.754 444.326 473.505C444.326 471.881 444.326 470.256 444.326 468.55C444.441 467.623 444.891 466.769 445.591 466.15C446.291 465.531 447.193 465.189 448.128 465.188L583.529 465.935L606.906 466.114C607.776 466.06 608.65 466.12 609.505 466.292C610.349 466.568 611.061 467.147 611.503 467.917C611.923 468.632 612.105 469.463 612.023 470.289C612.023 471.052 612.023 471.816 612.023 472.547C612.023 475.487 612.023 478.184 612.023 480.669C612.023 483.155 612.023 485.25 612.023 487.167C612.023 488.093 612.023 488.954 612.023 489.75C612.085 490.477 611.968 491.207 611.682 491.878C611.471 492.326 611.166 492.724 610.787 493.043C610.409 493.363 609.966 493.597 609.489 493.73C609.108 493.86 608.701 493.899 608.303 493.844V493.844Z" fill="#E0E0E0"/>
<path d="M532.758 403.452L456.342 403.105L456.31 410.269L532.725 410.616L532.758 403.452Z" fill="#12B7B6"/>
<path opacity="0.2" d="M533.496 403.986L457.081 403.639L457.049 410.803L533.464 411.15L533.496 403.986Z" fill="white"/>
<path d="M463.252 480.588C463.204 481.241 462.965 481.866 462.565 482.385C462.165 482.904 461.622 483.295 461.002 483.508C460.383 483.721 459.714 483.747 459.08 483.584C458.445 483.42 457.873 483.074 457.433 482.588C456.993 482.103 456.706 481.498 456.607 480.851C456.507 480.203 456.6 479.541 456.874 478.945C457.147 478.35 457.59 477.848 458.146 477.502C458.702 477.156 459.348 476.98 460.003 476.998C460.908 477.048 461.757 477.453 462.365 478.125C462.973 478.797 463.292 479.682 463.252 480.588V480.588Z" fill="#12B7B6"/>
<path d="M473.6 480.637C473.632 481.094 473.57 481.554 473.416 481.987C473.263 482.42 473.022 482.816 472.709 483.152C472.396 483.488 472.017 483.755 471.596 483.938C471.175 484.121 470.721 484.216 470.262 484.216C469.803 484.216 469.349 484.121 468.928 483.938C468.507 483.755 468.128 483.488 467.815 483.152C467.502 482.816 467.261 482.42 467.108 481.987C466.954 481.554 466.892 481.094 466.924 480.637C466.892 480.179 466.954 479.719 467.108 479.286C467.261 478.853 467.502 478.457 467.815 478.121C468.128 477.785 468.507 477.518 468.928 477.335C469.349 477.151 469.803 477.057 470.262 477.057C470.721 477.057 471.175 477.151 471.596 477.335C472.017 477.518 472.396 477.785 472.709 478.121C473.022 478.457 473.263 478.853 473.416 479.286C473.57 479.719 473.632 480.179 473.6 480.637V480.637Z" fill="#12B7B6"/>
<path d="M483.965 480.685C483.917 481.339 483.678 481.964 483.278 482.483C482.878 483.002 482.335 483.392 481.715 483.605C481.096 483.818 480.427 483.845 479.793 483.681C479.158 483.518 478.586 483.172 478.146 482.686C477.706 482.2 477.419 481.596 477.32 480.948C477.22 480.301 477.313 479.638 477.587 479.043C477.86 478.448 478.303 477.946 478.859 477.599C479.415 477.253 480.061 477.078 480.716 477.095C481.619 477.15 482.465 477.556 483.073 478.227C483.68 478.898 484 479.781 483.965 480.685Z" fill="#12B7B6"/>
<path d="M494.312 480.734C494.264 481.388 494.025 482.013 493.625 482.532C493.225 483.051 492.682 483.441 492.062 483.654C491.443 483.867 490.774 483.893 490.14 483.73C489.505 483.567 488.933 483.221 488.493 482.735C488.054 482.249 487.766 481.645 487.667 480.997C487.567 480.35 487.66 479.687 487.934 479.092C488.207 478.496 488.65 477.994 489.206 477.648C489.762 477.302 490.408 477.127 491.063 477.144C491.966 477.199 492.813 477.605 493.42 478.276C494.027 478.947 494.348 479.83 494.312 480.734Z" fill="#12B7B6"/>
<path d="M504.661 480.767C504.616 481.421 504.38 482.048 503.982 482.569C503.583 483.09 503.041 483.483 502.421 483.699C501.802 483.914 501.133 483.943 500.497 483.781C499.861 483.619 499.287 483.274 498.846 482.789C498.405 482.304 498.116 481.699 498.015 481.051C497.915 480.403 498.007 479.739 498.28 479.143C498.553 478.547 498.996 478.044 499.553 477.697C500.11 477.351 500.756 477.175 501.412 477.193C502.312 477.247 503.156 477.651 503.763 478.319C504.37 478.987 504.692 479.865 504.661 480.767Z" fill="#12B7B6"/>
<path d="M515.025 480.815C514.98 481.466 514.746 482.09 514.352 482.61C513.958 483.13 513.42 483.523 512.805 483.741C512.19 483.96 511.525 483.993 510.891 483.838C510.257 483.683 509.682 483.346 509.238 482.869C508.793 482.392 508.497 481.795 508.387 481.151C508.277 480.508 508.358 479.847 508.619 479.249C508.88 478.651 509.31 478.142 509.857 477.785C510.403 477.429 511.042 477.24 511.694 477.241C512.609 477.275 513.474 477.67 514.098 478.34C514.722 479.01 515.055 479.9 515.025 480.815V480.815Z" fill="#12B7B6"/>
<path d="M525.373 480.864C525.405 481.322 525.342 481.782 525.189 482.214C525.036 482.647 524.795 483.044 524.482 483.379C524.169 483.715 523.79 483.983 523.369 484.166C522.948 484.349 522.494 484.443 522.034 484.443C521.575 484.443 521.121 484.349 520.7 484.166C520.279 483.983 519.9 483.715 519.587 483.379C519.274 483.044 519.033 482.647 518.88 482.214C518.727 481.782 518.664 481.322 518.696 480.864C518.664 480.406 518.727 479.946 518.88 479.514C519.033 479.081 519.274 478.684 519.587 478.349C519.9 478.013 520.279 477.745 520.7 477.562C521.121 477.379 521.575 477.285 522.034 477.285C522.494 477.285 522.948 477.379 523.369 477.562C523.79 477.745 524.169 478.013 524.482 478.349C524.795 478.684 525.036 479.081 525.189 479.514C525.342 479.946 525.405 480.406 525.373 480.864Z" fill="#12B7B6"/>
<path d="M535.721 480.913C535.676 481.564 535.443 482.188 535.048 482.708C534.654 483.227 534.116 483.621 533.501 483.839C532.886 484.057 532.221 484.091 531.587 483.936C530.953 483.781 530.379 483.444 529.934 482.967C529.489 482.489 529.193 481.892 529.083 481.249C528.974 480.606 529.054 479.944 529.315 479.346C529.576 478.748 530.006 478.24 530.553 477.883C531.099 477.526 531.738 477.337 532.391 477.339C533.306 477.373 534.17 477.768 534.794 478.438C535.418 479.108 535.752 479.998 535.721 480.913V480.913Z" fill="#12B7B6"/>
<path d="M546.069 480.962C546.025 481.616 545.788 482.243 545.39 482.764C544.992 483.285 544.45 483.678 543.83 483.894C543.211 484.109 542.541 484.138 541.906 483.976C541.27 483.814 540.696 483.469 540.255 482.984C539.813 482.499 539.524 481.894 539.424 481.246C539.323 480.598 539.415 479.934 539.689 479.338C539.962 478.742 540.405 478.239 540.961 477.892C541.518 477.546 542.165 477.37 542.82 477.388C543.721 477.442 544.565 477.846 545.172 478.514C545.779 479.182 546.101 480.06 546.069 480.962V480.962Z" fill="#12B7B6"/>
<g opacity="0.2">
<path d="M463.732 480.85C463.684 481.504 463.446 482.129 463.046 482.648C462.646 483.167 462.102 483.557 461.483 483.77C460.863 483.983 460.195 484.009 459.56 483.846C458.926 483.683 458.353 483.337 457.914 482.851C457.474 482.365 457.187 481.761 457.087 481.113C456.988 480.466 457.081 479.803 457.354 479.208C457.628 478.612 458.07 478.11 458.626 477.764C459.183 477.418 459.828 477.243 460.483 477.26C461.388 477.31 462.237 477.716 462.845 478.388C463.453 479.06 463.772 479.945 463.732 480.85V480.85Z" fill="white"/>
<path d="M474.081 480.899C474.113 481.357 474.05 481.817 473.897 482.249C473.744 482.682 473.503 483.079 473.19 483.414C472.877 483.75 472.498 484.018 472.077 484.201C471.656 484.384 471.202 484.478 470.742 484.478C470.283 484.478 469.829 484.384 469.408 484.201C468.987 484.018 468.608 483.75 468.295 483.414C467.982 483.079 467.741 482.682 467.588 482.249C467.435 481.817 467.372 481.357 467.404 480.899C467.372 480.441 467.435 479.981 467.588 479.549C467.741 479.116 467.982 478.719 468.295 478.383C468.608 478.048 468.987 477.78 469.408 477.597C469.829 477.414 470.283 477.319 470.742 477.319C471.202 477.319 471.656 477.414 472.077 477.597C472.498 477.78 472.877 478.048 473.19 478.383C473.503 478.719 473.744 479.116 473.897 479.549C474.05 479.981 474.113 480.441 474.081 480.899V480.899Z" fill="white"/>
<path d="M484.445 480.948C484.397 481.601 484.158 482.226 483.758 482.745C483.358 483.264 482.815 483.655 482.195 483.868C481.576 484.081 480.907 484.107 480.273 483.944C479.638 483.78 479.066 483.434 478.626 482.948C478.186 482.463 477.899 481.858 477.8 481.211C477.7 480.563 477.793 479.901 478.067 479.305C478.34 478.71 478.783 478.208 479.339 477.862C479.895 477.516 480.541 477.34 481.196 477.358C482.099 477.412 482.945 477.819 483.553 478.49C484.16 479.161 484.48 480.043 484.445 480.948Z" fill="white"/>
<path d="M494.792 480.996C494.744 481.65 494.506 482.275 494.106 482.794C493.706 483.313 493.163 483.703 492.543 483.916C491.923 484.129 491.255 484.156 490.62 483.992C489.986 483.829 489.413 483.483 488.974 482.997C488.534 482.511 488.247 481.907 488.147 481.26C488.048 480.612 488.141 479.949 488.414 479.354C488.688 478.759 489.13 478.257 489.686 477.911C490.243 477.564 490.888 477.389 491.543 477.406C492.447 477.461 493.293 477.867 493.9 478.538C494.508 479.21 494.828 480.092 494.792 480.996Z" fill="white"/>
<path d="M505.141 481.029C505.096 481.683 504.86 482.31 504.462 482.831C504.063 483.353 503.521 483.745 502.901 483.961C502.282 484.176 501.613 484.205 500.977 484.043C500.341 483.882 499.767 483.537 499.326 483.051C498.885 482.566 498.596 481.962 498.495 481.313C498.395 480.665 498.487 480.002 498.76 479.406C499.033 478.809 499.476 478.307 500.033 477.96C500.59 477.613 501.236 477.437 501.892 477.455C502.792 477.509 503.636 477.914 504.243 478.581C504.85 479.249 505.172 480.127 505.141 481.029Z" fill="white"/>
<path d="M515.505 481.078C515.461 481.729 515.227 482.352 514.833 482.872C514.438 483.392 513.901 483.786 513.286 484.004C512.671 484.222 512.005 484.256 511.371 484.101C510.738 483.946 510.163 483.609 509.718 483.131C509.273 482.654 508.978 482.057 508.868 481.414C508.758 480.771 508.838 480.109 509.099 479.511C509.36 478.913 509.791 478.405 510.337 478.048C510.883 477.691 511.522 477.502 512.175 477.504C513.09 477.538 513.954 477.933 514.578 478.603C515.202 479.272 515.536 480.162 515.505 481.078V481.078Z" fill="white"/>
<path d="M525.853 481.126C525.885 481.584 525.823 482.044 525.669 482.477C525.516 482.909 525.275 483.306 524.962 483.642C524.649 483.978 524.27 484.245 523.849 484.428C523.428 484.611 522.974 484.706 522.515 484.706C522.056 484.706 521.602 484.611 521.181 484.428C520.76 484.245 520.381 483.978 520.068 483.642C519.754 483.306 519.514 482.909 519.361 482.477C519.207 482.044 519.145 481.584 519.177 481.126C519.145 480.668 519.207 480.209 519.361 479.776C519.514 479.343 519.754 478.947 520.068 478.611C520.381 478.275 520.76 478.007 521.181 477.824C521.602 477.641 522.056 477.547 522.515 477.547C522.974 477.547 523.428 477.641 523.849 477.824C524.27 478.007 524.649 478.275 524.962 478.611C525.275 478.947 525.516 479.343 525.669 479.776C525.823 480.209 525.885 480.668 525.853 481.126Z" fill="white"/>
<path d="M536.201 481.175C536.157 481.826 535.923 482.45 535.529 482.97C535.135 483.49 534.597 483.883 533.982 484.101C533.367 484.32 532.702 484.353 532.068 484.198C531.434 484.043 530.859 483.707 530.414 483.229C529.969 482.752 529.674 482.155 529.564 481.511C529.454 480.868 529.535 480.207 529.796 479.609C530.057 479.011 530.487 478.502 531.033 478.145C531.58 477.789 532.219 477.6 532.871 477.601C533.786 477.635 534.65 478.03 535.275 478.7C535.899 479.37 536.232 480.26 536.201 481.175V481.175Z" fill="white"/>
<path d="M546.549 481.224C546.505 481.878 546.268 482.505 545.87 483.026C545.472 483.548 544.93 483.94 544.31 484.156C543.691 484.371 543.021 484.4 542.386 484.238C541.75 484.077 541.176 483.732 540.735 483.246C540.293 482.761 540.004 482.157 539.904 481.508C539.803 480.86 539.895 480.197 540.169 479.601C540.442 479.004 540.885 478.502 541.441 478.155C541.998 477.808 542.645 477.632 543.3 477.65C544.201 477.705 545.045 478.109 545.652 478.776C546.259 479.444 546.581 480.322 546.549 481.224V481.224Z" fill="white"/>
</g>
<path d="M531.367 246.45C532.495 245.953 533.453 245.135 534.12 244.098C534.787 243.061 535.135 241.851 535.119 240.618C535.161 239.816 535.04 239.015 534.762 238.262C534.484 237.509 534.056 236.82 533.504 236.238C532.951 235.655 532.286 235.192 531.548 234.875C530.811 234.558 530.017 234.395 529.214 234.395C528.412 234.395 527.617 234.558 526.88 234.875C526.143 235.192 525.477 235.655 524.925 236.238C524.372 236.82 523.944 237.509 523.666 238.262C523.389 239.015 523.267 239.816 523.309 240.618C523.284 241.863 523.629 243.088 524.3 244.137C524.971 245.187 525.937 246.014 527.078 246.515C517.981 247.879 518.387 257.756 518.387 257.756L539.895 257.854C539.895 257.854 540.399 247.798 531.367 246.45Z" fill="#12B7B6"/>
<path opacity="0.1" d="M531.082 246.907C532.21 246.41 533.167 245.593 533.835 244.556C534.502 243.519 534.849 242.308 534.834 241.076C534.876 240.274 534.755 239.472 534.477 238.719C534.199 237.966 533.771 237.278 533.218 236.695C532.666 236.113 532.001 235.65 531.263 235.333C530.526 235.016 529.732 234.853 528.929 234.853C528.126 234.853 527.332 235.016 526.595 235.333C525.857 235.65 525.192 236.113 524.64 236.695C524.087 237.278 523.659 237.966 523.381 238.719C523.104 239.472 522.982 240.274 523.024 241.076C522.999 242.321 523.344 243.546 524.015 244.595C524.686 245.645 525.652 246.472 526.793 246.972C517.696 248.337 518.102 258.214 518.102 258.214L539.61 258.311C539.61 258.311 540.114 248.256 531.082 246.907Z" fill="black"/>
<path d="M566.317 264.224L489.658 263.876L489.617 273.038L566.276 273.386L566.317 264.224Z" fill="#12B7B6"/>
<path opacity="0.2" d="M566.07 264.828L489.411 264.48L489.37 273.642L566.029 273.99L566.07 264.828Z" fill="white"/>
<path d="M284.492 311.706H283.728L281.519 311.868C280.323 311.94 279.135 312.097 277.961 312.339C277.202 312.446 276.448 312.592 275.703 312.778L273.185 313.476C268.9 314.791 264.856 316.794 261.213 319.406C256.399 322.9 252.38 327.373 249.419 332.532C247.679 335.505 246.294 338.673 245.293 341.97C244.241 345.553 243.635 349.252 243.49 352.984C243.393 354.944 243.425 356.909 243.587 358.865C243.587 359.856 243.863 360.846 243.993 361.854C244.103 362.869 244.293 363.874 244.562 364.859C246.023 371.378 248.987 377.465 253.217 382.635C257.448 387.805 262.828 391.914 268.929 394.636C273.345 396.541 278.078 397.605 282.884 397.771C287.848 398.044 292.817 397.332 297.504 395.676L298.934 395.14H299.129L299.291 395.237L319.776 405.634L319.175 406.154C316.982 399.363 314.87 392.784 312.823 386.465V386.221L313.002 386.042C317.971 381.037 321.66 374.907 323.756 368.173C325.654 362.016 326.208 355.523 325.38 349.134C324.644 343.455 322.818 337.973 320.003 332.986C317.577 328.703 314.447 324.859 310.744 321.615C307.689 319.047 304.308 316.895 300.688 315.214C297.949 314.033 295.097 313.135 292.176 312.534L288.927 311.998L286.571 311.819L285.142 311.722H284.654C284.816 311.704 284.98 311.704 285.142 311.722H286.588L288.943 311.819L292.192 312.29C295.15 312.847 298.041 313.713 300.818 314.873C304.5 316.534 307.942 318.681 311.052 321.258C314.823 324.487 318.02 328.332 320.507 332.629C323.402 337.669 325.284 343.226 326.046 348.988C326.943 355.476 326.428 362.081 324.536 368.352C322.426 375.226 318.68 381.486 313.619 386.595L313.717 386.172C315.763 392.492 317.892 399.071 320.101 405.845L320.409 406.836L319.484 406.365L298.999 395.984H299.356L297.894 396.52C293.116 398.202 288.055 398.93 282.997 398.665C278.088 398.478 273.256 397.376 268.751 395.416C260.157 391.735 253.006 385.338 248.396 377.205C246.274 373.449 244.724 369.397 243.798 365.184C243.545 364.173 243.355 363.148 243.23 362.114C243.1 361.09 242.889 360.083 242.84 359.076C242.4 353.296 243.011 347.484 244.643 341.921C245.669 338.579 247.093 335.372 248.883 332.369C251.915 327.164 256.018 322.662 260.921 319.162C264.624 316.543 268.735 314.556 273.088 313.281L275.638 312.632C276.389 312.457 277.148 312.322 277.913 312.225C279.098 312.006 280.298 311.876 281.503 311.836L283.728 311.754C283.981 311.72 284.237 311.704 284.492 311.706Z" fill="#12B7B6"/>
<path d="M293.751 349.589H290.746L284.248 340.459V334.465C284.248 334.465 279.602 334.172 280.154 342.019C280.707 349.865 280.154 347.867 280.154 347.867C280.154 347.867 270.294 347.867 269.481 348.76C268.669 349.654 268.621 359.173 268.507 364.485C268.445 365.766 268.812 367.03 269.551 368.078C270.29 369.126 271.357 369.897 272.584 370.268C272.928 370.364 273.283 370.413 273.64 370.415C276.109 370.415 288.667 368.417 288.667 368.417H293.849L293.751 349.589Z" fill="#12B7B6"/>
<path d="M302.345 347.98L300.493 368.514H295.36V348.403L302.345 347.98Z" fill="#12B7B6"/>
<path d="M363.572 766.011V752.122L338.668 751.943L338.457 772.948L340 773.062C346.872 773.5 374.959 774.15 379.573 772.721C384.706 771.129 363.572 766.011 363.572 766.011Z" fill="#12B7B6"/>
<path d="M380.158 771.421C380.158 771.648 370.833 771.843 359.348 771.843C347.863 771.843 338.539 771.648 338.539 771.421C338.539 771.193 347.863 770.999 359.348 770.999C370.833 770.999 380.158 771.193 380.158 771.421Z" fill="#263238"/>
<path d="M364.011 768.854C363.8 768.741 364.011 768.01 364.515 767.23C365.018 766.45 365.701 766.125 365.863 766.288C366.025 766.45 365.684 767.067 365.197 767.733C364.71 768.399 364.222 768.968 364.011 768.854Z" fill="#263238"/>
<path d="M365.603 769.764C365.375 769.764 365.489 768.854 365.976 767.993C366.464 767.132 367.114 766.612 367.292 766.742C367.471 766.872 367.179 767.603 366.724 768.367C366.269 769.13 365.814 769.845 365.603 769.764Z" fill="#263238"/>
<path d="M346.044 771.356C345.946 771.356 345.572 771.064 345.036 770.446C344.382 769.653 343.653 768.924 342.86 768.27C342.079 767.646 341.15 767.237 340.163 767.084C339.399 766.986 338.912 767.084 338.863 766.986C338.815 766.889 339.286 766.548 340.179 766.483C341.358 766.458 342.509 766.849 343.428 767.587C344.29 768.29 345.016 769.143 345.572 770.105C345.946 770.82 346.141 771.291 346.044 771.356Z" fill="#263238"/>
<path d="M364.092 766.239C364.205 766.434 363.783 766.921 363.068 767.181C362.354 767.441 361.72 767.343 361.688 767.181C361.655 767.019 362.159 766.677 362.776 766.45C363.393 766.223 363.962 766.044 364.092 766.239Z" fill="#263238"/>
<path d="M363.702 764.89C363.702 765.134 363.052 765.329 362.208 765.345C361.363 765.362 360.697 765.167 360.713 764.939C360.729 764.712 361.395 764.501 362.208 764.484C363.02 764.468 363.67 764.663 363.702 764.89Z" fill="#263238"/>
<path d="M424.897 766.011V752.122L399.993 751.943L399.782 772.737L401.325 772.851C408.197 773.289 436.301 774.15 440.898 772.721C446.032 771.129 424.897 766.011 424.897 766.011Z" fill="#12B7B6"/>
<path d="M441.483 771.453C441.483 771.681 432.174 771.876 420.673 771.876C409.171 771.876 399.879 771.681 399.879 771.453C399.879 771.226 409.188 771.031 420.673 771.031C432.158 771.031 441.483 771.226 441.483 771.453Z" fill="#263238"/>
<path d="M425.335 768.854C425.14 768.741 425.335 768.01 425.839 767.23C426.342 766.45 427.025 766.125 427.187 766.288C427.35 766.45 427.008 767.067 426.521 767.733C426.034 768.399 425.546 768.968 425.335 768.854Z" fill="#263238"/>
<path d="M426.927 769.764C426.716 769.764 426.813 768.854 427.317 767.993C427.82 767.132 428.454 766.612 428.633 766.742C428.811 766.872 428.503 767.603 428.048 768.367C427.593 769.13 427.154 769.845 426.927 769.764Z" fill="#263238"/>
<path d="M407.368 771.356C407.271 771.356 406.913 771.064 406.361 770.446C405.707 769.653 404.978 768.924 404.184 768.27C403.404 767.646 402.474 767.237 401.488 767.084C400.74 766.986 400.237 767.084 400.188 766.986C400.139 766.889 400.61 766.548 401.504 766.483C402.683 766.458 403.833 766.849 404.753 767.587C405.619 768.285 406.346 769.139 406.897 770.105C407.271 770.82 407.466 771.291 407.368 771.356Z" fill="#263238"/>
<path d="M425.417 766.239C425.531 766.434 425.108 766.921 424.394 767.181C423.679 767.441 423.045 767.343 423.013 767.181C422.98 767.019 423.484 766.677 424.101 766.45C424.718 766.223 425.287 766.044 425.417 766.239Z" fill="#263238"/>
<path d="M425.059 764.89C425.059 765.134 424.409 765.329 423.565 765.345C422.72 765.362 422.07 765.167 422.086 764.939C422.102 764.712 422.752 764.501 423.565 764.484C424.377 764.468 425.059 764.663 425.059 764.89Z" fill="#263238"/>
<path d="M516.648 353.553C515.998 352.887 514.39 353.211 514.39 353.211C514.551 352.276 514.551 351.32 514.39 350.385C514.098 349.475 512.051 349.654 512.051 349.654C511.956 348.888 511.956 348.113 512.051 347.347C512.067 347.177 512.031 347.007 511.946 346.858C511.862 346.71 511.734 346.591 511.58 346.519C510.611 346.124 509.571 345.936 508.526 345.966C507.275 345.073 512.343 337.974 514.228 335.699C516.112 333.425 515.771 331.654 514.098 331.654C512.944 331.654 507.031 338.477 505.212 340.768C503.392 343.058 498.568 349.426 498.405 344.342C498.243 339.257 496.196 335.423 494.912 334.773C493.629 334.124 492.265 335.651 492.963 337.064C493.577 338.67 493.96 340.354 494.1 342.067C494.277 343.432 494.216 344.817 493.921 346.161C493.383 348.662 492.65 351.117 491.728 353.504H491.598C491.598 353.504 456.152 387.504 453.585 389.925C451.295 392.102 405.224 387.342 395.981 386.367C392.84 385.908 389.668 385.69 386.494 385.718C382.481 385.896 381.766 386.465 377.77 386.514C367.678 386.626 357.609 387.511 347.652 389.161C343.144 389.928 338.932 391.918 335.477 394.915C332.022 397.911 329.457 401.799 328.061 406.154C318.752 435.232 297.666 504.062 293.946 542.725C291.135 547.823 288.597 553.066 286.344 558.434C283.728 565.549 284.362 565.793 285.239 565.955C287.611 566.394 290.307 553.625 291.315 556.712C292.322 559.798 286.198 571.933 288.683 572.291C291.932 572.745 294.515 559.295 294.824 558.222C295.132 557.15 296.74 557.491 296.448 558.499C295.977 559.928 291.412 575.085 294.596 575.572C296.351 575.832 296.546 572.632 296.546 572.632C296.546 572.632 299.795 558.125 301.273 558.417C302.751 558.71 301.175 567.271 300.428 570.13C299.681 572.989 300.72 574.435 302.248 573.736C303.287 573.249 305.773 564.558 306.455 561.731C307.137 558.905 308.843 551.075 311.133 555.607C313.424 560.139 316.9 562.771 318.33 562.836C318.652 562.799 318.956 562.666 319.202 562.455C319.448 562.244 319.625 561.964 319.711 561.651C319.796 561.338 319.786 561.007 319.682 560.7C319.578 560.393 319.384 560.124 319.126 559.928C317.896 558.727 316.841 557.36 315.991 555.867C315.233 554.704 314.683 553.417 314.366 552.066C313.712 549.371 313.331 546.617 313.229 543.846L312.969 542.221C316.608 524.206 327.086 471.328 342.21 437.555L348.416 450.324L351.112 459.778L334.575 500.602L405.11 499.676L394.584 459.161L407.368 416.924C421.193 417.233 456.688 417.753 462.601 415.072C470.041 411.823 508.526 363.218 508.526 363.218C511.034 361.269 513.437 359.187 515.722 356.98C515.722 356.98 518.061 355.015 516.648 353.553Z" fill="#FFBE9D"/>
<path d="M331.472 470.435C333.519 463.45 344.029 428.913 344.029 428.913C344.029 428.913 349.195 457.065 347.831 460.461C346.575 463.367 345.092 466.17 343.396 468.843C331.472 486.989 333.031 496.07 333.031 496.07L405.078 493.876C405.24 483.805 399.278 460.379 398.044 456.643C396.809 452.907 400.919 440.674 400.919 440.674C400.919 440.674 409.041 432.406 408.749 428.149C408.595 424.326 408.122 420.523 407.336 416.778L451.197 418.402L449.816 388.674L386.818 382.371C384.625 388.561 364.79 385.523 364.79 385.523C343.379 386.238 342.047 390.169 333.145 397.089C324.243 404.009 309.509 463.401 309.509 463.401L331.472 470.435Z" fill="#12B7B6" fill-opacity="0.68"/>
<path d="M374.067 463.401C372.818 463.624 371.546 463.689 370.281 463.596C367.926 463.596 364.693 463.433 361.136 463.076C357.578 462.719 354.361 462.215 352.071 461.76C350.808 461.597 349.57 461.281 348.383 460.818C349.653 460.818 350.921 460.938 352.168 461.175C354.475 461.468 357.675 461.874 361.217 462.231C364.758 462.589 367.975 462.832 370.298 462.995C371.564 463.011 372.826 463.147 374.067 463.401V463.401Z" fill="#263238"/>
<path d="M379.005 457.276C377.756 457.888 376.435 458.341 375.074 458.625C368.593 460.328 361.906 461.121 355.206 460.98C353.82 461.025 352.433 460.894 351.08 460.59C352.448 460.418 353.828 460.347 355.206 460.379C357.757 460.298 361.266 460.119 365.132 459.664C368.998 459.21 372.442 458.56 374.879 458.04C376.232 457.679 377.612 457.423 379.005 457.276V457.276Z" fill="#263238"/>
<path d="M403.243 429.953C403.21 431.191 403.041 432.422 402.739 433.624C402.317 435.882 401.667 438.968 400.838 442.347C400.01 445.726 399.214 448.845 398.499 450.957C398.212 452.166 397.786 453.338 397.232 454.45C397.322 453.215 397.551 451.995 397.914 450.811C398.532 448.277 399.23 445.353 400.01 442.152C400.79 438.952 401.537 436.028 402.154 433.494C402.374 432.274 402.739 431.085 403.243 429.953V429.953Z" fill="#263238"/>
<path d="M332.236 466.292C328.478 465.712 324.769 464.849 321.14 463.709C317.433 462.843 313.795 461.702 310.256 460.298C314.013 460.888 317.721 461.751 321.352 462.881C325.06 463.745 328.698 464.885 332.236 466.292V466.292Z" fill="#263238"/>
<path d="M408.115 416.42C407.502 416.526 406.876 416.526 406.263 416.42C404.566 416.246 402.9 415.848 401.308 415.235C398.651 414.236 396.232 412.692 394.206 410.703C392.181 408.714 390.594 406.323 389.547 403.684C388.39 400.781 387.896 397.657 388.101 394.539C388.174 391.967 388.943 389.462 390.327 387.293C391.3 385.832 392.754 384.757 394.437 384.255C394.886 384.131 395.351 384.071 395.818 384.077C396.143 384.077 396.305 384.077 396.305 384.077C396.305 384.077 395.623 384.077 394.534 384.515C392.991 385.086 391.682 386.155 390.814 387.553C388.605 391.03 387.988 397.381 390.343 403.311C391.439 406.107 393.156 408.617 395.363 410.653C397.171 412.32 399.254 413.661 401.52 414.617C403.646 415.457 405.857 416.062 408.115 416.42V416.42Z" fill="#263238"/>
<path d="M445.983 417.818C445.576 412.836 445.446 407.836 445.593 402.84C445.466 397.848 445.618 392.853 446.048 387.878C446.454 392.854 446.585 397.849 446.438 402.84C446.574 407.837 446.422 412.838 445.983 417.818V417.818Z" fill="#263238"/>
<path d="M386.396 384.191C386.575 380.568 386.949 376.474 386.949 376.474C386.949 376.474 395.916 375.483 396.452 366.224C396.988 356.964 396.452 335.602 396.452 335.602L380.207 327.285L362.175 341.466L364.953 387.764L381.491 388.82C382.755 388.855 383.981 388.388 384.901 387.52C385.82 386.652 386.358 385.455 386.396 384.191V384.191Z" fill="#FFBE9D"/>
<path d="M388.005 358.897C388.005 358.897 388.005 359.076 387.858 359.287C387.737 359.44 387.581 359.562 387.403 359.641C387.224 359.72 387.03 359.755 386.835 359.742C385.795 359.742 384.788 358.54 384.431 357.143C384.261 356.466 384.261 355.757 384.431 355.08C384.464 354.784 384.571 354.501 384.741 354.257C384.911 354.014 385.139 353.816 385.405 353.683C385.624 353.592 385.869 353.592 386.088 353.683C386.25 353.763 386.381 353.894 386.461 354.056C386.575 354.332 386.461 354.511 386.461 354.495C386.461 354.479 386.461 354.332 386.299 354.17C386.214 354.054 386.089 353.973 385.948 353.943C385.807 353.913 385.66 353.936 385.535 354.007C385.336 354.128 385.17 354.297 385.054 354.499C384.938 354.7 384.874 354.928 384.869 355.161C384.732 355.765 384.732 356.392 384.869 356.997C385.194 358.264 386.071 359.287 386.851 359.385C387.004 359.405 387.159 359.394 387.307 359.352C387.455 359.31 387.593 359.238 387.712 359.141C387.907 359.011 387.972 358.881 388.005 358.897Z" fill="#EB996E"/>
<path d="M402.024 330.599C400.773 326.342 396.241 324.23 392.114 323.061C385.828 321.274 379.037 320.494 372.897 322.752C366.756 325.01 359.381 328.974 359.381 335.748C355.758 335.456 353.679 338.624 352.249 342.555C351.335 344.95 350.788 347.469 350.625 350.027V350.027C350.17 358.897 347.685 371.146 341.934 377.644C338.685 381.266 334.185 383.768 332.333 388.284C330.709 392.199 331.553 396.845 330.043 400.809C328.694 404.302 325.721 406.787 323.545 409.825C321.327 413.271 320.022 417.225 319.752 421.314C319.482 425.403 320.256 429.494 322.001 433.202C323.759 436.814 326.234 440.031 329.276 442.657C332.317 445.282 335.861 447.26 339.692 448.472C347.28 450.78 355.372 450.859 363.004 448.699C368.731 447.33 374.074 444.68 378.631 440.95C383.294 437.143 386.497 431.839 387.696 425.94C388.849 419.312 386.997 412.57 385.616 405.975C381.295 385.133 382.53 384.044 387.988 364.697C388.118 364.355 388.183 363.998 388.281 363.657C388.378 363.316 388.427 363.153 388.492 362.893C388.647 362.129 388.728 361.351 388.735 360.57C387.938 360.867 387.073 360.93 386.241 360.751C385.41 360.573 384.646 360.161 384.041 359.563C383.434 358.926 383.011 358.137 382.816 357.279C382.622 356.421 382.663 355.526 382.936 354.69C383.319 353.775 383.89 352.951 384.612 352.271C385.334 351.591 386.191 351.07 387.127 350.742C388.93 349.995 390.864 349.605 392.634 348.777C396.387 346.99 398.986 343.286 400.757 339.403C402.213 336.712 402.662 333.591 402.024 330.599V330.599Z" fill="#263238"/>
<path d="M388.655 359.336C388.998 359.843 389.281 360.388 389.499 360.96C389.987 361.984 390.636 363.43 391.351 365.103L391.481 365.411H391.14L389.516 365.558C388.395 365.558 387.452 365.769 386.348 365.753C386.252 365.731 386.162 365.685 386.089 365.62C386.015 365.555 385.959 365.472 385.925 365.379C385.877 365.231 385.877 365.072 385.925 364.924C385.963 364.705 386.012 364.488 386.072 364.274L386.364 363.121C386.511 362.351 386.74 361.6 387.046 360.879C387.016 361.663 386.902 362.442 386.705 363.202L386.478 364.355C386.397 364.745 386.25 365.346 386.478 365.298C387.29 365.298 388.443 365.119 389.516 365.054L391.14 364.908L390.929 365.265C390.23 363.641 389.646 362.114 389.304 361.058C389.005 360.518 388.786 359.938 388.655 359.336V359.336Z" fill="#FD7401"/>
<path d="M333.032 496.069L405.078 493.876L436.43 616.266L430.664 756.654H392.569L397.231 619.255L369.371 534.05L373.66 762.096L335.16 762.665L331.115 548.313C330.936 542.351 328.987 528.917 329.718 523.003L333.032 496.069Z" fill="#263238"/>
<path d="M378.956 535.788C377.777 535.862 376.593 535.791 375.431 535.577C373.254 535.317 370.282 534.862 367.016 534.212C363.751 533.563 360.827 532.815 358.715 532.214C357.586 531.966 356.494 531.573 355.466 531.045C355.466 530.801 360.762 532.068 367.26 533.384C373.758 534.7 378.989 535.545 378.956 535.788Z" fill="#455A64"/>
<path d="M430.274 748.954C430.274 749.182 421.648 749.377 411.007 749.377C400.367 749.377 391.725 749.182 391.725 748.954C391.725 748.727 400.351 748.532 411.007 748.532C421.664 748.532 430.274 748.71 430.274 748.954Z" fill="#455A64"/>
<path d="M373.319 756.167C373.319 756.411 364.937 756.589 354.605 756.589C344.273 756.589 335.907 756.411 335.907 756.167C335.907 755.923 344.29 755.745 354.605 755.745C364.921 755.745 373.319 755.94 373.319 756.167Z" fill="#455A64"/>
<path d="M368.349 755.582C368.121 755.582 367.114 705.759 366.091 644.304C365.067 582.85 364.466 532.994 364.677 532.994C364.889 532.994 365.928 582.801 366.935 644.288C367.943 705.775 368.592 755.582 368.349 755.582Z" fill="#455A64"/>
<path d="M425.157 748.954C425.139 748.732 425.139 748.51 425.157 748.288V746.339C425.157 744.584 425.287 742.066 425.384 738.866C425.612 732.368 425.937 722.93 426.343 711.363C427.22 688.101 428.455 656.033 429.803 620.635C429.803 620.294 429.803 619.969 429.803 619.677V619.791C421.274 585.676 413.558 554.714 407.953 532.312L401.455 505.816C400.708 502.714 400.14 500.293 399.733 498.604C399.539 497.808 399.409 497.19 399.295 496.719C399.232 496.508 399.193 496.29 399.181 496.069C399.266 496.274 399.331 496.486 399.376 496.703C399.506 497.158 399.668 497.775 399.896 498.555C400.335 500.179 400.968 502.649 401.78 505.735C403.405 512.006 405.695 521.038 408.554 532.166C414.208 554.551 422.005 585.433 430.648 619.596V619.709C430.648 620.002 430.648 620.343 430.648 620.668C429.202 656.066 427.886 688.117 426.927 711.38C426.424 722.962 426.002 732.336 425.709 738.866C425.547 742.115 425.417 744.584 425.335 746.339C425.335 747.167 425.238 747.817 425.222 748.288C425.224 748.512 425.202 748.735 425.157 748.954V748.954Z" fill="#455A64"/>
<path d="M412.729 616.818C409.993 617.718 407.174 618.343 404.314 618.686C400.805 619.287 397.816 619.709 396.468 619.774V619.45C396.907 619.58 397.134 619.661 397.134 619.726C397.134 619.791 396.858 619.726 396.403 619.726H395.428L396.403 619.433C397.67 619.06 400.659 618.442 404.168 617.809C406.982 617.198 409.85 616.866 412.729 616.818Z" fill="#455A64"/>
<path d="M412.064 621.48C409.53 621.596 406.991 621.482 404.477 621.139C401.94 621.087 399.412 620.81 396.923 620.311C402 619.896 407.111 620.291 412.064 621.48V621.48Z" fill="#455A64"/>
<path opacity="0.2" d="M332.724 498.652C333.577 499.748 334.652 500.651 335.878 501.304C337.104 501.956 338.453 502.342 339.839 502.437C342.741 502.781 345.676 502.726 348.562 502.275C367.163 500.212 386.868 498.311 405.079 493.876C381.507 495.192 356.604 494.754 333.032 496.069L332.789 498.084" fill="black"/>
<g opacity="0.2">
<path d="M357.009 531.873L370.297 583.435L369.371 534.05L357.009 531.873Z" fill="black"/>
</g>
</svg>
