<svg width="264" height="264" viewBox="0 0 264 264" fill="none" xmlns="http://www.w3.org/2000/svg">
<g filter="url(#filter0_ii_185_903)">
<path d="M0 132C0 59.0984 59.0984 0 132 0C204.902 0 264 59.0984 264 132C264 204.902 204.902 264 132 264C59.0984 264 0 204.902 0 132Z" fill="#EDEDED"/>
</g>
<path d="M148.803 79.7861H103.301V140.909H148.803V79.7861Z" fill="#D3F3F2"/>
<path d="M133.604 129.358H159.283H181.453L165.022 98.318L181.453 67.2778H159.283H133.604V129.358Z" fill="white"/>
<path d="M83.7371 65.0842C83.7371 63.4493 84.2065 61.8512 85.0861 60.4918C85.9656 59.1325 87.2157 58.073 88.6782 57.4473C90.1408 56.8217 91.7501 56.658 93.3028 56.977C94.8554 57.2959 96.2817 58.0832 97.4011 59.2392C98.5205 60.3952 99.2828 61.8681 99.5916 63.4715C99.9005 65.075 99.742 66.7371 99.1362 68.2475C98.5304 69.7579 97.5044 71.0489 96.1881 71.9572C94.8719 72.8655 93.3243 73.3503 91.7413 73.3503C90.6897 73.3519 89.6482 73.1391 88.6764 72.7243C87.7046 72.3094 86.8216 71.7006 86.078 70.9328C85.3345 70.1649 84.7449 69.253 84.3432 68.2494C83.9415 67.2458 83.7355 66.1702 83.7371 65.0842Z" fill="#26C5BF"/>
<path d="M95.2856 79.7861V208.504V79.7861V208.504H88.1851V79.7861H95.2856Z" fill="#D3F3F2"/>
<path d="M97.046 79.7861H93.5251V208.504H97.046V79.7861Z" fill="#283133"/>
<path d="M97.0465 208.504H93.5256V81.604H89.946V208.504H86.425V77.9679H97.0465V208.504Z" fill="#323232"/>
<path d="M150.564 142.715H101.541V77.9679H133.605V81.604H105.062V139.079H147.043V129.358H150.564V142.715Z" fill="#323232"/>
<path d="M184.423 131.164H131.844V65.4478H184.423L167.03 98.306L184.423 131.164ZM135.365 127.528H178.484L163.016 98.306L178.484 69.0839H135.365V127.528Z" fill="#323232"/>
<path d="M186.712 138.824H167.617V142.46H186.712V138.824Z" fill="#323232"/>
<path d="M195.924 138.824H191.981V142.46H195.924V138.824Z" fill="#323232"/>
<path d="M218.821 90.1124H199.726V93.7485H218.821V90.1124Z" fill="#323232"/>
<path d="M228.034 90.1124H224.091V93.7485H228.034V90.1124Z" fill="#323232"/>
<path d="M213.893 108.523H183.109V112.159H213.893V108.523Z" fill="#323232"/>
<path d="M97.046 79.7861H93.5251V208.504H97.046V79.7861Z" fill="#323232"/>
<path d="M91.7647 75.1682C89.8334 75.1682 87.9456 74.5768 86.3398 73.4687C84.734 72.3607 83.4824 70.7858 82.7433 68.9431C82.0042 67.1005 81.8109 65.0729 82.1876 63.1168C82.5644 61.1606 83.4944 59.3638 84.86 57.9535C86.2257 56.5433 87.9655 55.5829 89.8597 55.1938C91.7538 54.8047 93.7172 55.0044 95.5014 55.7676C97.2857 56.5308 98.8108 57.8234 99.8837 59.4817C100.957 61.14 101.529 63.0897 101.529 65.0841C101.529 66.4084 101.277 67.7197 100.786 68.9431C100.295 70.1666 99.576 71.2782 98.6693 72.2146C97.7626 73.151 96.6861 73.8938 95.5014 74.4006C94.3167 74.9074 93.047 75.1682 91.7647 75.1682ZM91.7647 58.6482C90.5293 58.6482 89.3217 59.0267 88.2946 59.7357C87.2676 60.4448 86.4673 61.4526 85.9951 62.6315C85.5228 63.8104 85.3999 65.1075 85.6418 66.3586C85.8836 67.6097 86.4795 68.7586 87.3539 69.6599C88.2283 70.5612 89.3419 71.1744 90.5538 71.4218C91.7657 71.6692 93.0215 71.5398 94.1622 71.0499C95.3028 70.56 96.2772 69.7317 96.9619 68.6697C97.6465 67.6078 98.0107 66.3599 98.0084 65.0841C98.0053 63.3761 97.3461 61.7391 96.1755 60.5325C95.005 59.3259 93.4186 58.6482 91.7647 58.6482Z" fill="#323232"/>
<defs>
<filter id="filter0_ii_185_903" x="-20" y="-20" width="304" height="304" filterUnits="userSpaceOnUse" color-interpolation-filters="sRGB">
<feFlood flood-opacity="0" result="BackgroundImageFix"/>
<feBlend mode="normal" in="SourceGraphic" in2="BackgroundImageFix" result="shape"/>
<feColorMatrix in="SourceAlpha" type="matrix" values="0 0 0 0 0 0 0 0 0 0 0 0 0 0 0 0 0 0 127 0" result="hardAlpha"/>
<feOffset dx="20" dy="20"/>
<feGaussianBlur stdDeviation="25"/>
<feComposite in2="hardAlpha" operator="arithmetic" k2="-1" k3="1"/>
<feColorMatrix type="matrix" values="0 0 0 0 0.804167 0 0 0 0 0.804167 0 0 0 0 0.804167 0 0 0 1 0"/>
<feBlend mode="normal" in2="shape" result="effect1_innerShadow_185_903"/>
<feColorMatrix in="SourceAlpha" type="matrix" values="0 0 0 0 0 0 0 0 0 0 0 0 0 0 0 0 0 0 127 0" result="hardAlpha"/>
<feOffset dx="-20" dy="-20"/>
<feGaussianBlur stdDeviation="25"/>
<feComposite in2="hardAlpha" operator="arithmetic" k2="-1" k3="1"/>
<feColorMatrix type="matrix" values="0 0 0 0 1 0 0 0 0 1 0 0 0 0 1 0 0 0 1 0"/>
<feBlend mode="normal" in2="effect1_innerShadow_185_903" result="effect2_innerShadow_185_903"/>
</filter>
</defs>
</svg>
