<svg width="716" height="865" viewBox="0 0 716 865" fill="none" xmlns="http://www.w3.org/2000/svg">
<path d="M715.51 49.0138V817.477C715.51 835.91 704.51 851.831 688.43 859.554C681.506 862.91 673.947 864.634 666.3 864.599H431.3C431.235 864.699 431.14 864.775 431.03 864.816L429.67 864.599H49.34C22.17 864.599 0.130016 843.54 0.130016 817.477V49.0138C0.119716 46.5878 0.320501 44.1658 0.729991 41.777C1.43059 37.3636 2.75119 33.0797 4.64997 29.061V29.061C6.09325 26.0871 7.80774 23.2622 9.77003 20.625C10.43 19.7359 11.12 18.8881 11.87 18.0404C12.8701 16.7788 13.9779 15.6128 15.18 14.5564C15.74 14.0292 16.34 13.4502 16.95 12.9127C18.7959 11.3256 20.74 9.86471 22.77 8.53953C26.2254 6.31235 29.9161 4.50173 33.77 3.143C39.4595 1.15591 45.4247 0.143183 51.43 0.144878H664.1C671.191 0.119146 678.219 1.52381 684.79 4.28018C685.68 4.68337 686.57 5.07625 687.45 5.53113C691.406 7.43731 695.104 9.8702 698.45 12.7679C699.1 13.3468 699.75 13.9258 700.36 14.5047C701.642 15.6486 702.826 16.9041 703.9 18.2575C704.6 19.1053 705.3 19.953 705.9 20.8008C707.167 22.51 708.335 24.2947 709.4 26.1456C710.419 28.0254 711.337 29.9616 712.15 31.9454C713.351 34.9623 714.226 38.1069 714.76 41.3222C714.9 42.1699 715.04 43.059 715.13 43.9481C715.35 45.6277 715.477 47.3191 715.51 49.0138V49.0138Z" fill="#EBEBEB"/>
<g style="mix-blend-mode:multiply">
<path d="M572.63 458.005L495.93 489.185C494.728 489.693 493.385 489.712 492.169 489.241C490.953 488.77 489.953 487.842 489.37 486.642L485.6 478.144C485.352 477.555 485.224 476.919 485.224 476.276C485.225 475.634 485.353 474.998 485.602 474.409C485.851 473.82 486.214 473.291 486.67 472.854C487.125 472.416 487.663 472.081 488.25 471.869L564.98 440.689C566.18 440.181 567.52 440.16 568.735 440.629C569.949 441.099 570.947 442.025 571.53 443.221L575.3 451.719C575.551 452.31 575.68 452.949 575.68 453.594C575.68 454.239 575.551 454.877 575.3 455.468C575.049 456.059 574.682 456.59 574.222 457.026C573.763 457.463 573.221 457.796 572.63 458.005V458.005Z" fill="#EAEFF7"/>
</g>
<g style="mix-blend-mode:multiply">
<path d="M610.3 473.75L533.58 504.93C532.379 505.441 531.036 505.464 529.82 504.994C528.603 504.524 527.603 503.597 527.02 502.398L523.25 493.899C523 493.31 522.871 492.673 522.871 492.029C522.87 491.385 522.998 490.748 523.247 490.158C523.496 489.568 523.86 489.037 524.317 488.6C524.773 488.162 525.312 487.826 525.9 487.614L602.62 456.434C603.823 455.929 605.165 455.91 606.38 456.381C607.596 456.853 608.595 457.779 609.18 458.977L612.95 467.475C613.2 468.064 613.329 468.7 613.329 469.343C613.33 469.986 613.201 470.622 612.953 471.212C612.704 471.801 612.34 472.331 611.883 472.768C611.427 473.205 610.888 473.539 610.3 473.75V473.75Z" fill="#EAEFF7"/>
</g>
<g style="mix-blend-mode:multiply">
<path d="M647.68 490.602L570.93 521.782C569.729 522.29 568.387 522.311 567.171 521.842C565.955 521.373 564.955 520.447 564.37 519.249L560.6 510.751C560.35 510.161 560.221 509.524 560.22 508.881C560.22 508.237 560.348 507.6 560.597 507.01C560.846 506.42 561.21 505.889 561.666 505.451C562.123 505.013 562.662 504.678 563.25 504.465L639.97 473.285C641.172 472.778 642.515 472.758 643.731 473.229C644.947 473.701 645.947 474.629 646.53 475.828L650.3 484.326C650.55 484.913 650.681 485.548 650.683 486.189C650.685 486.831 650.56 487.466 650.314 488.055C650.068 488.644 649.707 489.174 649.254 489.612C648.801 490.051 648.265 490.387 647.68 490.602V490.602Z" fill="#EAEFF7"/>
</g>
<g style="mix-blend-mode:multiply">
<path d="M110.68 80.7316L28.3901 93.3856C27.1231 93.6141 25.8196 93.3291 24.7506 92.5898C23.6816 91.8505 22.9293 90.7137 22.6501 89.4157L21.1301 80.2974C21.0434 79.6544 21.0825 79 21.2451 78.3729C21.4077 77.7459 21.6904 77.1589 22.0765 76.647C22.4626 76.135 22.9442 75.7084 23.4928 75.3925C24.0414 75.0765 24.6458 74.8777 25.2701 74.8078L107.57 62.1641C108.836 61.9385 110.137 62.2249 111.203 62.964C112.27 63.7031 113.021 64.8382 113.3 66.134L114.83 75.2523C114.915 75.8953 114.875 76.5494 114.711 77.1759C114.547 77.8024 114.263 78.3885 113.876 78.8994C113.489 79.4104 113.007 79.8358 112.458 80.1506C111.909 80.4653 111.304 80.6629 110.68 80.7316Z" fill="#EAEFF7"/>
</g>
<g style="mix-blend-mode:multiply">
<path d="M122.71 46.4703L40.4099 59.1244C39.1444 59.35 37.8434 59.0635 36.7767 58.3245C35.7099 57.5854 34.9591 56.4503 34.6799 55.1545L33.1498 46.0361C33.0646 45.3925 33.1052 44.7379 33.2689 44.1107C33.4327 43.4836 33.7164 42.8969 34.1033 42.3851C34.4902 41.8733 34.9724 41.4469 35.5214 41.1311C36.0705 40.8153 36.6752 40.6165 37.2999 40.5465L119.59 27.9028C120.855 27.6772 122.156 27.9637 123.223 28.7027C124.29 29.4418 125.041 30.5769 125.32 31.8727L126.85 40.991C126.936 41.6334 126.897 42.2873 126.735 42.9137C126.572 43.5402 126.289 44.1264 125.903 44.6376C125.517 45.1487 125.035 45.5744 124.486 45.8892C123.938 46.2041 123.334 46.4017 122.71 46.4703Z" fill="#EAEFF7"/>
</g>
<g style="mix-blend-mode:multiply">
<path d="M399.26 703.425L341.68 698.256C341.141 698.231 340.611 698.095 340.123 697.856C339.635 697.617 339.198 697.279 338.837 696.864C338.477 696.448 338.201 695.962 338.024 695.434C337.848 694.906 337.775 694.347 337.81 693.79L338.81 683.224C338.967 682.101 339.542 681.086 340.412 680.394C341.283 679.703 342.38 679.39 343.47 679.523L401.06 684.641C401.599 684.667 402.127 684.804 402.614 685.043C403.101 685.283 403.537 685.621 403.896 686.037C404.256 686.452 404.531 686.938 404.707 687.465C404.883 687.992 404.955 688.55 404.92 689.107L403.92 699.672C403.775 700.805 403.205 701.833 402.334 702.535C401.462 703.238 400.358 703.557 399.26 703.425V703.425Z" fill="#EAEFF7"/>
</g>
<g style="mix-blend-mode:multiply">
<path d="M172.6 691.598L118.25 672.679C117.737 672.524 117.261 672.261 116.851 671.907C116.441 671.553 116.105 671.116 115.865 670.622C115.625 670.129 115.486 669.59 115.456 669.039C115.426 668.487 115.505 667.935 115.69 667.417L119.48 657.451C119.924 656.399 120.738 655.561 121.758 655.107C122.777 654.652 123.925 654.614 124.97 655.001L179.31 673.92C179.822 674.075 180.298 674.336 180.709 674.689C181.119 675.042 181.455 675.477 181.696 675.97C181.937 676.462 182.078 677 182.109 677.551C182.141 678.102 182.063 678.653 181.88 679.172L178.09 689.148C177.646 690.2 176.831 691.038 175.812 691.492C174.793 691.947 173.645 691.985 172.6 691.598V691.598Z" fill="#EAEFF7"/>
</g>
<g style="mix-blend-mode:multiply">
<path d="M698.86 745.543L655.64 741.708C655.167 741.684 654.704 741.563 654.277 741.353C653.85 741.142 653.467 740.846 653.152 740.482C652.837 740.117 652.595 739.691 652.44 739.229C652.285 738.767 652.22 738.278 652.25 737.789L653.37 726.221C653.507 725.235 654.011 724.343 654.776 723.737C655.54 723.13 656.503 722.857 657.46 722.975L700.68 726.81C701.153 726.834 701.616 726.954 702.043 727.165C702.47 727.375 702.852 727.671 703.168 728.036C703.483 728.401 703.726 728.826 703.88 729.289C704.035 729.751 704.1 730.24 704.07 730.728L702.93 742.297C702.798 743.281 702.298 744.173 701.537 744.78C700.776 745.387 699.815 745.661 698.86 745.543V745.543Z" fill="#EAEFF7"/>
</g>
<g style="mix-blend-mode:multiply">
<path d="M426.75 452.061L386.75 468.302C385.849 468.683 384.842 468.699 383.93 468.346C383.018 467.994 382.268 467.299 381.83 466.4L377.09 455.7C376.903 455.257 376.807 454.778 376.807 454.295C376.808 453.811 376.905 453.333 377.093 452.89C377.28 452.448 377.555 452.05 377.899 451.722C378.242 451.394 378.648 451.143 379.09 450.986L419.09 434.744C419.991 434.363 420.998 434.348 421.91 434.7C422.822 435.053 423.572 435.748 424.01 436.646L428.76 447.357C428.947 447.8 429.043 448.278 429.041 448.762C429.04 449.245 428.942 449.723 428.753 450.165C428.564 450.607 428.289 451.003 427.944 451.33C427.599 451.656 427.193 451.905 426.75 452.061Z" fill="#EAEFF7"/>
</g>
<g style="mix-blend-mode:multiply">
<path d="M330.62 492.142L313.62 453.891C313.433 453.448 313.337 452.97 313.337 452.488C313.338 452.005 313.435 451.527 313.623 451.085C313.811 450.644 314.086 450.247 314.429 449.92C314.773 449.593 315.178 449.343 315.62 449.187L326.8 444.638C327.701 444.257 328.708 444.241 329.62 444.594C330.532 444.946 331.282 445.641 331.72 446.54L348.72 484.792C348.907 485.234 349.003 485.712 349.003 486.194C349.002 486.677 348.905 487.155 348.717 487.596C348.529 488.038 348.255 488.435 347.911 488.762C347.567 489.089 347.162 489.339 346.72 489.495L335.54 494.044C334.639 494.423 333.633 494.437 332.721 494.085C331.81 493.732 331.06 493.039 330.62 492.142V492.142Z" fill="#EAEFF7"/>
</g>
<g style="mix-blend-mode:multiply">
<path d="M61.51 525.928L36.45 491.987C36.1673 491.606 35.9652 491.168 35.8569 490.702C35.7486 490.235 35.7365 489.75 35.8214 489.278C35.9063 488.806 36.0862 488.358 36.3496 487.963C36.6129 487.567 36.9537 487.234 37.3499 486.983L47.26 480.274C48.079 479.72 49.0683 479.501 50.0352 479.659C51.002 479.818 51.8771 480.343 52.4899 481.132L77.56 515.062C77.8411 515.444 78.0419 515.881 78.1493 516.348C78.2567 516.814 78.2685 517.299 78.1837 517.77C78.0989 518.242 77.9194 518.69 77.657 519.085C77.3946 519.48 77.0549 519.815 76.6599 520.066L66.7399 526.786C65.9168 527.326 64.931 527.538 63.9679 527.38C63.0048 527.222 62.1307 526.705 61.51 525.928V525.928Z" fill="#EAEFF7"/>
</g>
<g style="mix-blend-mode:multiply">
<path d="M355.38 173.073L317.79 152.293C317.373 152.082 317.003 151.783 316.704 151.415C316.405 151.047 316.184 150.618 316.055 150.157C315.926 149.695 315.892 149.211 315.955 148.735C316.017 148.259 316.176 147.801 316.42 147.393L322.49 137.323C323.031 136.481 323.858 135.878 324.807 135.633C325.756 135.388 326.759 135.519 327.62 136L365.21 156.78C365.628 156.992 365.998 157.292 366.297 157.661C366.596 158.03 366.817 158.459 366.946 158.922C367.075 159.384 367.109 159.869 367.046 160.346C366.983 160.823 366.824 161.281 366.58 161.69L360.51 171.76C359.966 172.599 359.139 173.198 358.19 173.441C357.242 173.684 356.24 173.552 355.38 173.073V173.073Z" fill="#EAEFF7"/>
</g>
<g style="mix-blend-mode:multiply">
<path d="M301.58 147.951L263.98 127.171C263.562 126.959 263.192 126.658 262.893 126.29C262.594 125.921 262.373 125.491 262.244 125.029C262.115 124.566 262.081 124.081 262.144 123.605C262.207 123.128 262.366 122.67 262.61 122.26L268.68 112.191C269.224 111.352 270.051 110.752 271 110.51C271.948 110.267 272.95 110.398 273.81 110.878L311.4 131.658C311.819 131.869 312.19 132.168 312.49 132.537C312.79 132.906 313.011 133.335 313.141 133.798C313.27 134.261 313.303 134.747 313.24 135.224C313.176 135.701 313.016 136.159 312.77 136.568L306.7 146.638C306.159 147.478 305.334 148.078 304.386 148.321C303.439 148.564 302.438 148.432 301.58 147.951V147.951Z" fill="#EAEFF7"/>
</g>
<g style="mix-blend-mode:multiply">
<path d="M192.05 66.3094L175.47 27.9029C175.286 27.4608 175.193 26.9843 175.195 26.5032C175.197 26.022 175.295 25.5465 175.482 25.1062C175.67 24.6659 175.943 24.2702 176.285 23.9439C176.627 23.6175 177.03 23.3675 177.47 23.2093L188.7 18.7638C189.605 18.3928 190.612 18.3879 191.52 18.75C192.428 19.1121 193.171 19.8147 193.6 20.7178L210.18 59.1244C210.362 59.5666 210.455 60.0428 210.452 60.5235C210.449 61.0042 210.351 61.4792 210.163 61.9191C209.976 62.359 209.703 62.7545 209.362 63.0811C209.021 63.4077 208.619 63.6585 208.18 63.8179L196.93 68.253C196.029 68.6213 195.027 68.6258 194.123 68.2658C193.219 67.9057 192.479 67.2074 192.05 66.3094V66.3094Z" fill="#EAEFF7"/>
</g>
<g style="mix-blend-mode:multiply">
<path d="M245.93 62.2571L229.34 23.8505C229.156 23.4084 229.063 22.932 229.065 22.4509C229.067 21.9697 229.165 21.4942 229.352 21.0539C229.54 20.6136 229.813 20.2179 230.155 19.8916C230.497 19.5652 230.901 19.3151 231.34 19.157L242.56 14.7219C243.463 14.3451 244.471 14.3361 245.38 14.6967C246.289 15.0574 247.033 15.7609 247.46 16.6655L264.05 55.072C264.234 55.5141 264.328 55.9906 264.325 56.4717C264.323 56.9528 264.226 57.4284 264.038 57.8687C263.85 58.309 263.577 58.7047 263.235 59.031C262.893 59.3574 262.49 59.6074 262.05 59.7656L250.83 64.2007C249.927 64.575 248.92 64.5827 248.011 64.2223C247.103 63.8619 246.359 63.16 245.93 62.2571V62.2571Z" fill="#EAEFF7"/>
</g>
<g style="mix-blend-mode:multiply">
<path d="M31.0102 530.135L5.93014 496.205C5.64896 495.824 5.44821 495.386 5.34079 494.919C5.23336 494.453 5.22163 493.968 5.30642 493.497C5.39122 493.025 5.57066 492.577 5.8331 492.182C6.09554 491.787 6.43519 491.453 6.83017 491.201L16.7501 484.481C17.5732 483.941 18.5591 483.73 19.5222 483.888C20.4853 484.046 21.3594 484.562 21.9801 485.339L47.0401 519.28C47.3228 519.661 47.5249 520.099 47.6332 520.565C47.7415 521.032 47.7535 521.517 47.6687 521.989C47.5838 522.461 47.4039 522.909 47.1405 523.304C46.8772 523.7 46.5364 524.033 46.1402 524.284L36.2301 530.993C35.4119 531.544 34.4248 531.762 33.4603 531.603C32.4958 531.445 31.6226 530.922 31.0102 530.135Z" fill="#EAEFF7"/>
</g>
<g style="mix-blend-mode:multiply">
<path d="M93.6699 480.119L77.32 443.232C77.0925 442.699 76.9743 442.123 76.9727 441.541C76.9711 440.959 77.0862 440.382 77.3107 439.848C77.5352 439.314 77.8643 438.833 78.2772 438.437C78.6902 438.041 79.178 437.738 79.71 437.546L96.9299 430.599C98.0163 430.139 99.2305 430.12 100.33 430.545C101.429 430.971 102.333 431.809 102.86 432.894L119.19 469.781C119.414 470.315 119.529 470.89 119.529 471.473C119.528 472.055 119.412 472.63 119.187 473.164C118.962 473.697 118.633 474.177 118.22 474.573C117.808 474.969 117.321 475.274 116.79 475.467L99.6099 482.445C98.5186 482.903 97.3001 482.918 96.1985 482.487C95.097 482.055 94.1938 481.21 93.6699 480.119V480.119Z" fill="#EAEFF7"/>
</g>
<g style="mix-blend-mode:multiply">
<path d="M158.04 160.274L133.87 127.584C133.529 127.125 133.286 126.597 133.156 126.034C133.025 125.471 133.01 124.886 133.112 124.317C133.214 123.748 133.43 123.208 133.746 122.73C134.063 122.253 134.473 121.85 134.95 121.547L150.19 111.208C151.178 110.541 152.372 110.277 153.538 110.468C154.704 110.659 155.759 111.292 156.5 112.242L180.67 144.963C181.01 145.422 181.254 145.95 181.384 146.513C181.515 147.076 181.53 147.661 181.428 148.23C181.326 148.799 181.11 149.34 180.793 149.817C180.477 150.294 180.067 150.697 179.59 151L164.35 161.339C163.358 162.003 162.162 162.261 160.996 162.064C159.83 161.868 158.776 161.229 158.04 160.274Z" fill="#EAEFF7"/>
</g>
<g style="mix-blend-mode:multiply">
<path d="M463.98 399.356L402.12 424.499C400.989 424.974 399.727 424.993 398.584 424.55C397.441 424.108 396.5 423.237 395.95 422.111L391.95 413.085C391.715 412.531 391.593 411.933 391.592 411.328C391.591 410.723 391.712 410.125 391.945 409.57C392.179 409.016 392.522 408.518 392.951 408.107C393.38 407.696 393.887 407.381 394.44 407.182L456.3 382.04C457.43 381.561 458.694 381.542 459.837 381.984C460.981 382.427 461.921 383.3 462.47 384.428L466.47 393.453C466.705 394.007 466.827 394.605 466.828 395.21C466.829 395.815 466.708 396.413 466.474 396.968C466.24 397.522 465.898 398.021 465.469 398.432C465.04 398.843 464.533 399.158 463.98 399.356V399.356Z" fill="#EAEFF7"/>
</g>
<g style="mix-blend-mode:multiply">
<path d="M254.46 177.549L199.59 214.694C198.564 215.381 197.329 215.655 196.12 215.465C194.911 215.274 193.812 214.632 193.03 213.661L187.12 205.659C186.767 205.18 186.514 204.63 186.379 204.044C186.244 203.458 186.23 202.849 186.336 202.257C186.443 201.665 186.668 201.102 186.997 200.605C187.327 200.109 187.754 199.689 188.25 199.373L243.12 162.228C244.147 161.541 245.381 161.267 246.59 161.457C247.799 161.648 248.898 162.29 249.68 163.262L255.59 171.263C255.945 171.742 256.198 172.292 256.334 172.878C256.47 173.464 256.485 174.074 256.379 174.666C256.272 175.259 256.047 175.822 255.716 176.319C255.385 176.815 254.958 177.234 254.46 177.549V177.549Z" fill="#EAEFF7"/>
</g>
<g style="mix-blend-mode:multiply">
<path d="M528.27 770.375L470.68 765.206C470.142 765.181 469.614 765.046 469.127 764.807C468.64 764.568 468.204 764.232 467.844 763.817C467.485 763.402 467.209 762.917 467.033 762.39C466.857 761.864 466.785 761.306 466.82 760.75L467.82 750.185C467.974 749.06 468.548 748.043 469.42 747.351C470.291 746.66 471.389 746.348 472.48 746.484L530.06 751.653C530.603 751.676 531.135 751.812 531.626 752.053C532.117 752.293 532.556 752.634 532.917 753.053C533.278 753.473 533.554 753.963 533.728 754.495C533.902 755.027 533.971 755.59 533.93 756.15L532.93 766.716C532.764 767.831 532.185 768.837 531.316 769.52C530.446 770.202 529.354 770.509 528.27 770.375V770.375Z" fill="#EAEFF7"/>
</g>
<g style="mix-blend-mode:multiply">
<path d="M533.1 742.069L475.52 736.9C474.982 736.875 474.454 736.739 473.967 736.501C473.48 736.262 473.044 735.926 472.684 735.511C472.325 735.096 472.049 734.611 471.873 734.084C471.697 733.558 471.625 733 471.66 732.444L472.66 721.868C472.817 720.745 473.392 719.729 474.262 719.038C475.133 718.347 476.23 718.034 477.32 718.167L534.9 723.336C535.439 723.36 535.968 723.495 536.456 723.733C536.944 723.971 537.381 724.307 537.742 724.722C538.103 725.137 538.379 725.623 538.556 726.15C538.732 726.677 538.805 727.235 538.77 727.792L537.77 738.358C537.621 739.487 537.047 740.51 536.172 741.205C535.298 741.9 534.194 742.21 533.1 742.069V742.069Z" fill="#EAEFF7"/>
</g>
<g style="mix-blend-mode:multiply">
<path d="M366.72 768.814L352.79 715.055C352.673 714.517 352.661 713.96 352.756 713.418C352.85 712.875 353.048 712.357 353.339 711.895C353.63 711.432 354.007 711.035 354.448 710.725C354.89 710.416 355.387 710.201 355.91 710.093L366.67 707.529C367.742 707.25 368.876 707.404 369.841 707.962C370.806 708.519 371.529 709.437 371.86 710.527L385.79 764.286C385.908 764.825 385.921 765.383 385.828 765.927C385.734 766.471 385.536 766.99 385.245 767.453C384.955 767.917 384.577 768.316 384.134 768.626C383.692 768.936 383.194 769.151 382.67 769.259L371.91 771.812C370.838 772.095 369.702 771.941 368.737 771.383C367.771 770.825 367.049 769.906 366.72 768.814V768.814Z" fill="#EAEFF7"/>
</g>
<g style="mix-blend-mode:multiply">
<path d="M143.85 166.549C143.85 166.549 167.27 173.155 172.27 190.327C177.27 207.499 156.54 220.763 151.86 226.418C147.18 232.073 94.69 226.987 94.69 226.987C94.69 226.987 42.89 203.777 41.98 190.327C41.07 176.877 -0.410007 174.758 48.39 158.485C97.19 142.213 74 133.674 97.18 142.213C120.36 150.752 143.85 166.549 143.85 166.549Z" fill="#EAEFF7"/>
</g>
<g style="mix-blend-mode:multiply">
<path d="M620.67 115.747C620.67 115.747 644.09 122.353 649.09 139.525C654.09 156.697 633.37 169.961 628.69 175.616C624.01 181.271 571.52 176.184 571.52 176.184C571.52 176.184 519.71 152.975 518.8 139.525C517.89 126.075 476.42 123.955 525.21 107.683C574 91.4106 550.83 82.8713 574 91.4107C597.17 99.9501 620.67 115.747 620.67 115.747Z" fill="#EAEFF7"/>
</g>
<g style="mix-blend-mode:multiply">
<path d="M196.76 413.375C195.203 416.955 192.875 420.12 189.955 422.628C187.035 425.136 183.599 426.922 179.91 427.849C167.14 431.157 156.27 422.411 151.81 420.612C147.35 418.813 149.13 394.342 149.13 394.342C149.13 394.342 164.65 369.127 174.79 367.907C184.93 366.688 184.9 347.489 199.12 368.941C213.34 390.393 218.86 379.28 213.35 390.434C207.84 401.589 196.76 413.375 196.76 413.375Z" fill="#EAEFF7"/>
</g>
<g style="mix-blend-mode:multiply">
<path d="M0.120117 281.821C39.4301 268.257 131.01 249.721 152.12 263.212C173.23 276.703 254.12 275.887 254.12 275.887L328.12 233.024C328.12 233.024 439.25 259.418 438.21 204.863C437.17 150.308 470.93 64.3763 513.93 44.1547C556.93 23.9331 560.25 0.0517578 560.25 0.0517578H522.87C522.87 0.0517578 502.78 37.9828 484.07 41.3427C465.36 44.7027 410.71 92.3517 415.74 117.96C420.77 143.567 415.74 188.446 415.74 188.446L368.93 203.054L308.12 193.749C308.12 193.749 281.31 226.945 277.7 233.035C274.09 239.124 242.05 250.785 222.97 244.686C203.89 238.586 147.37 239.072 147.37 239.072C147.37 239.072 84.7101 263.243 73.5801 248.987C62.4501 234.73 31.4201 241.305 31.4201 241.305L0.120117 248.976V281.821Z" fill="#EAEFF7"/>
</g>
<g style="mix-blend-mode:multiply">
<path d="M715.51 443.077V491.573C711.36 495.233 705.21 500.009 698.36 502.811C693.14 505.044 687.5 506.026 682.14 504.506C679.592 503.93 676.932 504.213 674.55 505.313C666.11 508.662 656.04 519.145 647.47 529.587C642.76 535.345 638.47 541.145 635.31 545.694C631.53 551.091 629.2 554.75 629.2 554.75C629.2 554.75 584.2 587.502 565.08 593.519C558.08 595.711 551.24 600.838 545.37 606.731C544.01 608.106 542.71 609.491 541.5 610.866C540.29 612.241 538.89 613.968 537.72 615.467C531.72 623.365 528.08 630.974 528.5 634.076C529.38 640.992 528.64 682.976 528.64 682.976L528.36 683.11L520.48 687.08L511.48 691.577L474.1 710.362L445.73 748.913C445.73 748.913 453.65 761.805 464.28 776.082C469.862 783.81 475.872 791.197 482.28 798.206V798.206C484.75 800.842 487.22 803.292 489.64 805.443C500.83 815.264 501.39 841.234 497.43 864.567H463.92C462.601 853.398 460.421 842.356 457.4 831.547C455.67 825.075 453.62 818.655 451.4 812.318C449.59 807.273 447.63 802.279 445.58 797.42C442.46 790.059 439.01 782.947 435.37 776.175C430.211 766.443 424.185 757.229 417.37 748.655C397.37 723.977 423.43 699.527 449.37 683.11C451.94 681.456 454.5 679.947 457.06 678.468C459.62 676.99 461.96 675.656 464.33 674.405C477.57 667.272 488.05 663.033 488.05 663.033L520.63 586.251C520.714 586.204 520.792 586.145 520.86 586.075L521.19 585.848C521.89 585.31 523.38 584.287 525.43 582.86C526.69 581.919 528.18 580.896 529.9 579.697C534.98 576.213 541.78 571.612 549.38 566.712C569.84 553.686 596.12 538.736 610.29 538.023C623.57 537.351 646.92 518.484 669.47 495.853C674.92 490.415 680.33 484.709 685.55 478.992C697.15 466.358 707.68 453.601 715.51 443.077Z" fill="#EAEFF7"/>
</g>
<g style="mix-blend-mode:multiply">
<path d="M224.82 820.247C224.44 823.828 223.815 827.376 222.95 830.865C222.81 831.309 222.72 831.754 222.58 832.198H53.04C50.5667 829.166 48.2834 826.161 46.1901 823.183C40.3601 814.706 36.4901 806.497 36.1901 799.405C34.8901 767.357 -24.95 762.332 45.4201 723.564C47.2801 722.53 49.06 721.496 50.78 720.525C54.27 718.457 57.49 716.513 60.47 714.591C110.93 681.808 85.1101 666.207 115.82 684.816C124.94 690.447 133.674 696.72 141.96 703.591C144.8 705.958 147.6 708.367 150.3 710.734C161.807 720.82 172.776 731.542 183.16 742.855C183.16 742.855 216.94 758.559 224.16 799.426C225.392 806.293 225.615 813.312 224.82 820.247Z" fill="#EAEFF7"/>
</g>
<g style="mix-blend-mode:multiply">
<path d="M532.62 236.984C477.62 274.667 391.73 275.37 438.21 329.78C484.69 384.19 543.21 444.648 585.21 408.526C627.21 372.405 617.66 376.984 640.05 325.82C662.44 274.656 684.35 232.445 612.64 219.057C540.93 205.669 532.62 236.984 532.62 236.984Z" fill="#EAEFF7"/>
</g>
<g style="mix-blend-mode:multiply">
<path d="M381.63 563.859C346.63 581.103 291.97 581.434 321.55 606.338C351.13 631.243 388.35 658.919 415.11 642.377C441.87 625.836 435.76 627.904 450.01 604.529C464.26 581.154 478.2 561.781 432.56 555.65C386.92 549.519 381.63 563.859 381.63 563.859Z" fill="#EAEFF7"/>
</g>
<g style="mix-blend-mode:multiply">
<path d="M223.93 768.432C240.39 793.13 238.34 830.1 265.6 811.646C292.86 793.192 323.33 769.766 307.26 750.65C291.19 731.535 293.11 735.805 269.32 724.732C245.53 713.66 225.98 703.022 217.6 733.499C209.22 763.976 223.93 768.432 223.93 768.432Z" fill="#EAEFF7"/>
</g>
<path d="M429.65 864.567H411.71C412.05 864.097 412.479 863.703 412.97 863.409C413.3 863.223 413.62 863.047 413.97 862.82C414.053 862.82 414.135 862.791 414.2 862.737C415.134 862.436 416.122 862.358 417.09 862.51L429.65 864.567Z" fill="white"/>
<path d="M715.5 534.911V581.733L685.93 526.548L680.8 516.954L616.72 397.495L606.52 378.504L562.34 296.098L557.24 286.566L505.81 190.648L500.67 181.085L460.75 106.649L455.56 96.9727L406.18 4.96221C405.363 3.47599 404.942 1.79205 404.96 0.0825195H428.68L476.74 89.7048L481.87 99.2574L546.04 218.933L551.17 228.486L626.61 369.158L636.81 388.15L715.5 534.911Z" fill="white"/>
<path d="M715.5 327.609V351.387L636.81 388.108L616.72 397.485L466.04 467.909L455.96 472.582L343.96 524.883L333.96 529.556L321.96 535.16L235.6 575.479L212.76 586.148L124.56 627.367L111.29 633.57L89.9299 643.608C89.6799 643.732 89.3999 643.846 89.1199 643.97L45.6899 664.274L35.6099 668.978L5.03992 683.265C3.50545 683.973 1.83998 684.326 0.159912 684.299V661.762L71.8799 628.276L92.5599 618.631L208.42 564.5C208.7 564.345 208.98 564.231 209.26 564.107L300.97 521.275L321.12 511.837L371.12 488.472L381.12 483.799L528.58 414.926L538.58 410.232L606.5 378.504L626.59 369.127L715.5 327.609Z" fill="white"/>
<path d="M354.63 864.567H332.3C334.87 803.706 325.5 754.537 310.91 715.366C309.143 710.541 307.28 705.903 305.32 701.45C274.8 630.116 227.73 595.711 212.82 586.199C209.97 584.369 208.3 583.439 208.11 583.346C202.75 580.534 200.75 574.042 203.73 568.872C205.002 566.696 206.936 565.016 209.23 564.096C210.783 563.484 212.441 563.213 214.1 563.298C215.76 563.383 217.384 563.824 218.87 564.592C224.698 567.834 230.305 571.485 235.65 575.52C251.87 587.43 277.31 609.698 300.65 645.251C301.17 646.058 301.65 646.864 302.24 647.66C305.5 652.829 308.81 658.329 312.07 664.202C328.52 693.872 343.76 733.313 350.84 783.691C351.84 790.556 352.66 797.658 353.31 804.967C355.038 824.781 355.479 844.692 354.63 864.567V864.567Z" fill="white"/>
<path d="M715.5 154.526V165.64L689.25 175.678L551.17 228.455L540.25 232.59C539.593 232.854 538.894 232.987 538.19 232.983C537.105 233.01 536.037 232.706 535.119 232.108C534.202 231.511 533.475 230.646 533.03 229.623C532.758 228.961 532.623 228.246 532.633 227.527C532.643 226.807 532.799 226.097 533.09 225.443C533.38 224.789 533.8 224.205 534.322 223.729C534.844 223.252 535.456 222.894 536.12 222.676L546.04 218.871L679.36 167.904L689.78 163.924L713.44 154.878C714.1 154.631 714.798 154.512 715.5 154.526V154.526Z" fill="white"/>
<path d="M689.93 175.378C689.716 175.491 689.495 175.591 689.27 175.678C688.628 175.915 687.952 176.038 687.27 176.04C686.285 176.049 685.315 175.793 684.455 175.299C683.594 174.804 682.872 174.087 682.36 173.217L679.36 167.945L611.28 47.494L605.93 38.0345L585.93 2.59493C585.486 1.82596 585.251 0.947332 585.25 0.0517578H597.25L616.37 33.8992L621.72 43.369L689.86 163.965L692.24 168.162C692.575 168.787 692.781 169.476 692.846 170.187C692.91 170.898 692.831 171.615 692.614 172.293C692.397 172.971 692.047 173.596 691.585 174.126C691.123 174.657 690.559 175.084 689.93 175.378V175.378Z" fill="white"/>
<path d="M322.64 719.708C321.89 719.706 321.147 719.558 320.45 719.274L102.24 629.848C101.582 629.614 100.978 629.24 100.467 628.751C99.9565 628.262 99.5502 627.668 99.2744 627.007C98.9986 626.346 98.8593 625.633 98.8654 624.914C98.8716 624.194 99.023 623.484 99.31 622.828C99.9637 621.493 101.081 620.462 102.438 619.943C103.796 619.423 105.293 619.453 106.63 620.026L324.84 709.452C325.497 709.686 326.1 710.059 326.609 710.548C327.119 711.036 327.525 711.629 327.801 712.289C328.076 712.948 328.216 713.66 328.211 714.379C328.205 715.097 328.055 715.806 327.77 716.462C327.302 717.451 326.571 718.282 325.662 718.857C324.754 719.432 323.705 719.727 322.64 719.708Z" fill="white"/>
<path d="M217.93 676.908L217.7 677.176L164.85 743.072L104.85 817.942L97.4799 827.133L67.4799 864.516H53.4399L60.71 855.46L89.14 819.989L97.2899 809.764L156.52 735.887L207.13 672.824L209.13 670.415C210.069 669.271 211.387 668.531 212.826 668.34C214.265 668.148 215.722 668.52 216.91 669.381C217.488 669.779 217.977 670.3 218.347 670.907C218.716 671.515 218.957 672.197 219.053 672.908C219.15 673.619 219.099 674.343 218.906 675.032C218.712 675.721 218.38 676.361 217.93 676.908V676.908Z" fill="white"/>
<path d="M419.86 679.006C418.868 679.022 417.889 678.767 417.022 678.268C416.155 677.769 415.43 677.043 414.92 676.163L328.92 520.283C328.582 519.656 328.374 518.964 328.309 518.25C328.245 517.535 328.324 516.815 328.544 516.134C328.763 515.454 329.117 514.827 329.583 514.296C330.048 513.764 330.616 513.339 331.25 513.046C332.549 512.375 334.044 512.232 335.441 512.645C336.837 513.059 338.032 513.999 338.79 515.279L424.79 671.149C425.128 671.776 425.336 672.468 425.401 673.183C425.465 673.897 425.386 674.617 425.167 675.298C424.947 675.979 424.594 676.605 424.128 677.136C423.662 677.668 423.094 678.094 422.46 678.386C421.651 678.797 420.761 679.009 419.86 679.006V679.006Z" fill="white"/>
<path d="M567.65 662.072C566.672 662.086 565.706 661.838 564.848 661.352C563.989 660.867 563.267 660.16 562.75 659.301L450.75 463.474C450.408 462.855 450.194 462.17 450.121 461.461C450.048 460.753 450.117 460.036 450.325 459.356C450.533 458.677 450.874 458.049 451.327 457.512C451.781 456.975 452.337 456.541 452.96 456.237C454.25 455.552 455.742 455.389 457.142 455.781C458.543 456.173 459.751 457.092 460.53 458.357L572.53 654.174C572.872 654.793 573.086 655.478 573.159 656.187C573.232 656.895 573.163 657.612 572.955 658.291C572.748 658.971 572.406 659.599 571.953 660.136C571.499 660.672 570.944 661.106 570.32 661.41C569.494 661.848 568.578 662.075 567.65 662.072V662.072Z" fill="white"/>
<path d="M524.84 587.202C523.752 587.222 522.682 586.913 521.76 586.315C520.839 585.716 520.106 584.854 519.65 583.832C519.38 583.167 519.248 582.452 519.262 581.731C519.275 581.01 519.435 580.301 519.729 579.647C520.024 578.994 520.448 578.412 520.973 577.938C521.499 577.464 522.114 577.109 522.78 576.895L691.78 512.798C693.13 512.261 694.627 512.271 695.97 512.827C697.312 513.383 698.402 514.444 699.02 515.796C699.288 516.46 699.419 517.175 699.405 517.895C699.39 518.614 699.23 519.323 698.936 519.975C698.641 520.627 698.218 521.208 697.693 521.681C697.169 522.154 696.555 522.509 695.89 522.723L526.89 586.82C526.234 587.073 525.54 587.202 524.84 587.202V587.202Z" fill="white"/>
<path d="M715.5 708.945V719.697C715.238 719.708 714.977 719.687 714.72 719.635L642.97 709.783L631.87 708.253L548.17 696.757L537.06 695.227L419.06 678.985L311.99 664.284L293.81 661.793C292.76 661.666 291.768 661.229 290.952 660.534C290.136 659.839 289.532 658.916 289.21 657.875C288.942 656.841 288.99 655.748 289.348 654.744C289.706 653.74 290.357 652.876 291.21 652.271L300.57 645.345L369.65 594.305L373.37 591.544C374.568 590.686 376.031 590.317 377.477 590.508C378.923 590.699 380.249 591.436 381.2 592.578C381.391 592.819 381.558 593.079 381.7 593.354C382.316 594.461 382.504 595.768 382.226 597.013C381.948 598.258 381.224 599.348 380.2 600.063L374.94 603.961L308.48 653.057L409.73 666.993L423.44 668.874L538.58 684.723L549.72 686.253L633.41 697.749L644.49 699.279L715.5 708.945Z" fill="white"/>
<path d="M698.55 12.6644L621.65 43.3586L611.26 47.4939L481.85 99.1852L471.13 103.465L470.71 103.6C470.15 103.827 467.03 104.768 462.09 106.236L460.74 106.639C450.53 109.627 433.8 114.217 415.74 117.928C400.74 121.03 384.74 123.594 370.86 124.038C369.32 124.038 367.86 124.131 366.34 124.131C363.17 124.131 360.1 123.997 357.25 123.728C356.56 123.635 355.81 123.501 355.16 123.418C338.29 120.317 324.16 99.454 313.45 75.7587C311.957 72.416 310.513 69.0251 309.12 65.5859C297.46 36.8972 290.61 7.18504 289.22 1.11649C289.124 0.752647 289.077 0.377035 289.08 0H300.4C305.627 22.9758 312.802 45.431 321.84 67.1056C322.025 67.4289 322.166 67.7767 322.26 68.1394C332.93 92.4963 345.6 111.912 358.37 113.111C373.94 114.631 396.26 111.198 416.67 106.825C431.96 103.517 446.12 99.6814 455.58 97.0038C461.92 95.1739 466.12 93.9023 467.05 93.5715L469.05 92.8168L476.78 89.7153L605.93 38.0448L616.27 33.9095L687.48 5.44822C691.46 7.34243 695.181 9.76857 698.55 12.6644V12.6644Z" fill="white"/>
<path d="M381.14 501.022C380.133 501.044 379.139 500.787 378.26 500.278C377.381 499.769 376.649 499.027 376.14 498.128C312.52 379.703 311.61 299.54 373.35 253.039C389.28 241.046 397.83 226.459 398.76 209.711C401.15 166.952 354.36 122.694 353.88 122.25C353.362 121.781 352.945 121.205 352.656 120.559C352.368 119.913 352.213 119.211 352.204 118.499C352.195 117.787 352.33 117.082 352.602 116.428C352.873 115.774 353.275 115.186 353.78 114.703C354.852 113.684 356.25 113.109 357.706 113.09C359.162 113.071 360.574 113.609 361.67 114.599C363.75 116.543 412.54 162.631 409.91 210.249C408.8 230.222 398.83 247.466 380.25 261.433C323.38 304.275 325.25 380.096 386.07 493.238C386.406 493.87 386.609 494.567 386.669 495.285C386.728 496.003 386.642 496.726 386.415 497.408C386.188 498.089 385.825 498.714 385.351 499.242C384.877 499.77 384.301 500.19 383.66 500.475C382.869 500.846 382.009 501.033 381.14 501.022V501.022Z" fill="white"/>
<path d="M336.77 387.343C335.702 387.363 334.651 387.066 333.741 386.49C332.83 385.913 332.098 385.079 331.63 384.087C331.346 383.427 331.199 382.713 331.198 381.991C331.198 381.269 331.343 380.555 331.626 379.894C331.908 379.234 332.322 378.642 332.839 378.157C333.357 377.672 333.967 377.304 334.63 377.078L567.93 282.245C569.271 281.679 570.769 281.656 572.126 282.181C573.482 282.706 574.598 283.74 575.25 285.077C575.534 285.737 575.681 286.451 575.682 287.173C575.682 287.895 575.537 288.61 575.254 289.27C574.971 289.931 574.558 290.522 574.041 291.007C573.523 291.493 572.913 291.86 572.25 292.087L338.93 386.92C338.241 387.197 337.509 387.341 336.77 387.343V387.343Z" fill="white"/>
<path d="M515.72 186.637L505.81 190.689L404.87 231.722L402.74 232.59C402.04 232.863 401.298 233.006 400.55 233.014C399.531 233.012 398.53 232.741 397.64 232.228L393.51 229.84L295.02 172.535L284.75 166.57L167.48 98.3376L165.7 97.3038C164.589 96.6986 163.74 95.6837 163.32 94.4608L161.2 88.4645L130.28 1.77832C130.071 1.22488 129.966 0.63551 129.97 0.0415039H141.42L172.33 86.7588L173.21 89.1882L184.44 95.7117L297.68 161.587L397.3 219.481L400.99 221.642L408.99 218.406L500.72 181.075L511.43 176.733C512.773 176.175 514.269 176.157 515.624 176.684C516.979 177.21 518.094 178.242 518.75 179.576C519.032 180.241 519.177 180.96 519.175 181.687C519.174 182.414 519.026 183.132 518.741 183.797C518.456 184.461 518.04 185.057 517.52 185.546C517 186.035 516.387 186.406 515.72 186.637V186.637Z" fill="white"/>
<path d="M389.11 366.512C388.01 363.082 386.54 359.791 384.73 356.701C375.92 341.39 359.38 330.772 340.18 329.614C339.06 329.614 337.95 329.521 336.83 329.521C335.942 329.506 335.054 329.537 334.17 329.614C332.375 329.663 330.585 329.829 328.81 330.111V330.111C307.33 333.14 289.95 348.089 284.12 367.721C282.768 372.336 282.094 377.135 282.12 381.957C282.122 385.467 282.484 388.967 283.2 392.399C288.27 416.311 310.46 434.424 336.93 434.424C340.113 434.428 343.29 434.159 346.43 433.617C348.221 433.325 349.997 432.939 351.75 432.459C353.599 431.976 355.419 431.379 357.2 430.671C377.38 422.959 391.73 403.998 391.73 381.957C391.692 376.694 390.806 371.474 389.11 366.512V366.512ZM353.41 420.632C351.633 421.348 349.808 421.928 347.95 422.369C346.191 422.837 344.404 423.182 342.6 423.403C340.684 423.669 338.753 423.8 336.82 423.796C312.72 423.796 293.15 405.063 293.15 381.998C293.15 361.828 308.06 345.049 327.92 341.08C329.661 340.729 331.421 340.491 333.19 340.366C334.35 340.284 335.57 340.232 336.78 340.232C337.57 340.232 338.36 340.232 339.15 340.232C354.15 341.028 367.21 349.102 374.38 360.836C376.306 363.88 377.782 367.204 378.76 370.699C379.854 374.341 380.407 378.133 380.4 381.947C380.4 399.398 369.21 414.336 353.41 420.632Z" fill="white"/>
<path d="M590.8 645.675C583.691 645.665 576.644 647.029 570.02 649.697V649.697C568.3 650.41 566.62 651.165 565.02 652.013C563.383 652.856 561.794 653.795 560.26 654.825C549.764 661.676 542.081 672.288 538.68 684.63C538.252 686.241 537.918 687.878 537.68 689.53C537.373 691.404 537.186 693.296 537.12 695.196C537.042 695.882 537.012 696.573 537.03 697.263C537.03 725.631 561.21 748.789 590.85 748.789C615.97 748.789 637.13 732.248 643.05 709.845V709.793C643.939 706.341 644.452 702.797 644.58 699.227C644.63 698.555 644.63 697.925 644.63 697.263C644.58 668.792 620.49 645.675 590.8 645.675ZM631.86 708.232C626.86 725.404 610.33 738.037 590.8 738.037C567.27 738.037 548.16 719.697 548.16 697.212V696.715C548.235 693.133 548.77 689.576 549.75 686.139C551.403 680.79 554.076 675.838 557.613 671.576C561.15 667.315 565.478 663.83 570.34 661.327C576.688 658.031 583.696 656.321 590.8 656.334C614.34 656.334 633.44 674.674 633.44 697.16V697.604C633.442 701.21 632.91 704.794 631.86 708.232V708.232Z" fill="white"/>
<path d="M538.2 427.652C537.157 427.673 536.129 427.395 535.23 426.847C534.331 426.299 533.597 425.504 533.11 424.551L484.55 322.109C484.251 321.46 484.086 320.755 484.066 320.037C484.046 319.319 484.17 318.605 484.432 317.94C484.694 317.274 485.086 316.673 485.585 316.173C486.084 315.673 486.678 315.287 487.33 315.038C488.658 314.44 490.155 314.382 491.523 314.874C492.89 315.367 494.028 316.374 494.71 317.694L543.27 420.136C543.569 420.784 543.734 421.489 543.755 422.206C543.776 422.924 543.652 423.638 543.392 424.303C543.131 424.968 542.74 425.57 542.242 426.07C541.744 426.57 541.151 426.957 540.5 427.207C539.77 427.515 538.988 427.666 538.2 427.652V427.652Z" fill="white"/>
<path d="M688.43 859.533C681.506 862.89 673.947 864.613 666.3 864.578H663.83C636.89 836.554 598.333 817.235 548.16 806.621C544.53 805.856 540.8 805.143 536.98 804.43C528.12 802.869 518.98 801.535 509.48 800.46C500.35 799.426 491.26 798.671 482.36 798.227C476.07 797.875 469.87 797.607 463.77 797.513C459.99 797.431 456.22 797.379 452.54 797.379C450.21 797.379 447.93 797.379 445.69 797.431C414.769 797.779 383.907 800.311 353.32 805.009C347.32 806.043 343.82 806.621 343.68 806.663C337.68 807.862 331.75 804.161 330.49 798.392C329.23 792.623 333.1 787.02 339.16 785.769C339.86 785.635 343.96 784.828 350.85 783.764C378.878 779.405 407.144 776.885 435.48 776.217C444.71 775.948 454.4 775.906 464.33 776.134C479.71 776.485 495.78 777.426 512.1 779.235C592.01 788.199 651.57 815.574 688.43 859.533Z" fill="white"/>
<path d="M239.38 852.606L285.65 864.567H242.78L237.52 863.223L97.5201 827.132L93.9401 826.192C93.0791 825.986 92.2799 825.566 91.6122 824.968C90.9446 824.37 90.4288 823.611 90.1101 822.759L89.1101 820.04L65.2901 752.842L35.5101 668.916L31.6901 658.123C31.4635 657.441 31.3752 656.718 31.4306 655.999C31.4861 655.28 31.6842 654.581 32.0126 653.944C32.3409 653.308 32.7925 652.749 33.3392 652.301C33.8859 651.853 34.5159 651.526 35.1901 651.341C36.5596 650.861 38.0546 650.939 39.3702 651.56C40.6857 652.18 41.7229 653.296 42.2701 654.68L45.6701 664.233L74.9901 746.939L97.2601 809.795L99.6801 816.577L104.86 817.921L239.38 852.606Z" fill="white"/>
<path d="M457.48 831.547C454.625 838.356 450.825 844.698 446.2 850.373C441.822 855.733 436.81 860.502 431.28 864.567C431.215 864.667 431.12 864.743 431.01 864.784L429.65 864.567H410.73C411.48 864.164 412.22 863.802 412.97 863.409C413.3 863.223 413.62 863.048 413.97 862.82C414.053 862.82 414.135 862.791 414.2 862.737C423.022 858.083 430.876 851.687 437.32 843.911C444.672 834.868 449.56 823.963 451.48 812.318C452.297 807.382 452.632 802.374 452.48 797.369C452.42 794.152 452.123 790.944 451.59 787.775C451.457 787.069 451.463 786.343 451.609 785.64C451.754 784.937 452.036 784.272 452.437 783.685C452.837 783.097 453.349 782.6 453.941 782.223C454.533 781.845 455.192 781.596 455.88 781.489C457.287 781.155 458.764 781.4 459.999 782.172C461.235 782.943 462.131 784.182 462.5 785.624C463.287 789.543 463.692 793.532 463.71 797.534C464.037 809.204 461.911 820.808 457.48 831.547Z" fill="white"/>
<path d="M548.16 794.608V864.567H536.98V794.608C537.099 793.16 537.739 791.811 538.774 790.827C539.809 789.844 541.164 789.298 542.57 789.298C543.976 789.298 545.33 789.844 546.366 790.827C547.401 791.811 548.041 793.16 548.16 794.608V794.608Z" fill="white"/>
<path d="M317.86 75.0867L313.44 75.7794L184.44 95.7219L167.52 98.3272L97.4401 109.172L85.2001 111.043L26.7501 120.089L15.6401 121.795L1.00012 124.069C0.708028 124.106 0.414293 124.127 0.120117 124.131V113.369L19.0501 110.464L161.2 88.4748L172.33 86.769L309.1 65.6169L316.1 64.5831C317.513 64.3276 318.967 64.6464 320.157 65.4729C321.348 66.2993 322.184 67.5696 322.49 69.0182C322.582 69.7326 322.534 70.4589 322.35 71.154C322.166 71.849 321.848 72.4987 321.416 73.0646C320.985 73.6305 320.447 74.1011 319.836 74.4484C319.226 74.7957 318.554 75.0128 317.86 75.0867V75.0867Z" fill="white"/>
<path d="M84.8099 644.787C82.5081 644.836 80.2484 644.144 78.3439 642.806C76.4394 641.469 74.9842 639.553 74.1799 637.322C73.7799 636.113 35.4499 515.538 154.32 469.077C273.19 422.617 326.38 519.838 326.91 520.769C329.7 526.031 327.51 532.461 322.01 535.139C316.51 537.817 309.8 535.708 307.01 530.445C305.24 527.168 262.29 449.91 162.75 488.813C120.82 505.199 96.7499 533.898 91.2199 574.104C88.7513 593.106 90.1928 612.433 95.4499 630.82C97.3099 636.444 94.0599 642.45 88.1799 644.259C87.0869 644.601 85.9519 644.779 84.8099 644.787V644.787Z" fill="white"/>
<path d="M168.61 480.687C167.797 480.695 166.992 480.525 166.248 480.188C165.503 479.851 164.836 479.356 164.29 478.733C163.827 478.204 163.477 477.579 163.264 476.901C163.051 476.222 162.978 475.504 163.052 474.795C163.126 474.085 163.344 473.4 163.691 472.783C164.039 472.167 164.509 471.633 165.07 471.217L280.07 380.985L83.2001 108.283C82.7859 107.712 82.4925 107.057 82.3391 106.361C82.1857 105.665 82.1756 104.944 82.3096 104.244C82.4435 103.544 82.7184 102.881 83.1164 102.298C83.5145 101.715 84.0268 101.225 84.62 100.86C85.8454 100.05 87.3184 99.7395 88.7527 99.9898C90.1869 100.24 91.4798 101.033 92.3801 102.214L292.13 378.959C292.525 379.496 292.813 380.109 292.976 380.762C293.14 381.415 293.176 382.095 293.083 382.763C292.99 383.43 292.769 384.072 292.434 384.651C292.099 385.23 291.655 385.734 291.13 386.134L172.19 479.478C171.157 480.275 169.899 480.7 168.61 480.687Z" fill="white"/>
<path d="M187.67 248.966C186.827 248.981 185.991 248.803 185.222 248.446C184.452 248.089 183.769 247.56 183.22 246.898C182.78 246.348 182.457 245.708 182.272 245.021C182.087 244.333 182.044 243.613 182.146 242.907C182.248 242.201 182.492 241.525 182.863 240.923C183.234 240.321 183.724 239.807 184.3 239.413L291.3 161.876C292.496 161.017 293.958 160.647 295.402 160.838C296.847 161.029 298.172 161.767 299.12 162.91C299.559 163.46 299.882 164.1 300.066 164.787C300.25 165.474 300.292 166.194 300.189 166.899C300.086 167.604 299.841 168.279 299.469 168.88C299.097 169.48 298.607 169.993 298.03 170.385L191.03 247.922C190.04 248.618 188.867 248.983 187.67 248.966V248.966Z" fill="white"/>
<path d="M82.93 174.696C70.39 174.696 59.16 172.018 49.31 166.663C20.31 150.907 14.63 117.959 14.4 116.564C14.308 115.845 14.3565 115.115 14.5425 114.416C14.7284 113.717 15.0482 113.064 15.4827 112.495C15.9172 111.927 16.4577 111.454 17.0722 111.105C17.6867 110.756 18.3626 110.538 19.06 110.464C20.4709 110.207 21.9232 110.527 23.11 111.357C24.2968 112.186 25.1252 113.46 25.42 114.91C25.48 115.24 30.6 144.281 54.9 157.42C72.54 166.963 96.1701 166.136 125.13 154.939C126.478 154.393 127.975 154.394 129.322 154.943C130.669 155.491 131.765 156.546 132.39 157.896C132.662 158.558 132.798 159.271 132.788 159.991C132.779 160.71 132.624 161.419 132.334 162.073C132.044 162.727 131.626 163.311 131.105 163.788C130.584 164.265 129.973 164.624 129.31 164.843C112.33 171.412 96.87 174.696 82.93 174.696Z" fill="white"/>
<path d="M152.93 198.98L149.23 199.818L96.08 211.686L85.16 214.136L57.25 220.339L46.25 222.769L1.25 232.828C0.842651 232.941 0.421696 232.993 0 232.983V222.169L48.81 211.324C48.93 211.324 49.03 211.324 49.12 211.262L142.45 190.42L150.45 188.621C151.559 188.346 152.721 188.419 153.79 188.829C154.858 189.24 155.784 189.97 156.45 190.927C156.789 191.438 157.043 192.004 157.2 192.602C157.346 193.312 157.349 194.046 157.211 194.758C157.072 195.47 156.795 196.145 156.395 196.743C155.995 197.34 155.482 197.846 154.886 198.231C154.29 198.616 153.624 198.871 152.93 198.98Z" fill="white"/>
<path d="M194.18 346.352C183.04 346.352 174.07 332.612 165.35 319.245C157.94 307.873 148.71 293.772 142.01 295.467C117.51 301.67 91.8799 233.438 84.6099 212.42C84.3903 211.736 84.3089 211.013 84.3706 210.296C84.4323 209.578 84.6359 208.881 84.9687 208.249C85.3015 207.616 85.7565 207.06 86.3054 206.616C86.8543 206.173 87.4855 205.85 88.1598 205.669C89.5253 205.222 91.0037 205.322 92.3008 205.95C93.5979 206.579 94.6187 207.689 95.1598 209.06C109.91 251.788 130.46 287.3 139.1 285.149C153.77 281.428 164.44 297.783 174.76 313.6C181.36 323.711 190.41 337.585 195.55 335.311C214.25 327.133 237.98 313.332 238.21 313.197C239.474 312.456 240.959 312.227 242.377 312.556C243.795 312.885 245.043 313.747 245.88 314.975C246.251 315.576 246.497 316.249 246.604 316.953C246.711 317.657 246.676 318.376 246.502 319.066C246.327 319.755 246.016 320.399 245.589 320.959C245.162 321.518 244.628 321.98 244.02 322.316C243.02 322.894 219.5 336.582 200.19 345.06C198.291 345.905 196.247 346.344 194.18 346.352V346.352Z" fill="white"/>
<path d="M85.7601 557.397L71.4301 559.723L1.06012 571.313C0.750406 571.375 0.435614 571.406 0.120117 571.406V560.654L74.5301 548.372L83.8801 546.811C85.2922 546.549 86.7477 546.856 87.9474 547.67C89.1471 548.483 89.9998 549.741 90.3301 551.184C90.4356 551.904 90.4002 552.638 90.2261 553.343C90.052 554.049 89.7427 554.711 89.3165 555.29C88.8903 555.87 88.3559 556.355 87.745 556.717C87.1341 557.079 86.4592 557.31 85.7601 557.397V557.397Z" fill="white"/>
<path d="M103.09 526.455C102.136 527.115 101.018 527.474 99.8699 527.488C98.9894 527.498 98.1187 527.296 97.3259 526.9C96.5331 526.504 95.8397 525.923 95.2999 525.204L89.64 517.564L32.7299 440.42C32.5147 440.193 32.3236 439.944 32.1599 439.675L0.159912 396.255V381.678C1.03461 381.672 1.89893 381.874 2.6861 382.269C3.47326 382.663 4.16227 383.239 4.69995 383.952L34.9299 424.902L42.9999 435.84L96.6299 508.456L104.42 519.022C104.84 519.587 105.14 520.237 105.301 520.93C105.462 521.623 105.481 522.343 105.355 523.044C105.23 523.745 104.963 524.411 104.573 524.998C104.183 525.586 103.678 526.082 103.09 526.455V526.455Z" fill="white"/>
<path d="M146.52 489.568C145.391 489.592 144.281 489.261 143.338 488.619C142.395 487.976 141.663 487.053 141.24 485.97L44.71 218.21C44.4825 217.53 44.3921 216.81 44.4443 216.093C44.4965 215.376 44.6902 214.678 45.0134 214.042C45.3367 213.405 45.7827 212.844 46.3239 212.393C46.865 211.941 47.4899 211.609 48.1599 211.417C49.5285 210.935 51.0234 211.008 52.3416 211.622C53.6599 212.237 54.7031 213.346 55.26 214.726L151.79 482.424C152.019 483.104 152.11 483.824 152.059 484.541C152.007 485.259 151.814 485.957 151.491 486.594C151.167 487.231 150.721 487.793 150.179 488.244C149.637 488.695 149.011 489.026 148.34 489.217C147.755 489.434 147.141 489.552 146.52 489.568V489.568Z" fill="white"/>
<path d="M37.0001 442.312C36.702 442.313 36.4043 442.289 36.1101 442.239C35.4148 442.163 34.7414 441.943 34.1297 441.593C33.518 441.243 32.9804 440.77 32.5487 440.201C32.1171 439.632 31.8001 438.98 31.6165 438.282C31.433 437.585 31.3866 436.856 31.4801 436.14C31.6601 435.106 35.9201 410.646 57.8301 396.855C73.0801 387.292 92.7401 385.41 116.28 391.262C116.965 391.401 117.615 391.683 118.191 392.091C118.767 392.498 119.257 393.022 119.631 393.631C120.005 394.24 120.256 394.922 120.367 395.634C120.479 396.346 120.449 397.075 120.28 397.775C119.833 399.191 118.878 400.377 117.611 401.088C116.345 401.799 114.863 401.983 113.47 401.6C93.1601 396.565 76.5301 397.94 64.0401 405.735C46.2701 416.818 42.5401 437.577 42.5001 437.784C42.2443 439.086 41.5528 440.254 40.547 441.082C39.5412 441.91 38.2854 442.346 37.0001 442.312V442.312Z" fill="white"/>
<path d="M84.0701 312.215L79.0701 313.497L1.56012 333.316C1.08805 333.43 0.604986 333.489 0.120117 333.491V322.636L75.4001 303.335L81.1901 301.836C82.4365 301.502 83.7549 301.611 84.9349 302.143C86.1149 302.675 87.0885 303.601 87.7001 304.772C87.8214 305.054 87.925 305.344 88.0101 305.64C88.1936 306.34 88.236 307.072 88.1346 307.789C88.0332 308.507 87.7902 309.195 87.4208 309.812C87.0513 310.428 86.5633 310.96 85.9869 311.373C85.4105 311.787 84.7581 312.073 84.0701 312.215V312.215Z" fill="white"/>
<path d="M355.997 298.941C355.997 317.839 330.129 353.398 318.512 368.406C317.852 369.26 317.012 369.949 316.055 370.423C315.099 370.897 314.05 371.143 312.987 371.143C311.925 371.143 310.876 370.897 309.919 370.423C308.963 369.949 308.123 369.26 307.462 368.406C295.858 353.372 270.003 317.839 270.003 298.941C269.934 293.107 270.995 287.317 273.125 281.907C275.254 276.497 278.41 271.573 282.41 267.423C286.409 263.272 291.173 259.977 296.424 257.728C301.675 255.479 307.309 254.321 313 254.321C318.691 254.321 324.325 255.479 329.576 257.728C334.827 259.977 339.591 263.272 343.59 267.423C347.59 271.573 350.746 276.497 352.875 281.907C355.005 287.317 356.066 293.107 355.997 298.941Z" fill="#12B7B6"/>
<path d="M313 323.587C308.055 323.587 303.222 322.041 299.111 319.145C295 316.248 291.795 312.13 289.903 307.313C288.011 302.496 287.516 297.196 288.48 292.082C289.445 286.968 291.826 282.271 295.322 278.584C298.819 274.897 303.273 272.386 308.123 271.369C312.972 270.352 317.999 270.874 322.567 272.869C327.135 274.864 331.04 278.243 333.787 282.579C336.534 286.914 338 292.011 338 297.225C337.993 304.214 335.357 310.916 330.67 315.858C325.983 320.801 319.628 323.58 313 323.587V323.587ZM313 273.941C308.633 273.941 304.364 275.307 300.733 277.865C297.102 280.424 294.272 284.06 292.601 288.315C290.929 292.569 290.492 297.251 291.344 301.767C292.196 306.284 294.299 310.433 297.387 313.689C300.475 316.945 304.409 319.163 308.692 320.061C312.975 320.959 317.415 320.498 321.45 318.736C325.484 316.974 328.933 313.989 331.359 310.161C333.785 306.332 335.08 301.83 335.08 297.225C335.074 291.052 332.745 285.134 328.606 280.769C324.466 276.404 318.854 273.948 313 273.941V273.941Z" fill="white"/>
</svg>
