<svg width="264" height="264" viewBox="0 0 264 264" fill="none" xmlns="http://www.w3.org/2000/svg">
<g filter="url(#filter0_ii_185_902)">
<path d="M0 132C0 59.0984 59.0984 0 132 0C204.902 0 264 59.0984 264 132C264 204.902 204.902 264 132 264C59.0984 264 0 204.902 0 132Z" fill="#EDEDED"/>
</g>
<path d="M163.322 77.9564C162.94 75.2075 161.515 72.7282 159.363 71.0639C157.21 69.3995 154.505 68.6865 151.843 69.0817C149.182 69.4768 146.781 70.9478 145.169 73.1709C143.558 75.3941 142.867 78.1873 143.25 80.9362L163.322 77.9564Z" fill="#26C5BF"/>
<path d="M101.234 77.9564C101.385 76.562 101.805 75.213 102.471 73.9897C103.136 72.7664 104.032 71.6936 105.107 70.8351C106.182 69.9766 107.412 69.3499 108.726 68.9922C110.04 68.6345 111.409 68.5532 112.754 68.7529C114.099 68.9526 115.391 69.4295 116.554 70.155C117.717 70.8806 118.727 71.84 119.523 72.9765C120.32 74.113 120.887 75.4032 121.192 76.7705C121.496 78.1379 121.531 79.5545 121.295 80.9362L101.234 77.9564Z" fill="#26C5BF"/>
<path d="M132.404 154.749C136.353 154.749 139.554 151.442 139.554 147.364C139.554 143.285 136.353 139.979 132.404 139.979C128.454 139.979 125.253 143.285 125.253 147.364C125.253 151.442 128.454 154.749 132.404 154.749Z" fill="white"/>
<path d="M139.075 113.797C139.075 111.969 138.372 110.217 137.121 108.925C135.87 107.632 134.173 106.906 132.404 106.906C130.634 106.906 128.937 107.632 127.686 108.925C126.435 110.217 125.732 111.969 125.732 113.797L125.504 147.387C125.504 145.566 126.204 143.82 127.451 142.532C128.698 141.244 130.389 140.521 132.153 140.521C133.916 140.521 135.607 141.244 136.854 142.532C138.101 143.82 138.802 145.566 138.802 147.387L139.075 113.797Z" fill="#26C5BF"/>
<path d="M108.83 77.1082C104.796 77.0224 100.857 78.3755 97.6761 80.9392C94.4955 83.503 92.268 87.1208 91.369 91.1828L74.3987 153.842C77.4212 148.489 82.078 144.322 87.6393 141.996C93.2006 139.669 99.3522 139.314 105.13 140.986C110.908 142.657 115.985 146.261 119.567 151.233C123.149 156.204 125.032 162.262 124.922 168.458L126.062 95.5407C126.103 93.1618 125.69 90.7978 124.846 88.5839C124.002 86.37 122.744 84.3495 121.143 82.6379C119.543 80.9262 117.632 79.5569 115.519 78.6081C113.406 77.6593 111.133 77.1496 108.83 77.1082Z" fill="white"/>
<path d="M74.3986 153.842C72.0658 157.968 70.7975 162.644 70.7148 167.422L74.3986 153.842Z" fill="white"/>
<path d="M155.829 77.1083C159.858 77.0302 163.791 78.3865 166.967 80.9495C170.142 83.5125 172.367 87.126 173.267 91.1829L190.271 153.842C187.249 148.489 182.592 144.322 177.031 141.996C171.47 139.669 165.318 139.314 159.54 140.986C153.762 142.657 148.685 146.261 145.103 151.233C141.521 156.204 139.638 162.262 139.748 168.458L138.608 95.5408C138.525 90.7383 140.293 86.0987 143.523 82.6421C146.752 79.1855 151.179 77.195 155.829 77.1083Z" fill="white"/>
<path d="M190.271 153.842C192.605 157.967 193.87 162.644 193.944 167.422L190.271 153.842Z" fill="white"/>
<path d="M167.028 195.571C181.893 195.571 193.943 183.126 193.943 167.775C193.943 152.424 181.893 139.979 167.028 139.979C152.163 139.979 140.113 152.424 140.113 167.775C140.113 183.126 152.163 195.571 167.028 195.571Z" fill="#D3F3F2"/>
<path d="M97.8125 195.571C112.677 195.571 124.728 183.126 124.728 167.775C124.728 152.424 112.677 139.979 97.8125 139.979C82.9476 139.979 70.8972 152.424 70.8972 167.775C70.8972 183.126 82.9476 195.571 97.8125 195.571Z" fill="#D3F3F2"/>
<path d="M167.017 197.714C159.462 197.645 152.236 194.515 146.894 188.998C141.552 183.482 138.521 176.019 138.454 168.218C138.387 160.416 141.288 152.899 146.535 147.285C151.781 141.671 158.952 138.409 166.504 138.2H167.04C174.586 138.211 181.829 141.275 187.214 146.735C192.599 152.196 195.699 159.617 195.848 167.41C195.979 175.299 193.075 182.92 187.773 188.601C182.471 194.282 175.203 197.56 167.564 197.714H167.017ZM167.017 141.734H166.538C161.517 141.834 156.638 143.47 152.518 146.434C148.398 149.398 145.221 153.557 143.39 158.386C141.558 163.214 141.155 168.495 142.23 173.561C143.306 178.626 145.811 183.249 149.431 186.843C151.822 189.247 154.653 191.134 157.759 192.394C160.865 193.654 164.183 194.262 167.519 194.181C174.25 194.042 180.653 191.152 185.325 186.144C189.996 181.137 192.554 174.421 192.438 167.469C192.304 160.601 189.57 154.061 184.822 149.251C180.074 144.44 173.691 141.742 167.04 141.734H167.017Z" fill="#283133"/>
<path d="M137.125 97.3074V95.5407C137.028 90.6165 138.704 85.8303 141.829 82.1096C144.954 78.3888 149.305 75.9985 154.039 75.4017C158.773 74.8049 163.554 76.044 167.454 78.8791C171.353 81.7142 174.095 85.9433 175.148 90.7471L175.536 92.4667L172.195 93.244L171.818 91.5245C170.936 87.5885 168.674 84.1291 165.469 81.8125C162.264 79.4959 158.342 78.4861 154.459 78.9775C150.576 79.4689 147.006 81.4267 144.437 84.474C141.869 87.5212 140.483 91.4423 140.546 95.4819V97.2486L137.125 97.3074Z" fill="#283133"/>
<path d="M174.621 88.9977L171.334 89.9769L189.891 156.417L193.178 155.437L174.621 88.9977Z" fill="#283133"/>
<path d="M140.487 93.741L137.066 93.7983L138.273 170.604L141.694 170.547L140.487 93.741Z" fill="#283133"/>
<path d="M167.017 197.714C159.462 197.645 152.236 194.515 146.894 188.998C141.552 183.482 138.521 176.019 138.454 168.218C138.387 160.416 141.288 152.899 146.535 147.285C151.781 141.671 158.952 138.409 166.504 138.2H167.04C174.586 138.211 181.829 141.275 187.214 146.735C192.599 152.196 195.699 159.617 195.848 167.41C195.979 175.299 193.075 182.92 187.773 188.601C182.471 194.282 175.203 197.56 167.564 197.714H167.017ZM167.017 141.734H166.538C161.517 141.834 156.638 143.47 152.518 146.434C148.398 149.398 145.221 153.557 143.39 158.386C141.558 163.214 141.155 168.495 142.23 173.561C143.306 178.626 145.811 183.249 149.431 186.843C151.822 189.247 154.653 191.134 157.759 192.394C160.865 193.654 164.183 194.262 167.519 194.181C174.25 194.042 180.653 191.152 185.325 186.144C189.996 181.137 192.554 174.421 192.438 167.469C192.304 160.601 189.57 154.061 184.822 149.251C180.074 144.44 173.691 141.742 167.04 141.734H167.017Z" fill="#323232"/>
<path d="M137.125 97.3074V95.5407C137.028 90.6165 138.704 85.8303 141.829 82.1096C144.954 78.3888 149.305 75.9985 154.039 75.4017C158.773 74.8049 163.554 76.044 167.454 78.8791C171.353 81.7142 174.095 85.9433 175.148 90.7471L175.536 92.4667L172.195 93.244L171.818 91.5245C170.936 87.5885 168.674 84.1291 165.469 81.8125C162.264 79.4959 158.342 78.4861 154.459 78.9775C150.576 79.4689 147.006 81.4267 144.437 84.474C141.869 87.5212 140.483 91.4423 140.546 95.4819V97.2486L137.125 97.3074Z" fill="#323232"/>
<path d="M174.621 88.9977L171.334 89.9769L189.891 156.417L193.178 155.437L174.621 88.9977Z" fill="#323232"/>
<path d="M140.487 93.741L137.066 93.7983L138.273 170.604L141.694 170.547L140.487 93.741Z" fill="#283133"/>
<path d="M97.8356 197.715H97.2881C89.6492 197.56 82.3814 194.282 77.0792 188.601C71.7769 182.92 68.8729 175.299 69.0043 167.41H70.715H69.0043C69.1076 161.548 70.885 155.848 74.1134 151.026C77.3419 146.204 81.8775 142.473 87.1513 140.303C92.425 138.133 98.202 137.619 103.757 138.827C109.312 140.035 114.398 142.911 118.377 147.093C122.356 151.275 125.05 156.577 126.121 162.334C127.193 168.092 126.594 174.048 124.4 179.455C122.206 184.862 118.514 189.48 113.788 192.728C109.062 195.977 103.513 197.711 97.8356 197.715ZM97.8356 141.734C91.1838 141.802 84.8232 144.562 80.121 149.421C75.4188 154.281 72.7503 160.851 72.6891 167.721C72.6278 174.59 75.1787 181.21 79.7935 186.158C84.4082 191.106 90.7185 193.987 97.368 194.181C104.102 194.307 110.608 191.668 115.458 186.842C120.308 182.017 123.105 175.4 123.234 168.446C123.35 161.494 120.792 154.778 116.121 149.771C111.449 144.763 105.046 141.873 98.3146 141.734H97.8356Z" fill="#323232"/>
<path d="M127.727 97.3074L124.306 97.2486V95.4819C124.369 91.4423 122.983 87.5212 120.415 84.474C117.846 81.4267 114.276 79.4689 110.393 78.9775C106.51 78.4861 102.588 79.4959 99.3834 81.8125C96.1782 84.1291 93.9165 87.5885 93.0339 91.5245L92.6575 93.244L89.3159 92.4667L89.7037 90.7471C90.7566 85.9433 93.4986 81.7142 97.3986 78.8791C101.298 76.044 106.079 74.8049 110.813 75.4017C115.547 75.9985 119.898 78.3888 123.023 82.1096C126.148 85.8303 127.824 90.6165 127.727 95.5407V97.3074Z" fill="#323232"/>
<path d="M90.2124 88.9652L71.644 155.401L74.9313 156.381L93.4996 89.9451L90.2124 88.9652Z" fill="#323232"/>
<path d="M124.339 93.7571L123.132 170.563L126.553 170.62L127.76 93.8144L124.339 93.7571Z" fill="#323232"/>
<path d="M127.02 138.306L123.599 138.248V136.481C123.688 131.346 122.019 126.344 118.886 122.356C115.753 118.367 111.357 115.649 106.474 114.681C101.59 113.712 96.5323 114.555 92.1916 117.061C87.8509 119.566 84.5061 123.574 82.7468 128.378L82.1423 130.038L78.949 128.79L79.5535 127.129C81.601 121.551 85.4887 116.898 90.532 113.99C95.5752 111.082 101.45 110.105 107.123 111.231C112.795 112.357 117.901 115.514 121.541 120.146C125.181 124.777 127.121 130.587 127.02 136.552V138.306Z" fill="#323232"/>
<path d="M137.787 138.307V136.54C137.686 130.576 139.626 124.766 143.266 120.134C146.906 115.502 152.012 112.345 157.684 111.219C163.356 110.093 169.232 111.07 174.275 113.978C179.318 116.887 183.206 121.54 185.253 127.117L185.858 128.778L182.665 130.027L182.06 128.366C180.499 124.169 177.726 120.569 174.117 118.053C170.508 115.538 166.238 114.229 161.885 114.303C156.298 114.414 150.982 116.812 147.105 120.968C143.228 125.124 141.107 130.699 141.208 136.469V138.236L137.787 138.307Z" fill="#323232"/>
<path d="M132.153 155.985C130.499 155.985 128.883 155.479 127.508 154.53C126.134 153.582 125.062 152.233 124.429 150.656C123.797 149.078 123.631 147.342 123.954 145.668C124.276 143.993 125.072 142.455 126.241 141.247C127.411 140.04 128.9 139.218 130.522 138.885C132.143 138.551 133.824 138.722 135.352 139.376C136.879 140.029 138.185 141.136 139.103 142.555C140.022 143.975 140.512 145.644 140.512 147.352C140.509 149.641 139.628 151.835 138.061 153.453C136.493 155.071 134.369 155.982 132.153 155.985ZM132.153 142.252C131.176 142.252 130.221 142.551 129.409 143.112C128.597 143.672 127.964 144.468 127.59 145.4C127.217 146.332 127.119 147.358 127.309 148.347C127.5 149.336 127.97 150.245 128.661 150.958C129.351 151.671 130.231 152.157 131.189 152.354C132.147 152.551 133.14 152.45 134.042 152.064C134.945 151.678 135.716 151.024 136.259 150.185C136.801 149.347 137.091 148.361 137.091 147.352C137.091 145.999 136.571 144.702 135.645 143.746C134.718 142.789 133.462 142.252 132.153 142.252Z" fill="#323232"/>
<path d="M140.786 115.528H137.364V113.797C137.364 112.438 136.842 111.135 135.911 110.174C134.981 109.213 133.719 108.673 132.403 108.673C131.088 108.673 129.826 109.213 128.895 110.174C127.965 111.135 127.442 112.438 127.442 113.797V115.563H124.021V113.797C124.021 112.66 124.238 111.534 124.659 110.484C125.08 109.433 125.698 108.479 126.476 107.675C127.254 106.871 128.178 106.234 129.195 105.799C130.212 105.364 131.302 105.14 132.403 105.14C133.504 105.14 134.594 105.364 135.611 105.799C136.628 106.234 137.552 106.871 138.331 107.675C139.109 108.479 139.726 109.433 140.148 110.484C140.569 111.534 140.786 112.66 140.786 113.797V115.528Z" fill="#323232"/>
<path d="M141.083 130.886H137.661V129.108C137.661 127.668 137.107 126.287 136.121 125.269C135.135 124.25 133.798 123.678 132.403 123.678C131.009 123.678 129.672 124.25 128.686 125.269C127.7 126.287 127.146 127.668 127.146 129.108V130.875H123.724V129.108C123.724 126.731 124.639 124.451 126.266 122.77C127.894 121.089 130.102 120.145 132.403 120.145C134.705 120.145 136.913 121.089 138.54 122.77C140.168 124.451 141.083 126.731 141.083 129.108V130.886Z" fill="#323232"/>
<path d="M168.488 190.907H166.777C160.953 190.901 155.37 188.509 151.252 184.256C147.134 180.003 144.818 174.237 144.812 168.223V166.456H148.233V168.223C148.239 173.3 150.195 178.167 153.671 181.757C157.148 185.348 161.861 187.367 166.777 187.373H168.488V190.907Z" fill="#323232"/>
<path d="M99.2496 190.353H97.5389C91.7151 190.347 86.1315 187.955 82.0135 183.702C77.8955 179.449 75.5793 173.683 75.5732 167.669V165.902H78.9947V167.669C79.0037 172.745 80.9604 177.611 84.4361 181.2C87.9119 184.79 92.6234 186.811 97.5389 186.82H99.2496V190.353Z" fill="#323232"/>
<path d="M122.47 83.5743L119.128 82.8676L119.47 81.1363C119.924 78.8747 119.489 76.5197 118.262 74.5892C117.034 72.6587 115.114 71.3109 112.924 70.8424C110.734 70.3738 108.454 70.8228 106.584 72.0907C104.715 73.3585 103.41 75.3413 102.956 77.6029L102.614 79.3342L99.2612 78.6276L99.6034 76.8962C100.234 73.7163 102.062 70.9253 104.685 69.1373C107.309 67.3493 110.512 66.7107 113.591 67.362C116.67 68.0133 119.373 69.9011 121.104 72.6102C122.836 75.3193 123.454 78.6277 122.823 81.8076L122.47 83.5743Z" fill="#283133"/>
<path d="M141.8 82.9383L141.561 81.1834C141.311 79.5818 141.372 77.9448 141.741 76.3678C142.109 74.7907 142.777 73.305 143.707 71.9972C144.636 70.6893 145.808 69.5853 147.154 68.7494C148.501 67.9135 149.994 67.3625 151.549 67.1282C153.103 66.894 154.687 66.9813 156.209 67.385C157.73 67.7888 159.159 68.5009 160.411 69.48C161.664 70.459 162.715 71.6855 163.505 73.0881C164.294 74.4907 164.805 76.0414 165.009 77.65L165.26 79.4049L161.839 79.8996L161.588 78.1565C161.266 75.8751 160.082 73.8184 158.295 72.4366C156.508 71.0547 154.264 70.4603 152.053 70.7835C149.842 71.1158 147.849 72.3402 146.51 74.1883C145.172 76.0363 144.598 78.3571 144.914 80.6416L145.153 82.3847L141.8 82.9383Z" fill="#323232"/>
<defs>
<filter id="filter0_ii_185_902" x="-20" y="-20" width="304" height="304" filterUnits="userSpaceOnUse" color-interpolation-filters="sRGB">
<feFlood flood-opacity="0" result="BackgroundImageFix"/>
<feBlend mode="normal" in="SourceGraphic" in2="BackgroundImageFix" result="shape"/>
<feColorMatrix in="SourceAlpha" type="matrix" values="0 0 0 0 0 0 0 0 0 0 0 0 0 0 0 0 0 0 127 0" result="hardAlpha"/>
<feOffset dx="20" dy="20"/>
<feGaussianBlur stdDeviation="25"/>
<feComposite in2="hardAlpha" operator="arithmetic" k2="-1" k3="1"/>
<feColorMatrix type="matrix" values="0 0 0 0 0.804167 0 0 0 0 0.804167 0 0 0 0 0.804167 0 0 0 1 0"/>
<feBlend mode="normal" in2="shape" result="effect1_innerShadow_185_902"/>
<feColorMatrix in="SourceAlpha" type="matrix" values="0 0 0 0 0 0 0 0 0 0 0 0 0 0 0 0 0 0 127 0" result="hardAlpha"/>
<feOffset dx="-20" dy="-20"/>
<feGaussianBlur stdDeviation="25"/>
<feComposite in2="hardAlpha" operator="arithmetic" k2="-1" k3="1"/>
<feColorMatrix type="matrix" values="0 0 0 0 1 0 0 0 0 1 0 0 0 0 1 0 0 0 1 0"/>
<feBlend mode="normal" in2="effect1_innerShadow_185_902" result="effect2_innerShadow_185_902"/>
</filter>
</defs>
</svg>
