<svg width="84" height="81" viewBox="0 0 84 81" fill="none" xmlns="http://www.w3.org/2000/svg">
<path d="M46.0482 62.2298H43.5181V53.2079C43.5128 52.7874 43.3512 52.3856 43.0676 52.0882C42.7841 51.7909 42.401 51.6214 42 51.6159H37.9518C37.5492 51.6159 37.1631 51.7836 36.8784 52.0822C36.5937 52.3807 36.4337 52.7857 36.4337 53.2079C36.4337 53.6302 36.5937 54.0352 36.8784 54.3337C37.1631 54.6323 37.5492 54.8 37.9518 54.8H40.4819V62.2298H37.9518C37.5492 62.2298 37.1631 62.3975 36.8784 62.6961C36.5937 62.9947 36.4337 63.3996 36.4337 63.8219C36.4337 64.2441 36.5937 64.6491 36.8784 64.9477C37.1631 65.2463 37.5492 65.414 37.9518 65.414H46.0482C46.4508 65.414 46.8369 65.2463 47.1216 64.9477C47.4063 64.6491 47.5663 64.2441 47.5663 63.8219C47.5663 63.3996 47.4063 62.9947 47.1216 62.6961C46.8369 62.3975 46.4508 62.2298 46.0482 62.2298ZM30.3412 19.4768C30.1533 20.8171 30.2739 22.1851 30.6929 23.4666C31.1119 24.748 31.8172 25.9056 32.7499 26.8429C34.4756 28.2676 35.8815 30.0729 36.8679 32.1309C37.8543 34.1889 38.3971 36.4493 38.4578 38.7518V38.8791H31.8795C31.4769 38.8791 31.0908 39.0469 30.8061 39.3454C30.5214 39.644 30.3614 40.049 30.3614 40.4712C30.3614 40.8935 30.5214 41.2984 30.8061 41.597C31.0908 41.8956 31.4769 42.0633 31.8795 42.0633H52.1205C52.5231 42.0633 52.9092 41.8956 53.1939 41.597C53.4786 41.2984 53.6385 40.8935 53.6385 40.4712C53.6385 40.049 53.4786 39.644 53.1939 39.3454C52.9092 39.0469 52.5231 38.8791 52.1205 38.8791H45.5422V38.7518C45.6029 36.4493 46.1457 34.1889 47.1321 32.1309C48.1185 30.0729 49.5244 28.2676 51.2501 26.8429C52.1828 25.9056 52.8881 24.748 53.3071 23.4666C53.7261 22.1851 53.8467 20.8171 53.6588 19.4768C58.1118 19.4768 61.7552 14.4034 61.7552 8.2685V6.50661C61.75 6.08607 61.5883 5.68431 61.3048 5.38691C61.0212 5.08952 60.6381 4.92002 60.2371 4.91452H54.1648C53.9914 4.91712 53.8199 4.95307 53.6588 5.02063V2.26104C53.6536 1.8405 53.4919 1.43873 53.2084 1.14134C52.9248 0.843947 52.5417 0.674443 52.1407 0.668945H31.8795C31.4785 0.674443 31.0954 0.843947 30.8119 1.14134C30.5283 1.43873 30.3667 1.8405 30.3614 2.26104V5.02063C30.2004 4.95307 30.0289 4.91712 29.8554 4.91452H23.7831C23.3821 4.92002 22.9991 5.08952 22.7155 5.38691C22.4319 5.68431 22.2703 6.08607 22.2651 6.50661V8.2685C22.2651 14.4034 25.8072 19.3919 30.3412 19.4768ZM54.1446 8.0987H58.6988V8.2685C58.6988 12.5141 56.3913 16.2077 53.6385 16.2926V7.99259C53.7996 8.06016 53.9711 8.09611 54.1446 8.0987ZM33.3773 18.9461V3.85313H50.5821V18.9461C50.5821 21.6633 50.5821 23.1917 49.2462 24.4229C47.1812 26.1418 45.503 28.317 44.331 30.7936C43.159 33.2703 42.5221 35.9875 42.4656 38.7518V38.8791H41.4535V38.7518C41.397 35.9875 40.7601 33.2703 39.588 30.7936C38.416 28.317 36.7378 26.1418 34.6728 24.4229C33.3976 23.2554 33.3368 21.6633 33.3773 18.9461ZM25.2809 8.0987H29.8554C30.0289 8.09611 30.2004 8.06016 30.3614 7.99259V16.2926C27.6087 16.2926 25.3012 12.5778 25.3012 8.2685L25.2809 8.0987ZM82.4819 77.0893H1.51807C1.11545 77.0893 0.729318 77.257 0.444624 77.5556C0.15993 77.8542 0 78.2592 0 78.6814C0 79.1037 0.15993 79.5086 0.444624 79.8072C0.729318 80.1058 1.11545 80.2735 1.51807 80.2735H82.4819C82.8845 80.2735 83.2707 80.1058 83.5554 79.8072C83.8401 79.5086 84 79.1037 84 78.6814C84 78.2592 83.8401 77.8542 83.5554 77.5556C83.2707 77.257 82.8845 77.0893 82.4819 77.0893ZM3.54217 73.9051H80.4578C80.8588 73.8996 81.2419 73.7301 81.5255 73.4327C81.809 73.1353 81.9707 72.7336 81.9759 72.313V53.2079C81.9707 52.7874 81.809 52.3856 81.5255 52.0882C81.2419 51.7909 80.8588 51.6214 80.4578 51.6159H57.6867V46.8396C57.6815 46.419 57.5199 46.0173 57.2363 45.7199C56.9527 45.4225 56.5697 45.253 56.1687 45.2475H27.8313C27.4303 45.253 27.0472 45.4225 26.7637 45.7199C26.4801 46.0173 26.3185 46.419 26.3133 46.8396V57.9842H3.54217C3.14118 57.9897 2.75809 58.1592 2.47453 58.4566C2.19096 58.754 2.02934 59.1558 2.0241 59.5763V72.313C2.02934 72.7336 2.19096 73.1353 2.47453 73.4327C2.75809 73.7301 3.14118 73.8996 3.54217 73.9051ZM57.6867 54.8H78.9398V70.7209H57.6867V54.8ZM29.3494 48.4317H54.6506V70.7209H29.3494V48.4317ZM5.06024 61.1684H26.3133V70.7209H5.06024V61.1684Z" fill="#323232"/>
</svg>
