<svg width="92" height="71" viewBox="0 0 92 71" fill="none" xmlns="http://www.w3.org/2000/svg">
<path d="M54.5099 45.3039C54.0905 45.3097 53.6899 45.4879 53.3933 45.8006C53.0968 46.1132 52.9277 46.5356 52.9222 46.9778V69.2952C52.9222 69.7392 53.0895 70.1649 53.3872 70.4788C53.685 70.7927 54.0888 70.9691 54.5099 70.9691C54.931 70.9691 55.3348 70.7927 55.6326 70.4788C55.9303 70.1649 56.0976 69.7392 56.0976 69.2952V46.9778C56.0921 46.5356 55.9231 46.1132 55.6265 45.8006C55.3299 45.4879 54.9293 45.3097 54.5099 45.3039ZM37.5748 45.3039C37.1554 45.3097 36.7548 45.4879 36.4582 45.8006C36.1616 46.1132 35.9926 46.5356 35.9871 46.9778V69.2952C35.9871 69.7392 36.1544 70.1649 36.4521 70.4788C36.7499 70.7927 37.1537 70.9691 37.5748 70.9691C37.9959 70.9691 38.3997 70.7927 38.6974 70.4788C38.9952 70.1649 39.1625 69.7392 39.1625 69.2952V46.9778C39.157 46.5356 38.9879 46.1132 38.6914 45.8006C38.3948 45.4879 37.9942 45.3097 37.5748 45.3039ZM7.93834 49.7674C7.51896 49.7732 7.11831 49.9514 6.82175 50.2641C6.52518 50.5767 6.35615 50.9991 6.35067 51.4413V69.2952C6.35067 69.7392 6.51793 70.1649 6.81568 70.4788C7.11342 70.7927 7.51726 70.9691 7.93834 70.9691C8.35941 70.9691 8.76325 70.7927 9.061 70.4788C9.35874 70.1649 9.526 69.7392 9.526 69.2952V51.4413C9.52052 50.9991 9.35149 50.5767 9.05492 50.2641C8.75836 49.9514 8.35771 49.7732 7.93834 49.7674ZM84.1464 49.7674C83.727 49.7732 83.3263 49.9514 83.0298 50.2641C82.7332 50.5767 82.5642 50.9991 82.5587 51.4413V69.2952C82.5587 69.7392 82.726 70.1649 83.0237 70.4788C83.3214 70.7927 83.7253 70.9691 84.1464 70.9691C84.5674 70.9691 84.9713 70.7927 85.269 70.4788C85.5668 70.1649 85.734 69.7392 85.734 69.2952V51.4413C85.7285 50.9991 85.5595 50.5767 85.2629 50.2641C84.9664 49.9514 84.5657 49.7732 84.1464 49.7674ZM87.4487 40.8404H81.5002V38.3409C82.7882 37.516 83.8537 36.3564 84.595 34.9732C85.3363 33.5899 85.7285 32.0292 85.734 30.4405V15.4654C85.734 13.9088 85.1475 12.4158 84.1034 11.3151C83.0593 10.2143 81.6432 9.59594 80.1666 9.59594H69.0741C67.5975 9.59594 66.1814 10.2143 65.1373 11.3151C64.0932 12.4158 63.5067 13.9088 63.5067 15.4654V30.4405C63.5122 32.0292 63.9044 33.5899 64.6457 34.9732C65.387 36.3564 66.4525 37.516 67.7405 38.3409V40.8404H65.0944C64.9194 40.807 64.7401 40.807 64.5651 40.8404V40.461C64.5651 38.7564 63.9228 37.1215 62.7795 35.9162C61.6361 34.7108 60.0854 34.0336 58.4685 34.0336H53.9807V31.3555C55.2785 30.4603 56.3449 29.239 57.0839 27.8015C57.8229 26.364 58.2114 24.7554 58.2145 23.1204V6.94017C58.2145 5.27694 57.5877 3.68182 56.4722 2.50574C55.3566 1.32966 53.8436 0.668945 52.266 0.668945H39.8187C38.2411 0.668945 36.728 1.32966 35.6125 2.50574C34.4969 3.68182 33.8702 5.27694 33.8702 6.94017V23.165C33.8733 24.8 34.2617 26.4087 35.0008 27.8462C35.7398 29.2837 36.8062 30.5049 38.104 31.4001V34.1452H33.6162C32.8156 34.1452 32.0228 34.3114 31.2831 34.6345C30.5434 34.9575 29.8714 35.4309 29.3052 36.0277C28.7391 36.6246 28.2901 37.3331 27.9837 38.113C27.6773 38.8928 27.5196 39.7286 27.5196 40.5726V40.952C27.3446 40.9185 27.1653 40.9185 26.9903 40.952H24.3442V38.3409C25.6322 37.516 26.6977 36.3564 27.439 34.9732C28.1803 33.5899 28.5725 32.0292 28.578 30.4405V15.4654C28.578 13.9088 27.9915 12.4158 26.9474 11.3151C25.9033 10.2143 24.4872 9.59594 23.0106 9.59594H11.9181C10.4415 9.59594 9.02539 10.2143 7.9813 11.3151C6.9372 12.4158 6.35067 13.9088 6.35067 15.4654V30.4405C6.35621 32.0292 6.74839 33.5899 7.48967 34.9732C8.23095 36.3564 9.29652 37.516 10.5844 38.3409V40.8404H4.63599C3.40645 40.8404 2.22729 41.3554 1.35788 42.272C0.48846 43.1886 0 44.4317 0 45.728V69.2952C0 69.7392 0.167262 70.1649 0.465008 70.4788C0.762753 70.7927 1.16659 70.9691 1.58767 70.9691C2.00874 70.9691 2.41258 70.7927 2.71033 70.4788C3.00807 70.1649 3.17533 69.7392 3.17533 69.2952V45.728C3.17533 45.3196 3.32921 44.9279 3.60313 44.6391C3.87706 44.3503 4.2486 44.1881 4.63599 44.1881H10.0552C10.7935 45.3905 11.7954 46.3879 12.9763 47.0962C14.1572 47.8045 15.4824 48.2028 16.84 48.2575C18.1977 48.3122 19.5478 48.0217 20.7766 47.4106C22.0053 46.7994 23.0765 45.8855 23.8997 44.746C24.0284 44.5747 24.1221 44.3771 24.1749 44.1658H26.9903C27.1653 44.1992 27.3446 44.1992 27.5196 44.1658V69.2952C27.5196 69.7392 27.6868 70.1649 27.9846 70.4788C28.2823 70.7927 28.6862 70.9691 29.1072 70.9691C29.5283 70.9691 29.9321 70.7927 30.2299 70.4788C30.5276 70.1649 30.6949 69.7392 30.6949 69.2952V40.5726C30.6949 40.1682 30.7705 39.7677 30.9173 39.394C31.0641 39.0204 31.2793 38.6809 31.5506 38.3949C31.8218 38.1089 32.1438 37.882 32.4983 37.7273C32.8527 37.5725 33.2326 37.4928 33.6162 37.4928H37.5748C37.6302 37.6165 37.6938 37.7358 37.7653 37.8499C38.7552 39.0047 39.9692 39.9214 41.3249 40.5377C42.6806 41.1539 44.1463 41.4554 45.6223 41.4215C47.0983 41.3876 48.5501 41.0192 49.8791 40.3413C51.2081 39.6634 52.3832 38.6919 53.3245 37.4928H58.3838C58.7674 37.4928 59.1473 37.5725 59.5017 37.7273C59.8562 37.882 60.1782 38.1089 60.4495 38.3949C60.7208 38.6809 60.9359 39.0204 61.0827 39.394C61.2295 39.7677 61.3051 40.1682 61.3051 40.5726V69.2952C61.3051 69.7392 61.4724 70.1649 61.7701 70.4788C62.0679 70.7927 62.4717 70.9691 62.8928 70.9691C63.3138 70.9691 63.7177 70.7927 64.0154 70.4788C64.3132 70.1649 64.4804 69.7392 64.4804 69.2952V44.0765C64.6554 44.11 64.8347 44.11 65.0097 44.0765H67.7405C67.7933 44.2878 67.887 44.4854 68.0157 44.6567C68.8389 45.7962 69.9101 46.7101 71.1388 47.3213C72.3675 47.9325 73.7177 48.223 75.0753 48.1683C76.433 48.1135 77.7581 47.7152 78.939 47.0069C80.1199 46.2987 81.1219 45.3012 81.8601 44.0988H87.364C87.7514 44.0988 88.1229 44.261 88.3969 44.5498C88.6708 44.8386 88.8247 45.2303 88.8247 45.6387V69.2952C88.8247 69.7392 88.9919 70.1649 89.2897 70.4788C89.5874 70.7927 89.9913 70.9691 90.4123 70.9691C90.8334 70.9691 91.2372 70.7927 91.535 70.4788C91.8327 70.1649 92 69.7392 92 69.2952V45.728C92.0002 44.447 91.5234 43.2172 90.6722 42.3031C89.821 41.3891 88.6635 40.8638 87.4487 40.8404ZM9.526 15.4654C9.53153 14.7984 9.78534 14.1603 10.2328 13.6886C10.6802 13.217 11.2854 12.9494 11.9181 12.9436H23.0106C23.6433 12.9494 24.2485 13.217 24.6959 13.6886C25.1433 14.1603 25.3971 14.7984 25.4027 15.4654V18.5229H16.4059C15.9865 18.5287 15.5859 18.7069 15.2893 19.0196C14.9927 19.3322 14.8237 19.7546 14.8182 20.1968V22.9864H9.526V15.4654ZM13.5905 43.2507C13.701 43.0227 13.759 42.7704 13.7598 42.5143V39.5683C14.2199 39.6657 14.6877 39.718 15.1569 39.7246H19.7717C20.241 39.718 20.7087 39.6657 21.1689 39.5683V42.5143C21.1491 42.6473 21.1491 42.7829 21.1689 42.916C20.2042 44.0165 18.8654 44.6695 17.4452 44.7322C16.0251 44.795 14.6391 44.2623 13.5905 43.2507ZM19.7717 36.3769H15.1569C13.6635 36.3769 12.2312 35.7515 11.1752 34.6382C10.1192 33.5249 9.526 32.0149 9.526 30.4405V26.3341H16.4059C16.8253 26.3283 17.2259 26.1501 17.5225 25.8374C17.819 25.5248 17.9881 25.1024 17.9936 24.6603V21.8706H25.4027V30.4405C25.4027 31.2201 25.257 31.992 24.974 32.7123C24.6911 33.4325 24.2763 34.0869 23.7534 34.6382C23.2306 35.1894 22.6098 35.6267 21.9266 35.9251C21.2434 36.2234 20.5112 36.3769 19.7717 36.3769ZM37.0456 6.94017C37.0456 6.55623 37.1173 6.17606 37.2567 5.82135C37.396 5.46665 37.6003 5.14435 37.8578 4.87287C38.1153 4.60139 38.421 4.38604 38.7575 4.23911C39.0939 4.09219 39.4545 4.01657 39.8187 4.01657H52.266C52.6302 4.01657 52.9908 4.09219 53.3272 4.23911C53.6637 4.38604 53.9694 4.60139 54.2269 4.87287C54.4844 5.14435 54.6886 5.46665 54.828 5.82135C54.9674 6.17606 55.0391 6.55623 55.0391 6.94017V9.59594H41.8086C41.3892 9.60172 40.9885 9.77993 40.692 10.0926C40.3954 10.4052 40.2264 10.8276 40.2209 11.2698V14.0594H37.0456V6.94017ZM50.8053 35.5066C50.1356 36.2961 49.3174 36.9301 48.4026 37.3681C47.4878 37.8061 46.4966 38.0386 45.4919 38.0508C43.8871 38.0325 42.3354 37.4426 41.0888 36.3769C41.206 36.1505 41.2713 35.8983 41.2793 35.6405V32.8061C41.92 32.9478 42.5724 33.0225 43.2269 33.0293H48.8578C49.5123 33.0225 50.1647 32.9478 50.8053 32.8061V35.5066ZM48.8578 29.6817H43.2269C42.4152 29.6817 41.6113 29.5131 40.8614 29.1856C40.1114 28.8581 39.43 28.3781 38.856 27.773C38.2821 27.1679 37.8267 26.4495 37.5161 25.6588C37.2054 24.8682 37.0456 24.0208 37.0456 23.165V17.4071H41.8086C42.2279 17.4013 42.6286 17.2231 42.9252 16.9104C43.2217 16.5978 43.3908 16.1754 43.3962 15.7333V12.9436H55.0391V23.165C55.0391 24.8933 54.3879 26.5509 53.2286 27.773C52.0694 28.9951 50.4972 29.6817 48.8578 29.6817ZM66.682 15.4654C66.6875 14.7984 66.9414 14.1603 67.3888 13.6886C67.8362 13.217 68.4414 12.9494 69.0741 12.9436H80.1666C80.7993 12.9494 81.4045 13.217 81.8519 13.6886C82.2993 14.1603 82.5532 14.7984 82.5587 15.4654V22.9864H75.1496V20.1968C75.1441 19.7546 74.9751 19.3322 74.6785 19.0196C74.3819 18.7069 73.9813 18.5287 73.5619 18.5229H66.682V15.4654ZM70.9158 42.916C70.9356 42.7829 70.9356 42.6473 70.9158 42.5143V39.5683C71.376 39.6657 71.8437 39.718 72.313 39.7246H76.9278C77.397 39.718 77.8648 39.6657 78.3249 39.5683V42.5143C78.3257 42.7704 78.3837 43.0227 78.4942 43.2507C77.9731 43.7653 77.3601 44.1652 76.6908 44.4273C76.0215 44.6893 75.3095 44.8083 74.5961 44.7771C73.8828 44.7459 73.1825 44.5653 72.5361 44.2458C71.8897 43.9262 71.31 43.4742 70.8311 42.916H70.9158ZM77.0125 36.3769H72.3976C70.9042 36.3769 69.4719 35.7515 68.4159 34.6382C67.3599 33.5249 66.7667 32.0149 66.7667 30.4405V21.8706H72.0589V24.6603C72.0644 25.1024 72.2335 25.5248 72.53 25.8374C72.8266 26.1501 73.2272 26.3283 73.6466 26.3341H82.6434V30.4405C82.6435 31.2276 82.4951 32.007 82.2068 32.7331C81.9185 33.4592 81.4962 34.1176 80.9643 34.6701C80.4324 35.2225 79.8016 35.6579 79.1087 35.9509C78.4157 36.244 77.6743 36.3888 76.9278 36.3769H77.0125Z" fill="#323232"/>
</svg>
