<svg width="72" height="99" viewBox="0 0 72 99" fill="none" xmlns="http://www.w3.org/2000/svg">
<path d="M70.2996 46.9415C69.7577 46.389 69.1141 45.9587 68.4082 45.6768L69.4829 44.5477C69.9878 44.019 70.3884 43.3907 70.6618 42.699C70.9351 42.0073 71.0759 41.2656 71.0759 40.5166C71.0759 39.7676 70.9351 39.026 70.6618 38.3343C70.3884 37.6425 69.9878 37.0143 69.4829 36.4856C68.9301 35.9143 68.2615 35.482 67.5271 35.2209L68.7307 33.9789C69.7481 32.9098 70.3197 31.4598 70.3197 29.9478C70.3197 28.4359 69.7481 26.9859 68.7307 25.9168C67.7132 24.8477 66.3332 24.247 64.8943 24.247C63.4554 24.247 62.0754 24.8477 61.0579 25.9168L54.6103 32.6917C54.2018 31.6864 53.6021 30.7796 52.8479 30.0269C52.1549 29.3048 51.3329 28.7337 50.4294 28.3461C49.5258 27.9586 48.5582 27.7623 47.5823 27.7686H42.3597C42.9185 27.2266 43.5203 26.7072 44.1006 26.1652C45.9919 24.4263 47.7757 22.8003 48.6139 21.9196C51.5584 18.9386 54.4813 15.1447 53.6216 10.199C53.1549 7.5502 51.8291 5.15311 49.8698 3.41562C47.9106 1.67812 45.439 0.707546 42.8755 0.669041H42.7466C40.8907 0.701253 39.0727 1.22524 37.4609 2.19243C35.8491 3.15962 34.4958 4.5387 33.5264 6.20185C32.5663 4.54999 31.2269 3.17783 29.631 2.21116C28.0351 1.24449 26.2338 0.714235 24.3922 0.669041C21.8009 0.658039 19.2866 1.59354 17.2793 3.31548C15.272 5.03742 13.8965 7.43879 13.3882 10.1087C12.4856 15.1899 15.3655 18.7354 18.3744 21.9196C20.8675 24.5166 28.6047 31.969 31.2697 34.5886L20.5236 45.8801C17.8327 48.697 15.4929 51.8613 13.5602 55.2972C12.9595 56.8605 12.2408 58.3709 11.4109 59.8138L11.0671 59.475C10.7648 59.1578 10.3551 58.9797 9.92798 58.9797C9.50082 58.9797 9.09113 59.1578 8.78889 59.475L0.471388 68.1694C0.169529 68.487 0 68.9175 0 69.3663C0 69.8152 0.169529 70.2457 0.471388 70.5632L26.9928 98.3854C27.1409 98.5448 27.3182 98.671 27.5139 98.7564C27.7097 98.8418 27.9199 98.8846 28.1319 98.8823C28.3437 98.8833 28.5535 98.8399 28.7491 98.7546C28.9447 98.6693 29.1221 98.5438 29.271 98.3854L37.5454 89.691C37.8473 89.3734 38.0169 88.9429 38.0169 88.4941C38.0169 88.0452 37.8473 87.6148 37.5454 87.2972L36.9222 86.6197C38.3423 85.5243 39.8528 84.5645 41.4356 83.7517C43.4939 82.7055 45.3688 81.3006 46.9805 79.5964L70.407 54.981C70.912 54.4523 71.3126 53.8241 71.5859 53.1323C71.8593 52.4406 72 51.699 72 50.95C72 50.201 71.8593 49.4593 71.5859 48.7676C71.3126 48.0758 70.912 47.4476 70.407 46.9189L70.2996 46.9415ZM20.5236 19.5258C17.9231 16.7707 15.8168 14.1962 16.4401 10.741C16.76 8.85805 17.6949 7.15124 19.0836 5.91461C20.4724 4.67797 22.2281 3.98892 24.0483 3.96615H24.1988C26.2211 4.01897 28.1443 4.89736 29.5606 6.41507C30.977 7.93277 31.775 9.97044 31.7855 12.096C31.7855 12.5452 31.9554 12.976 32.2577 13.2937C32.5599 13.6113 32.97 13.7897 33.3975 13.7897C33.825 13.7897 34.235 13.6113 34.5373 13.2937C34.8396 12.976 35.0094 12.5452 35.0094 12.096C35.0203 9.95895 35.8273 7.91139 37.2574 6.39183C38.6875 4.87226 40.627 4.00154 42.6606 3.96615C44.4857 3.97932 46.2486 4.66444 47.6427 5.90229C49.0367 7.14013 49.9736 8.85235 50.2903 10.741C50.8491 13.9704 49.0653 16.5674 46.2283 19.458C45.4331 20.2484 43.6707 21.8744 41.8224 23.5681C39.9741 25.2619 38.2547 26.8427 36.9652 28.0847C35.8281 28.4137 34.7868 29.0345 33.9348 29.8914C33.4721 30.3632 33.0678 30.8943 32.7312 31.4722C29.6793 28.5364 22.8018 21.9196 20.5236 19.5258ZM28.0459 94.8173L3.80269 69.3889L9.84199 63.0883L34.0422 88.5167L28.0459 94.8173ZM68.1504 52.6098L44.7239 77.2252C43.3653 78.6563 41.789 79.8393 40.06 80.7255C38.1419 81.7006 36.3205 82.8732 34.6225 84.2259L13.7536 62.2979C14.8585 60.5134 15.8149 58.632 16.6121 56.6747C18.3779 53.6217 20.4847 50.8014 22.8878 48.2739L32.7527 37.8857C32.8837 38.0982 33.0273 38.3018 33.1825 38.4955C33.619 39.634 33.7294 40.8816 33.5003 42.0852C33.2713 43.2888 32.7126 44.3958 31.893 45.2703L27.0787 50.3063C26.8188 50.6191 26.6755 51.0202 26.6755 51.4355C26.6755 51.8507 26.8188 52.2519 27.0787 52.5646L33.0536 59.475C34.4239 61.0694 35.1591 63.1559 35.1071 65.3036C35.0551 67.4512 34.2199 69.4958 32.7742 71.0149C32.4723 71.3325 32.3028 71.7629 32.3028 72.2118C32.3028 72.6606 32.4723 73.0911 32.7742 73.4087C33.0764 73.7259 33.4861 73.904 33.9133 73.904C34.3404 73.904 34.7501 73.7259 35.0524 73.4087C37.0844 71.2743 38.2577 68.4007 38.3297 65.3827C38.4017 62.3646 37.3669 59.4329 35.4392 57.1941L30.496 51.4807L34.2142 47.5738C35.9265 45.7773 36.8924 43.3415 36.9007 40.7989C36.9007 40.5731 36.9007 40.3699 36.9007 40.144H37.524H44.5089C44.9364 40.144 45.3464 39.9656 45.6487 39.6479C45.951 39.3303 46.1208 38.8995 46.1208 38.4503C46.1208 38.0011 45.951 37.5703 45.6487 37.2527C45.3464 36.935 44.9364 36.7566 44.5089 36.7566H36.9222C36.7168 36.8043 36.5039 36.8027 36.2992 36.7518C36.0945 36.701 35.9034 36.6023 35.7401 36.463C35.5535 36.0596 35.3454 35.6675 35.1168 35.2887C35.0948 35.1315 35.0948 34.9717 35.1168 34.8145C35.157 34.3253 35.2899 33.8495 35.5076 33.4152C35.7254 32.9808 36.0237 32.5966 36.3849 32.2852C37.2026 31.492 38.2812 31.0629 39.3938 31.0883H47.7972C48.9098 31.0629 49.9884 31.492 50.8061 32.2852C51.1711 32.593 51.4719 32.9764 51.69 33.4115C51.9082 33.8466 52.0389 34.3241 52.0742 34.8145C52.0537 34.9869 52.0537 35.1614 52.0742 35.3339L39.8236 48.2061C39.5218 48.5237 39.3522 48.9542 39.3522 49.403C39.3522 49.8519 39.5218 50.2823 39.8236 50.5999C40.1322 50.9131 40.5444 51.0882 40.9734 51.0882C41.4025 51.0882 41.8147 50.9131 42.1233 50.5999L63.3791 28.2428C63.6746 27.8887 64.0681 27.6406 64.5044 27.5331C64.9408 27.4256 65.3982 27.4642 65.8127 27.6434C66.2272 27.8225 66.578 28.1334 66.816 28.5324C67.054 28.9315 67.1674 29.3987 67.1402 29.8688C67.1448 30.1752 67.09 30.4793 66.9792 30.7627C66.8683 31.0461 66.7037 31.3029 66.4954 31.5173L45.2182 53.8519C44.9163 54.1694 44.7468 54.5999 44.7468 55.0488C44.7468 55.4976 44.9163 55.9281 45.2182 56.2457C45.3664 56.4054 45.5435 56.5324 45.7391 56.6192C45.9347 56.7059 46.1449 56.7505 46.3573 56.7505C46.5696 56.7505 46.7798 56.7059 46.9754 56.6192C47.171 56.5324 47.3482 56.4054 47.4963 56.2457L64.1098 38.789C64.5231 38.3548 65.0836 38.1109 65.668 38.1109C66.2524 38.1109 66.813 38.3548 67.2262 38.789C67.6395 39.2233 67.8716 39.8122 67.8716 40.4263C67.8716 41.0404 67.6395 41.6293 67.2262 42.0636L50.6127 59.5202C50.4606 59.6759 50.3398 59.862 50.2572 60.0676C50.1747 60.2731 50.1322 60.494 50.1322 60.7171C50.1322 60.9402 50.1747 61.161 50.2572 61.3666C50.3398 61.5721 50.4606 61.7583 50.6127 61.914C50.7592 62.0755 50.9362 62.2031 51.1324 62.2887C51.3285 62.3743 51.5395 62.4158 51.7518 62.4108C51.9636 62.4118 52.1734 62.3684 52.369 62.2831C52.5647 62.1978 52.7421 62.0723 52.8909 61.914L64.9265 49.2449C65.1273 49.0229 65.369 48.846 65.6368 48.7252C65.9047 48.6044 66.1932 48.542 66.4847 48.542C66.7762 48.542 67.0647 48.6044 67.3326 48.7252C67.6004 48.846 67.8421 49.0229 68.0429 49.2449C68.2512 49.4594 68.4158 49.7161 68.5266 49.9996C68.6375 50.283 68.6922 50.5871 68.6877 50.8935C68.7154 51.203 68.6819 51.5152 68.5895 51.8106C68.497 52.1059 68.3475 52.378 68.1504 52.6098Z" fill="#323232"/>
</svg>
