<svg width="264" height="264" viewBox="0 0 264 264" fill="none" xmlns="http://www.w3.org/2000/svg">
<g filter="url(#filter0_ii_185_901)">
<rect width="264" height="264" rx="132" fill="#EDEDED"/>
</g>
<g style="mix-blend-mode:multiply" opacity="0.35">
<g style="mix-blend-mode:multiply" opacity="0.35">
<path d="M91.0669 30.8963C93.0073 30.1349 94.6276 31.257 97.674 29.8944C98.7218 29.4335 98.8867 29.143 99.692 29.0227C100.718 28.9291 101.75 29.1259 102.677 29.5919C103.603 30.0579 104.389 30.7755 104.95 31.6678C106.716 34.8139 104.126 40.6252 99.983 42.619C94.9962 45.0137 87.8071 41.8375 87.1571 37.6093C87.0734 36.213 87.4024 34.8234 88.1007 33.6246C88.7989 32.4258 89.8333 31.4744 91.0669 30.8963Z" fill="#95EDC7"/>
</g>
</g>
<path d="M137.258 82.1055C138.935 82.1055 140.294 80.7014 140.294 78.9694C140.294 77.2374 138.935 75.8334 137.258 75.8334C135.581 75.8334 134.221 77.2374 134.221 78.9694C134.221 80.7014 135.581 82.1055 137.258 82.1055Z" fill="#D3F3F2"/>
<path d="M163.346 86.584H150.375H137.403V107.695H150.375H163.346L153.732 97.1444L163.346 86.584Z" fill="#26C5BF"/>
<path d="M123.743 191.076L143.157 171.027L148.91 176.969L164.957 160.407L169.109 156.119L181.208 168.613L186.563 174.153L202.95 191.076H123.743Z" fill="white"/>
<path d="M123.743 191.076L143.157 171.028L148.91 176.969L164.957 160.407L163.996 161.399L137.491 134.026L130.719 141.03L104.533 168.072L95.1319 158.363L63.4453 191.096L123.743 191.076Z" fill="#D3F3F2"/>
<path d="M192.753 192.599H59.9333L95.132 156.239L104.533 165.948L129.69 139.967L131.747 142.092L104.533 170.196L95.132 160.487L66.9576 189.593H192.753V192.599Z" fill="#323232"/>
<path d="M162.968 162.461L137.491 136.15L131.747 142.091L129.69 139.967L137.491 131.902L165.025 160.337L162.968 162.461Z" fill="#323232"/>
<path d="M206.462 192.579H120.231L143.156 168.903L148.91 174.845L163.928 159.345L165.985 161.469L148.91 179.103L143.156 173.152L127.265 189.573H199.437L180.179 169.685L182.236 167.551L206.462 192.579Z" fill="#323232"/>
<path d="M180.179 169.685L169.109 158.243L165.985 161.469L163.928 159.345L169.109 153.995L182.236 167.551L180.179 169.685Z" fill="#323232"/>
<path d="M210.925 189.794H53.5881V192.8H210.925V189.794Z" fill="#323232"/>
<path d="M216.814 189.794H213.893V192.8H216.814V189.794Z" fill="#323232"/>
<path d="M50.9203 189.794H48V192.8H50.9203V189.794Z" fill="#323232"/>
<path d="M138.713 81.905H135.802V135.839H138.713V81.905Z" fill="#323232"/>
<path d="M166.694 109.198H135.958V85.0812H166.694L155.711 97.1044L166.694 109.198ZM138.839 106.192H159.96L151.714 97.1746L159.96 88.1571H138.868L138.839 106.192Z" fill="#323232"/>
<path d="M137.258 83.6383C136.369 83.6383 135.501 83.3662 134.762 82.8565C134.023 82.3468 133.448 81.6223 133.108 80.7746C132.768 79.9269 132.679 78.9942 132.852 78.0943C133.025 77.1945 133.453 76.3679 134.081 75.7191C134.71 75.0703 135.51 74.6285 136.381 74.4495C137.253 74.2705 138.156 74.3624 138.977 74.7135C139.797 75.0646 140.499 75.6592 140.993 76.4221C141.486 77.1849 141.75 78.0818 141.75 78.9993C141.751 79.6089 141.636 80.2127 141.41 80.7762C141.185 81.3396 140.854 81.8515 140.437 82.2825C140.019 82.7136 139.524 83.0552 138.978 83.2879C138.433 83.5205 137.848 83.6396 137.258 83.6383ZM137.258 77.3762C136.944 77.3762 136.638 77.4723 136.378 77.6522C136.118 77.8321 135.915 78.0877 135.796 78.3867C135.676 78.6857 135.646 79.0146 135.707 79.3317C135.769 79.6488 135.921 79.9397 136.143 80.1677C136.365 80.3957 136.648 80.5505 136.955 80.6124C137.263 80.6742 137.581 80.6405 137.87 80.5153C138.158 80.3902 138.405 80.1793 138.577 79.9094C138.75 79.6395 138.841 79.3228 138.839 78.9993C138.843 78.7824 138.805 78.5667 138.727 78.3651C138.649 78.1635 138.534 77.9799 138.386 77.825C138.239 77.6702 138.063 77.5472 137.87 77.4633C137.676 77.3793 137.468 77.3361 137.258 77.3361V77.3762Z" fill="#323232"/>
<defs>
<filter id="filter0_ii_185_901" x="-20" y="-20" width="304" height="304" filterUnits="userSpaceOnUse" color-interpolation-filters="sRGB">
<feFlood flood-opacity="0" result="BackgroundImageFix"/>
<feBlend mode="normal" in="SourceGraphic" in2="BackgroundImageFix" result="shape"/>
<feColorMatrix in="SourceAlpha" type="matrix" values="0 0 0 0 0 0 0 0 0 0 0 0 0 0 0 0 0 0 127 0" result="hardAlpha"/>
<feOffset dx="20" dy="20"/>
<feGaussianBlur stdDeviation="25"/>
<feComposite in2="hardAlpha" operator="arithmetic" k2="-1" k3="1"/>
<feColorMatrix type="matrix" values="0 0 0 0 0.804167 0 0 0 0 0.804167 0 0 0 0 0.804167 0 0 0 1 0"/>
<feBlend mode="normal" in2="shape" result="effect1_innerShadow_185_901"/>
<feColorMatrix in="SourceAlpha" type="matrix" values="0 0 0 0 0 0 0 0 0 0 0 0 0 0 0 0 0 0 127 0" result="hardAlpha"/>
<feOffset dx="-20" dy="-20"/>
<feGaussianBlur stdDeviation="25"/>
<feComposite in2="hardAlpha" operator="arithmetic" k2="-1" k3="1"/>
<feColorMatrix type="matrix" values="0 0 0 0 1 0 0 0 0 1 0 0 0 0 1 0 0 0 1 0"/>
<feBlend mode="normal" in2="effect1_innerShadow_185_901" result="effect2_innerShadow_185_901"/>
</filter>
</defs>
</svg>
