<svg width="25" height="15" viewBox="0 0 25 15" fill="none" xmlns="http://www.w3.org/2000/svg">
<g clip-path="url(#clip0_481_974)">
<path d="M5.05758 4.78528C2.27808 4.78528 0 6.19543 0 7.91662C0 8.58356 0.342952 9.20339 0.923611 9.71287L4.44056 13.4878C4.93307 13.8874 5.26061 13.8116 5.67027 13.4669L9.5492 9.36804C9.62747 9.27981 9.68888 9.1862 9.74259 9.09049C9.98874 8.718 10.1153 8.31924 10.1152 7.91662C10.1152 6.19543 7.83781 4.78528 5.05758 4.78528ZM5.05758 6.25255C6.55463 6.25255 7.74533 6.98993 7.74533 7.91677C7.74533 8.84361 6.55463 9.58068 5.05758 9.58068C3.56078 9.58068 2.36984 8.84346 2.36984 7.91677C2.36984 6.98993 3.56078 6.25255 5.05758 6.25255Z" fill="black"/>
<path d="M21.1334 1.71661e-05C19.512 1.71661e-05 18.1831 0.822628 18.1831 1.82678C18.1831 2.21573 18.383 2.57731 18.7219 2.87445L20.7735 5.07655C21.0609 5.30953 21.2519 5.26527 21.4908 5.06429L23.7534 2.67317C23.7992 2.62188 23.8351 2.56729 23.8661 2.51137C24.0098 2.29415 24.0837 2.06159 24.0836 1.82678C24.0836 0.822479 22.7552 1.71661e-05 21.1334 1.71661e-05ZM21.1334 0.855975C22.0066 0.855975 22.7012 1.28605 22.7012 1.82678C22.7012 2.36736 22.0066 2.79728 21.1334 2.79728C20.2603 2.79728 19.5655 2.36736 19.5655 1.82678C19.5655 1.28605 20.2603 0.855975 21.1334 0.855975V0.855975Z" fill="black"/>
<path fill-rule="evenodd" clip-rule="evenodd" d="M23.7344 4.76587C23.1022 4.77388 22.4682 4.78909 21.8331 4.81583L21.931 5.70173C22.5411 5.67659 23.1522 5.66041 23.7637 5.65321L23.7344 4.76587ZM20.3648 4.89718C19.3884 4.96621 18.4036 5.06453 17.43 5.22259L17.7966 6.08111C18.6813 5.93762 19.5981 5.8449 20.5292 5.77908L20.3648 4.89718ZM15.9721 5.51981C15.6804 5.5931 15.398 5.6778 15.1269 5.77332L15.1257 5.77412L15.124 5.77444C14.7371 5.91312 14.3294 6.08911 13.9965 6.34486C13.7554 6.53014 13.5581 6.76443 13.512 7.04147L14.9456 7.13195C14.9563 7.06693 15.0149 6.9811 15.1201 6.90039H15.1207V6.90007C15.2903 6.76939 15.5447 6.65073 15.8472 6.54215L15.8483 6.54183C16.0639 6.4661 16.2885 6.39889 16.5203 6.34069L15.9721 5.51981ZM15.2341 7.52718L14.3047 8.20538C14.525 8.32004 14.756 8.40811 14.9791 8.48178L14.9819 8.48258L14.9848 8.48354C15.7254 8.72327 16.489 8.85859 17.197 8.98702L17.6039 8.13539C16.8962 8.00696 16.229 7.88301 15.6573 7.69821C15.4935 7.64408 15.35 7.58755 15.2341 7.52718V7.52718ZM18.9863 8.37497L18.589 9.22804L18.777 9.26135L19.0077 9.3033C19.7714 9.44471 20.503 9.59572 21.1569 9.8047L21.8204 9.01681C21.0298 8.76395 20.209 8.59868 19.418 8.45231L19.4157 8.45199L19.1788 8.40891L18.9863 8.37497ZM23.1697 9.60805L22.1502 10.2358C22.3911 10.3843 22.5715 10.5628 22.6593 10.7473L22.6598 10.7483L22.6604 10.7497C22.7651 10.9651 22.7653 11.2184 22.6835 11.4743L24.0971 11.646C24.2125 11.2847 24.2311 10.8881 24.0414 10.4965C23.8762 10.1503 23.5611 9.84954 23.1697 9.60805V9.60805ZM22.1899 12.0092C22.0341 12.1028 21.862 12.1872 21.6761 12.2609H21.6755C21.169 12.4637 20.5815 12.6165 19.9574 12.7478L20.4228 13.5876C21.1054 13.4439 21.8064 13.2678 22.4614 13.0054L22.4631 13.0046L22.464 13.0043C22.733 12.8971 22.9818 12.7744 23.2065 12.6381L22.1899 12.0092ZM18.6332 12.9843C17.7291 13.1227 16.805 13.228 15.8697 13.3174L16.0903 14.1948C17.0529 14.1027 18.0195 13.9927 18.9801 13.8457L18.6332 12.9843ZM14.4625 13.4385C13.521 13.5116 12.5744 13.5714 11.625 13.6223L11.7494 14.5066C12.7134 14.455 13.6791 14.3943 14.6434 14.3192L14.4625 13.4385ZM10.1981 13.692C9.24676 13.7349 8.29315 13.7698 7.33869 13.7993L7.41072 14.6858C8.37447 14.6562 9.33905 14.6208 10.3034 14.5772L10.1981 13.692ZM5.90447 13.8393C5.33241 13.8545 4.75895 13.867 4.18408 13.8785L4.23136 14.7659C4.80982 14.7546 5.38817 14.7414 5.96637 14.7265L5.90447 13.8393Z" fill="black"/>
</g>
<defs>
<clipPath id="clip0_481_974">
<rect width="24.0837" height="14.9538" rx="7.47692" fill="white"/>
</clipPath>
</defs>
</svg>
