<svg width="989" height="695" viewBox="0 0 989 695" fill="none" xmlns="http://www.w3.org/2000/svg">
<rect width="989" height="695" fill="white"/>
<path d="M709.834 649.564L760.059 650.292L757.148 634.278H730.943C714.638 636.607 710.076 645.439 709.834 649.564Z" fill="#1D468A"/>
<path d="M776.801 649.563L820.476 650.291L817.565 635.005C812.712 635.248 800.24 635.588 789.176 635.005C778.111 637.335 776.316 645.681 776.801 649.563Z" fill="#1D468A"/>
<path d="M751.741 296.486L747.315 269.934L774.888 268.913L775.909 296.486H751.741Z" fill="#F7B39D"/>
<path d="M805.19 298.709C769.086 264.352 714.929 298.71 714.929 308.171L726.576 389.698L727.304 423.182L808.102 424.638L813.925 331.465C812.469 304.532 813.197 308.9 805.19 298.709Z" fill="#F99744"/>
<path d="M808.101 424.639L727.303 423.183L730.943 634.278H757.148L768.066 468.314L789.904 635.006L803.5 636.171L817.564 635.006L808.101 424.639Z" fill="#1D468A"/>
<path d="M827.755 356.215C820.767 320.693 810.285 304.048 805.918 300.166L803.734 446.476L813.925 452.3L827.755 399.89C828.483 396.493 830.084 389.262 830.667 387.515C831.249 385.768 831.395 382.905 831.395 381.692V379.508C831.395 379.023 830.667 373.685 827.755 356.215Z" fill="#ED7D31"/>
<path d="M813.196 450.844L808.101 448.66L806.645 461.762C807.616 465.159 809.993 470.206 811.74 463.218C812.468 456.667 811.74 458.851 811.74 455.939C811.74 451.572 812.711 451.572 813.196 450.844Z" fill="#F7B39D"/>
<path d="M671.253 405.713C667.614 408.382 659.898 414.157 658.151 415.904C655.967 418.088 650.872 420.271 650.144 420.271C649.416 420.271 642.137 423.183 650.144 417.36C651.89 416.195 652.812 415.419 653.054 415.176C650.87 416.389 646.066 418.961 644.319 419.543C642.135 420.271 636.312 420.999 642.863 416.632C645.686 414.75 647.228 413.769 648.012 413.303C644.676 414.825 638.857 417.36 637.77 417.36C636.315 417.36 629.763 419.543 637.042 414.448L642.863 410.808L634.858 412.264C631.947 412.507 627.87 412.264 634.858 409.353C641.846 406.441 644.564 404.743 645.049 404.257L647.961 402.074C648.446 401.831 648.98 401.054 647.233 399.89C645.049 398.434 641.41 396.25 645.777 395.522C649.271 395.522 653.542 396.008 655.24 396.25C657.181 396.736 661.791 397.415 664.703 396.25C667.615 395.086 670.283 402.074 671.253 405.713Z" fill="#F7B39D"/>
<path d="M738.222 313.268C732.399 293.469 720.752 300.166 715.657 305.989C710.416 314.724 707.165 355.73 706.194 375.141L661.792 396.25L666.159 410.809C680.475 406.927 711.581 397.997 721.48 393.339C731.38 388.68 735.311 376.354 736.039 370.774C738.222 360.34 741.716 334.232 738.222 313.268Z" fill="#ED7D31"/>
<path d="M741.862 256.492C741.28 251.833 742.832 239.507 744.045 233.926C753.023 232.228 772.725 228.977 779.713 229.559C788.448 230.287 799.366 252.852 770.25 270.322C746.957 284.298 741.619 266.925 741.862 256.492Z" fill="#F7B39D"/>
<path d="M758.604 215C750.452 215 743.561 218.397 741.135 220.095C731.314 226.97 737.494 228.102 741.134 228.83C737.058 231.16 735.068 233.683 734.583 234.654C728.761 244.116 737.495 239.749 743.318 240.477C749.142 241.205 749.142 244.844 748.414 246.3C747.686 247.756 747.686 248.484 747.686 250.668C747.686 252.851 749.142 257.219 751.325 255.763C753.072 254.598 754.48 254.307 754.965 254.307C760.788 254.307 758.604 262.314 757.877 265.954C754.965 276.145 767.339 278.328 775.346 276.145C785.537 270.321 788.449 262.314 792.816 249.212C796.31 238.73 792.816 232.227 790.633 230.286C788.691 228.588 784.518 225.045 783.353 224.463C779.714 222.279 780.442 221.551 776.802 219.367C773.163 217.184 768.795 215 758.604 215Z" fill="#163561" stroke="#FF4B4B" stroke-width="0.05"/>
<path d="M747.996 272.997C752.421 276.061 764.063 281.031 775.228 276.401C768.76 280.146 753.442 283.209 747.996 272.997Z" fill="#F8A9A9"/>
<rect x="241.148" y="98.9564" width="435.686" height="297.465" rx="16" fill="white"/>
<mask id="mask0_223_972" style="mask-type:alpha" maskUnits="userSpaceOnUse" x="241" y="98" width="436" height="299">
<rect x="241.148" y="98.9564" width="435.686" height="297.465" rx="16" fill="white"/>
</mask>
<g mask="url(#mask0_223_972)">
<circle cx="696.279" cy="93.7009" r="133.988" stroke="#E6F4F1" stroke-opacity="0.02" stroke-width="40"/>
<circle cx="222.228" cy="412.713" r="133.988" stroke="#E6F4F1" stroke-opacity="0.02" stroke-width="40"/>
</g>
<rect x="435.845" y="240.554" width="198.782" height="122.537" rx="8" fill="#E6F4F1"/>
<rect x="463.51" y="150.309" width="164.744" height="87.1372" rx="8" transform="rotate(-9.71309 463.51 150.309)" fill="#E6F4F1"/>
<path d="M507.847 212.8C507.847 212.8 520.695 172.774 535.08 170.153C549.675 167.493 554.25 187.91 569.065 187.127C592.162 185.906 610.909 133 610.909 133" stroke="#6C95FF" stroke-width="3" stroke-linecap="round"/>
<g filter="url(#filter0_d_223_972)">
<circle cx="533.067" cy="170.497" r="5.44607" transform="rotate(-9.71309 533.067 170.497)" fill="white"/>
</g>
<g filter="url(#filter1_d_223_972)">
<circle cx="605.269" cy="148.469" r="5.44607" transform="rotate(-9.71309 605.269 148.469)" fill="white"/>
</g>
<path d="M668.414 113.637L632.976 118.928C636.965 140.011 651.828 147.064 658.76 147.955L668.414 113.637Z" fill="#E4C6C7"/>
<path d="M667.378 106.549L631.548 106.735C632.492 128.172 646.197 137.271 652.932 139.141L667.378 106.549Z" fill="#F27559"/>
<mask id="mask1_223_972" style="mask-type:alpha" maskUnits="userSpaceOnUse" x="631" y="106" width="37" height="34">
<path d="M667.378 106.549L631.548 106.735C632.492 128.172 646.197 137.271 652.932 139.141L667.378 106.549Z" fill="#F27559"/>
</mask>
<g mask="url(#mask1_223_972)">
<path d="M660.169 116.245C660.402 113.653 653.583 108.904 650.145 106.853C602.098 98.7665 622.696 118.987 639.001 130.108C640.845 130.544 646.356 131.67 653.641 132.688C662.747 133.961 662.86 126.589 658.291 125.091C653.723 123.593 652.758 123.784 639.986 121.733C626.623 120.481 628.79 112.885 631.544 109.244C631.432 108.736 632.543 107.897 637.886 108.609C647.031 110.946 651.851 116.856 655.022 118.718C658.192 120.58 659.878 119.485 660.169 116.245Z" stroke="white" stroke-width="3" stroke-linecap="round"/>
</g>
<path opacity="0.24" d="M675.217 77.7268C670.847 77.0775 667.736 72.9295 669.534 68.8936C670.831 65.982 672.599 63.284 674.783 60.9145C678.788 56.5704 684.007 53.5311 689.762 52.1915C695.516 50.8519 701.541 51.274 707.052 53.4028C712.564 55.5317 717.308 59.269 720.668 64.1291C724.028 68.9892 725.849 74.7476 725.894 80.6559C725.939 86.5643 724.206 92.3495 720.92 97.2601C717.634 102.171 712.947 105.98 707.468 108.192C704.48 109.399 701.331 110.1 698.149 110.285C693.739 110.541 690.957 106.165 691.893 101.847L692.833 97.5131C693.578 94.0779 697.17 92.0761 700.429 90.76V90.76C702.411 89.9597 704.107 88.5818 705.295 86.8053C706.484 85.0289 707.111 82.936 707.095 80.7986C707.079 78.6612 706.42 76.5781 705.205 74.8199C703.989 73.0617 702.273 71.7097 700.279 70.9396C698.285 70.1694 696.106 70.0168 694.024 70.5014C691.942 70.986 690.054 72.0855 688.605 73.657V73.657C686.223 76.2414 683.081 78.895 679.604 78.3785L675.217 77.7268Z" fill="url(#paint0_linear_223_972)"/>
<rect x="280.632" y="139.802" width="171.551" height="87.1372" rx="8" fill="#E6F4F1"/>
<path d="M317.294 186.55C320.471 187.23 326.961 189.817 327.506 194.719C328.187 200.846 341.802 205.611 343.163 189.953C344.525 174.296 354.716 155.851 360.863 175.657C366.99 195.399 368.351 193.357 373.797 187.911C376.52 185.188 382.92 181.784 386.732 189.953C392.178 196.489 393.539 198.349 395.582 199.484" stroke="#6C95FF" stroke-width="3" stroke-linecap="round"/>
<g filter="url(#filter2_d_223_972)">
<circle cx="398.986" cy="200.846" r="4.08455" fill="#E9EAFF"/>
</g>
<rect x="295.51" y="160" width="13.6152" height="4.08455" rx="1.5" fill="#D5DEFF"/>
<rect x="295.51" y="172.254" width="13.6152" height="4.08455" rx="1.5" fill="#D5DEFF"/>
<rect x="295.51" y="184.507" width="13.6152" height="4.08455" rx="1.5" fill="#D5DEFF"/>
<rect x="295.51" y="196.761" width="13.6152" height="4.08455" rx="1.5" fill="#D5DEFF"/>
<rect x="295.51" y="209.015" width="13.6152" height="4.08455" rx="1.5" fill="#D5DEFF"/>
<path d="M246.669 296.545C245.385 297.326 245.607 298.364 245.878 298.785C246.275 299.516 247.262 301.055 248.038 301.359C248.086 301.377 248.134 301.394 248.181 301.409C249.363 301.787 250.7 301.931 251.743 302.602C252.506 303.094 253.278 302.731 253.568 302.488C254.209 302.038 255.73 301.006 256.686 300.48C257.505 300.029 257.739 299.223 257.763 298.726C257.77 298.578 257.754 298.485 257.71 298.344C257.424 297.428 257.867 296.369 258.063 295.429C258.218 294.69 257.998 293.934 257.786 293.517L256.693 291.82C256.103 290.904 255.001 291.215 254.524 291.486C252.44 292.846 247.952 295.763 246.669 296.545Z" fill="url(#paint1_linear_223_972)"/>
<path d="M234.923 289.926C238.518 290.514 241.107 292.476 241.953 293.384C243.493 295.429 245.063 295.178 245.655 294.797C247.777 293.467 252.114 290.726 252.483 290.399C252.946 289.989 254.779 289.367 253.801 286.982C252.823 284.596 253.3 284.903 252.875 283.724C252.536 282.781 253.011 279.021 253.29 277.258C253.408 276.661 253.382 274.765 252.332 271.956C249.671 266.522 247.342 264.727 242.3 263.228C237.257 261.729 230.574 264.358 227.645 269.26C224.715 274.163 225.201 278.819 226.366 281.755C227.531 284.691 230.462 288.722 234.923 289.926Z" fill="url(#paint2_linear_223_972)"/>
<path d="M246.231 268.514L244.691 269.506L246.027 270.712L246.937 269.176L246.231 268.514Z" fill="white"/>
<path d="M243.882 267.232L242.835 268.734L244.529 269.342L244.787 267.576L243.882 267.232Z" fill="white"/>
<path d="M241.163 266.997L240.699 268.768L242.498 268.754L242.13 267.008L241.163 266.997Z" fill="white"/>
<path d="M238.473 268.027L239.004 269.779L240.53 268.826L239.303 267.53L238.473 268.027Z" fill="white"/>
<path d="M236.425 269.913L237.497 271.398L238.63 270L237.049 269.173L236.425 269.913Z" fill="white"/>
<path d="M235.302 272.493L236.912 273.364L237.326 271.613L235.542 271.555L235.302 272.493Z" fill="white"/>
<path d="M235.524 275.296L237.353 275.389L236.973 273.63L235.338 274.346L235.524 275.296Z" fill="white"/>
<path d="M236.534 277.851L238.325 277.471L237.506 275.869L236.11 276.981L236.534 277.851Z" fill="white"/>
<path d="M238.858 279.725L240.29 278.584L238.841 277.518L238.089 279.136L238.858 279.725Z" fill="white"/>
<path d="M241.689 280.277L242.272 278.541L240.476 278.433L240.725 280.2L241.689 280.277Z" fill="white"/>
<path d="M244.433 279.921L244.381 278.091L242.658 278.609L243.501 280.182L244.433 279.921Z" fill="white"/>
<path d="M246.699 278.316L245.939 276.65L244.553 277.798L245.942 278.919L246.699 278.316Z" fill="white"/>
<path d="M248.3 276.031L246.921 274.827L246.131 276.444L247.859 276.893L248.3 276.031Z" fill="white"/>
<path d="M248.658 273.336L246.905 272.806L246.852 274.605L248.611 274.303L248.658 273.336Z" fill="white"/>
<path d="M248.075 270.62L246.264 270.894L246.989 272.541L248.447 271.513L248.075 270.62Z" fill="white"/>
<path fill-rule="evenodd" clip-rule="evenodd" d="M244.956 278.326C247.528 276.67 248.27 273.241 246.614 270.669C244.957 268.097 241.529 267.355 238.956 269.011C236.384 270.668 235.642 274.096 237.298 276.669C238.955 279.241 242.383 279.983 244.956 278.326ZM243.481 276.037C244.789 275.195 245.167 273.451 244.324 272.143C243.482 270.835 241.739 270.458 240.431 271.3C239.123 272.143 238.745 273.886 239.588 275.194C240.43 276.502 242.173 276.879 243.481 276.037Z" fill="white"/>
<path d="M241.291 280.283L240.589 281.276L241.711 281.688L241.891 280.516L241.291 280.283Z" fill="white"/>
<path d="M239.526 280.076L239.253 281.262L240.448 281.216L240.168 280.064L239.526 280.076Z" fill="white"/>
<path d="M237.791 280.607L237.945 281.813L239.051 281.358L238.391 280.373L237.791 280.607Z" fill="white"/>
<path d="M236.39 281.909L237.153 282.857L237.856 281.891L236.778 281.397L236.39 281.909Z" fill="white"/>
<path d="M235.596 283.58L236.625 284.229L236.977 283.086L235.797 282.969L235.596 283.58Z" fill="white"/>
<path d="M235.545 285.448L236.753 285.586L236.574 284.404L235.46 284.811L235.545 285.448Z" fill="white"/>
<path d="M236.378 287.121L237.528 286.724L236.857 285.735L236.027 286.582L236.378 287.121Z" fill="white"/>
<path d="M237.635 288.445L238.644 287.766L237.741 286.982L237.157 288.014L237.635 288.445Z" fill="white"/>
<path d="M239.532 289.022L240.132 287.964L238.974 287.666L238.912 288.85L239.532 289.022Z" fill="white"/>
<path d="M241.414 288.659L241.342 287.444L240.208 287.824L240.801 288.851L241.414 288.659Z" fill="white"/>
<path d="M243.016 287.758L242.53 286.643L241.597 287.39L242.507 288.151L243.016 287.758Z" fill="white"/>
<path d="M244.014 286.207L243.132 285.369L242.563 286.42L243.697 286.766L244.014 286.207Z" fill="white"/>
<path d="M244.433 284.401L243.284 284.001L243.2 285.194L244.376 285.042L244.433 284.401Z" fill="white"/>
<path d="M243.984 282.651L242.773 282.76L243.187 283.882L244.196 283.259L243.984 282.651Z" fill="white"/>
<path d="M242.951 281.123L241.903 281.741L242.758 282.576L243.402 281.58L242.951 281.123Z" fill="white"/>
<path fill-rule="evenodd" clip-rule="evenodd" d="M242.942 286.646C244.116 284.986 243.722 282.689 242.062 281.516C240.402 280.342 238.106 280.736 236.932 282.396C235.758 284.055 236.152 286.352 237.812 287.526C239.472 288.7 241.768 288.306 242.942 286.646ZM241.465 285.601C242.062 284.757 241.861 283.59 241.017 282.993C240.174 282.396 239.006 282.596 238.409 283.44C237.812 284.284 238.012 285.452 238.856 286.049C239.7 286.646 240.868 286.445 241.465 285.601Z" fill="white"/>
<path d="M234.187 275.945L233.649 276.706L234.508 277.021L234.646 276.123L234.187 275.945Z" fill="white"/>
<path d="M232.834 275.787L232.625 276.695L233.541 276.66L233.327 275.777L232.834 275.787Z" fill="white"/>
<path d="M231.505 276.193L231.623 277.117L232.47 276.768L231.964 276.014L231.505 276.193Z" fill="white"/>
<path d="M230.431 277.191L231.016 277.917L231.555 277.177L230.729 276.798L230.431 277.191Z" fill="white"/>
<path d="M229.823 278.471L230.612 278.968L230.881 278.092L229.977 278.003L229.823 278.471Z" fill="white"/>
<path d="M229.784 279.903L230.71 280.008L230.572 279.102L229.719 279.414L229.784 279.903Z" fill="white"/>
<path d="M230.422 281.184L231.303 280.88L230.789 280.122L230.154 280.771L230.422 281.184Z" fill="white"/>
<path d="M231.385 282.198L232.159 281.678L231.467 281.078L231.019 281.868L231.385 282.198Z" fill="white"/>
<path d="M232.839 282.64L233.298 281.83L232.411 281.602L232.364 282.509L232.839 282.64Z" fill="white"/>
<path d="M234.281 282.362L234.226 281.432L233.357 281.723L233.811 282.51L234.281 282.362Z" fill="white"/>
<path d="M235.508 281.672L235.136 280.818L234.421 281.391L235.118 281.973L235.508 281.672Z" fill="white"/>
<path d="M236.273 280.483L235.597 279.841L235.161 280.647L236.03 280.912L236.273 280.483Z" fill="white"/>
<path d="M236.594 279.1L235.714 278.794L235.649 279.707L236.55 279.591L236.594 279.1Z" fill="white"/>
<path d="M236.25 277.76L235.322 277.843L235.639 278.702L236.412 278.225L236.25 277.76Z" fill="white"/>
<path d="M235.458 276.588L234.655 277.062L235.311 277.702L235.804 276.939L235.458 276.588Z" fill="white"/>
<path fill-rule="evenodd" clip-rule="evenodd" d="M235.452 280.82C236.351 279.548 236.049 277.789 234.778 276.889C233.506 275.99 231.746 276.292 230.847 277.564C229.948 278.835 230.25 280.595 231.521 281.494C232.793 282.393 234.553 282.092 235.452 280.82ZM234.32 280.02C234.777 279.373 234.624 278.478 233.977 278.021C233.331 277.564 232.436 277.717 231.979 278.364C231.521 279.011 231.675 279.905 232.321 280.363C232.968 280.82 233.863 280.666 234.32 280.02Z" fill="white"/>
<path d="M237.418 255.195C237.285 251.893 239.666 245.933 242.273 240.961" stroke="#FFC2A4" stroke-width="2" stroke-linecap="round"/>
<path d="M212.768 301.293C214.826 298.708 220.524 295.754 225.748 293.697" stroke="#FFC2A4" stroke-width="2" stroke-linecap="round"/>
<path d="M222.653 261.029C219.672 259.604 215.515 254.714 212.339 250.085" stroke="#FFC2A4" stroke-width="2" stroke-linecap="round"/>
<path d="M260.233 281.765C263.425 280.912 269.762 281.93 275.183 283.386" stroke="#FFC2A4" stroke-width="2" stroke-linecap="round"/>
<path d="M216.488 271.648C213.204 272.008 207.094 270.044 201.955 267.785" stroke="#FFC2A4" stroke-width="2" stroke-linecap="round"/>
<path d="M261.733 270.679C264.176 268.455 270.272 266.446 275.756 265.247" stroke="#FFC2A4" stroke-width="2" stroke-linecap="round"/>
<path d="M218.012 284.102C215.04 285.545 208.625 285.749 203.025 285.348" stroke="#FFC2A4" stroke-width="2" stroke-linecap="round"/>
<path d="M252.318 260.364C253.686 257.357 258.496 253.107 263.063 249.843" stroke="#FFC2A4" stroke-width="2" stroke-linecap="round"/>
<path d="M153.406 220.799C149.765 214.431 154.047 208.429 156.643 206.223C171.309 191.51 202.198 160.264 208.429 152.986C214.659 145.709 220.398 146.439 222.488 147.714C225.657 144.268 232.016 137.501 232.097 137.997C232.177 138.493 236.378 142.614 238.469 144.613C236.715 146.508 232.42 151.043 229.264 154.02C231.045 160.718 227.376 165.356 225.32 166.838C209.339 183.378 176.224 217.491 171.612 221.626C167.364 227.518 157.958 228.759 153.406 220.799Z" fill="#23649A"/>
<path d="M257.684 65.8418C266.146 63.0163 287.218 61.0867 303.805 75.9725C297.13 68.2194 282.869 53.7471 257.684 65.8418Z" fill="#23649A"/>
<path d="M251.975 135.601C259.103 139.198 277.584 144.518 294.485 137.019C287.43 141.292 272.659 148.932 251.975 135.601Z" fill="#23649A"/>
<path d="M274.874 147.991C300.64 147.991 321.49 126.649 321.49 100.369C321.49 74.0895 300.64 52.748 274.874 52.748C249.108 52.748 228.258 74.0895 228.258 100.369C228.258 126.649 249.108 147.991 274.874 147.991Z" stroke="#23649A" stroke-width="2"/>
<rect x="450.29" y="90.5137" width="10.7216" height="8.56383" transform="rotate(56.3598 450.29 90.5137)" fill="#30215A"/>
<rect x="474.668" y="386.237" width="16.3247" height="14.4049" rx="2" transform="rotate(42.8614 474.668 386.237)" fill="#30215A"/>
<rect x="236.177" y="342.15" width="13.7312" height="10.9677" rx="2" transform="rotate(15.0588 236.177 342.15)" fill="#30215A"/>
<path d="M688.521 280.444C678.44 284.331 669.971 279.278 666.997 276.266C672.03 286.44 664.711 295.24 663.802 297.03C671.724 293.848 680.887 298.644 684.479 301.44C680.651 288.766 685.266 285.679 688.521 280.444Z" fill="#F27559"/>
<path d="M251.335 184.05C242.75 187.36 235.539 183.058 233.007 180.493C237.292 189.156 231.06 196.65 230.286 198.174C237.032 195.464 244.835 199.548 247.893 201.929C244.633 191.136 248.563 188.508 251.335 184.05Z" fill="#F27559"/>
<rect x="286.51" y="243.95" width="136.152" height="122.537" rx="8" fill="#E6F4F1"/>
<path d="M286.51 251.95C286.51 247.531 290.092 243.95 294.51 243.95H414.662C419.08 243.95 422.662 247.531 422.662 251.95V261.998H286.51V251.95Z" fill="#D6E4FF"/>
<ellipse cx="293.552" cy="252.974" rx="2.34745" ry="2.37474" fill="white"/>
<ellipse cx="300.125" cy="252.974" rx="2.34745" ry="2.37474" fill="white"/>
<ellipse cx="306.698" cy="252.974" rx="2.34745" ry="2.37474" fill="white"/>
<path d="M383.755 318.743C382.203 325.518 378.434 331.564 373.061 335.902C367.688 340.239 361.025 342.614 354.15 342.643C347.276 342.671 340.594 340.35 335.186 336.057C329.778 331.763 325.962 325.748 324.355 318.987L354.027 311.771L383.755 318.743Z" fill="#F27559"/>
<path d="M354.966 279C359.477 279 363.932 280.012 368.011 281.963C372.089 283.913 375.689 286.755 378.552 290.282C381.414 293.809 383.468 297.935 384.566 302.361C385.663 306.788 385.777 311.405 384.899 315.882L354.966 309.872L354.966 279Z" fill="#51C0A6"/>
<path d="M323.943 315.056C323.206 310.676 323.412 306.186 324.547 301.894C325.682 297.602 327.719 293.608 330.52 290.185C333.321 286.763 336.819 283.992 340.775 282.063C344.732 280.133 349.053 279.09 353.444 279.006L354.027 309.872L323.943 315.056Z" fill="#86B2F3"/>
<rect x="323.51" y="211" width="79.8131" height="3.79959" fill="#CED5E7"/>
<rect x="338.534" y="219.549" width="49.7658" height="3.79959" fill="#CED5E7"/>
<path fill-rule="evenodd" clip-rule="evenodd" d="M440.932 604.32C440.932 607.377 440.764 610.371 440.448 613.28C438.529 630.526 431.15 645.347 420.756 654.455H372.456C370.706 652.916 369.041 651.229 367.459 649.374C364.065 645.368 361.114 640.667 358.731 635.438C356.813 631.201 355.274 626.626 354.177 621.777C353.861 620.343 353.566 618.909 353.334 617.455C353.081 616 352.891 614.545 352.723 613.048C352.406 610.202 352.259 607.272 352.259 604.299C352.259 599.661 352.659 595.149 353.397 590.806H439.815C440.363 594.032 440.722 597.363 440.869 600.757C440.911 601.938 440.932 603.119 440.932 604.32Z" fill="#F67459"/>
<path fill-rule="evenodd" clip-rule="evenodd" d="M440.932 604.299C440.932 607.356 440.763 610.35 440.447 613.26C438.529 630.505 431.15 645.326 420.756 654.434H372.435C370.685 652.895 369.019 651.208 367.438 649.353C364.044 645.347 361.092 640.646 358.71 635.438C358.499 634.996 358.14 634.511 357.677 634.047C357.845 634.131 358.035 634.216 358.204 634.279C370.158 639.592 385.548 641.974 398.999 637.884C422.084 630.864 424.108 610.519 419.681 590.828H439.794C440.342 594.053 440.7 597.384 440.848 600.779C440.911 601.938 440.932 603.119 440.932 604.299Z" fill="#F67459"/>
<path fill-rule="evenodd" clip-rule="evenodd" d="M438.993 590.827C438.993 590.827 434.65 592.999 424.172 594.685C421.284 595.149 417.932 595.571 414.073 595.908C409.098 596.33 403.3 596.604 396.575 596.604C390.229 596.604 384.684 596.351 379.898 595.971C379.139 595.908 378.423 595.845 377.706 595.782C360.861 594.179 354.135 590.827 354.135 590.827C404.291 588.888 438.993 590.827 438.993 590.827Z" fill="#1B1A60"/>
<path d="M336.046 547.544C365.14 545.52 398.303 567.847 398.303 567.847C398.303 567.847 369.209 551.613 380.025 547.544C390.861 543.475 419.787 551.023 419.787 551.023L424.678 561.754L403.026 584.755L382.723 585.43L336.046 547.544Z" fill="url(#paint3_linear_223_972)"/>
<path d="M383.42 588.129C383.42 590.827 347.558 613.175 327.255 608.431C324.789 607.841 323.587 605.965 323.418 603.329C322.849 594.58 333.538 577.714 345.513 574.594C352.47 572.78 360.798 574.762 367.861 577.735C376.61 581.424 383.42 586.653 383.42 588.129Z" fill="url(#paint4_linear_223_972)"/>
<path opacity="0.5" d="M338.07 573.244C357.023 568.501 385.907 592.43 385.907 592.43L388.141 588.129L352.954 567.826L338.07 573.244Z" fill="url(#paint5_linear_223_972)"/>
<path d="M478.144 577.988C478.144 581.235 437.855 595.613 418.374 587.939C417.51 587.601 416.667 587.201 415.887 586.779C397.608 576.638 416.561 562.429 416.561 562.429H426.702C440.195 561.354 450.294 562.176 457.799 563.926C474.054 567.678 478.144 575.69 478.144 577.988Z" fill="url(#paint6_linear_223_972)"/>
<path d="M370.011 547.566C385.591 534.937 419.787 551.002 419.787 551.002C419.787 551.002 382.281 558.824 375.682 553.891C369.105 548.957 370.011 547.566 370.011 547.566Z" fill="url(#paint7_linear_223_972)"/>
<path opacity="0.4" d="M350.552 568.986C350.826 570.461 349.856 572.021 347.979 573.582L350.552 568.986Z" fill="url(#paint8_linear_223_972)"/>
<path opacity="0.4" d="M346.462 563.884C345.45 563.546 344.122 563.04 342.393 562.366C341.76 562.113 341.128 561.902 340.495 561.712C342.709 562.239 344.775 562.935 346.462 563.884Z" fill="url(#paint9_linear_223_972)"/>
<path d="M462.775 591.671C462.838 594.137 461.911 595.972 460.351 597.258C454.194 602.36 438.277 598.986 434.883 593.421C432.69 589.815 432.036 587.159 432.184 585.24C432.458 581.193 436.148 580.286 436.148 580.286C436.148 580.286 435.093 576.913 437.455 573.814C437.666 573.519 437.919 573.244 438.193 572.97C439.689 571.474 444.897 572.675 450.125 575.606C456.345 579.084 462.627 584.987 462.775 591.671Z" fill="url(#paint10_linear_223_972)"/>
<path opacity="0.5" d="M456.619 589.563C455.628 588.445 435.621 577.524 432.163 585.22C432.437 581.172 436.127 580.265 436.127 580.265C436.127 580.265 435.073 576.892 437.434 573.793C436.654 580.223 452.951 585.346 456.619 589.563Z" fill="url(#paint11_linear_223_972)"/>
<path opacity="0.4" d="M457.715 590.047C457.568 589.984 457.273 589.857 456.809 589.647C457.273 589.857 457.589 589.984 457.715 590.047Z" fill="url(#paint12_linear_223_972)"/>
<path opacity="0.5" d="M461.764 591.059C461.806 593.4 460.941 595.128 459.466 596.351C460.731 591.924 460.562 584.271 449.81 575.901C455.692 579.19 461.637 584.777 461.764 591.059Z" fill="url(#paint13_linear_223_972)"/>
<path d="M418.606 547.545C413.188 546.87 410.489 551.614 406.42 548.219C406.42 548.219 401.002 544.846 398.303 540.102C397.987 539.575 397.818 539.09 397.755 538.648C397.228 535.211 403.047 534.263 404.354 530.763C404.375 530.721 404.396 530.678 404.396 530.636C405.345 527.811 410.911 525.956 417.193 527.643C417.973 532.47 417.488 535.127 417.046 536.413L420.588 528.908C422.211 529.666 423.813 530.678 425.373 532.007C434.165 539.407 424.024 548.219 418.606 547.545Z" fill="url(#paint14_linear_223_972)"/>
<path opacity="0.5" d="M416.561 539.406C416.476 539.322 416.245 539.09 415.865 538.753C416.308 539.048 416.519 539.322 416.561 539.406Z" fill="url(#paint15_linear_223_972)"/>
<path d="M412.345 541.093C413.483 542.042 414.263 540.714 415.781 540.903C417.32 541.093 420.187 538.605 417.7 536.497C415.212 534.389 412.155 534.958 411.775 536.118C411.396 537.256 409.288 537.446 410.047 538.795C410.827 540.144 412.345 541.093 412.345 541.093Z" fill="#FFF764"/>
<path d="M417.025 536.413C416.814 537.066 416.582 537.34 416.561 537.382L417.025 536.413Z" fill="#FFF764"/>
<path opacity="0.4" d="M457.82 563.926C430.265 573.308 421.157 583.554 418.374 587.96C417.51 587.623 416.667 587.222 415.887 586.8C397.608 576.66 416.561 562.45 416.561 562.45H426.702C440.216 561.354 450.315 562.176 457.82 563.926Z" fill="url(#paint16_linear_223_972)"/>
<path opacity="0.4" d="M423.835 553.785C424.446 553.342 425.205 552.752 426.133 552.014C426.449 551.761 426.786 551.508 427.145 551.297C425.796 552.035 424.615 552.878 423.835 553.785Z" fill="url(#paint17_linear_223_972)"/>
<path d="M412.998 568.205C436.021 570.082 470.765 557.2 466.253 554.333C462.395 551.866 441.144 544.108 434.018 546.743C432.415 547.334 431.108 548.388 430.244 550.18C430.244 550.18 425.964 551.149 421.073 552.857C418.838 553.637 416.414 554.607 414.158 555.724C412.029 556.779 410.047 557.98 408.55 559.308C406.442 561.164 405.282 563.23 406.02 565.401C406.02 565.401 406.02 565.401 406.02 565.422C406.568 566.983 409.098 567.868 412.998 568.205Z" fill="url(#paint18_linear_223_972)"/>
<path opacity="0.4" d="M457.63 553.384C457.419 553.342 457.103 553.279 456.702 553.216C457.103 553.3 457.419 553.342 457.63 553.384Z" fill="url(#paint19_linear_223_972)"/>
<path opacity="0.5" d="M421.073 552.857C433.196 549.4 451.516 552.309 456.597 553.195C451.432 552.225 433.406 548.704 433.997 546.722C432.394 547.313 431.087 548.367 430.223 550.159C430.223 550.18 425.943 551.129 421.073 552.857Z" fill="url(#paint20_linear_223_972)"/>
<path d="M412.641 568.627C409.12 568.184 407.37 571.263 404.735 569.07C404.735 569.07 401.214 566.877 399.464 563.799C399.253 563.462 399.148 563.125 399.106 562.851C398.768 560.616 402.542 560.004 403.385 557.727C403.385 557.706 403.406 557.664 403.406 557.643C404.018 555.809 407.644 554.607 411.713 555.704C412.219 558.845 411.903 560.574 411.608 561.396L413.906 556.526C414.96 557.011 416.014 557.685 417.026 558.529C422.76 563.357 416.161 569.07 412.641 568.627Z" fill="url(#paint21_linear_223_972)"/>
<path opacity="0.5" d="M411.312 563.335C411.27 563.293 411.101 563.124 410.869 562.913C411.143 563.124 411.27 563.293 411.312 563.335Z" fill="url(#paint22_linear_223_972)"/>
<path d="M408.572 564.453C409.31 565.064 409.816 564.2 410.806 564.326C411.797 564.453 413.674 562.829 412.05 561.459C410.427 560.089 408.445 560.468 408.192 561.206C407.939 561.944 406.569 562.071 407.075 562.935C407.581 563.82 408.572 564.453 408.572 564.453Z" fill="#FFF764"/>
<path d="M411.629 561.396C411.481 561.817 411.355 562.007 411.334 562.028L411.629 561.396Z" fill="#FFF764"/>
<path d="M420.756 618.382C416.182 620.006 411.311 619.9 406.462 618.614C387.34 613.512 368.956 589.942 374.143 581.888C377.516 576.681 381.501 574.151 385.338 573.139C393.37 570.989 400.812 575.395 400.812 575.395C400.812 575.395 405.514 571.853 414.98 573.097C415.844 573.202 416.772 573.371 417.721 573.561C422.886 574.657 428.662 582.415 431.277 591.291C434.439 601.854 433.069 613.997 420.756 618.382Z" fill="url(#paint23_linear_223_972)"/>
<path opacity="0.5" d="M415.149 608.79C415.739 606.766 405.177 572.949 385.359 573.118C393.391 570.968 400.833 575.374 400.833 575.374C400.833 575.374 405.535 571.832 415.001 573.076C401.761 576.006 417.383 601.179 415.149 608.79Z" fill="url(#paint24_linear_223_972)"/>
<path opacity="0.4" d="M415.95 610.561C415.845 610.35 415.613 609.844 415.297 609.106C415.634 609.844 415.866 610.35 415.95 610.561Z" fill="url(#paint25_linear_223_972)"/>
<path opacity="0.5" d="M420.335 616.654C416.013 618.193 411.417 618.087 406.842 616.865C417.13 615.811 431.256 610.772 430.307 591.038C433.258 601.053 431.951 612.522 420.335 616.654Z" fill="url(#paint26_linear_223_972)"/>
<path d="M363.243 574.256C351.521 583.975 304.486 593.926 302.357 588.593C300.269 583.364 307.29 554.924 324.915 556.884C328.162 557.243 331.767 558.634 335.751 561.375C335.751 561.375 341.402 560.869 347.832 561.29C350.467 561.459 353.208 561.796 355.759 562.366C357.994 562.872 360.039 563.567 361.725 564.516C363.876 565.739 365.415 567.383 365.836 569.597C365.836 569.597 365.836 569.597 365.836 569.618C366.089 571.157 365.141 572.696 363.243 574.256Z" fill="url(#paint27_linear_223_972)"/>
<path opacity="0.4" d="M310.958 581.761C311.106 581.572 311.359 581.298 311.696 580.96C311.38 581.319 311.127 581.572 310.958 581.761Z" fill="url(#paint28_linear_223_972)"/>
<path opacity="0.5" d="M347.811 561.333C331.24 561.607 315.892 576.554 311.78 580.876C315.828 576.407 329.701 560.468 324.915 556.905C328.162 557.264 331.767 558.655 335.751 561.396C335.73 561.396 341.402 560.911 347.811 561.333Z" fill="url(#paint29_linear_223_972)"/>
<path d="M275.721 312.153C273.134 320.883 268.715 324.413 266.829 325.086L274.104 339.232C276.664 334.92 282.268 325.732 284.208 323.469C286.633 320.64 292.696 318.215 295.929 316.194C299.163 314.173 300.779 310.536 295.929 311.748C292.049 312.718 292.426 310.805 293.1 309.727C293.774 307.706 295.929 302.371 299.163 297.198C302.396 292.025 299.971 293.426 298.354 294.773L291.483 301.644C292.292 300.701 294.232 297.683 295.525 293.157C296.818 288.63 294.178 291.27 292.696 293.157C291.483 294.369 288.25 299.219 286.229 302.857C287.846 299.3 289.058 295.447 289.463 293.966C290.271 291.136 288.051 292.598 286.633 294.37C285.017 296.391 282.996 300.567 281.783 303.261C282.322 301.914 283.481 298.815 283.804 297.199C284.208 295.178 284.208 294.774 282.592 296.39C279.358 299.22 278.954 301.24 275.721 312.153Z" fill="#FFC7C7"/>
<path d="M132.242 438.657L124.159 647.612L150.43 649.633L172.255 485.945L183.167 649.633H206.205L208.226 438.657H132.242Z" fill="#0D264A"/>
<path d="M150.428 645.995L124.561 645.591H124.157L120.924 660.95H162.957C164.574 650.28 155.278 646.534 150.428 645.995Z" fill="#06152C"/>
<path d="M179.559 660.91L182.792 645.551H207.447C225.23 648.138 227.79 656.868 226.847 660.91H179.559Z" fill="#06152C"/>
<path d="M209.841 358.228V321.853L247.429 344.487L271.275 317.811C273.7 319.293 279.763 323.066 284.613 326.299C268.042 359.441 257.937 367.524 256.321 368.737C254.704 369.949 253.492 370.757 249.046 370.353C232.879 370.03 216.173 362.135 209.841 358.228Z" fill="#122D53"/>
<path d="M153.258 311.749L155.279 299.219L176.296 300.432L178.721 310.536L169.425 323.469L153.258 311.749Z" fill="#FFC7C7"/>
<path d="M156.345 311.051C152.932 311.904 147.33 313.904 144.366 314.982L155.278 445.932H189.633L185.995 312.152L177.103 310.132L169.02 320.64C165.787 318.484 158.285 313.314 156.345 311.051Z" fill="#00A3FE"/>
<path d="M211.488 322.622C200.818 315.832 188.69 312.557 183.975 311.749L181.55 343.274V352.166L184.379 464.929L211.458 468.566C211.458 421.279 211.488 325.855 211.488 322.622Z" fill="#163561"/>
<path d="M121.329 327.107C129.089 320.641 143.154 315.252 149.216 313.366L158.916 346.912L161.341 464.929L126.179 468.566L121.329 327.107Z" fill="#163561"/>
<path fill-rule="evenodd" clip-rule="evenodd" d="M156.345 311.051L166.585 318.304V325.984L153.635 312.126L156.345 311.051Z" fill="#89C2D9"/>
<path fill-rule="evenodd" clip-rule="evenodd" d="M166.585 318.304L164.878 402.508L172.498 414.134L179.926 402.52L171.252 317.877L166.585 318.304Z" fill="#00243D"/>
<path d="M177.912 308.111C161.422 310.051 154.875 301.914 154.066 298.007L177.942 299.988L177.912 308.111Z" fill="#F3B1B1"/>
<path d="M177.913 304.07C157.866 306.657 148.274 296.526 145.983 291.137C138.304 255.166 175.083 246.274 182.358 255.974C189.633 265.674 189.199 279.456 187.208 285.883C185.217 292.309 186.4 298.412 177.913 304.07Z" fill="#FFC7C7"/>
<path d="M160.129 244.656C149.135 248.213 142.615 253.413 140.728 255.569C136.202 258.155 135.07 266.616 135.07 270.523C135.878 274.16 136.283 284.669 144.366 293.965C150.519 301.04 151.102 295.716 150.428 292.348C150.024 290.866 149.054 286.609 148.408 281.435C148.003 274.969 154.066 276.585 154.47 281.435C154.874 286.285 156.895 284.265 157.703 282.244C158.35 280.627 158.781 275.642 158.916 273.352C160.533 260.742 173.062 265.314 184.379 266.885C198.929 268.906 194.887 260.015 189.633 251.123C185.591 243.444 177.238 243.039 173.062 243.039C171.176 242.905 165.949 243.039 160.129 244.656Z" fill="#163561"/>
<path d="M142.749 347.719C144.366 324.439 129.816 322.66 121.328 327.107C116.074 333.978 109.607 353.781 107.587 369.948C105.566 386.114 104.757 397.027 109.607 409.96C113.487 420.307 123.619 438.522 128.199 446.335L142.345 436.231L129.816 398.644C133.373 385.064 139.92 359.036 142.749 347.719Z" fill="#224373"/>
<path fill-rule="evenodd" clip-rule="evenodd" d="M176.597 310.157C177.197 310.078 180.1 310.751 180.1 310.751L171.705 322.144L171.278 317.877C171.278 317.877 175.997 310.25 176.588 310.168L176.597 310.157Z" fill="#89C2D9"/>
<defs>
<filter id="filter0_d_223_972" x="519.62" y="159.05" width="26.8939" height="26.8939" filterUnits="userSpaceOnUse" color-interpolation-filters="sRGB">
<feFlood flood-opacity="0" result="BackgroundImageFix"/>
<feColorMatrix in="SourceAlpha" type="matrix" values="0 0 0 0 0 0 0 0 0 0 0 0 0 0 0 0 0 0 127 0" result="hardAlpha"/>
<feOffset dy="2"/>
<feGaussianBlur stdDeviation="4"/>
<feComposite in2="hardAlpha" operator="out"/>
<feColorMatrix type="matrix" values="0 0 0 0 0.201043 0 0 0 0 0.167438 0 0 0 0 0.5875 0 0 0 0.12 0"/>
<feBlend mode="normal" in2="BackgroundImageFix" result="effect1_dropShadow_223_972"/>
<feBlend mode="normal" in="SourceGraphic" in2="effect1_dropShadow_223_972" result="shape"/>
</filter>
<filter id="filter1_d_223_972" x="591.822" y="137.022" width="26.8939" height="26.8939" filterUnits="userSpaceOnUse" color-interpolation-filters="sRGB">
<feFlood flood-opacity="0" result="BackgroundImageFix"/>
<feColorMatrix in="SourceAlpha" type="matrix" values="0 0 0 0 0 0 0 0 0 0 0 0 0 0 0 0 0 0 127 0" result="hardAlpha"/>
<feOffset dy="2"/>
<feGaussianBlur stdDeviation="4"/>
<feComposite in2="hardAlpha" operator="out"/>
<feColorMatrix type="matrix" values="0 0 0 0 0.201043 0 0 0 0 0.167438 0 0 0 0 0.5875 0 0 0 0.12 0"/>
<feBlend mode="normal" in2="BackgroundImageFix" result="effect1_dropShadow_223_972"/>
<feBlend mode="normal" in="SourceGraphic" in2="effect1_dropShadow_223_972" result="shape"/>
</filter>
<filter id="filter2_d_223_972" x="390.901" y="194.761" width="16.1691" height="16.1691" filterUnits="userSpaceOnUse" color-interpolation-filters="sRGB">
<feFlood flood-opacity="0" result="BackgroundImageFix"/>
<feColorMatrix in="SourceAlpha" type="matrix" values="0 0 0 0 0 0 0 0 0 0 0 0 0 0 0 0 0 0 127 0" result="hardAlpha"/>
<feOffset dy="2"/>
<feGaussianBlur stdDeviation="2"/>
<feComposite in2="hardAlpha" operator="out"/>
<feColorMatrix type="matrix" values="0 0 0 0 0.443137 0 0 0 0 0.517647 0 0 0 0 0.819608 0 0 0 0.16 0"/>
<feBlend mode="normal" in2="BackgroundImageFix" result="effect1_dropShadow_223_972"/>
<feBlend mode="normal" in="SourceGraphic" in2="effect1_dropShadow_223_972" result="shape"/>
</filter>
<linearGradient id="paint0_linear_223_972" x1="702.556" y1="52.0666" x2="690.323" y2="109.692" gradientUnits="userSpaceOnUse">
<stop stop-color="#00A3FE"/>
<stop offset="1" stop-color="#0047FE"/>
</linearGradient>
<linearGradient id="paint1_linear_223_972" x1="250.485" y1="294.086" x2="255.219" y2="301.436" gradientUnits="userSpaceOnUse">
<stop stop-color="#50AF9A"/>
<stop offset="1" stop-color="#349B44"/>
</linearGradient>
<linearGradient id="paint2_linear_223_972" x1="231.751" y1="265.102" x2="249.367" y2="292.455" gradientUnits="userSpaceOnUse">
<stop stop-color="#FBE0B3"/>
<stop offset="1" stop-color="#FFCB6A"/>
</linearGradient>
<linearGradient id="paint3_linear_223_972" x1="380.362" y1="546.34" x2="380.362" y2="585.43" gradientUnits="userSpaceOnUse">
<stop stop-color="#50AF9A"/>
<stop offset="1" stop-color="#349B44"/>
</linearGradient>
<linearGradient id="paint4_linear_223_972" x1="353.408" y1="573.899" x2="353.408" y2="609.09" gradientUnits="userSpaceOnUse">
<stop stop-color="#50AF9A"/>
<stop offset="1" stop-color="#349B44"/>
</linearGradient>
<linearGradient id="paint5_linear_223_972" x1="379.505" y1="609.781" x2="331.005" y2="602.464" gradientUnits="userSpaceOnUse">
<stop stop-color="white"/>
<stop offset="1" stop-color="white"/>
</linearGradient>
<linearGradient id="paint6_linear_223_972" x1="443.039" y1="561.947" x2="443.039" y2="590.164" gradientUnits="userSpaceOnUse">
<stop stop-color="#50AF9A"/>
<stop offset="1" stop-color="#349B44"/>
</linearGradient>
<linearGradient id="paint7_linear_223_972" x1="394.878" y1="542.724" x2="394.878" y2="555.523" gradientUnits="userSpaceOnUse">
<stop stop-color="#337F6D"/>
<stop offset="1" stop-color="#5FDBBD"/>
</linearGradient>
<linearGradient id="paint8_linear_223_972" x1="346.671" y1="585.326" x2="349.768" y2="569.24" gradientUnits="userSpaceOnUse">
<stop stop-color="white"/>
<stop offset="1" stop-color="#5B2B00"/>
</linearGradient>
<linearGradient id="paint9_linear_223_972" x1="342.932" y1="565.592" x2="343.545" y2="562.405" gradientUnits="userSpaceOnUse">
<stop stop-color="white"/>
<stop offset="1" stop-color="#5B2B00"/>
</linearGradient>
<linearGradient id="paint10_linear_223_972" x1="447.471" y1="572.325" x2="447.471" y2="599.77" gradientUnits="userSpaceOnUse">
<stop stop-color="#50AF9A"/>
<stop offset="1" stop-color="#349B44"/>
</linearGradient>
<linearGradient id="paint11_linear_223_972" x1="452.401" y1="600.684" x2="428.489" y2="597.935" gradientUnits="userSpaceOnUse">
<stop stop-color="white"/>
<stop offset="1" stop-color="white"/>
</linearGradient>
<linearGradient id="paint12_linear_223_972" x1="458.551" y1="591.813" x2="457.081" y2="589.564" gradientUnits="userSpaceOnUse">
<stop stop-color="white"/>
<stop offset="1" stop-color="#5B2B00"/>
</linearGradient>
<linearGradient id="paint13_linear_223_972" x1="459.703" y1="610.773" x2="447.882" y2="610.261" gradientUnits="userSpaceOnUse">
<stop stop-color="white"/>
<stop offset="1" stop-color="white"/>
</linearGradient>
<linearGradient id="paint14_linear_223_972" x1="398.713" y1="527.175" x2="453.839" y2="568.679" gradientUnits="userSpaceOnUse">
<stop offset="0.00540541" stop-color="#DDF25C"/>
<stop offset="0.2342" stop-color="#DDE767"/>
<stop offset="0.6581" stop-color="#6064CA"/>
<stop offset="0.9946" stop-color="#40A8AF"/>
</linearGradient>
<linearGradient id="paint15_linear_223_972" x1="415.268" y1="538.473" x2="416.648" y2="539.344" gradientUnits="userSpaceOnUse">
<stop offset="0.3659" stop-color="white"/>
<stop offset="0.5772" stop-color="#D3A1B9"/>
<stop offset="0.7848" stop-color="#AB4A78"/>
<stop offset="0.9297" stop-color="#921550"/>
<stop offset="1" stop-color="#880041"/>
</linearGradient>
<linearGradient id="paint16_linear_223_972" x1="479.876" y1="562.575" x2="434.034" y2="571.84" gradientUnits="userSpaceOnUse">
<stop stop-color="white"/>
<stop offset="1" stop-color="#5B2B00"/>
</linearGradient>
<linearGradient id="paint17_linear_223_972" x1="425.95" y1="553.238" x2="425.392" y2="552.403" gradientUnits="userSpaceOnUse">
<stop stop-color="white"/>
<stop offset="1" stop-color="#5B2B00"/>
</linearGradient>
<linearGradient id="paint18_linear_223_972" x1="436.225" y1="546.204" x2="436.225" y2="568.391" gradientUnits="userSpaceOnUse">
<stop stop-color="#337F6D"/>
<stop offset="1" stop-color="#5FDBBD"/>
</linearGradient>
<linearGradient id="paint19_linear_223_972" x1="458.217" y1="554.868" x2="457.017" y2="553.073" gradientUnits="userSpaceOnUse">
<stop stop-color="white"/>
<stop offset="1" stop-color="#5B2B00"/>
</linearGradient>
<linearGradient id="paint20_linear_223_972" x1="450.47" y1="557.759" x2="420.276" y2="545.474" gradientUnits="userSpaceOnUse">
<stop stop-color="white"/>
<stop offset="1" stop-color="white"/>
</linearGradient>
<linearGradient id="paint21_linear_223_972" x1="399.728" y1="555.399" x2="435.523" y2="582.348" gradientUnits="userSpaceOnUse">
<stop offset="0.00540541" stop-color="#DDF25C"/>
<stop offset="0.2342" stop-color="#DDE767"/>
<stop offset="0.6581" stop-color="#6064CA"/>
<stop offset="0.9946" stop-color="#40A8AF"/>
</linearGradient>
<linearGradient id="paint22_linear_223_972" x1="410.473" y1="562.743" x2="411.37" y2="563.308" gradientUnits="userSpaceOnUse">
<stop offset="0.3659" stop-color="white"/>
<stop offset="0.5772" stop-color="#D3A1B9"/>
<stop offset="0.7848" stop-color="#AB4A78"/>
<stop offset="0.9297" stop-color="#921550"/>
<stop offset="1" stop-color="#880041"/>
</linearGradient>
<linearGradient id="paint23_linear_223_972" x1="402.991" y1="572.548" x2="402.991" y2="619.59" gradientUnits="userSpaceOnUse">
<stop stop-color="#50AF9A"/>
<stop offset="1" stop-color="#349B44"/>
</linearGradient>
<linearGradient id="paint24_linear_223_972" x1="410.195" y1="634.364" x2="380.574" y2="632.547" gradientUnits="userSpaceOnUse">
<stop stop-color="white"/>
<stop offset="1" stop-color="white"/>
</linearGradient>
<linearGradient id="paint25_linear_223_972" x1="414.422" y1="612.695" x2="415.805" y2="609.41" gradientUnits="userSpaceOnUse">
<stop stop-color="white"/>
<stop offset="1" stop-color="#5B2B00"/>
</linearGradient>
<linearGradient id="paint26_linear_223_972" x1="427.373" y1="636.665" x2="402.91" y2="634.984" gradientUnits="userSpaceOnUse">
<stop stop-color="white"/>
<stop offset="1" stop-color="white"/>
</linearGradient>
<linearGradient id="paint27_linear_223_972" x1="333.938" y1="556.787" x2="333.938" y2="590.084" gradientUnits="userSpaceOnUse">
<stop stop-color="#337F6D"/>
<stop offset="1" stop-color="#5FDBBD"/>
</linearGradient>
<linearGradient id="paint28_linear_223_972" x1="310.835" y1="583.952" x2="311.407" y2="580.984" gradientUnits="userSpaceOnUse">
<stop stop-color="white"/>
<stop offset="1" stop-color="#5B2B00"/>
</linearGradient>
<linearGradient id="paint29_linear_223_972" x1="341.596" y1="597.781" x2="306.34" y2="593.853" gradientUnits="userSpaceOnUse">
<stop stop-color="white"/>
<stop offset="1" stop-color="white"/>
</linearGradient>
</defs>
</svg>
